%TF.GenerationSoftware,KiCad,Pcbnew,6.0.11+dfsg-1*%
%TF.ProjectId,project,70726f6a-6563-4742-9e6b-696361645f70,rev?*%
%TF.SameCoordinates,Original*%
%TF.FileFunction,Drillmap*%
%TF.FilePolarity,Positive*%
%FSLAX45Y45*%
G04 Gerber Fmt 4.5, Leading zero omitted, Abs format (unit mm)*
%MOMM*%
%LPD*%
G01*
G04 APERTURE LIST*
%ADD10C,0.100000*%
%ADD11C,0.200000*%
G04 APERTURE END LIST*
D10*
X19726250Y-11403750D02*
X19826250Y-11353750D01*
X14226250Y-15403750D02*
X14326250Y-15453750D01*
X17726250Y-14753750D02*
G75*
G03*
X17726250Y-14353750I0J200000D01*
G01*
X13926250Y-15403750D02*
X14226250Y-15403750D01*
X19426250Y-15403750D02*
X19726250Y-15403750D01*
X20876250Y-13153750D02*
X20876250Y-13653750D01*
X13926250Y-11403750D02*
X14226250Y-11403750D01*
X20876250Y-15453750D02*
G75*
G03*
X21026250Y-15303750I0J150000D01*
G01*
X14226250Y-11403750D02*
X14326250Y-11353750D01*
X20876250Y-13653750D02*
G75*
G03*
X20976250Y-13753750I100000J0D01*
G01*
X19826250Y-11353750D02*
X20876250Y-11353750D01*
X20976250Y-13053750D02*
G75*
G03*
X20876250Y-13153750I0J-100000D01*
G01*
X13826250Y-11353750D02*
X12776250Y-11353750D01*
X12626250Y-15303750D02*
X12626250Y-11503750D01*
X21026250Y-13803750D02*
X21026250Y-15303750D01*
X12776250Y-11353750D02*
G75*
G03*
X12626250Y-11503750I0J-150000D01*
G01*
X19826250Y-15453750D02*
X20876250Y-15453750D01*
X19726250Y-15403750D02*
X19826250Y-15453750D01*
X19426250Y-11403750D02*
X19726250Y-11403750D01*
X21026250Y-13803750D02*
G75*
G03*
X20976250Y-13753750I-50000J0D01*
G01*
X13826250Y-15453750D02*
X12776250Y-15453750D01*
X13926250Y-11403750D02*
X13826250Y-11353750D01*
X17726250Y-14753750D02*
X15926250Y-14753750D01*
X12626250Y-15303750D02*
G75*
G03*
X12776250Y-15453750I150000J0D01*
G01*
X15926250Y-14353750D02*
X17726250Y-14353750D01*
X13926250Y-15403750D02*
X13826250Y-15453750D01*
X20976250Y-13053750D02*
G75*
G03*
X21026250Y-13003750I0J50000D01*
G01*
X21026250Y-13003750D02*
X21026250Y-11503750D01*
X15926250Y-14353750D02*
G75*
G03*
X15926250Y-14753750I0J-200000D01*
G01*
X14326250Y-11353750D02*
X19326250Y-11353750D01*
X21026250Y-11503750D02*
G75*
G03*
X20876250Y-11353750I-150000J0D01*
G01*
X19426250Y-15403750D02*
X19326250Y-15453750D01*
X19426250Y-11403750D02*
X19326250Y-11353750D01*
X19326250Y-15453750D02*
X14326250Y-15453750D01*
D11*
X12878869Y-15769226D02*
X12878869Y-15569226D01*
X12926488Y-15569226D01*
X12955059Y-15578750D01*
X12974107Y-15597798D01*
X12983631Y-15616845D01*
X12993155Y-15654940D01*
X12993155Y-15683512D01*
X12983631Y-15721607D01*
X12974107Y-15740655D01*
X12955059Y-15759702D01*
X12926488Y-15769226D01*
X12878869Y-15769226D01*
X13078869Y-15769226D02*
X13078869Y-15635893D01*
X13078869Y-15673988D02*
X13088393Y-15654940D01*
X13097917Y-15645417D01*
X13116964Y-15635893D01*
X13136012Y-15635893D01*
X13202678Y-15769226D02*
X13202678Y-15635893D01*
X13202678Y-15569226D02*
X13193155Y-15578750D01*
X13202678Y-15588274D01*
X13212202Y-15578750D01*
X13202678Y-15569226D01*
X13202678Y-15588274D01*
X13326488Y-15769226D02*
X13307440Y-15759702D01*
X13297917Y-15740655D01*
X13297917Y-15569226D01*
X13431250Y-15769226D02*
X13412202Y-15759702D01*
X13402678Y-15740655D01*
X13402678Y-15569226D01*
X13659821Y-15769226D02*
X13659821Y-15569226D01*
X13726488Y-15712083D01*
X13793155Y-15569226D01*
X13793155Y-15769226D01*
X13974107Y-15769226D02*
X13974107Y-15664464D01*
X13964583Y-15645417D01*
X13945536Y-15635893D01*
X13907440Y-15635893D01*
X13888393Y-15645417D01*
X13974107Y-15759702D02*
X13955059Y-15769226D01*
X13907440Y-15769226D01*
X13888393Y-15759702D01*
X13878869Y-15740655D01*
X13878869Y-15721607D01*
X13888393Y-15702559D01*
X13907440Y-15693036D01*
X13955059Y-15693036D01*
X13974107Y-15683512D01*
X14069345Y-15635893D02*
X14069345Y-15835893D01*
X14069345Y-15645417D02*
X14088393Y-15635893D01*
X14126488Y-15635893D01*
X14145536Y-15645417D01*
X14155059Y-15654940D01*
X14164583Y-15673988D01*
X14164583Y-15731131D01*
X14155059Y-15750178D01*
X14145536Y-15759702D01*
X14126488Y-15769226D01*
X14088393Y-15769226D01*
X14069345Y-15759702D01*
X14250298Y-15750178D02*
X14259821Y-15759702D01*
X14250298Y-15769226D01*
X14240774Y-15759702D01*
X14250298Y-15750178D01*
X14250298Y-15769226D01*
X14250298Y-15645417D02*
X14259821Y-15654940D01*
X14250298Y-15664464D01*
X14240774Y-15654940D01*
X14250298Y-15645417D01*
X14250298Y-15664464D01*
M02*
