%TF.GenerationSoftware,KiCad,Pcbnew,6.0.11+dfsg-1*%
%TF.ProjectId,project,70726f6a-6563-4742-9e6b-696361645f70,rev?*%
%TF.SameCoordinates,Original*%
%TF.FileFunction,Drillmap*%
%TF.FilePolarity,Positive*%
%FSLAX45Y45*%
G04 Gerber Fmt 4.5, Leading zero omitted, Abs format (unit mm)*
%MOMM*%
%LPD*%
G01*
G04 APERTURE LIST*
%ADD10C,0.100000*%
%ADD11C,0.200000*%
%ADD12C,0.030000*%
%ADD13C,0.050000*%
%ADD14C,0.090000*%
%ADD15C,0.120000*%
%ADD16C,0.320000*%
G04 APERTURE END LIST*
D10*
X19726250Y-11403750D02*
X19826250Y-11353750D01*
X14226250Y-15403750D02*
X14326250Y-15453750D01*
X17726250Y-14753750D02*
G75*
G03*
X17726250Y-14353750I0J200000D01*
G01*
X13926250Y-15403750D02*
X14226250Y-15403750D01*
X19426250Y-15403750D02*
X19726250Y-15403750D01*
X20876250Y-13153750D02*
X20876250Y-13653750D01*
X13926250Y-11403750D02*
X14226250Y-11403750D01*
X20876250Y-15453750D02*
G75*
G03*
X21026250Y-15303750I0J150000D01*
G01*
X14226250Y-11403750D02*
X14326250Y-11353750D01*
X20876250Y-13653750D02*
G75*
G03*
X20976250Y-13753750I100000J0D01*
G01*
X19826250Y-11353750D02*
X20876250Y-11353750D01*
X20976250Y-13053750D02*
G75*
G03*
X20876250Y-13153750I0J-100000D01*
G01*
X13826250Y-11353750D02*
X12776250Y-11353750D01*
X12626250Y-15303750D02*
X12626250Y-11503750D01*
X21026250Y-13803750D02*
X21026250Y-15303750D01*
X12776250Y-11353750D02*
G75*
G03*
X12626250Y-11503750I0J-150000D01*
G01*
X19826250Y-15453750D02*
X20876250Y-15453750D01*
X19726250Y-15403750D02*
X19826250Y-15453750D01*
X19426250Y-11403750D02*
X19726250Y-11403750D01*
X21026250Y-13803750D02*
G75*
G03*
X20976250Y-13753750I-50000J0D01*
G01*
X13826250Y-15453750D02*
X12776250Y-15453750D01*
X13926250Y-11403750D02*
X13826250Y-11353750D01*
X17726250Y-14753750D02*
X15926250Y-14753750D01*
X12626250Y-15303750D02*
G75*
G03*
X12776250Y-15453750I150000J0D01*
G01*
X15926250Y-14353750D02*
X17726250Y-14353750D01*
X13926250Y-15403750D02*
X13826250Y-15453750D01*
X20976250Y-13053750D02*
G75*
G03*
X21026250Y-13003750I0J50000D01*
G01*
X21026250Y-13003750D02*
X21026250Y-11503750D01*
X15926250Y-14353750D02*
G75*
G03*
X15926250Y-14753750I0J-200000D01*
G01*
X14326250Y-11353750D02*
X19326250Y-11353750D01*
X21026250Y-11503750D02*
G75*
G03*
X20876250Y-11353750I-150000J0D01*
G01*
X19426250Y-15403750D02*
X19326250Y-15453750D01*
X19426250Y-11403750D02*
X19326250Y-11353750D01*
X19326250Y-15453750D02*
X14326250Y-15453750D01*
D11*
D12*
X12711250Y-11588750D02*
X12741250Y-11618750D01*
X12741250Y-11588750D02*
X12711250Y-11618750D01*
X12811250Y-11488750D02*
X12841250Y-11518750D01*
X12841250Y-11488750D02*
X12811250Y-11518750D01*
X12811250Y-12188750D02*
X12841250Y-12218750D01*
X12841250Y-12188750D02*
X12811250Y-12218750D01*
X12811250Y-12388750D02*
X12841250Y-12418750D01*
X12841250Y-12388750D02*
X12811250Y-12418750D01*
X13011250Y-12188750D02*
X13041250Y-12218750D01*
X13041250Y-12188750D02*
X13011250Y-12218750D01*
X13011250Y-12388750D02*
X13041250Y-12418750D01*
X13041250Y-12388750D02*
X13011250Y-12418750D01*
X13111250Y-14288750D02*
X13141250Y-14318750D01*
X13141250Y-14288750D02*
X13111250Y-14318750D01*
X13111250Y-14488750D02*
X13141250Y-14518750D01*
X13141250Y-14488750D02*
X13111250Y-14518750D01*
X13111250Y-14688750D02*
X13141250Y-14718750D01*
X13141250Y-14688750D02*
X13111250Y-14718750D01*
X13111250Y-14888750D02*
X13141250Y-14918750D01*
X13141250Y-14888750D02*
X13111250Y-14918750D01*
X13411250Y-11488750D02*
X13441250Y-11518750D01*
X13441250Y-11488750D02*
X13411250Y-11518750D01*
X13411250Y-11688750D02*
X13441250Y-11718750D01*
X13441250Y-11688750D02*
X13411250Y-11718750D01*
X13411250Y-12738750D02*
X13441250Y-12768750D01*
X13441250Y-12738750D02*
X13411250Y-12768750D01*
X13411250Y-14038750D02*
X13441250Y-14068750D01*
X13441250Y-14038750D02*
X13411250Y-14068750D01*
X13411250Y-14288750D02*
X13441250Y-14318750D01*
X13441250Y-14288750D02*
X13411250Y-14318750D01*
X13411250Y-14488750D02*
X13441250Y-14518750D01*
X13441250Y-14488750D02*
X13411250Y-14518750D01*
X13461250Y-13338750D02*
X13491250Y-13368750D01*
X13491250Y-13338750D02*
X13461250Y-13368750D01*
X13461250Y-13438750D02*
X13491250Y-13468750D01*
X13491250Y-13438750D02*
X13461250Y-13468750D01*
X13461250Y-13688750D02*
X13491250Y-13718750D01*
X13491250Y-13688750D02*
X13461250Y-13718750D01*
X13511250Y-14588750D02*
X13541250Y-14618750D01*
X13541250Y-14588750D02*
X13511250Y-14618750D01*
X13511250Y-14688750D02*
X13541250Y-14718750D01*
X13541250Y-14688750D02*
X13511250Y-14718750D01*
X13511250Y-14888750D02*
X13541250Y-14918750D01*
X13541250Y-14888750D02*
X13511250Y-14918750D01*
X13561250Y-12488750D02*
X13591250Y-12518750D01*
X13591250Y-12488750D02*
X13561250Y-12518750D01*
X13561250Y-13338750D02*
X13591250Y-13368750D01*
X13591250Y-13338750D02*
X13561250Y-13368750D01*
X13561250Y-13438750D02*
X13591250Y-13468750D01*
X13591250Y-13438750D02*
X13561250Y-13468750D01*
X13591300Y-13663800D02*
X13621300Y-13693800D01*
X13621300Y-13663800D02*
X13591300Y-13693800D01*
X13591300Y-13733750D02*
X13621300Y-13763750D01*
X13621300Y-13733750D02*
X13591300Y-13763750D01*
X13605000Y-12175000D02*
X13635000Y-12205000D01*
X13635000Y-12175000D02*
X13605000Y-12205000D01*
X13611250Y-11488750D02*
X13641250Y-11518750D01*
X13641250Y-11488750D02*
X13611250Y-11518750D01*
X13611250Y-11688750D02*
X13641250Y-11718750D01*
X13641250Y-11688750D02*
X13611250Y-11718750D01*
X13683750Y-14263750D02*
X13713750Y-14293750D01*
X13713750Y-14263750D02*
X13683750Y-14293750D01*
X13695000Y-12085000D02*
X13725000Y-12115000D01*
X13725000Y-12085000D02*
X13695000Y-12115000D01*
X13695000Y-12285000D02*
X13725000Y-12315000D01*
X13725000Y-12285000D02*
X13695000Y-12315000D01*
X13711250Y-11608750D02*
X13741250Y-11638750D01*
X13741250Y-11608750D02*
X13711250Y-11638750D01*
X13711250Y-12488750D02*
X13741250Y-12518750D01*
X13741250Y-12488750D02*
X13711250Y-12518750D01*
X13711250Y-14088750D02*
X13741250Y-14118750D01*
X13741250Y-14088750D02*
X13711250Y-14118750D01*
X13781250Y-12178750D02*
X13811250Y-12208750D01*
X13811250Y-12178750D02*
X13781250Y-12208750D01*
X13796850Y-12524350D02*
X13826850Y-12554350D01*
X13826850Y-12524350D02*
X13796850Y-12554350D01*
X13811250Y-11608750D02*
X13841250Y-11638750D01*
X13841250Y-11608750D02*
X13811250Y-11638750D01*
X13811250Y-14188750D02*
X13841250Y-14218750D01*
X13841250Y-14188750D02*
X13811250Y-14218750D01*
X13861250Y-12488750D02*
X13891250Y-12518750D01*
X13891250Y-12488750D02*
X13861250Y-12518750D01*
X13909896Y-12330050D02*
X13939896Y-12360050D01*
X13939896Y-12330050D02*
X13909896Y-12360050D01*
X13911250Y-11608750D02*
X13941250Y-11638750D01*
X13941250Y-11608750D02*
X13911250Y-11638750D01*
X13911250Y-14088750D02*
X13941250Y-14118750D01*
X13941250Y-14088750D02*
X13911250Y-14118750D01*
X14011250Y-11608750D02*
X14041250Y-11638750D01*
X14041250Y-11608750D02*
X14011250Y-11638750D01*
X14011250Y-13288750D02*
X14041250Y-13318750D01*
X14041250Y-13288750D02*
X14011250Y-13318750D01*
X14011250Y-13488750D02*
X14041250Y-13518750D01*
X14041250Y-13488750D02*
X14011250Y-13518750D01*
X14011250Y-14188750D02*
X14041250Y-14218750D01*
X14041250Y-14188750D02*
X14011250Y-14218750D01*
X14049867Y-12569950D02*
X14079867Y-12599950D01*
X14079867Y-12569950D02*
X14049867Y-12599950D01*
X14058750Y-14538750D02*
X14088750Y-14568750D01*
X14088750Y-14538750D02*
X14058750Y-14568750D01*
X14111250Y-14088750D02*
X14141250Y-14118750D01*
X14141250Y-14088750D02*
X14111250Y-14118750D01*
X14131250Y-12868750D02*
X14161250Y-12898750D01*
X14161250Y-12868750D02*
X14131250Y-12898750D01*
X14131250Y-12928750D02*
X14161250Y-12958750D01*
X14161250Y-12928750D02*
X14131250Y-12958750D01*
X14173663Y-14623837D02*
X14203663Y-14653837D01*
X14203663Y-14623837D02*
X14173663Y-14653837D01*
X14181250Y-14413750D02*
X14211250Y-14443750D01*
X14211250Y-14413750D02*
X14181250Y-14443750D01*
X14211250Y-14188750D02*
X14241250Y-14218750D01*
X14241250Y-14188750D02*
X14211250Y-14218750D01*
X14211250Y-14288750D02*
X14241250Y-14318750D01*
X14241250Y-14288750D02*
X14211250Y-14318750D01*
X14258750Y-14588750D02*
X14288750Y-14618750D01*
X14288750Y-14588750D02*
X14258750Y-14618750D01*
X14261250Y-11638750D02*
X14291250Y-11668750D01*
X14291250Y-11638750D02*
X14261250Y-11668750D01*
X14261250Y-12338750D02*
X14291250Y-12368750D01*
X14291250Y-12338750D02*
X14261250Y-12368750D01*
X14261250Y-12488750D02*
X14291250Y-12518750D01*
X14291250Y-12488750D02*
X14261250Y-12518750D01*
X14290050Y-12788750D02*
X14320050Y-12818750D01*
X14320050Y-12788750D02*
X14290050Y-12818750D01*
X14308250Y-13568750D02*
X14338250Y-13598750D01*
X14338250Y-13568750D02*
X14308250Y-13598750D01*
X14311250Y-12288750D02*
X14341250Y-12318750D01*
X14341250Y-12288750D02*
X14311250Y-12318750D01*
X14311250Y-12538750D02*
X14341250Y-12568750D01*
X14341250Y-12538750D02*
X14311250Y-12568750D01*
X14333750Y-14413750D02*
X14363750Y-14443750D01*
X14363750Y-14413750D02*
X14333750Y-14443750D01*
X14361250Y-11638750D02*
X14391250Y-11668750D01*
X14391250Y-11638750D02*
X14361250Y-11668750D01*
X14361250Y-11938750D02*
X14391250Y-11968750D01*
X14391250Y-11938750D02*
X14361250Y-11968750D01*
X14361250Y-12338750D02*
X14391250Y-12368750D01*
X14391250Y-12338750D02*
X14361250Y-12368750D01*
X14361250Y-12488750D02*
X14391250Y-12518750D01*
X14391250Y-12488750D02*
X14361250Y-12518750D01*
X14361250Y-12938750D02*
X14391250Y-12968750D01*
X14391250Y-12938750D02*
X14361250Y-12968750D01*
X14411250Y-12288750D02*
X14441250Y-12318750D01*
X14441250Y-12288750D02*
X14411250Y-12318750D01*
X14411250Y-12538750D02*
X14441250Y-12568750D01*
X14441250Y-12538750D02*
X14411250Y-12568750D01*
X14412500Y-14585000D02*
X14442500Y-14615000D01*
X14442500Y-14585000D02*
X14412500Y-14615000D01*
X14428750Y-14493750D02*
X14458750Y-14523750D01*
X14458750Y-14493750D02*
X14428750Y-14523750D01*
X14458750Y-14688750D02*
X14488750Y-14718750D01*
X14488750Y-14688750D02*
X14458750Y-14718750D01*
X14461250Y-12338750D02*
X14491250Y-12368750D01*
X14491250Y-12338750D02*
X14461250Y-12368750D01*
X14461250Y-12488750D02*
X14491250Y-12518750D01*
X14491250Y-12488750D02*
X14461250Y-12518750D01*
X14511250Y-12288750D02*
X14541250Y-12318750D01*
X14541250Y-12288750D02*
X14511250Y-12318750D01*
X14511250Y-12538750D02*
X14541250Y-12568750D01*
X14541250Y-12538750D02*
X14511250Y-12568750D01*
X14528250Y-13588750D02*
X14558250Y-13618750D01*
X14558250Y-13588750D02*
X14528250Y-13618750D01*
X14556040Y-12793960D02*
X14586040Y-12823960D01*
X14586040Y-12793960D02*
X14556040Y-12823960D01*
X14608250Y-13588750D02*
X14638250Y-13618750D01*
X14638250Y-13588750D02*
X14608250Y-13618750D01*
X14631250Y-12648750D02*
X14661250Y-12678750D01*
X14661250Y-12648750D02*
X14631250Y-12678750D01*
X14662500Y-14585000D02*
X14692500Y-14615000D01*
X14692500Y-14585000D02*
X14662500Y-14615000D01*
X14711250Y-11488750D02*
X14741250Y-11518750D01*
X14741250Y-11488750D02*
X14711250Y-11518750D01*
X14711250Y-13288750D02*
X14741250Y-13318750D01*
X14741250Y-13288750D02*
X14711250Y-13318750D01*
X14731250Y-12348750D02*
X14761250Y-12378750D01*
X14761250Y-12348750D02*
X14731250Y-12378750D01*
X14751178Y-12687602D02*
X14781178Y-12717602D01*
X14781178Y-12687602D02*
X14751178Y-12717602D01*
X14758750Y-14513750D02*
X14788750Y-14543750D01*
X14788750Y-14513750D02*
X14758750Y-14543750D01*
X14811250Y-13388750D02*
X14841250Y-13418750D01*
X14841250Y-13388750D02*
X14811250Y-13418750D01*
X14842450Y-12719950D02*
X14872450Y-12749950D01*
X14872450Y-12719950D02*
X14842450Y-12749950D01*
X14891250Y-12228750D02*
X14921250Y-12258750D01*
X14921250Y-12228750D02*
X14891250Y-12258750D01*
X14911250Y-13288750D02*
X14941250Y-13318750D01*
X14941250Y-13288750D02*
X14911250Y-13318750D01*
X14911250Y-13488750D02*
X14941250Y-13518750D01*
X14941250Y-13488750D02*
X14911250Y-13518750D01*
X14931250Y-12348750D02*
X14961250Y-12378750D01*
X14961250Y-12348750D02*
X14931250Y-12378750D01*
X15011250Y-14388750D02*
X15041250Y-14418750D01*
X15041250Y-14388750D02*
X15011250Y-14418750D01*
X15011250Y-14588750D02*
X15041250Y-14618750D01*
X15041250Y-14588750D02*
X15011250Y-14618750D01*
X15011250Y-14788750D02*
X15041250Y-14818750D01*
X15041250Y-14788750D02*
X15011250Y-14818750D01*
X15071250Y-12208750D02*
X15101250Y-12238750D01*
X15101250Y-12208750D02*
X15071250Y-12238750D01*
X15191023Y-14289204D02*
X15221023Y-14319204D01*
X15221023Y-14289204D02*
X15191023Y-14319204D01*
X15211250Y-14588750D02*
X15241250Y-14618750D01*
X15241250Y-14588750D02*
X15211250Y-14618750D01*
X15211250Y-14788750D02*
X15241250Y-14818750D01*
X15241250Y-14788750D02*
X15211250Y-14818750D01*
X15311250Y-14288750D02*
X15341250Y-14318750D01*
X15341250Y-14288750D02*
X15311250Y-14318750D01*
X15361250Y-12338750D02*
X15391250Y-12368750D01*
X15391250Y-12338750D02*
X15361250Y-12368750D01*
X15361250Y-14188750D02*
X15391250Y-14218750D01*
X15391250Y-14188750D02*
X15361250Y-14218750D01*
X15393750Y-13038800D02*
X15423750Y-13068800D01*
X15423750Y-13038800D02*
X15393750Y-13068800D01*
X15411250Y-14588750D02*
X15441250Y-14618750D01*
X15441250Y-14588750D02*
X15411250Y-14618750D01*
X15411250Y-14788750D02*
X15441250Y-14818750D01*
X15441250Y-14788750D02*
X15411250Y-14818750D01*
X15511250Y-12288750D02*
X15541250Y-12318750D01*
X15541250Y-12288750D02*
X15511250Y-12318750D01*
X15611250Y-14388750D02*
X15641250Y-14418750D01*
X15641250Y-14388750D02*
X15611250Y-14418750D01*
X15611250Y-14588750D02*
X15641250Y-14618750D01*
X15641250Y-14588750D02*
X15611250Y-14618750D01*
X15611250Y-14788750D02*
X15641250Y-14818750D01*
X15641250Y-14788750D02*
X15611250Y-14818750D01*
X15661250Y-11938750D02*
X15691250Y-11968750D01*
X15691250Y-11938750D02*
X15661250Y-11968750D01*
X15671250Y-13258700D02*
X15701250Y-13288700D01*
X15701250Y-13258700D02*
X15671250Y-13288700D01*
X15711250Y-12288750D02*
X15741250Y-12318750D01*
X15741250Y-12288750D02*
X15711250Y-12318750D01*
X15711250Y-13088750D02*
X15741250Y-13118750D01*
X15741250Y-13088750D02*
X15711250Y-13118750D01*
X15711250Y-13488750D02*
X15741250Y-13518750D01*
X15741250Y-13488750D02*
X15711250Y-13518750D01*
X15811250Y-13288750D02*
X15841250Y-13318750D01*
X15841250Y-13288750D02*
X15811250Y-13318750D01*
X15811250Y-14088750D02*
X15841250Y-14118750D01*
X15841250Y-14088750D02*
X15811250Y-14118750D01*
X15861250Y-11938750D02*
X15891250Y-11968750D01*
X15891250Y-11938750D02*
X15861250Y-11968750D01*
X15861250Y-12338750D02*
X15891250Y-12368750D01*
X15891250Y-12338750D02*
X15861250Y-12368750D01*
X15861250Y-12563200D02*
X15891250Y-12593200D01*
X15891250Y-12563200D02*
X15861250Y-12593200D01*
X15861250Y-12998700D02*
X15891250Y-13028700D01*
X15891250Y-12998700D02*
X15861250Y-13028700D01*
X15949750Y-12377250D02*
X15979750Y-12407250D01*
X15979750Y-12377250D02*
X15949750Y-12407250D01*
X15961250Y-12998700D02*
X15991250Y-13028700D01*
X15991250Y-12998700D02*
X15961250Y-13028700D01*
X16111250Y-11588750D02*
X16141250Y-11618750D01*
X16141250Y-11588750D02*
X16111250Y-11618750D01*
X16111250Y-13888750D02*
X16141250Y-13918750D01*
X16141250Y-13888750D02*
X16111250Y-13918750D01*
X16111250Y-13988750D02*
X16141250Y-14018750D01*
X16141250Y-13988750D02*
X16111250Y-14018750D01*
X16111250Y-14088750D02*
X16141250Y-14118750D01*
X16141250Y-14088750D02*
X16111250Y-14118750D01*
X16211250Y-11688750D02*
X16241250Y-11718750D01*
X16241250Y-11688750D02*
X16211250Y-11718750D01*
X16251250Y-13708750D02*
X16281250Y-13738750D01*
X16281250Y-13708750D02*
X16251250Y-13738750D01*
X16311250Y-11788750D02*
X16341250Y-11818750D01*
X16341250Y-11788750D02*
X16311250Y-11818750D01*
X16311250Y-13888750D02*
X16341250Y-13918750D01*
X16341250Y-13888750D02*
X16311250Y-13918750D01*
X16311250Y-13988750D02*
X16341250Y-14018750D01*
X16341250Y-13988750D02*
X16311250Y-14018750D01*
X16311250Y-14088750D02*
X16341250Y-14118750D01*
X16341250Y-14088750D02*
X16311250Y-14118750D01*
X16511250Y-13688750D02*
X16541250Y-13718750D01*
X16541250Y-13688750D02*
X16511250Y-13718750D01*
X16561250Y-11728750D02*
X16591250Y-11758750D01*
X16591250Y-11728750D02*
X16561250Y-11758750D01*
X16565000Y-12025283D02*
X16595000Y-12055283D01*
X16595000Y-12025283D02*
X16565000Y-12055283D01*
X16611250Y-12288750D02*
X16641250Y-12318750D01*
X16641250Y-12288750D02*
X16611250Y-12318750D01*
X16666788Y-11734288D02*
X16696788Y-11764288D01*
X16696788Y-11734288D02*
X16666788Y-11764288D01*
X16711250Y-13688750D02*
X16741250Y-13718750D01*
X16741250Y-13688750D02*
X16711250Y-13718750D01*
X16761250Y-11738750D02*
X16791250Y-11768750D01*
X16791250Y-11738750D02*
X16761250Y-11768750D01*
X16771788Y-11999288D02*
X16801788Y-12029288D01*
X16801788Y-11999288D02*
X16771788Y-12029288D01*
X16811250Y-12218750D02*
X16841250Y-12248750D01*
X16841250Y-12218750D02*
X16811250Y-12248750D01*
X16811250Y-13888750D02*
X16841250Y-13918750D01*
X16841250Y-13888750D02*
X16811250Y-13918750D01*
X16811250Y-13988750D02*
X16841250Y-14018750D01*
X16841250Y-13988750D02*
X16811250Y-14018750D01*
X16811250Y-14088750D02*
X16841250Y-14118750D01*
X16841250Y-14088750D02*
X16811250Y-14118750D01*
X16861250Y-11738750D02*
X16891250Y-11768750D01*
X16891250Y-11738750D02*
X16861250Y-11768750D01*
X16871250Y-11998750D02*
X16901250Y-12028750D01*
X16901250Y-11998750D02*
X16871250Y-12028750D01*
X16911250Y-13688750D02*
X16941250Y-13718750D01*
X16941250Y-13688750D02*
X16911250Y-13718750D01*
X17011250Y-12288750D02*
X17041250Y-12318750D01*
X17041250Y-12288750D02*
X17011250Y-12318750D01*
X17011250Y-13888750D02*
X17041250Y-13918750D01*
X17041250Y-13888750D02*
X17011250Y-13918750D01*
X17011250Y-13988750D02*
X17041250Y-14018750D01*
X17041250Y-13988750D02*
X17011250Y-14018750D01*
X17011250Y-14088750D02*
X17041250Y-14118750D01*
X17041250Y-14088750D02*
X17011250Y-14118750D01*
X17061250Y-11728750D02*
X17091250Y-11758750D01*
X17091250Y-11728750D02*
X17061250Y-11758750D01*
X17111250Y-12488750D02*
X17141250Y-12518750D01*
X17141250Y-12488750D02*
X17111250Y-12518750D01*
X17111250Y-13688750D02*
X17141250Y-13718750D01*
X17141250Y-13688750D02*
X17111250Y-13718750D01*
X17311250Y-12088750D02*
X17341250Y-12118750D01*
X17341250Y-12088750D02*
X17311250Y-12118750D01*
X17311250Y-12288750D02*
X17341250Y-12318750D01*
X17341250Y-12288750D02*
X17311250Y-12318750D01*
X17311250Y-13888750D02*
X17341250Y-13918750D01*
X17341250Y-13888750D02*
X17311250Y-13918750D01*
X17351300Y-14097665D02*
X17381300Y-14127665D01*
X17381300Y-14097665D02*
X17351300Y-14127665D01*
X17361250Y-14188750D02*
X17391250Y-14218750D01*
X17391250Y-14188750D02*
X17361250Y-14218750D01*
X17411250Y-12588750D02*
X17441250Y-12618750D01*
X17441250Y-12588750D02*
X17411250Y-12618750D01*
X17411250Y-12788750D02*
X17441250Y-12818750D01*
X17441250Y-12788750D02*
X17411250Y-12818750D01*
X17411250Y-13688750D02*
X17441250Y-13718750D01*
X17441250Y-13688750D02*
X17411250Y-13718750D01*
X17511250Y-11888750D02*
X17541250Y-11918750D01*
X17541250Y-11888750D02*
X17511250Y-11918750D01*
X17511250Y-12088750D02*
X17541250Y-12118750D01*
X17541250Y-12088750D02*
X17511250Y-12118750D01*
X17511250Y-12838750D02*
X17541250Y-12868750D01*
X17541250Y-12838750D02*
X17511250Y-12868750D01*
X17608356Y-13785856D02*
X17638356Y-13815856D01*
X17638356Y-13785856D02*
X17608356Y-13815856D01*
X17611250Y-12988750D02*
X17641250Y-13018750D01*
X17641250Y-12988750D02*
X17611250Y-13018750D01*
X17661250Y-13688750D02*
X17691250Y-13718750D01*
X17691250Y-13688750D02*
X17661250Y-13718750D01*
X17711250Y-11488750D02*
X17741250Y-11518750D01*
X17741250Y-11488750D02*
X17711250Y-11518750D01*
X17711250Y-12388750D02*
X17741250Y-12418750D01*
X17741250Y-12388750D02*
X17711250Y-12418750D01*
X17711250Y-12588750D02*
X17741250Y-12618750D01*
X17741250Y-12588750D02*
X17711250Y-12618750D01*
X17811250Y-13648750D02*
X17841250Y-13678750D01*
X17841250Y-13648750D02*
X17811250Y-13678750D01*
X17911250Y-11488750D02*
X17941250Y-11518750D01*
X17941250Y-11488750D02*
X17911250Y-11518750D01*
X17911250Y-12288750D02*
X17941250Y-12318750D01*
X17941250Y-12288750D02*
X17911250Y-12318750D01*
X17911250Y-13688750D02*
X17941250Y-13718750D01*
X17941250Y-13688750D02*
X17911250Y-13718750D01*
X17911250Y-14788750D02*
X17941250Y-14818750D01*
X17941250Y-14788750D02*
X17911250Y-14818750D01*
X18011250Y-11988750D02*
X18041250Y-12018750D01*
X18041250Y-11988750D02*
X18011250Y-12018750D01*
X18011250Y-12088750D02*
X18041250Y-12118750D01*
X18041250Y-12088750D02*
X18011250Y-12118750D01*
X18011250Y-13738750D02*
X18041250Y-13768750D01*
X18041250Y-13738750D02*
X18011250Y-13768750D01*
X18011250Y-14688750D02*
X18041250Y-14718750D01*
X18041250Y-14688750D02*
X18011250Y-14718750D01*
X18111250Y-11488750D02*
X18141250Y-11518750D01*
X18141250Y-11488750D02*
X18111250Y-11518750D01*
X18111250Y-11888750D02*
X18141250Y-11918750D01*
X18141250Y-11888750D02*
X18111250Y-11918750D01*
X18111250Y-12288750D02*
X18141250Y-12318750D01*
X18141250Y-12288750D02*
X18111250Y-12318750D01*
X18111250Y-13088750D02*
X18141250Y-13118750D01*
X18141250Y-13088750D02*
X18111250Y-13118750D01*
X18111250Y-14188750D02*
X18141250Y-14218750D01*
X18141250Y-14188750D02*
X18111250Y-14218750D01*
X18161250Y-14338750D02*
X18191250Y-14368750D01*
X18191250Y-14338750D02*
X18161250Y-14368750D01*
X18211250Y-12888750D02*
X18241250Y-12918750D01*
X18241250Y-12888750D02*
X18211250Y-12918750D01*
X18261250Y-14338750D02*
X18291250Y-14368750D01*
X18291250Y-14338750D02*
X18261250Y-14368750D01*
X18311250Y-11488750D02*
X18341250Y-11518750D01*
X18341250Y-11488750D02*
X18311250Y-11518750D01*
X18311250Y-11888750D02*
X18341250Y-11918750D01*
X18341250Y-11888750D02*
X18311250Y-11918750D01*
X18311250Y-12388750D02*
X18341250Y-12418750D01*
X18341250Y-12388750D02*
X18311250Y-12418750D01*
X18311250Y-12788750D02*
X18341250Y-12818750D01*
X18341250Y-12788750D02*
X18311250Y-12818750D01*
X18311250Y-13988750D02*
X18341250Y-14018750D01*
X18341250Y-13988750D02*
X18311250Y-14018750D01*
X18361250Y-14338750D02*
X18391250Y-14368750D01*
X18391250Y-14338750D02*
X18361250Y-14368750D01*
X18411250Y-11988750D02*
X18441250Y-12018750D01*
X18441250Y-11988750D02*
X18411250Y-12018750D01*
X18411250Y-14388750D02*
X18441250Y-14418750D01*
X18441250Y-14388750D02*
X18411250Y-14418750D01*
X18411250Y-14488750D02*
X18441250Y-14518750D01*
X18441250Y-14488750D02*
X18411250Y-14518750D01*
X18411250Y-14588750D02*
X18441250Y-14618750D01*
X18441250Y-14588750D02*
X18411250Y-14618750D01*
X18511250Y-11488750D02*
X18541250Y-11518750D01*
X18541250Y-11488750D02*
X18511250Y-11518750D01*
X18511250Y-12088750D02*
X18541250Y-12118750D01*
X18541250Y-12088750D02*
X18511250Y-12118750D01*
X18511250Y-12788750D02*
X18541250Y-12818750D01*
X18541250Y-12788750D02*
X18511250Y-12818750D01*
X18511250Y-13988750D02*
X18541250Y-14018750D01*
X18541250Y-13988750D02*
X18511250Y-14018750D01*
X18511250Y-14388750D02*
X18541250Y-14418750D01*
X18541250Y-14388750D02*
X18511250Y-14418750D01*
X18511250Y-14588750D02*
X18541250Y-14618750D01*
X18541250Y-14588750D02*
X18511250Y-14618750D01*
X18608750Y-14698750D02*
X18638750Y-14728750D01*
X18638750Y-14698750D02*
X18608750Y-14728750D01*
X18608750Y-14848750D02*
X18638750Y-14878750D01*
X18638750Y-14848750D02*
X18608750Y-14878750D01*
X18608750Y-14998750D02*
X18638750Y-15028750D01*
X18638750Y-14998750D02*
X18608750Y-15028750D01*
X18611250Y-12388750D02*
X18641250Y-12418750D01*
X18641250Y-12388750D02*
X18611250Y-12418750D01*
X18611250Y-13988750D02*
X18641250Y-14018750D01*
X18641250Y-13988750D02*
X18611250Y-14018750D01*
X18684908Y-14330803D02*
X18714908Y-14360803D01*
X18714908Y-14330803D02*
X18684908Y-14360803D01*
X18684908Y-14430803D02*
X18714908Y-14460803D01*
X18714908Y-14430803D02*
X18684908Y-14460803D01*
X18711250Y-12288750D02*
X18741250Y-12318750D01*
X18741250Y-12288750D02*
X18711250Y-12318750D01*
X18711250Y-12788750D02*
X18741250Y-12818750D01*
X18741250Y-12788750D02*
X18711250Y-12818750D01*
X18711250Y-12988750D02*
X18741250Y-13018750D01*
X18741250Y-12988750D02*
X18711250Y-13018750D01*
X18711250Y-13188750D02*
X18741250Y-13218750D01*
X18741250Y-13188750D02*
X18711250Y-13218750D01*
X18711250Y-13888750D02*
X18741250Y-13918750D01*
X18741250Y-13888750D02*
X18711250Y-13918750D01*
X18711250Y-13988750D02*
X18741250Y-14018750D01*
X18741250Y-13988750D02*
X18711250Y-14018750D01*
X18758750Y-14698750D02*
X18788750Y-14728750D01*
X18788750Y-14698750D02*
X18758750Y-14728750D01*
X18758750Y-14845803D02*
X18788750Y-14875803D01*
X18788750Y-14845803D02*
X18758750Y-14875803D01*
X18758750Y-14998750D02*
X18788750Y-15028750D01*
X18788750Y-14998750D02*
X18758750Y-15028750D01*
X18811250Y-11488750D02*
X18841250Y-11518750D01*
X18841250Y-11488750D02*
X18811250Y-11518750D01*
X18811250Y-11588750D02*
X18841250Y-11618750D01*
X18841250Y-11588750D02*
X18811250Y-11618750D01*
X18811250Y-12388750D02*
X18841250Y-12418750D01*
X18841250Y-12388750D02*
X18811250Y-12418750D01*
X18811250Y-13388750D02*
X18841250Y-13418750D01*
X18841250Y-13388750D02*
X18811250Y-13418750D01*
X18811250Y-13788750D02*
X18841250Y-13818750D01*
X18841250Y-13788750D02*
X18811250Y-13818750D01*
X18811250Y-13988750D02*
X18841250Y-14018750D01*
X18841250Y-13988750D02*
X18811250Y-14018750D01*
X18954908Y-14730803D02*
X18984908Y-14760803D01*
X18984908Y-14730803D02*
X18954908Y-14760803D01*
X18954908Y-14830803D02*
X18984908Y-14860803D01*
X18984908Y-14830803D02*
X18954908Y-14860803D01*
X18958750Y-14998750D02*
X18988750Y-15028750D01*
X18988750Y-14998750D02*
X18958750Y-15028750D01*
X19011250Y-12938750D02*
X19041250Y-12968750D01*
X19041250Y-12938750D02*
X19011250Y-12968750D01*
X19011250Y-13088750D02*
X19041250Y-13118750D01*
X19041250Y-13088750D02*
X19011250Y-13118750D01*
X19082250Y-11925250D02*
X19112250Y-11955250D01*
X19112250Y-11925250D02*
X19082250Y-11955250D01*
X19108750Y-14998750D02*
X19138750Y-15028750D01*
X19138750Y-14998750D02*
X19108750Y-15028750D01*
X19111250Y-11488750D02*
X19141250Y-11518750D01*
X19141250Y-11488750D02*
X19111250Y-11518750D01*
X19111250Y-11588750D02*
X19141250Y-11618750D01*
X19141250Y-11588750D02*
X19111250Y-11618750D01*
X19111250Y-13128750D02*
X19141250Y-13158750D01*
X19141250Y-13128750D02*
X19111250Y-13158750D01*
X19111250Y-13228750D02*
X19141250Y-13258750D01*
X19141250Y-13228750D02*
X19111250Y-13258750D01*
X19211250Y-12988750D02*
X19241250Y-13018750D01*
X19241250Y-12988750D02*
X19211250Y-13018750D01*
X19211250Y-13088750D02*
X19241250Y-13118750D01*
X19241250Y-13088750D02*
X19211250Y-13118750D01*
X19311250Y-13128750D02*
X19341250Y-13158750D01*
X19341250Y-13128750D02*
X19311250Y-13158750D01*
X19311250Y-13228750D02*
X19341250Y-13258750D01*
X19341250Y-13228750D02*
X19311250Y-13258750D01*
X19391250Y-14078750D02*
X19421250Y-14108750D01*
X19421250Y-14078750D02*
X19391250Y-14108750D01*
X19391250Y-14258750D02*
X19421250Y-14288750D01*
X19421250Y-14258750D02*
X19391250Y-14288750D01*
X19454908Y-14680803D02*
X19484908Y-14710803D01*
X19484908Y-14680803D02*
X19454908Y-14710803D01*
X19491250Y-14258750D02*
X19521250Y-14288750D01*
X19521250Y-14258750D02*
X19491250Y-14288750D01*
X19511250Y-13128750D02*
X19541250Y-13158750D01*
X19541250Y-13128750D02*
X19511250Y-13158750D01*
X19531250Y-14078750D02*
X19561250Y-14108750D01*
X19561250Y-14078750D02*
X19531250Y-14108750D01*
X19551250Y-13878750D02*
X19581250Y-13908750D01*
X19581250Y-13878750D02*
X19551250Y-13908750D01*
X19578750Y-11808750D02*
X19608750Y-11838750D01*
X19608750Y-11808750D02*
X19578750Y-11838750D01*
X19748750Y-13861250D02*
X19778750Y-13891250D01*
X19778750Y-13861250D02*
X19748750Y-13891250D01*
X19771250Y-14868750D02*
X19801250Y-14898750D01*
X19801250Y-14868750D02*
X19771250Y-14898750D01*
X19811250Y-13238750D02*
X19841250Y-13268750D01*
X19841250Y-13238750D02*
X19811250Y-13268750D01*
X19811250Y-13438750D02*
X19841250Y-13468750D01*
X19841250Y-13438750D02*
X19811250Y-13468750D01*
X19811250Y-13638750D02*
X19841250Y-13668750D01*
X19841250Y-13638750D02*
X19811250Y-13668750D01*
X19891250Y-13238750D02*
X19921250Y-13268750D01*
X19921250Y-13238750D02*
X19891250Y-13268750D01*
X19891250Y-13438750D02*
X19921250Y-13468750D01*
X19921250Y-13438750D02*
X19891250Y-13468750D01*
X19891250Y-13638750D02*
X19921250Y-13668750D01*
X19921250Y-13638750D02*
X19891250Y-13668750D01*
X19911250Y-11688750D02*
X19941250Y-11718750D01*
X19941250Y-11688750D02*
X19911250Y-11718750D01*
X20111250Y-11488750D02*
X20141250Y-11518750D01*
X20141250Y-11488750D02*
X20111250Y-11518750D01*
X20111250Y-11688750D02*
X20141250Y-11718750D01*
X20141250Y-11688750D02*
X20111250Y-11718750D01*
X20111250Y-11888750D02*
X20141250Y-11918750D01*
X20141250Y-11888750D02*
X20111250Y-11918750D01*
X20111250Y-12988750D02*
X20141250Y-13018750D01*
X20141250Y-12988750D02*
X20111250Y-13018750D01*
X20211250Y-13188750D02*
X20241250Y-13218750D01*
X20241250Y-13188750D02*
X20211250Y-13218750D01*
X20211250Y-13388750D02*
X20241250Y-13418750D01*
X20241250Y-13388750D02*
X20211250Y-13418750D01*
X20211250Y-13588750D02*
X20241250Y-13618750D01*
X20241250Y-13588750D02*
X20211250Y-13618750D01*
X20211250Y-13788750D02*
X20241250Y-13818750D01*
X20241250Y-13788750D02*
X20211250Y-13818750D01*
X20211250Y-13988750D02*
X20241250Y-14018750D01*
X20241250Y-13988750D02*
X20211250Y-14018750D01*
X20211250Y-14188750D02*
X20241250Y-14218750D01*
X20241250Y-14188750D02*
X20211250Y-14218750D01*
X20351250Y-14868750D02*
X20381250Y-14898750D01*
X20381250Y-14868750D02*
X20351250Y-14898750D01*
X20411250Y-13388750D02*
X20441250Y-13418750D01*
X20441250Y-13388750D02*
X20411250Y-13418750D01*
X20611250Y-13388750D02*
X20641250Y-13418750D01*
X20641250Y-13388750D02*
X20611250Y-13418750D01*
X20711250Y-11788750D02*
X20741250Y-11818750D01*
X20741250Y-11788750D02*
X20711250Y-11818750D01*
X20711250Y-11988750D02*
X20741250Y-12018750D01*
X20741250Y-11988750D02*
X20711250Y-12018750D01*
X20711250Y-12188750D02*
X20741250Y-12218750D01*
X20741250Y-12188750D02*
X20711250Y-12218750D01*
X20711250Y-12388750D02*
X20741250Y-12418750D01*
X20741250Y-12388750D02*
X20711250Y-12418750D01*
X20811250Y-11488750D02*
X20841250Y-11518750D01*
X20841250Y-11488750D02*
X20811250Y-11518750D01*
X20811250Y-13188750D02*
X20841250Y-13218750D01*
X20841250Y-13188750D02*
X20811250Y-13218750D01*
X20811250Y-13388750D02*
X20841250Y-13418750D01*
X20841250Y-13388750D02*
X20811250Y-13418750D01*
X20811250Y-13588750D02*
X20841250Y-13618750D01*
X20841250Y-13588750D02*
X20811250Y-13618750D01*
X20911250Y-11588750D02*
X20941250Y-11618750D01*
X20941250Y-11588750D02*
X20911250Y-11618750D01*
X20911250Y-11788750D02*
X20941250Y-11818750D01*
X20941250Y-11788750D02*
X20911250Y-11818750D01*
X20911250Y-11988750D02*
X20941250Y-12018750D01*
X20941250Y-11988750D02*
X20911250Y-12018750D01*
X20911250Y-12188750D02*
X20941250Y-12218750D01*
X20941250Y-12188750D02*
X20911250Y-12218750D01*
X20911250Y-12388750D02*
X20941250Y-12418750D01*
X20941250Y-12388750D02*
X20911250Y-12418750D01*
X20911250Y-12588750D02*
X20941250Y-12618750D01*
X20941250Y-12588750D02*
X20911250Y-12618750D01*
X20911250Y-12788750D02*
X20941250Y-12818750D01*
X20941250Y-12788750D02*
X20911250Y-12818750D01*
X20911250Y-12988750D02*
X20941250Y-13018750D01*
X20941250Y-12988750D02*
X20911250Y-13018750D01*
D13*
X15111250Y-13503750D02*
G75*
G03*
X15111250Y-13503750I-25000J0D01*
G01*
X15181544Y-13334044D02*
G75*
G03*
X15181544Y-13334044I-25000J0D01*
G01*
X15181544Y-13673456D02*
G75*
G03*
X15181544Y-13673456I-25000J0D01*
G01*
X15351250Y-13263750D02*
G75*
G03*
X15351250Y-13263750I-25000J0D01*
G01*
X15351250Y-13743750D02*
G75*
G03*
X15351250Y-13743750I-25000J0D01*
G01*
X15520956Y-13334044D02*
G75*
G03*
X15520956Y-13334044I-25000J0D01*
G01*
X15520956Y-13673456D02*
G75*
G03*
X15520956Y-13673456I-25000J0D01*
G01*
X15591250Y-13503750D02*
G75*
G03*
X15591250Y-13503750I-25000J0D01*
G01*
X16428750Y-11896750D02*
G75*
G03*
X16428750Y-11896750I-25000J0D01*
G01*
D11*
X16438750Y-11871750D02*
X16368750Y-11871750D01*
X16438750Y-11921750D02*
X16368750Y-11921750D01*
X16368750Y-11871750D02*
G75*
G03*
X16368750Y-11921750I0J-25000D01*
G01*
X16438750Y-11921750D02*
G75*
G03*
X16438750Y-11871750I0J25000D01*
G01*
D13*
X17273750Y-11610750D02*
G75*
G03*
X17273750Y-11610750I-25000J0D01*
G01*
D11*
X17283750Y-11585750D02*
X17213750Y-11585750D01*
X17283750Y-11635750D02*
X17213750Y-11635750D01*
X17213750Y-11585750D02*
G75*
G03*
X17213750Y-11635750I0J-25000D01*
G01*
X17283750Y-11635750D02*
G75*
G03*
X17283750Y-11585750I0J25000D01*
G01*
D13*
X18111250Y-13503750D02*
G75*
G03*
X18111250Y-13503750I-25000J0D01*
G01*
X18181544Y-13334044D02*
G75*
G03*
X18181544Y-13334044I-25000J0D01*
G01*
X18181544Y-13673456D02*
G75*
G03*
X18181544Y-13673456I-25000J0D01*
G01*
X18351250Y-13263750D02*
G75*
G03*
X18351250Y-13263750I-25000J0D01*
G01*
X18351250Y-13743750D02*
G75*
G03*
X18351250Y-13743750I-25000J0D01*
G01*
X18520956Y-13334044D02*
G75*
G03*
X18520956Y-13334044I-25000J0D01*
G01*
X18520956Y-13673456D02*
G75*
G03*
X18520956Y-13673456I-25000J0D01*
G01*
X18591250Y-13503750D02*
G75*
G03*
X18591250Y-13503750I-25000J0D01*
G01*
D14*
X16351250Y-11558750D02*
X16351250Y-11648750D01*
X16306250Y-11603750D02*
X16396250Y-11603750D01*
D11*
X16418250Y-11558750D02*
X16284250Y-11558750D01*
X16418250Y-11648750D02*
X16284250Y-11648750D01*
X16284250Y-11558750D02*
G75*
G03*
X16284250Y-11648750I0J-45000D01*
G01*
X16418250Y-11648750D02*
G75*
G03*
X16418250Y-11558750I0J45000D01*
G01*
D14*
X17301250Y-11858750D02*
X17301250Y-11948750D01*
X17256250Y-11903750D02*
X17346250Y-11903750D01*
D11*
X17368250Y-11858750D02*
X17234250Y-11858750D01*
X17368250Y-11948750D02*
X17234250Y-11948750D01*
X17234250Y-11858750D02*
G75*
G03*
X17234250Y-11948750I0J-45000D01*
G01*
X17368250Y-11948750D02*
G75*
G03*
X17368250Y-11858750I0J45000D01*
G01*
D10*
X13994106Y-14413856D02*
X13994106Y-14343144D01*
X13923394Y-14343144D01*
X13923394Y-14413856D01*
X13994106Y-14413856D01*
X13994106Y-14667856D02*
X13994106Y-14597144D01*
X13923394Y-14597144D01*
X13923394Y-14667856D01*
X13994106Y-14667856D01*
X13994106Y-14921856D02*
X13994106Y-14851144D01*
X13923394Y-14851144D01*
X13923394Y-14921856D01*
X13994106Y-14921856D01*
X18331606Y-14516606D02*
X18331606Y-14445894D01*
X18260894Y-14445894D01*
X18260894Y-14516606D01*
X18331606Y-14516606D01*
X18331606Y-14770606D02*
X18331606Y-14699894D01*
X18260894Y-14699894D01*
X18260894Y-14770606D01*
X18331606Y-14770606D01*
X18331606Y-15024606D02*
X18331606Y-14953894D01*
X18260894Y-14953894D01*
X18260894Y-15024606D01*
X18331606Y-15024606D01*
X18769106Y-14149106D02*
X18769106Y-14078394D01*
X18698394Y-14078394D01*
X18698394Y-14149106D01*
X18769106Y-14149106D01*
X19023106Y-14149106D02*
X19023106Y-14078394D01*
X18952394Y-14078394D01*
X18952394Y-14149106D01*
X19023106Y-14149106D01*
X19157606Y-13039106D02*
X19157606Y-12968394D01*
X19086894Y-12968394D01*
X19086894Y-13039106D01*
X19157606Y-13039106D01*
X19277106Y-14149106D02*
X19277106Y-14078394D01*
X19206394Y-14078394D01*
X19206394Y-14149106D01*
X19277106Y-14149106D01*
X19411606Y-13039106D02*
X19411606Y-12968394D01*
X19340894Y-12968394D01*
X19340894Y-13039106D01*
X19411606Y-13039106D01*
X19665606Y-13039106D02*
X19665606Y-12968394D01*
X19594894Y-12968394D01*
X19594894Y-13039106D01*
X19665606Y-13039106D01*
D15*
X13112000Y-12940500D02*
X13172000Y-12880500D01*
X13112000Y-12820500D01*
X13052000Y-12880500D01*
X13112000Y-12940500D01*
X13112000Y-13290500D02*
X13172000Y-13230500D01*
X13112000Y-13170500D01*
X13052000Y-13230500D01*
X13112000Y-13290500D01*
X13112000Y-13640500D02*
X13172000Y-13580500D01*
X13112000Y-13520500D01*
X13052000Y-13580500D01*
X13112000Y-13640500D01*
X13112000Y-13990500D02*
X13172000Y-13930500D01*
X13112000Y-13870500D01*
X13052000Y-13930500D01*
X13112000Y-13990500D01*
X20540500Y-12937000D02*
X20600500Y-12877000D01*
X20540500Y-12817000D01*
X20480500Y-12877000D01*
X20540500Y-12937000D01*
X20540500Y-13287000D02*
X20600500Y-13227000D01*
X20540500Y-13167000D01*
X20480500Y-13227000D01*
X20540500Y-13287000D01*
X20540500Y-13637000D02*
X20600500Y-13577000D01*
X20540500Y-13517000D01*
X20480500Y-13577000D01*
X20540500Y-13637000D01*
X20540500Y-13987000D02*
X20600500Y-13927000D01*
X20540500Y-13867000D01*
X20480500Y-13927000D01*
X20540500Y-13987000D01*
D16*
X15166250Y-13343750D02*
X15486250Y-13663750D01*
X15486250Y-13343750D02*
X15166250Y-13663750D01*
X15486250Y-13503750D02*
G75*
G03*
X15486250Y-13503750I-160000J0D01*
G01*
X18166250Y-13343750D02*
X18486250Y-13663750D01*
X18486250Y-13343750D02*
X18166250Y-13663750D01*
X18486250Y-13503750D02*
G75*
G03*
X18486250Y-13503750I-160000J0D01*
G01*
D11*
X12878869Y-15769226D02*
X12878869Y-15569226D01*
X12926488Y-15569226D01*
X12955059Y-15578750D01*
X12974107Y-15597798D01*
X12983631Y-15616845D01*
X12993155Y-15654940D01*
X12993155Y-15683512D01*
X12983631Y-15721607D01*
X12974107Y-15740655D01*
X12955059Y-15759702D01*
X12926488Y-15769226D01*
X12878869Y-15769226D01*
X13078869Y-15769226D02*
X13078869Y-15635893D01*
X13078869Y-15673988D02*
X13088393Y-15654940D01*
X13097917Y-15645417D01*
X13116964Y-15635893D01*
X13136012Y-15635893D01*
X13202678Y-15769226D02*
X13202678Y-15635893D01*
X13202678Y-15569226D02*
X13193155Y-15578750D01*
X13202678Y-15588274D01*
X13212202Y-15578750D01*
X13202678Y-15569226D01*
X13202678Y-15588274D01*
X13326488Y-15769226D02*
X13307440Y-15759702D01*
X13297917Y-15740655D01*
X13297917Y-15569226D01*
X13431250Y-15769226D02*
X13412202Y-15759702D01*
X13402678Y-15740655D01*
X13402678Y-15569226D01*
X13659821Y-15769226D02*
X13659821Y-15569226D01*
X13726488Y-15712083D01*
X13793155Y-15569226D01*
X13793155Y-15769226D01*
X13974107Y-15769226D02*
X13974107Y-15664464D01*
X13964583Y-15645417D01*
X13945536Y-15635893D01*
X13907440Y-15635893D01*
X13888393Y-15645417D01*
X13974107Y-15759702D02*
X13955059Y-15769226D01*
X13907440Y-15769226D01*
X13888393Y-15759702D01*
X13878869Y-15740655D01*
X13878869Y-15721607D01*
X13888393Y-15702559D01*
X13907440Y-15693036D01*
X13955059Y-15693036D01*
X13974107Y-15683512D01*
X14069345Y-15635893D02*
X14069345Y-15835893D01*
X14069345Y-15645417D02*
X14088393Y-15635893D01*
X14126488Y-15635893D01*
X14145536Y-15645417D01*
X14155059Y-15654940D01*
X14164583Y-15673988D01*
X14164583Y-15731131D01*
X14155059Y-15750178D01*
X14145536Y-15759702D01*
X14126488Y-15769226D01*
X14088393Y-15769226D01*
X14069345Y-15759702D01*
X14250298Y-15750178D02*
X14259821Y-15759702D01*
X14250298Y-15769226D01*
X14240774Y-15759702D01*
X14250298Y-15750178D01*
X14250298Y-15769226D01*
X14250298Y-15645417D02*
X14259821Y-15654940D01*
X14250298Y-15664464D01*
X14240774Y-15654940D01*
X14250298Y-15645417D01*
X14250298Y-15664464D01*
D12*
X12591250Y-16083750D02*
X12621250Y-16113750D01*
X12621250Y-16083750D02*
X12591250Y-16113750D01*
D11*
X12916964Y-15989226D02*
X12936012Y-15989226D01*
X12955059Y-15998750D01*
X12964583Y-16008274D01*
X12974107Y-16027321D01*
X12983631Y-16065417D01*
X12983631Y-16113036D01*
X12974107Y-16151131D01*
X12964583Y-16170178D01*
X12955059Y-16179702D01*
X12936012Y-16189226D01*
X12916964Y-16189226D01*
X12897917Y-16179702D01*
X12888393Y-16170178D01*
X12878869Y-16151131D01*
X12869345Y-16113036D01*
X12869345Y-16065417D01*
X12878869Y-16027321D01*
X12888393Y-16008274D01*
X12897917Y-15998750D01*
X12916964Y-15989226D01*
X13069345Y-16170178D02*
X13078869Y-16179702D01*
X13069345Y-16189226D01*
X13059821Y-16179702D01*
X13069345Y-16170178D01*
X13069345Y-16189226D01*
X13145536Y-15989226D02*
X13269345Y-15989226D01*
X13202678Y-16065417D01*
X13231250Y-16065417D01*
X13250298Y-16074940D01*
X13259821Y-16084464D01*
X13269345Y-16103512D01*
X13269345Y-16151131D01*
X13259821Y-16170178D01*
X13250298Y-16179702D01*
X13231250Y-16189226D01*
X13174107Y-16189226D01*
X13155059Y-16179702D01*
X13145536Y-16170178D01*
X13393155Y-15989226D02*
X13412202Y-15989226D01*
X13431250Y-15998750D01*
X13440774Y-16008274D01*
X13450298Y-16027321D01*
X13459821Y-16065417D01*
X13459821Y-16113036D01*
X13450298Y-16151131D01*
X13440774Y-16170178D01*
X13431250Y-16179702D01*
X13412202Y-16189226D01*
X13393155Y-16189226D01*
X13374107Y-16179702D01*
X13364583Y-16170178D01*
X13355059Y-16151131D01*
X13345536Y-16113036D01*
X13345536Y-16065417D01*
X13355059Y-16027321D01*
X13364583Y-16008274D01*
X13374107Y-15998750D01*
X13393155Y-15989226D01*
X13583631Y-15989226D02*
X13602678Y-15989226D01*
X13621726Y-15998750D01*
X13631250Y-16008274D01*
X13640774Y-16027321D01*
X13650298Y-16065417D01*
X13650298Y-16113036D01*
X13640774Y-16151131D01*
X13631250Y-16170178D01*
X13621726Y-16179702D01*
X13602678Y-16189226D01*
X13583631Y-16189226D01*
X13564583Y-16179702D01*
X13555059Y-16170178D01*
X13545536Y-16151131D01*
X13536012Y-16113036D01*
X13536012Y-16065417D01*
X13545536Y-16027321D01*
X13555059Y-16008274D01*
X13564583Y-15998750D01*
X13583631Y-15989226D01*
X13736012Y-16189226D02*
X13736012Y-16055893D01*
X13736012Y-16074940D02*
X13745536Y-16065417D01*
X13764583Y-16055893D01*
X13793155Y-16055893D01*
X13812202Y-16065417D01*
X13821726Y-16084464D01*
X13821726Y-16189226D01*
X13821726Y-16084464D02*
X13831250Y-16065417D01*
X13850298Y-16055893D01*
X13878869Y-16055893D01*
X13897917Y-16065417D01*
X13907440Y-16084464D01*
X13907440Y-16189226D01*
X14002678Y-16189226D02*
X14002678Y-16055893D01*
X14002678Y-16074940D02*
X14012202Y-16065417D01*
X14031250Y-16055893D01*
X14059821Y-16055893D01*
X14078869Y-16065417D01*
X14088393Y-16084464D01*
X14088393Y-16189226D01*
X14088393Y-16084464D02*
X14097917Y-16065417D01*
X14116964Y-16055893D01*
X14145536Y-16055893D01*
X14164583Y-16065417D01*
X14174107Y-16084464D01*
X14174107Y-16189226D01*
X14564583Y-15979702D02*
X14393155Y-16236845D01*
X14821726Y-15989226D02*
X14840774Y-15989226D01*
X14859821Y-15998750D01*
X14869345Y-16008274D01*
X14878869Y-16027321D01*
X14888393Y-16065417D01*
X14888393Y-16113036D01*
X14878869Y-16151131D01*
X14869345Y-16170178D01*
X14859821Y-16179702D01*
X14840774Y-16189226D01*
X14821726Y-16189226D01*
X14802678Y-16179702D01*
X14793155Y-16170178D01*
X14783631Y-16151131D01*
X14774107Y-16113036D01*
X14774107Y-16065417D01*
X14783631Y-16027321D01*
X14793155Y-16008274D01*
X14802678Y-15998750D01*
X14821726Y-15989226D01*
X14974107Y-16170178D02*
X14983631Y-16179702D01*
X14974107Y-16189226D01*
X14964583Y-16179702D01*
X14974107Y-16170178D01*
X14974107Y-16189226D01*
X15107440Y-15989226D02*
X15126488Y-15989226D01*
X15145536Y-15998750D01*
X15155059Y-16008274D01*
X15164583Y-16027321D01*
X15174107Y-16065417D01*
X15174107Y-16113036D01*
X15164583Y-16151131D01*
X15155059Y-16170178D01*
X15145536Y-16179702D01*
X15126488Y-16189226D01*
X15107440Y-16189226D01*
X15088393Y-16179702D01*
X15078869Y-16170178D01*
X15069345Y-16151131D01*
X15059821Y-16113036D01*
X15059821Y-16065417D01*
X15069345Y-16027321D01*
X15078869Y-16008274D01*
X15088393Y-15998750D01*
X15107440Y-15989226D01*
X15364583Y-16189226D02*
X15250298Y-16189226D01*
X15307440Y-16189226D02*
X15307440Y-15989226D01*
X15288393Y-16017798D01*
X15269345Y-16036845D01*
X15250298Y-16046369D01*
X15555059Y-16189226D02*
X15440774Y-16189226D01*
X15497917Y-16189226D02*
X15497917Y-15989226D01*
X15478869Y-16017798D01*
X15459821Y-16036845D01*
X15440774Y-16046369D01*
X15669345Y-16074940D02*
X15650298Y-16065417D01*
X15640774Y-16055893D01*
X15631250Y-16036845D01*
X15631250Y-16027321D01*
X15640774Y-16008274D01*
X15650298Y-15998750D01*
X15669345Y-15989226D01*
X15707440Y-15989226D01*
X15726488Y-15998750D01*
X15736012Y-16008274D01*
X15745536Y-16027321D01*
X15745536Y-16036845D01*
X15736012Y-16055893D01*
X15726488Y-16065417D01*
X15707440Y-16074940D01*
X15669345Y-16074940D01*
X15650298Y-16084464D01*
X15640774Y-16093988D01*
X15631250Y-16113036D01*
X15631250Y-16151131D01*
X15640774Y-16170178D01*
X15650298Y-16179702D01*
X15669345Y-16189226D01*
X15707440Y-16189226D01*
X15726488Y-16179702D01*
X15736012Y-16170178D01*
X15745536Y-16151131D01*
X15745536Y-16113036D01*
X15736012Y-16093988D01*
X15726488Y-16084464D01*
X15707440Y-16074940D01*
X15821726Y-15989226D02*
X15821726Y-16027321D01*
X15897917Y-15989226D02*
X15897917Y-16027321D01*
X16193155Y-16265417D02*
X16183631Y-16255893D01*
X16164583Y-16227321D01*
X16155059Y-16208274D01*
X16145536Y-16179702D01*
X16136012Y-16132083D01*
X16136012Y-16093988D01*
X16145536Y-16046369D01*
X16155059Y-16017798D01*
X16164583Y-15998750D01*
X16183631Y-15970178D01*
X16193155Y-15960655D01*
X16259821Y-16008274D02*
X16269345Y-15998750D01*
X16288393Y-15989226D01*
X16336012Y-15989226D01*
X16355059Y-15998750D01*
X16364583Y-16008274D01*
X16374107Y-16027321D01*
X16374107Y-16046369D01*
X16364583Y-16074940D01*
X16250298Y-16189226D01*
X16374107Y-16189226D01*
X16469345Y-16189226D02*
X16507440Y-16189226D01*
X16526488Y-16179702D01*
X16536012Y-16170178D01*
X16555059Y-16141607D01*
X16564583Y-16103512D01*
X16564583Y-16027321D01*
X16555059Y-16008274D01*
X16545536Y-15998750D01*
X16526488Y-15989226D01*
X16488393Y-15989226D01*
X16469345Y-15998750D01*
X16459821Y-16008274D01*
X16450298Y-16027321D01*
X16450298Y-16074940D01*
X16459821Y-16093988D01*
X16469345Y-16103512D01*
X16488393Y-16113036D01*
X16526488Y-16113036D01*
X16545536Y-16103512D01*
X16555059Y-16093988D01*
X16564583Y-16074940D01*
X16755059Y-16189226D02*
X16640774Y-16189226D01*
X16697917Y-16189226D02*
X16697917Y-15989226D01*
X16678869Y-16017798D01*
X16659821Y-16036845D01*
X16640774Y-16046369D01*
X16993155Y-16189226D02*
X16993155Y-15989226D01*
X17078869Y-16189226D02*
X17078869Y-16084464D01*
X17069345Y-16065417D01*
X17050298Y-16055893D01*
X17021726Y-16055893D01*
X17002679Y-16065417D01*
X16993155Y-16074940D01*
X17202679Y-16189226D02*
X17183631Y-16179702D01*
X17174107Y-16170178D01*
X17164583Y-16151131D01*
X17164583Y-16093988D01*
X17174107Y-16074940D01*
X17183631Y-16065417D01*
X17202679Y-16055893D01*
X17231250Y-16055893D01*
X17250298Y-16065417D01*
X17259821Y-16074940D01*
X17269345Y-16093988D01*
X17269345Y-16151131D01*
X17259821Y-16170178D01*
X17250298Y-16179702D01*
X17231250Y-16189226D01*
X17202679Y-16189226D01*
X17383631Y-16189226D02*
X17364583Y-16179702D01*
X17355060Y-16160655D01*
X17355060Y-15989226D01*
X17536012Y-16179702D02*
X17516964Y-16189226D01*
X17478869Y-16189226D01*
X17459821Y-16179702D01*
X17450298Y-16160655D01*
X17450298Y-16084464D01*
X17459821Y-16065417D01*
X17478869Y-16055893D01*
X17516964Y-16055893D01*
X17536012Y-16065417D01*
X17545536Y-16084464D01*
X17545536Y-16103512D01*
X17450298Y-16122559D01*
X17621726Y-16179702D02*
X17640774Y-16189226D01*
X17678869Y-16189226D01*
X17697917Y-16179702D01*
X17707440Y-16160655D01*
X17707440Y-16151131D01*
X17697917Y-16132083D01*
X17678869Y-16122559D01*
X17650298Y-16122559D01*
X17631250Y-16113036D01*
X17621726Y-16093988D01*
X17621726Y-16084464D01*
X17631250Y-16065417D01*
X17650298Y-16055893D01*
X17678869Y-16055893D01*
X17697917Y-16065417D01*
X17774107Y-16265417D02*
X17783631Y-16255893D01*
X17802679Y-16227321D01*
X17812202Y-16208274D01*
X17821726Y-16179702D01*
X17831250Y-16132083D01*
X17831250Y-16093988D01*
X17821726Y-16046369D01*
X17812202Y-16017798D01*
X17802679Y-15998750D01*
X17783631Y-15970178D01*
X17774107Y-15960655D01*
D13*
X12621250Y-16362750D02*
G75*
G03*
X12621250Y-16362750I-25000J0D01*
G01*
D11*
X12916964Y-16253226D02*
X12936012Y-16253226D01*
X12955059Y-16262750D01*
X12964583Y-16272274D01*
X12974107Y-16291321D01*
X12983631Y-16329417D01*
X12983631Y-16377036D01*
X12974107Y-16415131D01*
X12964583Y-16434178D01*
X12955059Y-16443702D01*
X12936012Y-16453226D01*
X12916964Y-16453226D01*
X12897917Y-16443702D01*
X12888393Y-16434178D01*
X12878869Y-16415131D01*
X12869345Y-16377036D01*
X12869345Y-16329417D01*
X12878869Y-16291321D01*
X12888393Y-16272274D01*
X12897917Y-16262750D01*
X12916964Y-16253226D01*
X13069345Y-16434178D02*
X13078869Y-16443702D01*
X13069345Y-16453226D01*
X13059821Y-16443702D01*
X13069345Y-16434178D01*
X13069345Y-16453226D01*
X13259821Y-16253226D02*
X13164583Y-16253226D01*
X13155059Y-16348464D01*
X13164583Y-16338940D01*
X13183631Y-16329417D01*
X13231250Y-16329417D01*
X13250298Y-16338940D01*
X13259821Y-16348464D01*
X13269345Y-16367512D01*
X13269345Y-16415131D01*
X13259821Y-16434178D01*
X13250298Y-16443702D01*
X13231250Y-16453226D01*
X13183631Y-16453226D01*
X13164583Y-16443702D01*
X13155059Y-16434178D01*
X13393155Y-16253226D02*
X13412202Y-16253226D01*
X13431250Y-16262750D01*
X13440774Y-16272274D01*
X13450298Y-16291321D01*
X13459821Y-16329417D01*
X13459821Y-16377036D01*
X13450298Y-16415131D01*
X13440774Y-16434178D01*
X13431250Y-16443702D01*
X13412202Y-16453226D01*
X13393155Y-16453226D01*
X13374107Y-16443702D01*
X13364583Y-16434178D01*
X13355059Y-16415131D01*
X13345536Y-16377036D01*
X13345536Y-16329417D01*
X13355059Y-16291321D01*
X13364583Y-16272274D01*
X13374107Y-16262750D01*
X13393155Y-16253226D01*
X13583631Y-16253226D02*
X13602678Y-16253226D01*
X13621726Y-16262750D01*
X13631250Y-16272274D01*
X13640774Y-16291321D01*
X13650298Y-16329417D01*
X13650298Y-16377036D01*
X13640774Y-16415131D01*
X13631250Y-16434178D01*
X13621726Y-16443702D01*
X13602678Y-16453226D01*
X13583631Y-16453226D01*
X13564583Y-16443702D01*
X13555059Y-16434178D01*
X13545536Y-16415131D01*
X13536012Y-16377036D01*
X13536012Y-16329417D01*
X13545536Y-16291321D01*
X13555059Y-16272274D01*
X13564583Y-16262750D01*
X13583631Y-16253226D01*
X13736012Y-16453226D02*
X13736012Y-16319893D01*
X13736012Y-16338940D02*
X13745536Y-16329417D01*
X13764583Y-16319893D01*
X13793155Y-16319893D01*
X13812202Y-16329417D01*
X13821726Y-16348464D01*
X13821726Y-16453226D01*
X13821726Y-16348464D02*
X13831250Y-16329417D01*
X13850298Y-16319893D01*
X13878869Y-16319893D01*
X13897917Y-16329417D01*
X13907440Y-16348464D01*
X13907440Y-16453226D01*
X14002678Y-16453226D02*
X14002678Y-16319893D01*
X14002678Y-16338940D02*
X14012202Y-16329417D01*
X14031250Y-16319893D01*
X14059821Y-16319893D01*
X14078869Y-16329417D01*
X14088393Y-16348464D01*
X14088393Y-16453226D01*
X14088393Y-16348464D02*
X14097917Y-16329417D01*
X14116964Y-16319893D01*
X14145536Y-16319893D01*
X14164583Y-16329417D01*
X14174107Y-16348464D01*
X14174107Y-16453226D01*
X14564583Y-16243702D02*
X14393155Y-16500845D01*
X14821726Y-16253226D02*
X14840774Y-16253226D01*
X14859821Y-16262750D01*
X14869345Y-16272274D01*
X14878869Y-16291321D01*
X14888393Y-16329417D01*
X14888393Y-16377036D01*
X14878869Y-16415131D01*
X14869345Y-16434178D01*
X14859821Y-16443702D01*
X14840774Y-16453226D01*
X14821726Y-16453226D01*
X14802678Y-16443702D01*
X14793155Y-16434178D01*
X14783631Y-16415131D01*
X14774107Y-16377036D01*
X14774107Y-16329417D01*
X14783631Y-16291321D01*
X14793155Y-16272274D01*
X14802678Y-16262750D01*
X14821726Y-16253226D01*
X14974107Y-16434178D02*
X14983631Y-16443702D01*
X14974107Y-16453226D01*
X14964583Y-16443702D01*
X14974107Y-16434178D01*
X14974107Y-16453226D01*
X15107440Y-16253226D02*
X15126488Y-16253226D01*
X15145536Y-16262750D01*
X15155059Y-16272274D01*
X15164583Y-16291321D01*
X15174107Y-16329417D01*
X15174107Y-16377036D01*
X15164583Y-16415131D01*
X15155059Y-16434178D01*
X15145536Y-16443702D01*
X15126488Y-16453226D01*
X15107440Y-16453226D01*
X15088393Y-16443702D01*
X15078869Y-16434178D01*
X15069345Y-16415131D01*
X15059821Y-16377036D01*
X15059821Y-16329417D01*
X15069345Y-16291321D01*
X15078869Y-16272274D01*
X15088393Y-16262750D01*
X15107440Y-16253226D01*
X15364583Y-16453226D02*
X15250298Y-16453226D01*
X15307440Y-16453226D02*
X15307440Y-16253226D01*
X15288393Y-16281798D01*
X15269345Y-16300845D01*
X15250298Y-16310369D01*
X15459821Y-16453226D02*
X15497917Y-16453226D01*
X15516964Y-16443702D01*
X15526488Y-16434178D01*
X15545536Y-16405607D01*
X15555059Y-16367512D01*
X15555059Y-16291321D01*
X15545536Y-16272274D01*
X15536012Y-16262750D01*
X15516964Y-16253226D01*
X15478869Y-16253226D01*
X15459821Y-16262750D01*
X15450298Y-16272274D01*
X15440774Y-16291321D01*
X15440774Y-16338940D01*
X15450298Y-16357988D01*
X15459821Y-16367512D01*
X15478869Y-16377036D01*
X15516964Y-16377036D01*
X15536012Y-16367512D01*
X15545536Y-16357988D01*
X15555059Y-16338940D01*
X15621726Y-16253226D02*
X15755059Y-16253226D01*
X15669345Y-16453226D01*
X15821726Y-16253226D02*
X15821726Y-16291321D01*
X15897917Y-16253226D02*
X15897917Y-16291321D01*
X16193155Y-16529417D02*
X16183631Y-16519893D01*
X16164583Y-16491321D01*
X16155059Y-16472274D01*
X16145536Y-16443702D01*
X16136012Y-16396083D01*
X16136012Y-16357988D01*
X16145536Y-16310369D01*
X16155059Y-16281798D01*
X16164583Y-16262750D01*
X16183631Y-16234178D01*
X16193155Y-16224655D01*
X16374107Y-16453226D02*
X16259821Y-16453226D01*
X16316964Y-16453226D02*
X16316964Y-16253226D01*
X16297917Y-16281798D01*
X16278869Y-16300845D01*
X16259821Y-16310369D01*
X16545536Y-16253226D02*
X16507440Y-16253226D01*
X16488393Y-16262750D01*
X16478869Y-16272274D01*
X16459821Y-16300845D01*
X16450298Y-16338940D01*
X16450298Y-16415131D01*
X16459821Y-16434178D01*
X16469345Y-16443702D01*
X16488393Y-16453226D01*
X16526488Y-16453226D01*
X16545536Y-16443702D01*
X16555059Y-16434178D01*
X16564583Y-16415131D01*
X16564583Y-16367512D01*
X16555059Y-16348464D01*
X16545536Y-16338940D01*
X16526488Y-16329417D01*
X16488393Y-16329417D01*
X16469345Y-16338940D01*
X16459821Y-16348464D01*
X16450298Y-16367512D01*
X16802679Y-16453226D02*
X16802679Y-16253226D01*
X16888393Y-16453226D02*
X16888393Y-16348464D01*
X16878869Y-16329417D01*
X16859821Y-16319893D01*
X16831250Y-16319893D01*
X16812202Y-16329417D01*
X16802679Y-16338940D01*
X17012202Y-16453226D02*
X16993155Y-16443702D01*
X16983631Y-16434178D01*
X16974107Y-16415131D01*
X16974107Y-16357988D01*
X16983631Y-16338940D01*
X16993155Y-16329417D01*
X17012202Y-16319893D01*
X17040774Y-16319893D01*
X17059821Y-16329417D01*
X17069345Y-16338940D01*
X17078869Y-16357988D01*
X17078869Y-16415131D01*
X17069345Y-16434178D01*
X17059821Y-16443702D01*
X17040774Y-16453226D01*
X17012202Y-16453226D01*
X17193155Y-16453226D02*
X17174107Y-16443702D01*
X17164583Y-16424655D01*
X17164583Y-16253226D01*
X17345536Y-16443702D02*
X17326488Y-16453226D01*
X17288393Y-16453226D01*
X17269345Y-16443702D01*
X17259821Y-16424655D01*
X17259821Y-16348464D01*
X17269345Y-16329417D01*
X17288393Y-16319893D01*
X17326488Y-16319893D01*
X17345536Y-16329417D01*
X17355060Y-16348464D01*
X17355060Y-16367512D01*
X17259821Y-16386559D01*
X17431250Y-16443702D02*
X17450298Y-16453226D01*
X17488393Y-16453226D01*
X17507440Y-16443702D01*
X17516964Y-16424655D01*
X17516964Y-16415131D01*
X17507440Y-16396083D01*
X17488393Y-16386559D01*
X17459821Y-16386559D01*
X17440774Y-16377036D01*
X17431250Y-16357988D01*
X17431250Y-16348464D01*
X17440774Y-16329417D01*
X17459821Y-16319893D01*
X17488393Y-16319893D01*
X17507440Y-16329417D01*
X17755060Y-16377036D02*
X17907440Y-16377036D01*
X17831250Y-16453226D02*
X17831250Y-16300845D01*
X18145536Y-16272274D02*
X18155060Y-16262750D01*
X18174107Y-16253226D01*
X18221726Y-16253226D01*
X18240774Y-16262750D01*
X18250298Y-16272274D01*
X18259821Y-16291321D01*
X18259821Y-16310369D01*
X18250298Y-16338940D01*
X18136012Y-16453226D01*
X18259821Y-16453226D01*
X18488393Y-16443702D02*
X18507440Y-16453226D01*
X18545536Y-16453226D01*
X18564583Y-16443702D01*
X18574107Y-16424655D01*
X18574107Y-16415131D01*
X18564583Y-16396083D01*
X18545536Y-16386559D01*
X18516964Y-16386559D01*
X18497917Y-16377036D01*
X18488393Y-16357988D01*
X18488393Y-16348464D01*
X18497917Y-16329417D01*
X18516964Y-16319893D01*
X18545536Y-16319893D01*
X18564583Y-16329417D01*
X18688393Y-16453226D02*
X18669345Y-16443702D01*
X18659821Y-16424655D01*
X18659821Y-16253226D01*
X18793155Y-16453226D02*
X18774107Y-16443702D01*
X18764583Y-16434178D01*
X18755060Y-16415131D01*
X18755060Y-16357988D01*
X18764583Y-16338940D01*
X18774107Y-16329417D01*
X18793155Y-16319893D01*
X18821726Y-16319893D01*
X18840774Y-16329417D01*
X18850298Y-16338940D01*
X18859821Y-16357988D01*
X18859821Y-16415131D01*
X18850298Y-16434178D01*
X18840774Y-16443702D01*
X18821726Y-16453226D01*
X18793155Y-16453226D01*
X18916964Y-16319893D02*
X18993155Y-16319893D01*
X18945536Y-16253226D02*
X18945536Y-16424655D01*
X18955060Y-16443702D01*
X18974107Y-16453226D01*
X18993155Y-16453226D01*
X19050298Y-16443702D02*
X19069345Y-16453226D01*
X19107440Y-16453226D01*
X19126488Y-16443702D01*
X19136012Y-16424655D01*
X19136012Y-16415131D01*
X19126488Y-16396083D01*
X19107440Y-16386559D01*
X19078869Y-16386559D01*
X19059821Y-16377036D01*
X19050298Y-16357988D01*
X19050298Y-16348464D01*
X19059821Y-16329417D01*
X19078869Y-16319893D01*
X19107440Y-16319893D01*
X19126488Y-16329417D01*
X19202679Y-16529417D02*
X19212202Y-16519893D01*
X19231250Y-16491321D01*
X19240774Y-16472274D01*
X19250298Y-16443702D01*
X19259821Y-16396083D01*
X19259821Y-16357988D01*
X19250298Y-16310369D01*
X19240774Y-16281798D01*
X19231250Y-16262750D01*
X19212202Y-16234178D01*
X19202679Y-16224655D01*
D14*
X12576250Y-16581750D02*
X12576250Y-16671750D01*
X12531250Y-16626750D02*
X12621250Y-16626750D01*
D11*
X12916964Y-16517226D02*
X12936012Y-16517226D01*
X12955059Y-16526750D01*
X12964583Y-16536274D01*
X12974107Y-16555321D01*
X12983631Y-16593417D01*
X12983631Y-16641036D01*
X12974107Y-16679131D01*
X12964583Y-16698178D01*
X12955059Y-16707702D01*
X12936012Y-16717226D01*
X12916964Y-16717226D01*
X12897917Y-16707702D01*
X12888393Y-16698178D01*
X12878869Y-16679131D01*
X12869345Y-16641036D01*
X12869345Y-16593417D01*
X12878869Y-16555321D01*
X12888393Y-16536274D01*
X12897917Y-16526750D01*
X12916964Y-16517226D01*
X13069345Y-16698178D02*
X13078869Y-16707702D01*
X13069345Y-16717226D01*
X13059821Y-16707702D01*
X13069345Y-16698178D01*
X13069345Y-16717226D01*
X13174107Y-16717226D02*
X13212202Y-16717226D01*
X13231250Y-16707702D01*
X13240774Y-16698178D01*
X13259821Y-16669607D01*
X13269345Y-16631512D01*
X13269345Y-16555321D01*
X13259821Y-16536274D01*
X13250298Y-16526750D01*
X13231250Y-16517226D01*
X13193155Y-16517226D01*
X13174107Y-16526750D01*
X13164583Y-16536274D01*
X13155059Y-16555321D01*
X13155059Y-16602940D01*
X13164583Y-16621988D01*
X13174107Y-16631512D01*
X13193155Y-16641036D01*
X13231250Y-16641036D01*
X13250298Y-16631512D01*
X13259821Y-16621988D01*
X13269345Y-16602940D01*
X13393155Y-16517226D02*
X13412202Y-16517226D01*
X13431250Y-16526750D01*
X13440774Y-16536274D01*
X13450298Y-16555321D01*
X13459821Y-16593417D01*
X13459821Y-16641036D01*
X13450298Y-16679131D01*
X13440774Y-16698178D01*
X13431250Y-16707702D01*
X13412202Y-16717226D01*
X13393155Y-16717226D01*
X13374107Y-16707702D01*
X13364583Y-16698178D01*
X13355059Y-16679131D01*
X13345536Y-16641036D01*
X13345536Y-16593417D01*
X13355059Y-16555321D01*
X13364583Y-16536274D01*
X13374107Y-16526750D01*
X13393155Y-16517226D01*
X13583631Y-16517226D02*
X13602678Y-16517226D01*
X13621726Y-16526750D01*
X13631250Y-16536274D01*
X13640774Y-16555321D01*
X13650298Y-16593417D01*
X13650298Y-16641036D01*
X13640774Y-16679131D01*
X13631250Y-16698178D01*
X13621726Y-16707702D01*
X13602678Y-16717226D01*
X13583631Y-16717226D01*
X13564583Y-16707702D01*
X13555059Y-16698178D01*
X13545536Y-16679131D01*
X13536012Y-16641036D01*
X13536012Y-16593417D01*
X13545536Y-16555321D01*
X13555059Y-16536274D01*
X13564583Y-16526750D01*
X13583631Y-16517226D01*
X13736012Y-16717226D02*
X13736012Y-16583893D01*
X13736012Y-16602940D02*
X13745536Y-16593417D01*
X13764583Y-16583893D01*
X13793155Y-16583893D01*
X13812202Y-16593417D01*
X13821726Y-16612464D01*
X13821726Y-16717226D01*
X13821726Y-16612464D02*
X13831250Y-16593417D01*
X13850298Y-16583893D01*
X13878869Y-16583893D01*
X13897917Y-16593417D01*
X13907440Y-16612464D01*
X13907440Y-16717226D01*
X14002678Y-16717226D02*
X14002678Y-16583893D01*
X14002678Y-16602940D02*
X14012202Y-16593417D01*
X14031250Y-16583893D01*
X14059821Y-16583893D01*
X14078869Y-16593417D01*
X14088393Y-16612464D01*
X14088393Y-16717226D01*
X14088393Y-16612464D02*
X14097917Y-16593417D01*
X14116964Y-16583893D01*
X14145536Y-16583893D01*
X14164583Y-16593417D01*
X14174107Y-16612464D01*
X14174107Y-16717226D01*
X14564583Y-16507702D02*
X14393155Y-16764845D01*
X14821726Y-16517226D02*
X14840774Y-16517226D01*
X14859821Y-16526750D01*
X14869345Y-16536274D01*
X14878869Y-16555321D01*
X14888393Y-16593417D01*
X14888393Y-16641036D01*
X14878869Y-16679131D01*
X14869345Y-16698178D01*
X14859821Y-16707702D01*
X14840774Y-16717226D01*
X14821726Y-16717226D01*
X14802678Y-16707702D01*
X14793155Y-16698178D01*
X14783631Y-16679131D01*
X14774107Y-16641036D01*
X14774107Y-16593417D01*
X14783631Y-16555321D01*
X14793155Y-16536274D01*
X14802678Y-16526750D01*
X14821726Y-16517226D01*
X14974107Y-16698178D02*
X14983631Y-16707702D01*
X14974107Y-16717226D01*
X14964583Y-16707702D01*
X14974107Y-16698178D01*
X14974107Y-16717226D01*
X15107440Y-16517226D02*
X15126488Y-16517226D01*
X15145536Y-16526750D01*
X15155059Y-16536274D01*
X15164583Y-16555321D01*
X15174107Y-16593417D01*
X15174107Y-16641036D01*
X15164583Y-16679131D01*
X15155059Y-16698178D01*
X15145536Y-16707702D01*
X15126488Y-16717226D01*
X15107440Y-16717226D01*
X15088393Y-16707702D01*
X15078869Y-16698178D01*
X15069345Y-16679131D01*
X15059821Y-16641036D01*
X15059821Y-16593417D01*
X15069345Y-16555321D01*
X15078869Y-16536274D01*
X15088393Y-16526750D01*
X15107440Y-16517226D01*
X15240774Y-16517226D02*
X15364583Y-16517226D01*
X15297917Y-16593417D01*
X15326488Y-16593417D01*
X15345536Y-16602940D01*
X15355059Y-16612464D01*
X15364583Y-16631512D01*
X15364583Y-16679131D01*
X15355059Y-16698178D01*
X15345536Y-16707702D01*
X15326488Y-16717226D01*
X15269345Y-16717226D01*
X15250298Y-16707702D01*
X15240774Y-16698178D01*
X15545536Y-16517226D02*
X15450298Y-16517226D01*
X15440774Y-16612464D01*
X15450298Y-16602940D01*
X15469345Y-16593417D01*
X15516964Y-16593417D01*
X15536012Y-16602940D01*
X15545536Y-16612464D01*
X15555059Y-16631512D01*
X15555059Y-16679131D01*
X15545536Y-16698178D01*
X15536012Y-16707702D01*
X15516964Y-16717226D01*
X15469345Y-16717226D01*
X15450298Y-16707702D01*
X15440774Y-16698178D01*
X15726488Y-16583893D02*
X15726488Y-16717226D01*
X15678869Y-16507702D02*
X15631250Y-16650559D01*
X15755059Y-16650559D01*
X15821726Y-16517226D02*
X15821726Y-16555321D01*
X15897917Y-16517226D02*
X15897917Y-16555321D01*
X16193155Y-16793417D02*
X16183631Y-16783893D01*
X16164583Y-16755321D01*
X16155059Y-16736274D01*
X16145536Y-16707702D01*
X16136012Y-16660083D01*
X16136012Y-16621988D01*
X16145536Y-16574369D01*
X16155059Y-16545798D01*
X16164583Y-16526750D01*
X16183631Y-16498178D01*
X16193155Y-16488655D01*
X16307440Y-16517226D02*
X16326488Y-16517226D01*
X16345536Y-16526750D01*
X16355059Y-16536274D01*
X16364583Y-16555321D01*
X16374107Y-16593417D01*
X16374107Y-16641036D01*
X16364583Y-16679131D01*
X16355059Y-16698178D01*
X16345536Y-16707702D01*
X16326488Y-16717226D01*
X16307440Y-16717226D01*
X16288393Y-16707702D01*
X16278869Y-16698178D01*
X16269345Y-16679131D01*
X16259821Y-16641036D01*
X16259821Y-16593417D01*
X16269345Y-16555321D01*
X16278869Y-16536274D01*
X16288393Y-16526750D01*
X16307440Y-16517226D01*
X16612202Y-16717226D02*
X16612202Y-16517226D01*
X16697917Y-16717226D02*
X16697917Y-16612464D01*
X16688393Y-16593417D01*
X16669345Y-16583893D01*
X16640774Y-16583893D01*
X16621726Y-16593417D01*
X16612202Y-16602940D01*
X16821726Y-16717226D02*
X16802679Y-16707702D01*
X16793155Y-16698178D01*
X16783631Y-16679131D01*
X16783631Y-16621988D01*
X16793155Y-16602940D01*
X16802679Y-16593417D01*
X16821726Y-16583893D01*
X16850298Y-16583893D01*
X16869345Y-16593417D01*
X16878869Y-16602940D01*
X16888393Y-16621988D01*
X16888393Y-16679131D01*
X16878869Y-16698178D01*
X16869345Y-16707702D01*
X16850298Y-16717226D01*
X16821726Y-16717226D01*
X17002679Y-16717226D02*
X16983631Y-16707702D01*
X16974107Y-16688655D01*
X16974107Y-16517226D01*
X17155060Y-16707702D02*
X17136012Y-16717226D01*
X17097917Y-16717226D01*
X17078869Y-16707702D01*
X17069345Y-16688655D01*
X17069345Y-16612464D01*
X17078869Y-16593417D01*
X17097917Y-16583893D01*
X17136012Y-16583893D01*
X17155060Y-16593417D01*
X17164583Y-16612464D01*
X17164583Y-16631512D01*
X17069345Y-16650559D01*
X17240774Y-16707702D02*
X17259821Y-16717226D01*
X17297917Y-16717226D01*
X17316964Y-16707702D01*
X17326488Y-16688655D01*
X17326488Y-16679131D01*
X17316964Y-16660083D01*
X17297917Y-16650559D01*
X17269345Y-16650559D01*
X17250298Y-16641036D01*
X17240774Y-16621988D01*
X17240774Y-16612464D01*
X17250298Y-16593417D01*
X17269345Y-16583893D01*
X17297917Y-16583893D01*
X17316964Y-16593417D01*
X17564583Y-16641036D02*
X17716964Y-16641036D01*
X17640774Y-16717226D02*
X17640774Y-16564845D01*
X17955060Y-16536274D02*
X17964583Y-16526750D01*
X17983631Y-16517226D01*
X18031250Y-16517226D01*
X18050298Y-16526750D01*
X18059821Y-16536274D01*
X18069345Y-16555321D01*
X18069345Y-16574369D01*
X18059821Y-16602940D01*
X17945536Y-16717226D01*
X18069345Y-16717226D01*
X18297917Y-16707702D02*
X18316964Y-16717226D01*
X18355060Y-16717226D01*
X18374107Y-16707702D01*
X18383631Y-16688655D01*
X18383631Y-16679131D01*
X18374107Y-16660083D01*
X18355060Y-16650559D01*
X18326488Y-16650559D01*
X18307440Y-16641036D01*
X18297917Y-16621988D01*
X18297917Y-16612464D01*
X18307440Y-16593417D01*
X18326488Y-16583893D01*
X18355060Y-16583893D01*
X18374107Y-16593417D01*
X18497917Y-16717226D02*
X18478869Y-16707702D01*
X18469345Y-16688655D01*
X18469345Y-16517226D01*
X18602679Y-16717226D02*
X18583631Y-16707702D01*
X18574107Y-16698178D01*
X18564583Y-16679131D01*
X18564583Y-16621988D01*
X18574107Y-16602940D01*
X18583631Y-16593417D01*
X18602679Y-16583893D01*
X18631250Y-16583893D01*
X18650298Y-16593417D01*
X18659821Y-16602940D01*
X18669345Y-16621988D01*
X18669345Y-16679131D01*
X18659821Y-16698178D01*
X18650298Y-16707702D01*
X18631250Y-16717226D01*
X18602679Y-16717226D01*
X18726488Y-16583893D02*
X18802679Y-16583893D01*
X18755060Y-16517226D02*
X18755060Y-16688655D01*
X18764583Y-16707702D01*
X18783631Y-16717226D01*
X18802679Y-16717226D01*
X18859821Y-16707702D02*
X18878869Y-16717226D01*
X18916964Y-16717226D01*
X18936012Y-16707702D01*
X18945536Y-16688655D01*
X18945536Y-16679131D01*
X18936012Y-16660083D01*
X18916964Y-16650559D01*
X18888393Y-16650559D01*
X18869345Y-16641036D01*
X18859821Y-16621988D01*
X18859821Y-16612464D01*
X18869345Y-16593417D01*
X18888393Y-16583893D01*
X18916964Y-16583893D01*
X18936012Y-16593417D01*
X19012202Y-16793417D02*
X19021726Y-16783893D01*
X19040774Y-16755321D01*
X19050298Y-16736274D01*
X19059821Y-16707702D01*
X19069345Y-16660083D01*
X19069345Y-16621988D01*
X19059821Y-16574369D01*
X19050298Y-16545798D01*
X19040774Y-16526750D01*
X19021726Y-16498178D01*
X19012202Y-16488655D01*
D10*
X12606606Y-16926106D02*
X12606606Y-16855394D01*
X12535894Y-16855394D01*
X12535894Y-16926106D01*
X12606606Y-16926106D01*
D11*
X12983631Y-16981226D02*
X12869345Y-16981226D01*
X12926488Y-16981226D02*
X12926488Y-16781226D01*
X12907440Y-16809798D01*
X12888393Y-16828845D01*
X12869345Y-16838369D01*
X13069345Y-16962179D02*
X13078869Y-16971702D01*
X13069345Y-16981226D01*
X13059821Y-16971702D01*
X13069345Y-16962179D01*
X13069345Y-16981226D01*
X13202678Y-16781226D02*
X13221726Y-16781226D01*
X13240774Y-16790750D01*
X13250298Y-16800274D01*
X13259821Y-16819321D01*
X13269345Y-16857417D01*
X13269345Y-16905036D01*
X13259821Y-16943131D01*
X13250298Y-16962179D01*
X13240774Y-16971702D01*
X13221726Y-16981226D01*
X13202678Y-16981226D01*
X13183631Y-16971702D01*
X13174107Y-16962179D01*
X13164583Y-16943131D01*
X13155059Y-16905036D01*
X13155059Y-16857417D01*
X13164583Y-16819321D01*
X13174107Y-16800274D01*
X13183631Y-16790750D01*
X13202678Y-16781226D01*
X13393155Y-16781226D02*
X13412202Y-16781226D01*
X13431250Y-16790750D01*
X13440774Y-16800274D01*
X13450298Y-16819321D01*
X13459821Y-16857417D01*
X13459821Y-16905036D01*
X13450298Y-16943131D01*
X13440774Y-16962179D01*
X13431250Y-16971702D01*
X13412202Y-16981226D01*
X13393155Y-16981226D01*
X13374107Y-16971702D01*
X13364583Y-16962179D01*
X13355059Y-16943131D01*
X13345536Y-16905036D01*
X13345536Y-16857417D01*
X13355059Y-16819321D01*
X13364583Y-16800274D01*
X13374107Y-16790750D01*
X13393155Y-16781226D01*
X13583631Y-16781226D02*
X13602678Y-16781226D01*
X13621726Y-16790750D01*
X13631250Y-16800274D01*
X13640774Y-16819321D01*
X13650298Y-16857417D01*
X13650298Y-16905036D01*
X13640774Y-16943131D01*
X13631250Y-16962179D01*
X13621726Y-16971702D01*
X13602678Y-16981226D01*
X13583631Y-16981226D01*
X13564583Y-16971702D01*
X13555059Y-16962179D01*
X13545536Y-16943131D01*
X13536012Y-16905036D01*
X13536012Y-16857417D01*
X13545536Y-16819321D01*
X13555059Y-16800274D01*
X13564583Y-16790750D01*
X13583631Y-16781226D01*
X13736012Y-16981226D02*
X13736012Y-16847893D01*
X13736012Y-16866940D02*
X13745536Y-16857417D01*
X13764583Y-16847893D01*
X13793155Y-16847893D01*
X13812202Y-16857417D01*
X13821726Y-16876464D01*
X13821726Y-16981226D01*
X13821726Y-16876464D02*
X13831250Y-16857417D01*
X13850298Y-16847893D01*
X13878869Y-16847893D01*
X13897917Y-16857417D01*
X13907440Y-16876464D01*
X13907440Y-16981226D01*
X14002678Y-16981226D02*
X14002678Y-16847893D01*
X14002678Y-16866940D02*
X14012202Y-16857417D01*
X14031250Y-16847893D01*
X14059821Y-16847893D01*
X14078869Y-16857417D01*
X14088393Y-16876464D01*
X14088393Y-16981226D01*
X14088393Y-16876464D02*
X14097917Y-16857417D01*
X14116964Y-16847893D01*
X14145536Y-16847893D01*
X14164583Y-16857417D01*
X14174107Y-16876464D01*
X14174107Y-16981226D01*
X14564583Y-16771702D02*
X14393155Y-17028845D01*
X14821726Y-16781226D02*
X14840774Y-16781226D01*
X14859821Y-16790750D01*
X14869345Y-16800274D01*
X14878869Y-16819321D01*
X14888393Y-16857417D01*
X14888393Y-16905036D01*
X14878869Y-16943131D01*
X14869345Y-16962179D01*
X14859821Y-16971702D01*
X14840774Y-16981226D01*
X14821726Y-16981226D01*
X14802678Y-16971702D01*
X14793155Y-16962179D01*
X14783631Y-16943131D01*
X14774107Y-16905036D01*
X14774107Y-16857417D01*
X14783631Y-16819321D01*
X14793155Y-16800274D01*
X14802678Y-16790750D01*
X14821726Y-16781226D01*
X14974107Y-16962179D02*
X14983631Y-16971702D01*
X14974107Y-16981226D01*
X14964583Y-16971702D01*
X14974107Y-16962179D01*
X14974107Y-16981226D01*
X15107440Y-16781226D02*
X15126488Y-16781226D01*
X15145536Y-16790750D01*
X15155059Y-16800274D01*
X15164583Y-16819321D01*
X15174107Y-16857417D01*
X15174107Y-16905036D01*
X15164583Y-16943131D01*
X15155059Y-16962179D01*
X15145536Y-16971702D01*
X15126488Y-16981226D01*
X15107440Y-16981226D01*
X15088393Y-16971702D01*
X15078869Y-16962179D01*
X15069345Y-16943131D01*
X15059821Y-16905036D01*
X15059821Y-16857417D01*
X15069345Y-16819321D01*
X15078869Y-16800274D01*
X15088393Y-16790750D01*
X15107440Y-16781226D01*
X15240774Y-16781226D02*
X15364583Y-16781226D01*
X15297917Y-16857417D01*
X15326488Y-16857417D01*
X15345536Y-16866940D01*
X15355059Y-16876464D01*
X15364583Y-16895512D01*
X15364583Y-16943131D01*
X15355059Y-16962179D01*
X15345536Y-16971702D01*
X15326488Y-16981226D01*
X15269345Y-16981226D01*
X15250298Y-16971702D01*
X15240774Y-16962179D01*
X15459821Y-16981226D02*
X15497917Y-16981226D01*
X15516964Y-16971702D01*
X15526488Y-16962179D01*
X15545536Y-16933607D01*
X15555059Y-16895512D01*
X15555059Y-16819321D01*
X15545536Y-16800274D01*
X15536012Y-16790750D01*
X15516964Y-16781226D01*
X15478869Y-16781226D01*
X15459821Y-16790750D01*
X15450298Y-16800274D01*
X15440774Y-16819321D01*
X15440774Y-16866940D01*
X15450298Y-16885988D01*
X15459821Y-16895512D01*
X15478869Y-16905036D01*
X15516964Y-16905036D01*
X15536012Y-16895512D01*
X15545536Y-16885988D01*
X15555059Y-16866940D01*
X15726488Y-16847893D02*
X15726488Y-16981226D01*
X15678869Y-16771702D02*
X15631250Y-16914560D01*
X15755059Y-16914560D01*
X15821726Y-16781226D02*
X15821726Y-16819321D01*
X15897917Y-16781226D02*
X15897917Y-16819321D01*
X16193155Y-17057417D02*
X16183631Y-17047893D01*
X16164583Y-17019321D01*
X16155059Y-17000274D01*
X16145536Y-16971702D01*
X16136012Y-16924083D01*
X16136012Y-16885988D01*
X16145536Y-16838369D01*
X16155059Y-16809798D01*
X16164583Y-16790750D01*
X16183631Y-16762178D01*
X16193155Y-16752655D01*
X16374107Y-16981226D02*
X16259821Y-16981226D01*
X16316964Y-16981226D02*
X16316964Y-16781226D01*
X16297917Y-16809798D01*
X16278869Y-16828845D01*
X16259821Y-16838369D01*
X16450298Y-16800274D02*
X16459821Y-16790750D01*
X16478869Y-16781226D01*
X16526488Y-16781226D01*
X16545536Y-16790750D01*
X16555059Y-16800274D01*
X16564583Y-16819321D01*
X16564583Y-16838369D01*
X16555059Y-16866940D01*
X16440774Y-16981226D01*
X16564583Y-16981226D01*
X16802679Y-16981226D02*
X16802679Y-16781226D01*
X16888393Y-16981226D02*
X16888393Y-16876464D01*
X16878869Y-16857417D01*
X16859821Y-16847893D01*
X16831250Y-16847893D01*
X16812202Y-16857417D01*
X16802679Y-16866940D01*
X17012202Y-16981226D02*
X16993155Y-16971702D01*
X16983631Y-16962179D01*
X16974107Y-16943131D01*
X16974107Y-16885988D01*
X16983631Y-16866940D01*
X16993155Y-16857417D01*
X17012202Y-16847893D01*
X17040774Y-16847893D01*
X17059821Y-16857417D01*
X17069345Y-16866940D01*
X17078869Y-16885988D01*
X17078869Y-16943131D01*
X17069345Y-16962179D01*
X17059821Y-16971702D01*
X17040774Y-16981226D01*
X17012202Y-16981226D01*
X17193155Y-16981226D02*
X17174107Y-16971702D01*
X17164583Y-16952655D01*
X17164583Y-16781226D01*
X17345536Y-16971702D02*
X17326488Y-16981226D01*
X17288393Y-16981226D01*
X17269345Y-16971702D01*
X17259821Y-16952655D01*
X17259821Y-16876464D01*
X17269345Y-16857417D01*
X17288393Y-16847893D01*
X17326488Y-16847893D01*
X17345536Y-16857417D01*
X17355060Y-16876464D01*
X17355060Y-16895512D01*
X17259821Y-16914560D01*
X17431250Y-16971702D02*
X17450298Y-16981226D01*
X17488393Y-16981226D01*
X17507440Y-16971702D01*
X17516964Y-16952655D01*
X17516964Y-16943131D01*
X17507440Y-16924083D01*
X17488393Y-16914560D01*
X17459821Y-16914560D01*
X17440774Y-16905036D01*
X17431250Y-16885988D01*
X17431250Y-16876464D01*
X17440774Y-16857417D01*
X17459821Y-16847893D01*
X17488393Y-16847893D01*
X17507440Y-16857417D01*
X17583631Y-17057417D02*
X17593155Y-17047893D01*
X17612202Y-17019321D01*
X17621726Y-17000274D01*
X17631250Y-16971702D01*
X17640774Y-16924083D01*
X17640774Y-16885988D01*
X17631250Y-16838369D01*
X17621726Y-16809798D01*
X17612202Y-16790750D01*
X17593155Y-16762178D01*
X17583631Y-16752655D01*
D15*
X12561250Y-17214750D02*
X12621250Y-17154750D01*
X12561250Y-17094750D01*
X12501250Y-17154750D01*
X12561250Y-17214750D01*
D11*
X12983631Y-17245226D02*
X12869345Y-17245226D01*
X12926488Y-17245226D02*
X12926488Y-17045226D01*
X12907440Y-17073798D01*
X12888393Y-17092845D01*
X12869345Y-17102369D01*
X13069345Y-17226179D02*
X13078869Y-17235702D01*
X13069345Y-17245226D01*
X13059821Y-17235702D01*
X13069345Y-17226179D01*
X13069345Y-17245226D01*
X13155059Y-17064274D02*
X13164583Y-17054750D01*
X13183631Y-17045226D01*
X13231250Y-17045226D01*
X13250298Y-17054750D01*
X13259821Y-17064274D01*
X13269345Y-17083321D01*
X13269345Y-17102369D01*
X13259821Y-17130940D01*
X13145536Y-17245226D01*
X13269345Y-17245226D01*
X13393155Y-17045226D02*
X13412202Y-17045226D01*
X13431250Y-17054750D01*
X13440774Y-17064274D01*
X13450298Y-17083321D01*
X13459821Y-17121417D01*
X13459821Y-17169036D01*
X13450298Y-17207131D01*
X13440774Y-17226179D01*
X13431250Y-17235702D01*
X13412202Y-17245226D01*
X13393155Y-17245226D01*
X13374107Y-17235702D01*
X13364583Y-17226179D01*
X13355059Y-17207131D01*
X13345536Y-17169036D01*
X13345536Y-17121417D01*
X13355059Y-17083321D01*
X13364583Y-17064274D01*
X13374107Y-17054750D01*
X13393155Y-17045226D01*
X13583631Y-17045226D02*
X13602678Y-17045226D01*
X13621726Y-17054750D01*
X13631250Y-17064274D01*
X13640774Y-17083321D01*
X13650298Y-17121417D01*
X13650298Y-17169036D01*
X13640774Y-17207131D01*
X13631250Y-17226179D01*
X13621726Y-17235702D01*
X13602678Y-17245226D01*
X13583631Y-17245226D01*
X13564583Y-17235702D01*
X13555059Y-17226179D01*
X13545536Y-17207131D01*
X13536012Y-17169036D01*
X13536012Y-17121417D01*
X13545536Y-17083321D01*
X13555059Y-17064274D01*
X13564583Y-17054750D01*
X13583631Y-17045226D01*
X13736012Y-17245226D02*
X13736012Y-17111893D01*
X13736012Y-17130940D02*
X13745536Y-17121417D01*
X13764583Y-17111893D01*
X13793155Y-17111893D01*
X13812202Y-17121417D01*
X13821726Y-17140464D01*
X13821726Y-17245226D01*
X13821726Y-17140464D02*
X13831250Y-17121417D01*
X13850298Y-17111893D01*
X13878869Y-17111893D01*
X13897917Y-17121417D01*
X13907440Y-17140464D01*
X13907440Y-17245226D01*
X14002678Y-17245226D02*
X14002678Y-17111893D01*
X14002678Y-17130940D02*
X14012202Y-17121417D01*
X14031250Y-17111893D01*
X14059821Y-17111893D01*
X14078869Y-17121417D01*
X14088393Y-17140464D01*
X14088393Y-17245226D01*
X14088393Y-17140464D02*
X14097917Y-17121417D01*
X14116964Y-17111893D01*
X14145536Y-17111893D01*
X14164583Y-17121417D01*
X14174107Y-17140464D01*
X14174107Y-17245226D01*
X14564583Y-17035702D02*
X14393155Y-17292845D01*
X14821726Y-17045226D02*
X14840774Y-17045226D01*
X14859821Y-17054750D01*
X14869345Y-17064274D01*
X14878869Y-17083321D01*
X14888393Y-17121417D01*
X14888393Y-17169036D01*
X14878869Y-17207131D01*
X14869345Y-17226179D01*
X14859821Y-17235702D01*
X14840774Y-17245226D01*
X14821726Y-17245226D01*
X14802678Y-17235702D01*
X14793155Y-17226179D01*
X14783631Y-17207131D01*
X14774107Y-17169036D01*
X14774107Y-17121417D01*
X14783631Y-17083321D01*
X14793155Y-17064274D01*
X14802678Y-17054750D01*
X14821726Y-17045226D01*
X14974107Y-17226179D02*
X14983631Y-17235702D01*
X14974107Y-17245226D01*
X14964583Y-17235702D01*
X14974107Y-17226179D01*
X14974107Y-17245226D01*
X15107440Y-17045226D02*
X15126488Y-17045226D01*
X15145536Y-17054750D01*
X15155059Y-17064274D01*
X15164583Y-17083321D01*
X15174107Y-17121417D01*
X15174107Y-17169036D01*
X15164583Y-17207131D01*
X15155059Y-17226179D01*
X15145536Y-17235702D01*
X15126488Y-17245226D01*
X15107440Y-17245226D01*
X15088393Y-17235702D01*
X15078869Y-17226179D01*
X15069345Y-17207131D01*
X15059821Y-17169036D01*
X15059821Y-17121417D01*
X15069345Y-17083321D01*
X15078869Y-17064274D01*
X15088393Y-17054750D01*
X15107440Y-17045226D01*
X15345536Y-17111893D02*
X15345536Y-17245226D01*
X15297917Y-17035702D02*
X15250298Y-17178560D01*
X15374107Y-17178560D01*
X15431250Y-17045226D02*
X15564583Y-17045226D01*
X15478869Y-17245226D01*
X15631250Y-17064274D02*
X15640774Y-17054750D01*
X15659821Y-17045226D01*
X15707440Y-17045226D01*
X15726488Y-17054750D01*
X15736012Y-17064274D01*
X15745536Y-17083321D01*
X15745536Y-17102369D01*
X15736012Y-17130940D01*
X15621726Y-17245226D01*
X15745536Y-17245226D01*
X15821726Y-17045226D02*
X15821726Y-17083321D01*
X15897917Y-17045226D02*
X15897917Y-17083321D01*
X16193155Y-17321417D02*
X16183631Y-17311893D01*
X16164583Y-17283321D01*
X16155059Y-17264274D01*
X16145536Y-17235702D01*
X16136012Y-17188083D01*
X16136012Y-17149988D01*
X16145536Y-17102369D01*
X16155059Y-17073798D01*
X16164583Y-17054750D01*
X16183631Y-17026179D01*
X16193155Y-17016655D01*
X16297917Y-17130940D02*
X16278869Y-17121417D01*
X16269345Y-17111893D01*
X16259821Y-17092845D01*
X16259821Y-17083321D01*
X16269345Y-17064274D01*
X16278869Y-17054750D01*
X16297917Y-17045226D01*
X16336012Y-17045226D01*
X16355059Y-17054750D01*
X16364583Y-17064274D01*
X16374107Y-17083321D01*
X16374107Y-17092845D01*
X16364583Y-17111893D01*
X16355059Y-17121417D01*
X16336012Y-17130940D01*
X16297917Y-17130940D01*
X16278869Y-17140464D01*
X16269345Y-17149988D01*
X16259821Y-17169036D01*
X16259821Y-17207131D01*
X16269345Y-17226179D01*
X16278869Y-17235702D01*
X16297917Y-17245226D01*
X16336012Y-17245226D01*
X16355059Y-17235702D01*
X16364583Y-17226179D01*
X16374107Y-17207131D01*
X16374107Y-17169036D01*
X16364583Y-17149988D01*
X16355059Y-17140464D01*
X16336012Y-17130940D01*
X16612202Y-17245226D02*
X16612202Y-17045226D01*
X16697917Y-17245226D02*
X16697917Y-17140464D01*
X16688393Y-17121417D01*
X16669345Y-17111893D01*
X16640774Y-17111893D01*
X16621726Y-17121417D01*
X16612202Y-17130940D01*
X16821726Y-17245226D02*
X16802679Y-17235702D01*
X16793155Y-17226179D01*
X16783631Y-17207131D01*
X16783631Y-17149988D01*
X16793155Y-17130940D01*
X16802679Y-17121417D01*
X16821726Y-17111893D01*
X16850298Y-17111893D01*
X16869345Y-17121417D01*
X16878869Y-17130940D01*
X16888393Y-17149988D01*
X16888393Y-17207131D01*
X16878869Y-17226179D01*
X16869345Y-17235702D01*
X16850298Y-17245226D01*
X16821726Y-17245226D01*
X17002679Y-17245226D02*
X16983631Y-17235702D01*
X16974107Y-17216655D01*
X16974107Y-17045226D01*
X17155060Y-17235702D02*
X17136012Y-17245226D01*
X17097917Y-17245226D01*
X17078869Y-17235702D01*
X17069345Y-17216655D01*
X17069345Y-17140464D01*
X17078869Y-17121417D01*
X17097917Y-17111893D01*
X17136012Y-17111893D01*
X17155060Y-17121417D01*
X17164583Y-17140464D01*
X17164583Y-17159512D01*
X17069345Y-17178560D01*
X17240774Y-17235702D02*
X17259821Y-17245226D01*
X17297917Y-17245226D01*
X17316964Y-17235702D01*
X17326488Y-17216655D01*
X17326488Y-17207131D01*
X17316964Y-17188083D01*
X17297917Y-17178560D01*
X17269345Y-17178560D01*
X17250298Y-17169036D01*
X17240774Y-17149988D01*
X17240774Y-17140464D01*
X17250298Y-17121417D01*
X17269345Y-17111893D01*
X17297917Y-17111893D01*
X17316964Y-17121417D01*
X17393155Y-17321417D02*
X17402679Y-17311893D01*
X17421726Y-17283321D01*
X17431250Y-17264274D01*
X17440774Y-17235702D01*
X17450298Y-17188083D01*
X17450298Y-17149988D01*
X17440774Y-17102369D01*
X17431250Y-17073798D01*
X17421726Y-17054750D01*
X17402679Y-17026179D01*
X17393155Y-17016655D01*
X12421250Y-17318750D02*
X12621250Y-17518750D01*
X12621250Y-17318750D02*
X12421250Y-17518750D01*
X12621250Y-17418750D02*
G75*
G03*
X12621250Y-17418750I-100000J0D01*
G01*
X12859821Y-17309226D02*
X12983631Y-17309226D01*
X12916964Y-17385417D01*
X12945536Y-17385417D01*
X12964583Y-17394940D01*
X12974107Y-17404464D01*
X12983631Y-17423512D01*
X12983631Y-17471131D01*
X12974107Y-17490179D01*
X12964583Y-17499702D01*
X12945536Y-17509226D01*
X12888393Y-17509226D01*
X12869345Y-17499702D01*
X12859821Y-17490179D01*
X13069345Y-17490179D02*
X13078869Y-17499702D01*
X13069345Y-17509226D01*
X13059821Y-17499702D01*
X13069345Y-17490179D01*
X13069345Y-17509226D01*
X13155059Y-17328274D02*
X13164583Y-17318750D01*
X13183631Y-17309226D01*
X13231250Y-17309226D01*
X13250298Y-17318750D01*
X13259821Y-17328274D01*
X13269345Y-17347321D01*
X13269345Y-17366369D01*
X13259821Y-17394940D01*
X13145536Y-17509226D01*
X13269345Y-17509226D01*
X13393155Y-17309226D02*
X13412202Y-17309226D01*
X13431250Y-17318750D01*
X13440774Y-17328274D01*
X13450298Y-17347321D01*
X13459821Y-17385417D01*
X13459821Y-17433036D01*
X13450298Y-17471131D01*
X13440774Y-17490179D01*
X13431250Y-17499702D01*
X13412202Y-17509226D01*
X13393155Y-17509226D01*
X13374107Y-17499702D01*
X13364583Y-17490179D01*
X13355059Y-17471131D01*
X13345536Y-17433036D01*
X13345536Y-17385417D01*
X13355059Y-17347321D01*
X13364583Y-17328274D01*
X13374107Y-17318750D01*
X13393155Y-17309226D01*
X13583631Y-17309226D02*
X13602678Y-17309226D01*
X13621726Y-17318750D01*
X13631250Y-17328274D01*
X13640774Y-17347321D01*
X13650298Y-17385417D01*
X13650298Y-17433036D01*
X13640774Y-17471131D01*
X13631250Y-17490179D01*
X13621726Y-17499702D01*
X13602678Y-17509226D01*
X13583631Y-17509226D01*
X13564583Y-17499702D01*
X13555059Y-17490179D01*
X13545536Y-17471131D01*
X13536012Y-17433036D01*
X13536012Y-17385417D01*
X13545536Y-17347321D01*
X13555059Y-17328274D01*
X13564583Y-17318750D01*
X13583631Y-17309226D01*
X13736012Y-17509226D02*
X13736012Y-17375893D01*
X13736012Y-17394940D02*
X13745536Y-17385417D01*
X13764583Y-17375893D01*
X13793155Y-17375893D01*
X13812202Y-17385417D01*
X13821726Y-17404464D01*
X13821726Y-17509226D01*
X13821726Y-17404464D02*
X13831250Y-17385417D01*
X13850298Y-17375893D01*
X13878869Y-17375893D01*
X13897917Y-17385417D01*
X13907440Y-17404464D01*
X13907440Y-17509226D01*
X14002678Y-17509226D02*
X14002678Y-17375893D01*
X14002678Y-17394940D02*
X14012202Y-17385417D01*
X14031250Y-17375893D01*
X14059821Y-17375893D01*
X14078869Y-17385417D01*
X14088393Y-17404464D01*
X14088393Y-17509226D01*
X14088393Y-17404464D02*
X14097917Y-17385417D01*
X14116964Y-17375893D01*
X14145536Y-17375893D01*
X14164583Y-17385417D01*
X14174107Y-17404464D01*
X14174107Y-17509226D01*
X14564583Y-17299702D02*
X14393155Y-17556845D01*
X14821726Y-17309226D02*
X14840774Y-17309226D01*
X14859821Y-17318750D01*
X14869345Y-17328274D01*
X14878869Y-17347321D01*
X14888393Y-17385417D01*
X14888393Y-17433036D01*
X14878869Y-17471131D01*
X14869345Y-17490179D01*
X14859821Y-17499702D01*
X14840774Y-17509226D01*
X14821726Y-17509226D01*
X14802678Y-17499702D01*
X14793155Y-17490179D01*
X14783631Y-17471131D01*
X14774107Y-17433036D01*
X14774107Y-17385417D01*
X14783631Y-17347321D01*
X14793155Y-17328274D01*
X14802678Y-17318750D01*
X14821726Y-17309226D01*
X14974107Y-17490179D02*
X14983631Y-17499702D01*
X14974107Y-17509226D01*
X14964583Y-17499702D01*
X14974107Y-17490179D01*
X14974107Y-17509226D01*
X15174107Y-17509226D02*
X15059821Y-17509226D01*
X15116964Y-17509226D02*
X15116964Y-17309226D01*
X15097917Y-17337798D01*
X15078869Y-17356845D01*
X15059821Y-17366369D01*
X15250298Y-17328274D02*
X15259821Y-17318750D01*
X15278869Y-17309226D01*
X15326488Y-17309226D01*
X15345536Y-17318750D01*
X15355059Y-17328274D01*
X15364583Y-17347321D01*
X15364583Y-17366369D01*
X15355059Y-17394940D01*
X15240774Y-17509226D01*
X15364583Y-17509226D01*
X15536012Y-17309226D02*
X15497917Y-17309226D01*
X15478869Y-17318750D01*
X15469345Y-17328274D01*
X15450298Y-17356845D01*
X15440774Y-17394940D01*
X15440774Y-17471131D01*
X15450298Y-17490179D01*
X15459821Y-17499702D01*
X15478869Y-17509226D01*
X15516964Y-17509226D01*
X15536012Y-17499702D01*
X15545536Y-17490179D01*
X15555059Y-17471131D01*
X15555059Y-17423512D01*
X15545536Y-17404464D01*
X15536012Y-17394940D01*
X15516964Y-17385417D01*
X15478869Y-17385417D01*
X15459821Y-17394940D01*
X15450298Y-17404464D01*
X15440774Y-17423512D01*
X15678869Y-17309226D02*
X15697917Y-17309226D01*
X15716964Y-17318750D01*
X15726488Y-17328274D01*
X15736012Y-17347321D01*
X15745536Y-17385417D01*
X15745536Y-17433036D01*
X15736012Y-17471131D01*
X15726488Y-17490179D01*
X15716964Y-17499702D01*
X15697917Y-17509226D01*
X15678869Y-17509226D01*
X15659821Y-17499702D01*
X15650298Y-17490179D01*
X15640774Y-17471131D01*
X15631250Y-17433036D01*
X15631250Y-17385417D01*
X15640774Y-17347321D01*
X15650298Y-17328274D01*
X15659821Y-17318750D01*
X15678869Y-17309226D01*
X15821726Y-17309226D02*
X15821726Y-17347321D01*
X15897917Y-17309226D02*
X15897917Y-17347321D01*
X16193155Y-17585417D02*
X16183631Y-17575893D01*
X16164583Y-17547321D01*
X16155059Y-17528274D01*
X16145536Y-17499702D01*
X16136012Y-17452083D01*
X16136012Y-17413988D01*
X16145536Y-17366369D01*
X16155059Y-17337798D01*
X16164583Y-17318750D01*
X16183631Y-17290179D01*
X16193155Y-17280655D01*
X16259821Y-17328274D02*
X16269345Y-17318750D01*
X16288393Y-17309226D01*
X16336012Y-17309226D01*
X16355059Y-17318750D01*
X16364583Y-17328274D01*
X16374107Y-17347321D01*
X16374107Y-17366369D01*
X16364583Y-17394940D01*
X16250298Y-17509226D01*
X16374107Y-17509226D01*
X16612202Y-17509226D02*
X16612202Y-17309226D01*
X16697917Y-17509226D02*
X16697917Y-17404464D01*
X16688393Y-17385417D01*
X16669345Y-17375893D01*
X16640774Y-17375893D01*
X16621726Y-17385417D01*
X16612202Y-17394940D01*
X16821726Y-17509226D02*
X16802679Y-17499702D01*
X16793155Y-17490179D01*
X16783631Y-17471131D01*
X16783631Y-17413988D01*
X16793155Y-17394940D01*
X16802679Y-17385417D01*
X16821726Y-17375893D01*
X16850298Y-17375893D01*
X16869345Y-17385417D01*
X16878869Y-17394940D01*
X16888393Y-17413988D01*
X16888393Y-17471131D01*
X16878869Y-17490179D01*
X16869345Y-17499702D01*
X16850298Y-17509226D01*
X16821726Y-17509226D01*
X17002679Y-17509226D02*
X16983631Y-17499702D01*
X16974107Y-17480655D01*
X16974107Y-17309226D01*
X17155060Y-17499702D02*
X17136012Y-17509226D01*
X17097917Y-17509226D01*
X17078869Y-17499702D01*
X17069345Y-17480655D01*
X17069345Y-17404464D01*
X17078869Y-17385417D01*
X17097917Y-17375893D01*
X17136012Y-17375893D01*
X17155060Y-17385417D01*
X17164583Y-17404464D01*
X17164583Y-17423512D01*
X17069345Y-17442560D01*
X17240774Y-17499702D02*
X17259821Y-17509226D01*
X17297917Y-17509226D01*
X17316964Y-17499702D01*
X17326488Y-17480655D01*
X17326488Y-17471131D01*
X17316964Y-17452083D01*
X17297917Y-17442560D01*
X17269345Y-17442560D01*
X17250298Y-17433036D01*
X17240774Y-17413988D01*
X17240774Y-17404464D01*
X17250298Y-17385417D01*
X17269345Y-17375893D01*
X17297917Y-17375893D01*
X17316964Y-17385417D01*
X17393155Y-17585417D02*
X17402679Y-17575893D01*
X17421726Y-17547321D01*
X17431250Y-17528274D01*
X17440774Y-17499702D01*
X17450298Y-17452083D01*
X17450298Y-17413988D01*
X17440774Y-17366369D01*
X17431250Y-17337798D01*
X17421726Y-17318750D01*
X17402679Y-17290179D01*
X17393155Y-17280655D01*
M02*
