M48
; FORMAT={-:-/ absolute / metric / decimal}
; #@! TF.GenerationSoftware,Kicad,Pcbnew,6.0.11+dfsg-1
; #@! TF.FileFunction,Plated,1,4,PTH
FMAT,2
METRIC
; #@! TA.AperFunction,Plated,PTH,ViaDrill
T1C0.300
; #@! TA.AperFunction,Plated,PTH,ComponentDrill
T2C0.500
; #@! TA.AperFunction,Plated,PTH,ComponentDrill
T3C0.900
; #@! TA.AperFunction,Plated,PTH,ComponentDrill
T4C1.000
; #@! TA.AperFunction,Plated,PTH,ComponentDrill
T5C1.200
; #@! TA.AperFunction,Plated,PTH,ComponentDrill
T6C3.200
%
G90
G05
T1
X127.262Y-116.037
X128.262Y-115.037
X128.262Y-122.037
X128.262Y-124.037
X130.262Y-122.037
X130.262Y-124.037
X131.262Y-143.037
X131.262Y-145.037
X131.262Y-147.037
X131.262Y-149.037
X134.262Y-115.037
X134.262Y-117.037
X134.262Y-127.537
X134.262Y-140.537
X134.262Y-143.037
X134.262Y-145.037
X134.762Y-133.537
X134.762Y-134.537
X134.762Y-137.037
X135.262Y-146.037
X135.262Y-147.037
X135.262Y-149.037
X135.762Y-125.037
X135.762Y-133.537
X135.762Y-134.537
X136.063Y-136.788
X136.063Y-137.487
X136.2Y-121.9
X136.262Y-115.037
X136.262Y-117.037
X136.987Y-142.787
X137.1Y-121.0
X137.1Y-123.0
X137.262Y-116.237
X137.262Y-125.037
X137.262Y-141.037
X137.963Y-121.938
X138.118Y-125.393
X138.262Y-116.237
X138.262Y-142.037
X138.762Y-125.037
X139.249Y-123.45
X139.262Y-116.237
X139.262Y-141.037
X140.262Y-116.237
X140.262Y-133.037
X140.262Y-135.037
X140.262Y-142.037
X140.649Y-125.849
X140.737Y-145.537
X141.262Y-141.037
X141.463Y-128.838
X141.463Y-129.438
X141.887Y-146.388
X141.963Y-144.287
X142.262Y-142.037
X142.262Y-143.037
X142.737Y-146.037
X142.762Y-116.537
X142.762Y-123.537
X142.762Y-125.037
X143.05Y-128.037
X143.232Y-135.838
X143.262Y-123.037
X143.262Y-125.537
X143.487Y-144.287
X143.762Y-116.537
X143.762Y-119.537
X143.762Y-123.537
X143.762Y-125.037
X143.762Y-129.537
X144.262Y-123.037
X144.262Y-125.537
X144.275Y-146.0
X144.438Y-145.088
X144.737Y-147.037
X144.762Y-123.537
X144.762Y-125.037
X145.262Y-123.037
X145.262Y-125.537
X145.433Y-136.037
X145.71Y-128.09
X146.232Y-136.037
X146.463Y-126.637
X146.775Y-146.0
X147.262Y-115.037
X147.262Y-133.037
X147.463Y-123.637
X147.662Y-127.026
X147.737Y-145.287
X148.262Y-134.037
X148.575Y-127.349
X149.062Y-122.438
X149.262Y-133.037
X149.262Y-135.037
X149.463Y-123.637
X150.262Y-144.037
X150.262Y-146.037
X150.262Y-148.037
X150.862Y-122.237
X152.06Y-143.042
X152.262Y-146.037
X152.262Y-148.037
X153.262Y-143.037
X153.762Y-123.537
X153.762Y-142.037
X154.088Y-130.538
X154.262Y-146.037
X154.262Y-148.037
X155.262Y-123.037
X156.262Y-144.037
X156.262Y-146.037
X156.262Y-148.037
X156.762Y-119.537
X156.862Y-132.737
X157.262Y-123.037
X157.262Y-131.037
X157.262Y-135.037
X158.262Y-133.037
X158.262Y-141.037
X158.762Y-119.537
X158.762Y-123.537
X158.762Y-125.782
X158.762Y-130.137
X159.647Y-123.922
X159.762Y-130.137
X161.262Y-116.037
X161.262Y-139.037
X161.262Y-140.037
X161.262Y-141.037
X162.262Y-117.037
X162.662Y-137.237
X163.262Y-118.037
X163.262Y-139.037
X163.262Y-140.037
X163.262Y-141.037
X165.262Y-137.037
X165.762Y-117.438
X165.8Y-120.403
X166.262Y-123.037
X166.818Y-117.493
X167.262Y-137.037
X167.762Y-117.537
X167.868Y-120.143
X168.262Y-122.337
X168.262Y-139.037
X168.262Y-140.037
X168.262Y-141.037
X168.762Y-117.537
X168.862Y-120.137
X169.262Y-137.037
X170.262Y-123.037
X170.262Y-139.037
X170.262Y-140.037
X170.262Y-141.037
X170.762Y-117.438
X171.262Y-125.037
X171.262Y-137.037
X173.262Y-121.037
X173.262Y-123.037
X173.262Y-139.037
X173.663Y-141.127
X173.762Y-142.037
X174.262Y-126.037
X174.262Y-128.037
X174.262Y-137.037
X175.262Y-119.037
X175.262Y-121.037
X175.262Y-128.537
X176.234Y-138.009
X176.262Y-130.037
X176.762Y-137.037
X177.262Y-115.037
X177.262Y-124.037
X177.262Y-126.037
X178.262Y-136.637
X179.262Y-115.037
X179.262Y-123.037
X179.262Y-137.037
X179.262Y-148.037
X180.262Y-120.037
X180.262Y-121.037
X180.262Y-137.537
X180.262Y-147.037
X181.262Y-115.037
X181.262Y-119.037
X181.262Y-123.037
X181.262Y-131.037
X181.262Y-142.037
X181.762Y-143.537
X182.262Y-129.037
X182.762Y-143.537
X183.262Y-115.037
X183.262Y-119.037
X183.262Y-124.037
X183.262Y-128.037
X183.262Y-140.037
X183.762Y-143.537
X184.262Y-120.037
X184.262Y-144.037
X184.262Y-145.037
X184.262Y-146.037
X185.262Y-115.037
X185.262Y-121.037
X185.262Y-128.037
X185.262Y-140.037
X185.262Y-144.037
X185.262Y-146.037
X186.237Y-147.137
X186.237Y-148.637
X186.237Y-150.137
X186.262Y-124.037
X186.262Y-140.037
X186.999Y-143.458
X186.999Y-144.458
X187.262Y-123.037
X187.262Y-128.037
X187.262Y-130.037
X187.262Y-132.037
X187.262Y-139.037
X187.262Y-140.037
X187.737Y-147.137
X187.737Y-148.608
X187.737Y-150.137
X188.262Y-115.037
X188.262Y-116.037
X188.262Y-124.037
X188.262Y-134.037
X188.262Y-138.037
X188.262Y-140.037
X189.699Y-147.458
X189.699Y-148.458
X189.737Y-150.137
X190.262Y-129.537
X190.262Y-131.037
X190.972Y-119.402
X191.237Y-150.137
X191.262Y-115.037
X191.262Y-116.037
X191.262Y-131.438
X191.262Y-132.438
X192.262Y-130.037
X192.262Y-131.037
X193.262Y-131.438
X193.262Y-132.438
X194.062Y-140.938
X194.062Y-142.737
X194.699Y-146.958
X195.062Y-142.737
X195.262Y-131.438
X195.462Y-140.938
X195.662Y-138.938
X195.938Y-118.237
X197.637Y-138.762
X197.862Y-148.838
X198.262Y-132.537
X198.262Y-134.537
X198.262Y-136.537
X199.062Y-132.537
X199.062Y-134.537
X199.062Y-136.537
X199.262Y-117.037
X201.262Y-115.037
X201.262Y-117.037
X201.262Y-119.037
X201.262Y-130.037
X202.262Y-132.037
X202.262Y-134.037
X202.262Y-136.037
X202.262Y-138.037
X202.262Y-140.037
X202.262Y-142.037
X203.662Y-148.838
X204.262Y-134.037
X206.262Y-134.037
X207.262Y-118.037
X207.262Y-120.037
X207.262Y-122.037
X207.262Y-124.037
X208.262Y-115.037
X208.262Y-132.037
X208.262Y-134.037
X208.262Y-136.037
X209.262Y-116.037
X209.262Y-118.037
X209.262Y-120.037
X209.262Y-122.037
X209.262Y-124.037
X209.262Y-126.037
X209.262Y-128.037
X209.262Y-130.037
T2
X150.862Y-135.037
X151.565Y-133.34
X151.565Y-136.735
X153.262Y-132.637
X153.262Y-137.438
X154.96Y-133.34
X154.96Y-136.735
X155.662Y-135.037
X180.862Y-135.037
X181.565Y-133.34
X181.565Y-136.735
X183.262Y-132.637
X183.262Y-137.438
X184.96Y-133.34
X184.96Y-136.735
X185.662Y-135.037
T4
X139.588Y-143.785
X139.588Y-146.325
X139.588Y-148.865
X182.963Y-144.812
X182.963Y-147.352
X182.963Y-149.892
X187.338Y-141.137
X189.877Y-141.137
X191.222Y-130.037
X192.417Y-141.137
X193.762Y-130.037
X196.302Y-130.037
T5
X131.12Y-128.805
X131.12Y-132.305
X131.12Y-135.805
X131.12Y-139.305
X205.405Y-128.77
X205.405Y-132.27
X205.405Y-135.77
X205.405Y-139.27
T6
X153.262Y-135.037
X183.262Y-135.037
T2
G00X164.387Y-118.968
M15
G01X163.688Y-118.968
M16
G05
G00X172.838Y-116.108
M15
G01X172.137Y-116.108
M16
G05
T3
G00X164.183Y-116.037
M15
G01X162.843Y-116.037
M16
G05
G00X173.683Y-119.037
M15
G01X172.343Y-119.037
M16
G05
T0
M30
