G04 #@! TF.GenerationSoftware,KiCad,Pcbnew,6.0.11+dfsg-1*
G04 #@! TF.ProjectId,project,70726f6a-6563-4742-9e6b-696361645f70,rev?*
G04 #@! TF.SameCoordinates,Original*
G04 #@! TF.FileFunction,Paste,Top*
G04 #@! TF.FilePolarity,Positive*
%FSLAX46Y46*%
G04 Gerber Fmt 4.6, Leading zero omitted, Abs format (unit mm)*
%MOMM*%
%LPD*%
G01*
G04 APERTURE LIST*
G04 #@! TA.AperFunction,Profile*
%ADD10C,0.100000*%
G04 #@! TD*
%ADD11R,0.900000X1.200000*%
%ADD12R,0.900000X0.800000*%
%ADD13R,1.000000X1.000000*%
%ADD14R,1.200000X0.900000*%
%ADD15R,1.000000X3.000000*%
G04 APERTURE END LIST*
D10*
X197262500Y-114037500D02*
X198262500Y-113537500D01*
X142262500Y-154037499D02*
X143262500Y-154537500D01*
X177262500Y-147537500D02*
G75*
G03*
X177262500Y-143537500I0J2000000D01*
G01*
X139262500Y-154037500D02*
X142262500Y-154037499D01*
X194262500Y-154037500D02*
X197262500Y-154037499D01*
X208762500Y-131537500D02*
X208762500Y-136537500D01*
X139262500Y-114037500D02*
X142262500Y-114037500D01*
X208762500Y-154537500D02*
G75*
G03*
X210262500Y-153037500I0J1500000D01*
G01*
X142262500Y-114037500D02*
X143262500Y-113537500D01*
X208762500Y-136537500D02*
G75*
G03*
X209762500Y-137537500I1000000J0D01*
G01*
X198262500Y-113537500D02*
X208762500Y-113537500D01*
X209762500Y-130537500D02*
G75*
G03*
X208762500Y-131537500I0J-1000000D01*
G01*
X138262500Y-113537500D02*
X127762500Y-113537500D01*
X126262500Y-153037500D02*
X126262500Y-115037500D01*
X210262500Y-138037500D02*
X210262500Y-153037500D01*
X127762500Y-113537500D02*
G75*
G03*
X126262500Y-115037500I0J-1500000D01*
G01*
X198262500Y-154537500D02*
X208762500Y-154537500D01*
X197262500Y-154037499D02*
X198262500Y-154537500D01*
X194262500Y-114037500D02*
X197262500Y-114037500D01*
X210262500Y-138037500D02*
G75*
G03*
X209762500Y-137537500I-500000J0D01*
G01*
X138262500Y-154537499D02*
X127762500Y-154537500D01*
X139262500Y-114037500D02*
X138262500Y-113537500D01*
X177262500Y-147537500D02*
X159262500Y-147537500D01*
X126262500Y-153037500D02*
G75*
G03*
X127762500Y-154537500I1500000J0D01*
G01*
X159262500Y-143537500D02*
X177262500Y-143537500D01*
X139262500Y-154037500D02*
X138262500Y-154537499D01*
X209762500Y-130537500D02*
G75*
G03*
X210262500Y-130037500I0J500000D01*
G01*
X210262500Y-130037500D02*
X210262500Y-115037500D01*
X159262500Y-143537500D02*
G75*
G03*
X159262500Y-147537500I0J-2000000D01*
G01*
X143262500Y-113537500D02*
X193262500Y-113537500D01*
X210262500Y-115037500D02*
G75*
G03*
X208762500Y-113537500I-1500000J0D01*
G01*
X194262500Y-154037500D02*
X193262500Y-154537499D01*
X194262500Y-114037500D02*
X193262500Y-113537500D01*
X193262500Y-154537499D02*
X143262500Y-154537500D01*
G36*
G01*
X205212500Y-147937500D02*
X206112500Y-147937500D01*
G75*
G02*
X206362500Y-148187500I0J-250000D01*
G01*
X206362500Y-148837500D01*
G75*
G02*
X206112500Y-149087500I-250000J0D01*
G01*
X205212500Y-149087500D01*
G75*
G02*
X204962500Y-148837500I0J250000D01*
G01*
X204962500Y-148187500D01*
G75*
G02*
X205212500Y-147937500I250000J0D01*
G01*
G37*
G36*
G01*
X205212500Y-149987500D02*
X206112500Y-149987500D01*
G75*
G02*
X206362500Y-150237500I0J-250000D01*
G01*
X206362500Y-150887500D01*
G75*
G02*
X206112500Y-151137500I-250000J0D01*
G01*
X205212500Y-151137500D01*
G75*
G02*
X204962500Y-150887500I0J250000D01*
G01*
X204962500Y-150237500D01*
G75*
G02*
X205212500Y-149987500I250000J0D01*
G01*
G37*
G36*
G01*
X145697500Y-115882500D02*
X145697500Y-116192500D01*
G75*
G02*
X145542500Y-116347500I-155000J0D01*
G01*
X145117500Y-116347500D01*
G75*
G02*
X144962500Y-116192500I0J155000D01*
G01*
X144962500Y-115882500D01*
G75*
G02*
X145117500Y-115727500I155000J0D01*
G01*
X145542500Y-115727500D01*
G75*
G02*
X145697500Y-115882500I0J-155000D01*
G01*
G37*
G36*
G01*
X144562500Y-115882500D02*
X144562500Y-116192500D01*
G75*
G02*
X144407500Y-116347500I-155000J0D01*
G01*
X143982500Y-116347500D01*
G75*
G02*
X143827500Y-116192500I0J155000D01*
G01*
X143827500Y-115882500D01*
G75*
G02*
X143982500Y-115727500I155000J0D01*
G01*
X144407500Y-115727500D01*
G75*
G02*
X144562500Y-115882500I0J-155000D01*
G01*
G37*
G36*
G01*
X195837500Y-136012500D02*
X195837500Y-135062500D01*
G75*
G02*
X196087500Y-134812500I250000J0D01*
G01*
X196762500Y-134812500D01*
G75*
G02*
X197012500Y-135062500I0J-250000D01*
G01*
X197012500Y-136012500D01*
G75*
G02*
X196762500Y-136262500I-250000J0D01*
G01*
X196087500Y-136262500D01*
G75*
G02*
X195837500Y-136012500I0J250000D01*
G01*
G37*
G36*
G01*
X197912500Y-136012500D02*
X197912500Y-135062500D01*
G75*
G02*
X198162500Y-134812500I250000J0D01*
G01*
X198837500Y-134812500D01*
G75*
G02*
X199087500Y-135062500I0J-250000D01*
G01*
X199087500Y-136012500D01*
G75*
G02*
X198837500Y-136262500I-250000J0D01*
G01*
X198162500Y-136262500D01*
G75*
G02*
X197912500Y-136012500I0J250000D01*
G01*
G37*
G36*
G01*
X140625000Y-122525000D02*
X140625000Y-123475000D01*
G75*
G02*
X140375000Y-123725000I-250000J0D01*
G01*
X139700000Y-123725000D01*
G75*
G02*
X139450000Y-123475000I0J250000D01*
G01*
X139450000Y-122525000D01*
G75*
G02*
X139700000Y-122275000I250000J0D01*
G01*
X140375000Y-122275000D01*
G75*
G02*
X140625000Y-122525000I0J-250000D01*
G01*
G37*
G36*
G01*
X138550000Y-122525000D02*
X138550000Y-123475000D01*
G75*
G02*
X138300000Y-123725000I-250000J0D01*
G01*
X137625000Y-123725000D01*
G75*
G02*
X137375000Y-123475000I0J250000D01*
G01*
X137375000Y-122525000D01*
G75*
G02*
X137625000Y-122275000I250000J0D01*
G01*
X138300000Y-122275000D01*
G75*
G02*
X138550000Y-122525000I0J-250000D01*
G01*
G37*
G36*
G01*
X198912500Y-140537500D02*
X198012500Y-140537500D01*
G75*
G02*
X197762500Y-140287500I0J250000D01*
G01*
X197762500Y-139587500D01*
G75*
G02*
X198012500Y-139337500I250000J0D01*
G01*
X198912500Y-139337500D01*
G75*
G02*
X199162500Y-139587500I0J-250000D01*
G01*
X199162500Y-140287500D01*
G75*
G02*
X198912500Y-140537500I-250000J0D01*
G01*
G37*
G36*
G01*
X198912500Y-138537500D02*
X198012500Y-138537500D01*
G75*
G02*
X197762500Y-138287500I0J250000D01*
G01*
X197762500Y-137587500D01*
G75*
G02*
X198012500Y-137337500I250000J0D01*
G01*
X198912500Y-137337500D01*
G75*
G02*
X199162500Y-137587500I0J-250000D01*
G01*
X199162500Y-138287500D01*
G75*
G02*
X198912500Y-138537500I-250000J0D01*
G01*
G37*
G36*
G01*
X150600000Y-119950000D02*
X150600000Y-120850000D01*
G75*
G02*
X150350000Y-121100000I-250000J0D01*
G01*
X149650000Y-121100000D01*
G75*
G02*
X149400000Y-120850000I0J250000D01*
G01*
X149400000Y-119950000D01*
G75*
G02*
X149650000Y-119700000I250000J0D01*
G01*
X150350000Y-119700000D01*
G75*
G02*
X150600000Y-119950000I0J-250000D01*
G01*
G37*
G36*
G01*
X148600000Y-119950000D02*
X148600000Y-120850000D01*
G75*
G02*
X148350000Y-121100000I-250000J0D01*
G01*
X147650000Y-121100000D01*
G75*
G02*
X147400000Y-120850000I0J250000D01*
G01*
X147400000Y-119950000D01*
G75*
G02*
X147650000Y-119700000I250000J0D01*
G01*
X148350000Y-119700000D01*
G75*
G02*
X148600000Y-119950000I0J-250000D01*
G01*
G37*
D11*
X193087500Y-124037500D03*
X196387500Y-124037500D03*
G36*
G01*
X200462500Y-149487500D02*
X200462500Y-150387500D01*
G75*
G02*
X200212500Y-150637500I-250000J0D01*
G01*
X199512500Y-150637500D01*
G75*
G02*
X199262500Y-150387500I0J250000D01*
G01*
X199262500Y-149487500D01*
G75*
G02*
X199512500Y-149237500I250000J0D01*
G01*
X200212500Y-149237500D01*
G75*
G02*
X200462500Y-149487500I0J-250000D01*
G01*
G37*
G36*
G01*
X198462500Y-149487500D02*
X198462500Y-150387500D01*
G75*
G02*
X198212500Y-150637500I-250000J0D01*
G01*
X197512500Y-150637500D01*
G75*
G02*
X197262500Y-150387500I0J250000D01*
G01*
X197262500Y-149487500D01*
G75*
G02*
X197512500Y-149237500I250000J0D01*
G01*
X198212500Y-149237500D01*
G75*
G02*
X198462500Y-149487500I0J-250000D01*
G01*
G37*
G36*
G01*
X148737500Y-125662500D02*
X147787500Y-125662500D01*
G75*
G02*
X147537500Y-125412500I0J250000D01*
G01*
X147537500Y-124737500D01*
G75*
G02*
X147787500Y-124487500I250000J0D01*
G01*
X148737500Y-124487500D01*
G75*
G02*
X148987500Y-124737500I0J-250000D01*
G01*
X148987500Y-125412500D01*
G75*
G02*
X148737500Y-125662500I-250000J0D01*
G01*
G37*
G36*
G01*
X148737500Y-123587500D02*
X147787500Y-123587500D01*
G75*
G02*
X147537500Y-123337500I0J250000D01*
G01*
X147537500Y-122662500D01*
G75*
G02*
X147787500Y-122412500I250000J0D01*
G01*
X148737500Y-122412500D01*
G75*
G02*
X148987500Y-122662500I0J-250000D01*
G01*
X148987500Y-123337500D01*
G75*
G02*
X148737500Y-123587500I-250000J0D01*
G01*
G37*
G36*
G01*
X195837500Y-134012500D02*
X195837500Y-133062500D01*
G75*
G02*
X196087500Y-132812500I250000J0D01*
G01*
X196762500Y-132812500D01*
G75*
G02*
X197012500Y-133062500I0J-250000D01*
G01*
X197012500Y-134012500D01*
G75*
G02*
X196762500Y-134262500I-250000J0D01*
G01*
X196087500Y-134262500D01*
G75*
G02*
X195837500Y-134012500I0J250000D01*
G01*
G37*
G36*
G01*
X197912500Y-134012500D02*
X197912500Y-133062500D01*
G75*
G02*
X198162500Y-132812500I250000J0D01*
G01*
X198837500Y-132812500D01*
G75*
G02*
X199087500Y-133062500I0J-250000D01*
G01*
X199087500Y-134012500D01*
G75*
G02*
X198837500Y-134262500I-250000J0D01*
G01*
X198162500Y-134262500D01*
G75*
G02*
X197912500Y-134012500I0J250000D01*
G01*
G37*
G36*
G01*
X193412500Y-128687500D02*
X193412500Y-127787500D01*
G75*
G02*
X193662500Y-127537500I250000J0D01*
G01*
X194362500Y-127537500D01*
G75*
G02*
X194612500Y-127787500I0J-250000D01*
G01*
X194612500Y-128687500D01*
G75*
G02*
X194362500Y-128937500I-250000J0D01*
G01*
X193662500Y-128937500D01*
G75*
G02*
X193412500Y-128687500I0J250000D01*
G01*
G37*
G36*
G01*
X195412500Y-128687500D02*
X195412500Y-127787500D01*
G75*
G02*
X195662500Y-127537500I250000J0D01*
G01*
X196362500Y-127537500D01*
G75*
G02*
X196612500Y-127787500I0J-250000D01*
G01*
X196612500Y-128687500D01*
G75*
G02*
X196362500Y-128937500I-250000J0D01*
G01*
X195662500Y-128937500D01*
G75*
G02*
X195412500Y-128687500I0J250000D01*
G01*
G37*
G36*
G01*
X192737500Y-134562500D02*
X191787500Y-134562500D01*
G75*
G02*
X191537500Y-134312500I0J250000D01*
G01*
X191537500Y-133637500D01*
G75*
G02*
X191787500Y-133387500I250000J0D01*
G01*
X192737500Y-133387500D01*
G75*
G02*
X192987500Y-133637500I0J-250000D01*
G01*
X192987500Y-134312500D01*
G75*
G02*
X192737500Y-134562500I-250000J0D01*
G01*
G37*
G36*
G01*
X192737500Y-132487500D02*
X191787500Y-132487500D01*
G75*
G02*
X191537500Y-132237500I0J250000D01*
G01*
X191537500Y-131562500D01*
G75*
G02*
X191787500Y-131312500I250000J0D01*
G01*
X192737500Y-131312500D01*
G75*
G02*
X192987500Y-131562500I0J-250000D01*
G01*
X192987500Y-132237500D01*
G75*
G02*
X192737500Y-132487500I-250000J0D01*
G01*
G37*
G36*
G01*
X184512500Y-147337500D02*
X185412500Y-147337500D01*
G75*
G02*
X185662500Y-147587500I0J-250000D01*
G01*
X185662500Y-148287500D01*
G75*
G02*
X185412500Y-148537500I-250000J0D01*
G01*
X184512500Y-148537500D01*
G75*
G02*
X184262500Y-148287500I0J250000D01*
G01*
X184262500Y-147587500D01*
G75*
G02*
X184512500Y-147337500I250000J0D01*
G01*
G37*
G36*
G01*
X184512500Y-149337500D02*
X185412500Y-149337500D01*
G75*
G02*
X185662500Y-149587500I0J-250000D01*
G01*
X185662500Y-150287500D01*
G75*
G02*
X185412500Y-150537500I-250000J0D01*
G01*
X184512500Y-150537500D01*
G75*
G02*
X184262500Y-150287500I0J250000D01*
G01*
X184262500Y-149587500D01*
G75*
G02*
X184512500Y-149337500I250000J0D01*
G01*
G37*
G36*
G01*
X200462500Y-147487500D02*
X200462500Y-148387500D01*
G75*
G02*
X200212500Y-148637500I-250000J0D01*
G01*
X199512500Y-148637500D01*
G75*
G02*
X199262500Y-148387500I0J250000D01*
G01*
X199262500Y-147487500D01*
G75*
G02*
X199512500Y-147237500I250000J0D01*
G01*
X200212500Y-147237500D01*
G75*
G02*
X200462500Y-147487500I0J-250000D01*
G01*
G37*
G36*
G01*
X198462500Y-147487500D02*
X198462500Y-148387500D01*
G75*
G02*
X198212500Y-148637500I-250000J0D01*
G01*
X197512500Y-148637500D01*
G75*
G02*
X197262500Y-148387500I0J250000D01*
G01*
X197262500Y-147487500D01*
G75*
G02*
X197512500Y-147237500I250000J0D01*
G01*
X198212500Y-147237500D01*
G75*
G02*
X198462500Y-147487500I0J-250000D01*
G01*
G37*
G36*
G01*
X192462500Y-145387500D02*
X192462500Y-146287500D01*
G75*
G02*
X192212500Y-146537500I-250000J0D01*
G01*
X191512500Y-146537500D01*
G75*
G02*
X191262500Y-146287500I0J250000D01*
G01*
X191262500Y-145387500D01*
G75*
G02*
X191512500Y-145137500I250000J0D01*
G01*
X192212500Y-145137500D01*
G75*
G02*
X192462500Y-145387500I0J-250000D01*
G01*
G37*
G36*
G01*
X190462500Y-145387500D02*
X190462500Y-146287500D01*
G75*
G02*
X190212500Y-146537500I-250000J0D01*
G01*
X189512500Y-146537500D01*
G75*
G02*
X189262500Y-146287500I0J250000D01*
G01*
X189262500Y-145387500D01*
G75*
G02*
X189512500Y-145137500I250000J0D01*
G01*
X190212500Y-145137500D01*
G75*
G02*
X190462500Y-145387500I0J-250000D01*
G01*
G37*
G36*
G01*
X190737500Y-134562500D02*
X189787500Y-134562500D01*
G75*
G02*
X189537500Y-134312500I0J250000D01*
G01*
X189537500Y-133637500D01*
G75*
G02*
X189787500Y-133387500I250000J0D01*
G01*
X190737500Y-133387500D01*
G75*
G02*
X190987500Y-133637500I0J-250000D01*
G01*
X190987500Y-134312500D01*
G75*
G02*
X190737500Y-134562500I-250000J0D01*
G01*
G37*
G36*
G01*
X190737500Y-132487500D02*
X189787500Y-132487500D01*
G75*
G02*
X189537500Y-132237500I0J250000D01*
G01*
X189537500Y-131562500D01*
G75*
G02*
X189787500Y-131312500I250000J0D01*
G01*
X190737500Y-131312500D01*
G75*
G02*
X190987500Y-131562500I0J-250000D01*
G01*
X190987500Y-132237500D01*
G75*
G02*
X190737500Y-132487500I-250000J0D01*
G01*
G37*
D12*
X144100000Y-117450000D03*
X142700000Y-117450000D03*
X142700000Y-118550000D03*
X144100000Y-118550000D03*
G36*
G01*
X151812500Y-121937500D02*
X152712500Y-121937500D01*
G75*
G02*
X152962500Y-122187500I0J-250000D01*
G01*
X152962500Y-122887500D01*
G75*
G02*
X152712500Y-123137500I-250000J0D01*
G01*
X151812500Y-123137500D01*
G75*
G02*
X151562500Y-122887500I0J250000D01*
G01*
X151562500Y-122187500D01*
G75*
G02*
X151812500Y-121937500I250000J0D01*
G01*
G37*
G36*
G01*
X151812500Y-123937500D02*
X152712500Y-123937500D01*
G75*
G02*
X152962500Y-124187500I0J-250000D01*
G01*
X152962500Y-124887500D01*
G75*
G02*
X152712500Y-125137500I-250000J0D01*
G01*
X151812500Y-125137500D01*
G75*
G02*
X151562500Y-124887500I0J250000D01*
G01*
X151562500Y-124187500D01*
G75*
G02*
X151812500Y-123937500I250000J0D01*
G01*
G37*
G36*
G01*
X194937500Y-144562500D02*
X193987500Y-144562500D01*
G75*
G02*
X193737500Y-144312500I0J250000D01*
G01*
X193737500Y-143637500D01*
G75*
G02*
X193987500Y-143387500I250000J0D01*
G01*
X194937500Y-143387500D01*
G75*
G02*
X195187500Y-143637500I0J-250000D01*
G01*
X195187500Y-144312500D01*
G75*
G02*
X194937500Y-144562500I-250000J0D01*
G01*
G37*
G36*
G01*
X194937500Y-142487500D02*
X193987500Y-142487500D01*
G75*
G02*
X193737500Y-142237500I0J250000D01*
G01*
X193737500Y-141562500D01*
G75*
G02*
X193987500Y-141312500I250000J0D01*
G01*
X194937500Y-141312500D01*
G75*
G02*
X195187500Y-141562500I0J-250000D01*
G01*
X195187500Y-142237500D01*
G75*
G02*
X194937500Y-142487500I-250000J0D01*
G01*
G37*
G36*
G01*
X197987500Y-141312500D02*
X198937500Y-141312500D01*
G75*
G02*
X199187500Y-141562500I0J-250000D01*
G01*
X199187500Y-142237500D01*
G75*
G02*
X198937500Y-142487500I-250000J0D01*
G01*
X197987500Y-142487500D01*
G75*
G02*
X197737500Y-142237500I0J250000D01*
G01*
X197737500Y-141562500D01*
G75*
G02*
X197987500Y-141312500I250000J0D01*
G01*
G37*
G36*
G01*
X197987500Y-143387500D02*
X198937500Y-143387500D01*
G75*
G02*
X199187500Y-143637500I0J-250000D01*
G01*
X199187500Y-144312500D01*
G75*
G02*
X198937500Y-144562500I-250000J0D01*
G01*
X197987500Y-144562500D01*
G75*
G02*
X197737500Y-144312500I0J250000D01*
G01*
X197737500Y-143637500D01*
G75*
G02*
X197987500Y-143387500I250000J0D01*
G01*
G37*
G36*
G01*
X196062500Y-147162500D02*
X196362500Y-147162500D01*
G75*
G02*
X196512500Y-147312500I0J-150000D01*
G01*
X196512500Y-148487500D01*
G75*
G02*
X196362500Y-148637500I-150000J0D01*
G01*
X196062500Y-148637500D01*
G75*
G02*
X195912500Y-148487500I0J150000D01*
G01*
X195912500Y-147312500D01*
G75*
G02*
X196062500Y-147162500I150000J0D01*
G01*
G37*
G36*
G01*
X194162500Y-147162500D02*
X194462500Y-147162500D01*
G75*
G02*
X194612500Y-147312500I0J-150000D01*
G01*
X194612500Y-148487500D01*
G75*
G02*
X194462500Y-148637500I-150000J0D01*
G01*
X194162500Y-148637500D01*
G75*
G02*
X194012500Y-148487500I0J150000D01*
G01*
X194012500Y-147312500D01*
G75*
G02*
X194162500Y-147162500I150000J0D01*
G01*
G37*
G36*
G01*
X195112500Y-149037500D02*
X195412500Y-149037500D01*
G75*
G02*
X195562500Y-149187500I0J-150000D01*
G01*
X195562500Y-150362500D01*
G75*
G02*
X195412500Y-150512500I-150000J0D01*
G01*
X195112500Y-150512500D01*
G75*
G02*
X194962500Y-150362500I0J150000D01*
G01*
X194962500Y-149187500D01*
G75*
G02*
X195112500Y-149037500I150000J0D01*
G01*
G37*
G36*
G01*
X169062500Y-120737500D02*
X169362500Y-120737500D01*
G75*
G02*
X169512500Y-120887500I0J-150000D01*
G01*
X169512500Y-121912500D01*
G75*
G02*
X169362500Y-122062500I-150000J0D01*
G01*
X169062500Y-122062500D01*
G75*
G02*
X168912500Y-121912500I0J150000D01*
G01*
X168912500Y-120887500D01*
G75*
G02*
X169062500Y-120737500I150000J0D01*
G01*
G37*
G36*
G01*
X168112500Y-120737500D02*
X168412500Y-120737500D01*
G75*
G02*
X168562500Y-120887500I0J-150000D01*
G01*
X168562500Y-121912500D01*
G75*
G02*
X168412500Y-122062500I-150000J0D01*
G01*
X168112500Y-122062500D01*
G75*
G02*
X167962500Y-121912500I0J150000D01*
G01*
X167962500Y-120887500D01*
G75*
G02*
X168112500Y-120737500I150000J0D01*
G01*
G37*
G36*
G01*
X167162500Y-120737500D02*
X167462500Y-120737500D01*
G75*
G02*
X167612500Y-120887500I0J-150000D01*
G01*
X167612500Y-121912500D01*
G75*
G02*
X167462500Y-122062500I-150000J0D01*
G01*
X167162500Y-122062500D01*
G75*
G02*
X167012500Y-121912500I0J150000D01*
G01*
X167012500Y-120887500D01*
G75*
G02*
X167162500Y-120737500I150000J0D01*
G01*
G37*
G36*
G01*
X167162500Y-123012500D02*
X167462500Y-123012500D01*
G75*
G02*
X167612500Y-123162500I0J-150000D01*
G01*
X167612500Y-124187500D01*
G75*
G02*
X167462500Y-124337500I-150000J0D01*
G01*
X167162500Y-124337500D01*
G75*
G02*
X167012500Y-124187500I0J150000D01*
G01*
X167012500Y-123162500D01*
G75*
G02*
X167162500Y-123012500I150000J0D01*
G01*
G37*
G36*
G01*
X168112500Y-123012500D02*
X168412500Y-123012500D01*
G75*
G02*
X168562500Y-123162500I0J-150000D01*
G01*
X168562500Y-124187500D01*
G75*
G02*
X168412500Y-124337500I-150000J0D01*
G01*
X168112500Y-124337500D01*
G75*
G02*
X167962500Y-124187500I0J150000D01*
G01*
X167962500Y-123162500D01*
G75*
G02*
X168112500Y-123012500I150000J0D01*
G01*
G37*
G36*
G01*
X169062500Y-123012500D02*
X169362500Y-123012500D01*
G75*
G02*
X169512500Y-123162500I0J-150000D01*
G01*
X169512500Y-124187500D01*
G75*
G02*
X169362500Y-124337500I-150000J0D01*
G01*
X169062500Y-124337500D01*
G75*
G02*
X168912500Y-124187500I0J150000D01*
G01*
X168912500Y-123162500D01*
G75*
G02*
X169062500Y-123012500I150000J0D01*
G01*
G37*
G36*
G01*
X204262500Y-143087500D02*
X204262500Y-143987500D01*
G75*
G02*
X204012500Y-144237500I-250000J0D01*
G01*
X203362500Y-144237500D01*
G75*
G02*
X203112500Y-143987500I0J250000D01*
G01*
X203112500Y-143087500D01*
G75*
G02*
X203362500Y-142837500I250000J0D01*
G01*
X204012500Y-142837500D01*
G75*
G02*
X204262500Y-143087500I0J-250000D01*
G01*
G37*
G36*
G01*
X202212500Y-143087500D02*
X202212500Y-143987500D01*
G75*
G02*
X201962500Y-144237500I-250000J0D01*
G01*
X201312500Y-144237500D01*
G75*
G02*
X201062500Y-143987500I0J250000D01*
G01*
X201062500Y-143087500D01*
G75*
G02*
X201312500Y-142837500I250000J0D01*
G01*
X201962500Y-142837500D01*
G75*
G02*
X202212500Y-143087500I0J-250000D01*
G01*
G37*
G36*
G01*
X201062500Y-148387500D02*
X201062500Y-147487500D01*
G75*
G02*
X201312500Y-147237500I250000J0D01*
G01*
X202012500Y-147237500D01*
G75*
G02*
X202262500Y-147487500I0J-250000D01*
G01*
X202262500Y-148387500D01*
G75*
G02*
X202012500Y-148637500I-250000J0D01*
G01*
X201312500Y-148637500D01*
G75*
G02*
X201062500Y-148387500I0J250000D01*
G01*
G37*
G36*
G01*
X203062500Y-148387500D02*
X203062500Y-147487500D01*
G75*
G02*
X203312500Y-147237500I250000J0D01*
G01*
X204012500Y-147237500D01*
G75*
G02*
X204262500Y-147487500I0J-250000D01*
G01*
X204262500Y-148387500D01*
G75*
G02*
X204012500Y-148637500I-250000J0D01*
G01*
X203312500Y-148637500D01*
G75*
G02*
X203062500Y-148387500I0J250000D01*
G01*
G37*
G36*
G01*
X190537500Y-139362500D02*
X189587500Y-139362500D01*
G75*
G02*
X189337500Y-139112500I0J250000D01*
G01*
X189337500Y-138437500D01*
G75*
G02*
X189587500Y-138187500I250000J0D01*
G01*
X190537500Y-138187500D01*
G75*
G02*
X190787500Y-138437500I0J-250000D01*
G01*
X190787500Y-139112500D01*
G75*
G02*
X190537500Y-139362500I-250000J0D01*
G01*
G37*
G36*
G01*
X190537500Y-137287500D02*
X189587500Y-137287500D01*
G75*
G02*
X189337500Y-137037500I0J250000D01*
G01*
X189337500Y-136362500D01*
G75*
G02*
X189587500Y-136112500I250000J0D01*
G01*
X190537500Y-136112500D01*
G75*
G02*
X190787500Y-136362500I0J-250000D01*
G01*
X190787500Y-137037500D01*
G75*
G02*
X190537500Y-137287500I-250000J0D01*
G01*
G37*
G36*
G01*
X201062500Y-150387500D02*
X201062500Y-149487500D01*
G75*
G02*
X201312500Y-149237500I250000J0D01*
G01*
X202012500Y-149237500D01*
G75*
G02*
X202262500Y-149487500I0J-250000D01*
G01*
X202262500Y-150387500D01*
G75*
G02*
X202012500Y-150637500I-250000J0D01*
G01*
X201312500Y-150637500D01*
G75*
G02*
X201062500Y-150387500I0J250000D01*
G01*
G37*
G36*
G01*
X203062500Y-150387500D02*
X203062500Y-149487500D01*
G75*
G02*
X203312500Y-149237500I250000J0D01*
G01*
X204012500Y-149237500D01*
G75*
G02*
X204262500Y-149487500I0J-250000D01*
G01*
X204262500Y-150387500D01*
G75*
G02*
X204012500Y-150637500I-250000J0D01*
G01*
X203312500Y-150637500D01*
G75*
G02*
X203062500Y-150387500I0J250000D01*
G01*
G37*
D13*
X193612500Y-145837500D03*
X196112500Y-145837500D03*
G36*
G01*
X157287500Y-117912500D02*
X158237500Y-117912500D01*
G75*
G02*
X158487500Y-118162500I0J-250000D01*
G01*
X158487500Y-118837500D01*
G75*
G02*
X158237500Y-119087500I-250000J0D01*
G01*
X157287500Y-119087500D01*
G75*
G02*
X157037500Y-118837500I0J250000D01*
G01*
X157037500Y-118162500D01*
G75*
G02*
X157287500Y-117912500I250000J0D01*
G01*
G37*
G36*
G01*
X157287500Y-119987500D02*
X158237500Y-119987500D01*
G75*
G02*
X158487500Y-120237500I0J-250000D01*
G01*
X158487500Y-120912500D01*
G75*
G02*
X158237500Y-121162500I-250000J0D01*
G01*
X157287500Y-121162500D01*
G75*
G02*
X157037500Y-120912500I0J250000D01*
G01*
X157037500Y-120237500D01*
G75*
G02*
X157287500Y-119987500I250000J0D01*
G01*
G37*
G36*
G01*
X179887500Y-120062500D02*
X179887500Y-121012500D01*
G75*
G02*
X179637500Y-121262500I-250000J0D01*
G01*
X178962500Y-121262500D01*
G75*
G02*
X178712500Y-121012500I0J250000D01*
G01*
X178712500Y-120062500D01*
G75*
G02*
X178962500Y-119812500I250000J0D01*
G01*
X179637500Y-119812500D01*
G75*
G02*
X179887500Y-120062500I0J-250000D01*
G01*
G37*
G36*
G01*
X177812500Y-120062500D02*
X177812500Y-121012500D01*
G75*
G02*
X177562500Y-121262500I-250000J0D01*
G01*
X176887500Y-121262500D01*
G75*
G02*
X176637500Y-121012500I0J250000D01*
G01*
X176637500Y-120062500D01*
G75*
G02*
X176887500Y-119812500I250000J0D01*
G01*
X177562500Y-119812500D01*
G75*
G02*
X177812500Y-120062500I0J-250000D01*
G01*
G37*
G36*
G01*
X137137500Y-146725000D02*
X138037500Y-146725000D01*
G75*
G02*
X138287500Y-146975000I0J-250000D01*
G01*
X138287500Y-147675000D01*
G75*
G02*
X138037500Y-147925000I-250000J0D01*
G01*
X137137500Y-147925000D01*
G75*
G02*
X136887500Y-147675000I0J250000D01*
G01*
X136887500Y-146975000D01*
G75*
G02*
X137137500Y-146725000I250000J0D01*
G01*
G37*
G36*
G01*
X137137500Y-148725000D02*
X138037500Y-148725000D01*
G75*
G02*
X138287500Y-148975000I0J-250000D01*
G01*
X138287500Y-149675000D01*
G75*
G02*
X138037500Y-149925000I-250000J0D01*
G01*
X137137500Y-149925000D01*
G75*
G02*
X136887500Y-149675000I0J250000D01*
G01*
X136887500Y-148975000D01*
G75*
G02*
X137137500Y-148725000I250000J0D01*
G01*
G37*
G36*
G01*
X164562500Y-115377500D02*
X164962500Y-115377500D01*
G75*
G02*
X165012500Y-115427500I0J-50000D01*
G01*
X165012500Y-116917500D01*
G75*
G02*
X164962500Y-116967500I-50000J0D01*
G01*
X164562500Y-116967500D01*
G75*
G02*
X164512500Y-116917500I0J50000D01*
G01*
X164512500Y-115427500D01*
G75*
G02*
X164562500Y-115377500I50000J0D01*
G01*
G37*
G36*
G01*
X165562500Y-115377500D02*
X165962500Y-115377500D01*
G75*
G02*
X166012500Y-115427500I0J-50000D01*
G01*
X166012500Y-116917500D01*
G75*
G02*
X165962500Y-116967500I-50000J0D01*
G01*
X165562500Y-116967500D01*
G75*
G02*
X165512500Y-116917500I0J50000D01*
G01*
X165512500Y-115427500D01*
G75*
G02*
X165562500Y-115377500I50000J0D01*
G01*
G37*
G36*
G01*
X166562500Y-115377500D02*
X166962500Y-115377500D01*
G75*
G02*
X167012500Y-115427500I0J-50000D01*
G01*
X167012500Y-116917500D01*
G75*
G02*
X166962500Y-116967500I-50000J0D01*
G01*
X166562500Y-116967500D01*
G75*
G02*
X166512500Y-116917500I0J50000D01*
G01*
X166512500Y-115427500D01*
G75*
G02*
X166562500Y-115377500I50000J0D01*
G01*
G37*
G36*
G01*
X167562500Y-115377500D02*
X167962500Y-115377500D01*
G75*
G02*
X168012500Y-115427500I0J-50000D01*
G01*
X168012500Y-116917500D01*
G75*
G02*
X167962500Y-116967500I-50000J0D01*
G01*
X167562500Y-116967500D01*
G75*
G02*
X167512500Y-116917500I0J50000D01*
G01*
X167512500Y-115427500D01*
G75*
G02*
X167562500Y-115377500I50000J0D01*
G01*
G37*
G36*
G01*
X168562500Y-115377500D02*
X168962500Y-115377500D01*
G75*
G02*
X169012500Y-115427500I0J-50000D01*
G01*
X169012500Y-116917500D01*
G75*
G02*
X168962500Y-116967500I-50000J0D01*
G01*
X168562500Y-116967500D01*
G75*
G02*
X168512500Y-116917500I0J50000D01*
G01*
X168512500Y-115427500D01*
G75*
G02*
X168562500Y-115377500I50000J0D01*
G01*
G37*
G36*
G01*
X169562500Y-115377500D02*
X169962500Y-115377500D01*
G75*
G02*
X170012500Y-115427500I0J-50000D01*
G01*
X170012500Y-116917500D01*
G75*
G02*
X169962500Y-116967500I-50000J0D01*
G01*
X169562500Y-116967500D01*
G75*
G02*
X169512500Y-116917500I0J50000D01*
G01*
X169512500Y-115427500D01*
G75*
G02*
X169562500Y-115377500I50000J0D01*
G01*
G37*
G36*
G01*
X170562500Y-115377500D02*
X170962500Y-115377500D01*
G75*
G02*
X171012500Y-115427500I0J-50000D01*
G01*
X171012500Y-116917500D01*
G75*
G02*
X170962500Y-116967500I-50000J0D01*
G01*
X170562500Y-116967500D01*
G75*
G02*
X170512500Y-116917500I0J50000D01*
G01*
X170512500Y-115427500D01*
G75*
G02*
X170562500Y-115377500I50000J0D01*
G01*
G37*
G36*
G01*
X171562500Y-115377500D02*
X171962500Y-115377500D01*
G75*
G02*
X172012500Y-115427500I0J-50000D01*
G01*
X172012500Y-116917500D01*
G75*
G02*
X171962500Y-116967500I-50000J0D01*
G01*
X171562500Y-116967500D01*
G75*
G02*
X171512500Y-116917500I0J50000D01*
G01*
X171512500Y-115427500D01*
G75*
G02*
X171562500Y-115377500I50000J0D01*
G01*
G37*
G36*
G01*
X171562500Y-118107500D02*
X171962500Y-118107500D01*
G75*
G02*
X172012500Y-118157500I0J-50000D01*
G01*
X172012500Y-119647500D01*
G75*
G02*
X171962500Y-119697500I-50000J0D01*
G01*
X171562500Y-119697500D01*
G75*
G02*
X171512500Y-119647500I0J50000D01*
G01*
X171512500Y-118157500D01*
G75*
G02*
X171562500Y-118107500I50000J0D01*
G01*
G37*
G36*
G01*
X170562500Y-118107500D02*
X170962500Y-118107500D01*
G75*
G02*
X171012500Y-118157500I0J-50000D01*
G01*
X171012500Y-119647500D01*
G75*
G02*
X170962500Y-119697500I-50000J0D01*
G01*
X170562500Y-119697500D01*
G75*
G02*
X170512500Y-119647500I0J50000D01*
G01*
X170512500Y-118157500D01*
G75*
G02*
X170562500Y-118107500I50000J0D01*
G01*
G37*
G36*
G01*
X169562500Y-118107500D02*
X169962500Y-118107500D01*
G75*
G02*
X170012500Y-118157500I0J-50000D01*
G01*
X170012500Y-119647500D01*
G75*
G02*
X169962500Y-119697500I-50000J0D01*
G01*
X169562500Y-119697500D01*
G75*
G02*
X169512500Y-119647500I0J50000D01*
G01*
X169512500Y-118157500D01*
G75*
G02*
X169562500Y-118107500I50000J0D01*
G01*
G37*
G36*
G01*
X168562500Y-118107500D02*
X168962500Y-118107500D01*
G75*
G02*
X169012500Y-118157500I0J-50000D01*
G01*
X169012500Y-119647500D01*
G75*
G02*
X168962500Y-119697500I-50000J0D01*
G01*
X168562500Y-119697500D01*
G75*
G02*
X168512500Y-119647500I0J50000D01*
G01*
X168512500Y-118157500D01*
G75*
G02*
X168562500Y-118107500I50000J0D01*
G01*
G37*
G36*
G01*
X167562500Y-118107500D02*
X167962500Y-118107500D01*
G75*
G02*
X168012500Y-118157500I0J-50000D01*
G01*
X168012500Y-119647500D01*
G75*
G02*
X167962500Y-119697500I-50000J0D01*
G01*
X167562500Y-119697500D01*
G75*
G02*
X167512500Y-119647500I0J50000D01*
G01*
X167512500Y-118157500D01*
G75*
G02*
X167562500Y-118107500I50000J0D01*
G01*
G37*
G36*
G01*
X166562500Y-118107500D02*
X166962500Y-118107500D01*
G75*
G02*
X167012500Y-118157500I0J-50000D01*
G01*
X167012500Y-119647500D01*
G75*
G02*
X166962500Y-119697500I-50000J0D01*
G01*
X166562500Y-119697500D01*
G75*
G02*
X166512500Y-119647500I0J50000D01*
G01*
X166512500Y-118157500D01*
G75*
G02*
X166562500Y-118107500I50000J0D01*
G01*
G37*
G36*
G01*
X165562500Y-118107500D02*
X165962500Y-118107500D01*
G75*
G02*
X166012500Y-118157500I0J-50000D01*
G01*
X166012500Y-119647500D01*
G75*
G02*
X165962500Y-119697500I-50000J0D01*
G01*
X165562500Y-119697500D01*
G75*
G02*
X165512500Y-119647500I0J50000D01*
G01*
X165512500Y-118157500D01*
G75*
G02*
X165562500Y-118107500I50000J0D01*
G01*
G37*
G36*
G01*
X164562500Y-118107500D02*
X164962500Y-118107500D01*
G75*
G02*
X165012500Y-118157500I0J-50000D01*
G01*
X165012500Y-119647500D01*
G75*
G02*
X164962500Y-119697500I-50000J0D01*
G01*
X164562500Y-119697500D01*
G75*
G02*
X164512500Y-119647500I0J50000D01*
G01*
X164512500Y-118157500D01*
G75*
G02*
X164562500Y-118107500I50000J0D01*
G01*
G37*
G36*
G01*
X143025000Y-143762500D02*
X143025000Y-142812500D01*
G75*
G02*
X143275000Y-142562500I250000J0D01*
G01*
X143950000Y-142562500D01*
G75*
G02*
X144200000Y-142812500I0J-250000D01*
G01*
X144200000Y-143762500D01*
G75*
G02*
X143950000Y-144012500I-250000J0D01*
G01*
X143275000Y-144012500D01*
G75*
G02*
X143025000Y-143762500I0J250000D01*
G01*
G37*
G36*
G01*
X145100000Y-143762500D02*
X145100000Y-142812500D01*
G75*
G02*
X145350000Y-142562500I250000J0D01*
G01*
X146025000Y-142562500D01*
G75*
G02*
X146275000Y-142812500I0J-250000D01*
G01*
X146275000Y-143762500D01*
G75*
G02*
X146025000Y-144012500I-250000J0D01*
G01*
X145350000Y-144012500D01*
G75*
G02*
X145100000Y-143762500I0J250000D01*
G01*
G37*
G36*
G01*
X145287500Y-134182500D02*
X146237500Y-134182500D01*
G75*
G02*
X146487500Y-134432500I0J-250000D01*
G01*
X146487500Y-135107500D01*
G75*
G02*
X146237500Y-135357500I-250000J0D01*
G01*
X145287500Y-135357500D01*
G75*
G02*
X145037500Y-135107500I0J250000D01*
G01*
X145037500Y-134432500D01*
G75*
G02*
X145287500Y-134182500I250000J0D01*
G01*
G37*
G36*
G01*
X145287500Y-136257500D02*
X146237500Y-136257500D01*
G75*
G02*
X146487500Y-136507500I0J-250000D01*
G01*
X146487500Y-137182500D01*
G75*
G02*
X146237500Y-137432500I-250000J0D01*
G01*
X145287500Y-137432500D01*
G75*
G02*
X145037500Y-137182500I0J250000D01*
G01*
X145037500Y-136507500D01*
G75*
G02*
X145287500Y-136257500I250000J0D01*
G01*
G37*
G36*
G01*
X142232500Y-137437500D02*
X141932500Y-137437500D01*
G75*
G02*
X141782500Y-137287500I0J150000D01*
G01*
X141782500Y-136262500D01*
G75*
G02*
X141932500Y-136112500I150000J0D01*
G01*
X142232500Y-136112500D01*
G75*
G02*
X142382500Y-136262500I0J-150000D01*
G01*
X142382500Y-137287500D01*
G75*
G02*
X142232500Y-137437500I-150000J0D01*
G01*
G37*
G36*
G01*
X143182500Y-137437500D02*
X142882500Y-137437500D01*
G75*
G02*
X142732500Y-137287500I0J150000D01*
G01*
X142732500Y-136262500D01*
G75*
G02*
X142882500Y-136112500I150000J0D01*
G01*
X143182500Y-136112500D01*
G75*
G02*
X143332500Y-136262500I0J-150000D01*
G01*
X143332500Y-137287500D01*
G75*
G02*
X143182500Y-137437500I-150000J0D01*
G01*
G37*
G36*
G01*
X144132500Y-137437500D02*
X143832500Y-137437500D01*
G75*
G02*
X143682500Y-137287500I0J150000D01*
G01*
X143682500Y-136262500D01*
G75*
G02*
X143832500Y-136112500I150000J0D01*
G01*
X144132500Y-136112500D01*
G75*
G02*
X144282500Y-136262500I0J-150000D01*
G01*
X144282500Y-137287500D01*
G75*
G02*
X144132500Y-137437500I-150000J0D01*
G01*
G37*
G36*
G01*
X144132500Y-135162500D02*
X143832500Y-135162500D01*
G75*
G02*
X143682500Y-135012500I0J150000D01*
G01*
X143682500Y-133987500D01*
G75*
G02*
X143832500Y-133837500I150000J0D01*
G01*
X144132500Y-133837500D01*
G75*
G02*
X144282500Y-133987500I0J-150000D01*
G01*
X144282500Y-135012500D01*
G75*
G02*
X144132500Y-135162500I-150000J0D01*
G01*
G37*
G36*
G01*
X143182500Y-135162500D02*
X142882500Y-135162500D01*
G75*
G02*
X142732500Y-135012500I0J150000D01*
G01*
X142732500Y-133987500D01*
G75*
G02*
X142882500Y-133837500I150000J0D01*
G01*
X143182500Y-133837500D01*
G75*
G02*
X143332500Y-133987500I0J-150000D01*
G01*
X143332500Y-135012500D01*
G75*
G02*
X143182500Y-135162500I-150000J0D01*
G01*
G37*
G36*
G01*
X142232500Y-135162500D02*
X141932500Y-135162500D01*
G75*
G02*
X141782500Y-135012500I0J150000D01*
G01*
X141782500Y-133987500D01*
G75*
G02*
X141932500Y-133837500I150000J0D01*
G01*
X142232500Y-133837500D01*
G75*
G02*
X142382500Y-133987500I0J-150000D01*
G01*
X142382500Y-135012500D01*
G75*
G02*
X142232500Y-135162500I-150000J0D01*
G01*
G37*
G36*
G01*
X139325000Y-116375000D02*
X140275000Y-116375000D01*
G75*
G02*
X140525000Y-116625000I0J-250000D01*
G01*
X140525000Y-117300000D01*
G75*
G02*
X140275000Y-117550000I-250000J0D01*
G01*
X139325000Y-117550000D01*
G75*
G02*
X139075000Y-117300000I0J250000D01*
G01*
X139075000Y-116625000D01*
G75*
G02*
X139325000Y-116375000I250000J0D01*
G01*
G37*
G36*
G01*
X139325000Y-118450000D02*
X140275000Y-118450000D01*
G75*
G02*
X140525000Y-118700000I0J-250000D01*
G01*
X140525000Y-119375000D01*
G75*
G02*
X140275000Y-119625000I-250000J0D01*
G01*
X139325000Y-119625000D01*
G75*
G02*
X139075000Y-119375000I0J250000D01*
G01*
X139075000Y-118700000D01*
G75*
G02*
X139325000Y-118450000I250000J0D01*
G01*
G37*
G36*
G01*
X138062500Y-145950000D02*
X137112500Y-145950000D01*
G75*
G02*
X136862500Y-145700000I0J250000D01*
G01*
X136862500Y-145025000D01*
G75*
G02*
X137112500Y-144775000I250000J0D01*
G01*
X138062500Y-144775000D01*
G75*
G02*
X138312500Y-145025000I0J-250000D01*
G01*
X138312500Y-145700000D01*
G75*
G02*
X138062500Y-145950000I-250000J0D01*
G01*
G37*
G36*
G01*
X138062500Y-143875000D02*
X137112500Y-143875000D01*
G75*
G02*
X136862500Y-143625000I0J250000D01*
G01*
X136862500Y-142950000D01*
G75*
G02*
X137112500Y-142700000I250000J0D01*
G01*
X138062500Y-142700000D01*
G75*
G02*
X138312500Y-142950000I0J-250000D01*
G01*
X138312500Y-143625000D01*
G75*
G02*
X138062500Y-143875000I-250000J0D01*
G01*
G37*
G36*
G01*
X145362500Y-148437501D02*
X145362500Y-150137499D01*
G75*
G02*
X145112499Y-150387500I-250001J0D01*
G01*
X144187501Y-150387500D01*
G75*
G02*
X143937500Y-150137499I0J250001D01*
G01*
X143937500Y-148437501D01*
G75*
G02*
X144187501Y-148187500I250001J0D01*
G01*
X145112499Y-148187500D01*
G75*
G02*
X145362500Y-148437501I0J-250001D01*
G01*
G37*
G36*
G01*
X143037500Y-148437501D02*
X143037500Y-150137499D01*
G75*
G02*
X142787499Y-150387500I-250001J0D01*
G01*
X141862501Y-150387500D01*
G75*
G02*
X141612500Y-150137499I0J250001D01*
G01*
X141612500Y-148437501D01*
G75*
G02*
X141862501Y-148187500I250001J0D01*
G01*
X142787499Y-148187500D01*
G75*
G02*
X143037500Y-148437501I0J-250001D01*
G01*
G37*
G36*
G01*
X148212500Y-148662500D02*
X147262500Y-148662500D01*
G75*
G02*
X147012500Y-148412500I0J250000D01*
G01*
X147012500Y-147737500D01*
G75*
G02*
X147262500Y-147487500I250000J0D01*
G01*
X148212500Y-147487500D01*
G75*
G02*
X148462500Y-147737500I0J-250000D01*
G01*
X148462500Y-148412500D01*
G75*
G02*
X148212500Y-148662500I-250000J0D01*
G01*
G37*
G36*
G01*
X148212500Y-146587500D02*
X147262500Y-146587500D01*
G75*
G02*
X147012500Y-146337500I0J250000D01*
G01*
X147012500Y-145662500D01*
G75*
G02*
X147262500Y-145412500I250000J0D01*
G01*
X148212500Y-145412500D01*
G75*
G02*
X148462500Y-145662500I0J-250000D01*
G01*
X148462500Y-146337500D01*
G75*
G02*
X148212500Y-146587500I-250000J0D01*
G01*
G37*
G36*
G01*
X188437500Y-146462500D02*
X187487500Y-146462500D01*
G75*
G02*
X187237500Y-146212500I0J250000D01*
G01*
X187237500Y-145537500D01*
G75*
G02*
X187487500Y-145287500I250000J0D01*
G01*
X188437500Y-145287500D01*
G75*
G02*
X188687500Y-145537500I0J-250000D01*
G01*
X188687500Y-146212500D01*
G75*
G02*
X188437500Y-146462500I-250000J0D01*
G01*
G37*
G36*
G01*
X188437500Y-144387500D02*
X187487500Y-144387500D01*
G75*
G02*
X187237500Y-144137500I0J250000D01*
G01*
X187237500Y-143462500D01*
G75*
G02*
X187487500Y-143212500I250000J0D01*
G01*
X188437500Y-143212500D01*
G75*
G02*
X188687500Y-143462500I0J-250000D01*
G01*
X188687500Y-144137500D01*
G75*
G02*
X188437500Y-144387500I-250000J0D01*
G01*
G37*
G36*
G01*
X190462500Y-147037500D02*
X190762500Y-147037500D01*
G75*
G02*
X190912500Y-147187500I0J-150000D01*
G01*
X190912500Y-148212500D01*
G75*
G02*
X190762500Y-148362500I-150000J0D01*
G01*
X190462500Y-148362500D01*
G75*
G02*
X190312500Y-148212500I0J150000D01*
G01*
X190312500Y-147187500D01*
G75*
G02*
X190462500Y-147037500I150000J0D01*
G01*
G37*
G36*
G01*
X189512500Y-147037500D02*
X189812500Y-147037500D01*
G75*
G02*
X189962500Y-147187500I0J-150000D01*
G01*
X189962500Y-148212500D01*
G75*
G02*
X189812500Y-148362500I-150000J0D01*
G01*
X189512500Y-148362500D01*
G75*
G02*
X189362500Y-148212500I0J150000D01*
G01*
X189362500Y-147187500D01*
G75*
G02*
X189512500Y-147037500I150000J0D01*
G01*
G37*
G36*
G01*
X188562500Y-147037500D02*
X188862500Y-147037500D01*
G75*
G02*
X189012500Y-147187500I0J-150000D01*
G01*
X189012500Y-148212500D01*
G75*
G02*
X188862500Y-148362500I-150000J0D01*
G01*
X188562500Y-148362500D01*
G75*
G02*
X188412500Y-148212500I0J150000D01*
G01*
X188412500Y-147187500D01*
G75*
G02*
X188562500Y-147037500I150000J0D01*
G01*
G37*
G36*
G01*
X188562500Y-149312500D02*
X188862500Y-149312500D01*
G75*
G02*
X189012500Y-149462500I0J-150000D01*
G01*
X189012500Y-150487500D01*
G75*
G02*
X188862500Y-150637500I-150000J0D01*
G01*
X188562500Y-150637500D01*
G75*
G02*
X188412500Y-150487500I0J150000D01*
G01*
X188412500Y-149462500D01*
G75*
G02*
X188562500Y-149312500I150000J0D01*
G01*
G37*
G36*
G01*
X190462500Y-149312500D02*
X190762500Y-149312500D01*
G75*
G02*
X190912500Y-149462500I0J-150000D01*
G01*
X190912500Y-150487500D01*
G75*
G02*
X190762500Y-150637500I-150000J0D01*
G01*
X190462500Y-150637500D01*
G75*
G02*
X190312500Y-150487500I0J150000D01*
G01*
X190312500Y-149462500D01*
G75*
G02*
X190462500Y-149312500I150000J0D01*
G01*
G37*
G36*
G01*
X192912500Y-150437500D02*
X192012500Y-150437500D01*
G75*
G02*
X191762500Y-150187500I0J250000D01*
G01*
X191762500Y-149487500D01*
G75*
G02*
X192012500Y-149237500I250000J0D01*
G01*
X192912500Y-149237500D01*
G75*
G02*
X193162500Y-149487500I0J-250000D01*
G01*
X193162500Y-150187500D01*
G75*
G02*
X192912500Y-150437500I-250000J0D01*
G01*
G37*
G36*
G01*
X192912500Y-148437500D02*
X192012500Y-148437500D01*
G75*
G02*
X191762500Y-148187500I0J250000D01*
G01*
X191762500Y-147487500D01*
G75*
G02*
X192012500Y-147237500I250000J0D01*
G01*
X192912500Y-147237500D01*
G75*
G02*
X193162500Y-147487500I0J-250000D01*
G01*
X193162500Y-148187500D01*
G75*
G02*
X192912500Y-148437500I-250000J0D01*
G01*
G37*
G36*
G01*
X153312500Y-117937500D02*
X154212500Y-117937500D01*
G75*
G02*
X154462500Y-118187500I0J-250000D01*
G01*
X154462500Y-118887500D01*
G75*
G02*
X154212500Y-119137500I-250000J0D01*
G01*
X153312500Y-119137500D01*
G75*
G02*
X153062500Y-118887500I0J250000D01*
G01*
X153062500Y-118187500D01*
G75*
G02*
X153312500Y-117937500I250000J0D01*
G01*
G37*
G36*
G01*
X153312500Y-119937500D02*
X154212500Y-119937500D01*
G75*
G02*
X154462500Y-120187500I0J-250000D01*
G01*
X154462500Y-120887500D01*
G75*
G02*
X154212500Y-121137500I-250000J0D01*
G01*
X153312500Y-121137500D01*
G75*
G02*
X153062500Y-120887500I0J250000D01*
G01*
X153062500Y-120187500D01*
G75*
G02*
X153312500Y-119937500I250000J0D01*
G01*
G37*
G36*
G01*
X159312500Y-117937500D02*
X160212500Y-117937500D01*
G75*
G02*
X160462500Y-118187500I0J-250000D01*
G01*
X160462500Y-118887500D01*
G75*
G02*
X160212500Y-119137500I-250000J0D01*
G01*
X159312500Y-119137500D01*
G75*
G02*
X159062500Y-118887500I0J250000D01*
G01*
X159062500Y-118187500D01*
G75*
G02*
X159312500Y-117937500I250000J0D01*
G01*
G37*
G36*
G01*
X159312500Y-119937500D02*
X160212500Y-119937500D01*
G75*
G02*
X160462500Y-120187500I0J-250000D01*
G01*
X160462500Y-120887500D01*
G75*
G02*
X160212500Y-121137500I-250000J0D01*
G01*
X159312500Y-121137500D01*
G75*
G02*
X159062500Y-120887500I0J250000D01*
G01*
X159062500Y-120187500D01*
G75*
G02*
X159312500Y-119937500I250000J0D01*
G01*
G37*
G36*
G01*
X140625000Y-120525000D02*
X140625000Y-121475000D01*
G75*
G02*
X140375000Y-121725000I-250000J0D01*
G01*
X139700000Y-121725000D01*
G75*
G02*
X139450000Y-121475000I0J250000D01*
G01*
X139450000Y-120525000D01*
G75*
G02*
X139700000Y-120275000I250000J0D01*
G01*
X140375000Y-120275000D01*
G75*
G02*
X140625000Y-120525000I0J-250000D01*
G01*
G37*
G36*
G01*
X138550000Y-120525000D02*
X138550000Y-121475000D01*
G75*
G02*
X138300000Y-121725000I-250000J0D01*
G01*
X137625000Y-121725000D01*
G75*
G02*
X137375000Y-121475000I0J250000D01*
G01*
X137375000Y-120525000D01*
G75*
G02*
X137625000Y-120275000I250000J0D01*
G01*
X138300000Y-120275000D01*
G75*
G02*
X138550000Y-120525000I0J-250000D01*
G01*
G37*
G36*
G01*
X146250000Y-140837500D02*
X146250000Y-141737500D01*
G75*
G02*
X146000000Y-141987500I-250000J0D01*
G01*
X145300000Y-141987500D01*
G75*
G02*
X145050000Y-141737500I0J250000D01*
G01*
X145050000Y-140837500D01*
G75*
G02*
X145300000Y-140587500I250000J0D01*
G01*
X146000000Y-140587500D01*
G75*
G02*
X146250000Y-140837500I0J-250000D01*
G01*
G37*
G36*
G01*
X144250000Y-140837500D02*
X144250000Y-141737500D01*
G75*
G02*
X144000000Y-141987500I-250000J0D01*
G01*
X143300000Y-141987500D01*
G75*
G02*
X143050000Y-141737500I0J250000D01*
G01*
X143050000Y-140837500D01*
G75*
G02*
X143300000Y-140587500I250000J0D01*
G01*
X144000000Y-140587500D01*
G75*
G02*
X144250000Y-140837500I0J-250000D01*
G01*
G37*
G36*
G01*
X190412500Y-121662500D02*
X189462500Y-121662500D01*
G75*
G02*
X189212500Y-121412500I0J250000D01*
G01*
X189212500Y-120737500D01*
G75*
G02*
X189462500Y-120487500I250000J0D01*
G01*
X190412500Y-120487500D01*
G75*
G02*
X190662500Y-120737500I0J-250000D01*
G01*
X190662500Y-121412500D01*
G75*
G02*
X190412500Y-121662500I-250000J0D01*
G01*
G37*
G36*
G01*
X190412500Y-119587500D02*
X189462500Y-119587500D01*
G75*
G02*
X189212500Y-119337500I0J250000D01*
G01*
X189212500Y-118662500D01*
G75*
G02*
X189462500Y-118412500I250000J0D01*
G01*
X190412500Y-118412500D01*
G75*
G02*
X190662500Y-118662500I0J-250000D01*
G01*
X190662500Y-119337500D01*
G75*
G02*
X190412500Y-119587500I-250000J0D01*
G01*
G37*
G36*
G01*
X196012500Y-141337500D02*
X196912500Y-141337500D01*
G75*
G02*
X197162500Y-141587500I0J-250000D01*
G01*
X197162500Y-142287500D01*
G75*
G02*
X196912500Y-142537500I-250000J0D01*
G01*
X196012500Y-142537500D01*
G75*
G02*
X195762500Y-142287500I0J250000D01*
G01*
X195762500Y-141587500D01*
G75*
G02*
X196012500Y-141337500I250000J0D01*
G01*
G37*
G36*
G01*
X196012500Y-143337500D02*
X196912500Y-143337500D01*
G75*
G02*
X197162500Y-143587500I0J-250000D01*
G01*
X197162500Y-144287500D01*
G75*
G02*
X196912500Y-144537500I-250000J0D01*
G01*
X196012500Y-144537500D01*
G75*
G02*
X195762500Y-144287500I0J250000D01*
G01*
X195762500Y-143587500D01*
G75*
G02*
X196012500Y-143337500I250000J0D01*
G01*
G37*
G36*
G01*
X194862500Y-140537500D02*
X194562500Y-140537500D01*
G75*
G02*
X194412500Y-140387500I0J150000D01*
G01*
X194412500Y-139362500D01*
G75*
G02*
X194562500Y-139212500I150000J0D01*
G01*
X194862500Y-139212500D01*
G75*
G02*
X195012500Y-139362500I0J-150000D01*
G01*
X195012500Y-140387500D01*
G75*
G02*
X194862500Y-140537500I-150000J0D01*
G01*
G37*
G36*
G01*
X195812500Y-140537500D02*
X195512500Y-140537500D01*
G75*
G02*
X195362500Y-140387500I0J150000D01*
G01*
X195362500Y-139362500D01*
G75*
G02*
X195512500Y-139212500I150000J0D01*
G01*
X195812500Y-139212500D01*
G75*
G02*
X195962500Y-139362500I0J-150000D01*
G01*
X195962500Y-140387500D01*
G75*
G02*
X195812500Y-140537500I-150000J0D01*
G01*
G37*
G36*
G01*
X196762500Y-140537500D02*
X196462500Y-140537500D01*
G75*
G02*
X196312500Y-140387500I0J150000D01*
G01*
X196312500Y-139362500D01*
G75*
G02*
X196462500Y-139212500I150000J0D01*
G01*
X196762500Y-139212500D01*
G75*
G02*
X196912500Y-139362500I0J-150000D01*
G01*
X196912500Y-140387500D01*
G75*
G02*
X196762500Y-140537500I-150000J0D01*
G01*
G37*
G36*
G01*
X196762500Y-138262500D02*
X196462500Y-138262500D01*
G75*
G02*
X196312500Y-138112500I0J150000D01*
G01*
X196312500Y-137087500D01*
G75*
G02*
X196462500Y-136937500I150000J0D01*
G01*
X196762500Y-136937500D01*
G75*
G02*
X196912500Y-137087500I0J-150000D01*
G01*
X196912500Y-138112500D01*
G75*
G02*
X196762500Y-138262500I-150000J0D01*
G01*
G37*
G36*
G01*
X195812500Y-138262500D02*
X195512500Y-138262500D01*
G75*
G02*
X195362500Y-138112500I0J150000D01*
G01*
X195362500Y-137087500D01*
G75*
G02*
X195512500Y-136937500I150000J0D01*
G01*
X195812500Y-136937500D01*
G75*
G02*
X195962500Y-137087500I0J-150000D01*
G01*
X195962500Y-138112500D01*
G75*
G02*
X195812500Y-138262500I-150000J0D01*
G01*
G37*
G36*
G01*
X194862500Y-138262500D02*
X194562500Y-138262500D01*
G75*
G02*
X194412500Y-138112500I0J150000D01*
G01*
X194412500Y-137087500D01*
G75*
G02*
X194562500Y-136937500I150000J0D01*
G01*
X194862500Y-136937500D01*
G75*
G02*
X195012500Y-137087500I0J-150000D01*
G01*
X195012500Y-138112500D01*
G75*
G02*
X194862500Y-138262500I-150000J0D01*
G01*
G37*
G36*
G01*
X143287500Y-128325000D02*
X143287500Y-129275000D01*
G75*
G02*
X143037500Y-129525000I-250000J0D01*
G01*
X142362500Y-129525000D01*
G75*
G02*
X142112500Y-129275000I0J250000D01*
G01*
X142112500Y-128325000D01*
G75*
G02*
X142362500Y-128075000I250000J0D01*
G01*
X143037500Y-128075000D01*
G75*
G02*
X143287500Y-128325000I0J-250000D01*
G01*
G37*
G36*
G01*
X141212500Y-128325000D02*
X141212500Y-129275000D01*
G75*
G02*
X140962500Y-129525000I-250000J0D01*
G01*
X140287500Y-129525000D01*
G75*
G02*
X140037500Y-129275000I0J250000D01*
G01*
X140037500Y-128325000D01*
G75*
G02*
X140287500Y-128075000I250000J0D01*
G01*
X140962500Y-128075000D01*
G75*
G02*
X141212500Y-128325000I0J-250000D01*
G01*
G37*
G36*
G01*
X133575000Y-121475000D02*
X133575000Y-120525000D01*
G75*
G02*
X133825000Y-120275000I250000J0D01*
G01*
X134500000Y-120275000D01*
G75*
G02*
X134750000Y-120525000I0J-250000D01*
G01*
X134750000Y-121475000D01*
G75*
G02*
X134500000Y-121725000I-250000J0D01*
G01*
X133825000Y-121725000D01*
G75*
G02*
X133575000Y-121475000I0J250000D01*
G01*
G37*
G36*
G01*
X135650000Y-121475000D02*
X135650000Y-120525000D01*
G75*
G02*
X135900000Y-120275000I250000J0D01*
G01*
X136575000Y-120275000D01*
G75*
G02*
X136825000Y-120525000I0J-250000D01*
G01*
X136825000Y-121475000D01*
G75*
G02*
X136575000Y-121725000I-250000J0D01*
G01*
X135900000Y-121725000D01*
G75*
G02*
X135650000Y-121475000I0J250000D01*
G01*
G37*
G36*
G01*
X200662500Y-123387500D02*
X200662500Y-124287500D01*
G75*
G02*
X200412500Y-124537500I-250000J0D01*
G01*
X199712500Y-124537500D01*
G75*
G02*
X199462500Y-124287500I0J250000D01*
G01*
X199462500Y-123387500D01*
G75*
G02*
X199712500Y-123137500I250000J0D01*
G01*
X200412500Y-123137500D01*
G75*
G02*
X200662500Y-123387500I0J-250000D01*
G01*
G37*
G36*
G01*
X198662500Y-123387500D02*
X198662500Y-124287500D01*
G75*
G02*
X198412500Y-124537500I-250000J0D01*
G01*
X197712500Y-124537500D01*
G75*
G02*
X197462500Y-124287500I0J250000D01*
G01*
X197462500Y-123387500D01*
G75*
G02*
X197712500Y-123137500I250000J0D01*
G01*
X198412500Y-123137500D01*
G75*
G02*
X198662500Y-123387500I0J-250000D01*
G01*
G37*
D11*
X200412500Y-145737500D03*
X203712500Y-145737500D03*
G36*
G01*
X150600000Y-117950000D02*
X150600000Y-118850000D01*
G75*
G02*
X150350000Y-119100000I-250000J0D01*
G01*
X149650000Y-119100000D01*
G75*
G02*
X149400000Y-118850000I0J250000D01*
G01*
X149400000Y-117950000D01*
G75*
G02*
X149650000Y-117700000I250000J0D01*
G01*
X150350000Y-117700000D01*
G75*
G02*
X150600000Y-117950000I0J-250000D01*
G01*
G37*
G36*
G01*
X148600000Y-117950000D02*
X148600000Y-118850000D01*
G75*
G02*
X148350000Y-119100000I-250000J0D01*
G01*
X147650000Y-119100000D01*
G75*
G02*
X147400000Y-118850000I0J250000D01*
G01*
X147400000Y-117950000D01*
G75*
G02*
X147650000Y-117700000I250000J0D01*
G01*
X148350000Y-117700000D01*
G75*
G02*
X148600000Y-117950000I0J-250000D01*
G01*
G37*
G36*
G01*
X189862500Y-143587500D02*
X189862500Y-142687500D01*
G75*
G02*
X190112500Y-142437500I250000J0D01*
G01*
X190812500Y-142437500D01*
G75*
G02*
X191062500Y-142687500I0J-250000D01*
G01*
X191062500Y-143587500D01*
G75*
G02*
X190812500Y-143837500I-250000J0D01*
G01*
X190112500Y-143837500D01*
G75*
G02*
X189862500Y-143587500I0J250000D01*
G01*
G37*
G36*
G01*
X191862500Y-143587500D02*
X191862500Y-142687500D01*
G75*
G02*
X192112500Y-142437500I250000J0D01*
G01*
X192812500Y-142437500D01*
G75*
G02*
X193062500Y-142687500I0J-250000D01*
G01*
X193062500Y-143587500D01*
G75*
G02*
X192812500Y-143837500I-250000J0D01*
G01*
X192112500Y-143837500D01*
G75*
G02*
X191862500Y-143587500I0J250000D01*
G01*
G37*
D14*
X205862500Y-146787500D03*
X205862500Y-143487500D03*
G36*
G01*
X191287500Y-118282500D02*
X191287500Y-117982500D01*
G75*
G02*
X191437500Y-117832500I150000J0D01*
G01*
X193087500Y-117832500D01*
G75*
G02*
X193237500Y-117982500I0J-150000D01*
G01*
X193237500Y-118282500D01*
G75*
G02*
X193087500Y-118432500I-150000J0D01*
G01*
X191437500Y-118432500D01*
G75*
G02*
X191287500Y-118282500I0J150000D01*
G01*
G37*
G36*
G01*
X191287500Y-119552500D02*
X191287500Y-119252500D01*
G75*
G02*
X191437500Y-119102500I150000J0D01*
G01*
X193087500Y-119102500D01*
G75*
G02*
X193237500Y-119252500I0J-150000D01*
G01*
X193237500Y-119552500D01*
G75*
G02*
X193087500Y-119702500I-150000J0D01*
G01*
X191437500Y-119702500D01*
G75*
G02*
X191287500Y-119552500I0J150000D01*
G01*
G37*
G36*
G01*
X191287500Y-120822500D02*
X191287500Y-120522500D01*
G75*
G02*
X191437500Y-120372500I150000J0D01*
G01*
X193087500Y-120372500D01*
G75*
G02*
X193237500Y-120522500I0J-150000D01*
G01*
X193237500Y-120822500D01*
G75*
G02*
X193087500Y-120972500I-150000J0D01*
G01*
X191437500Y-120972500D01*
G75*
G02*
X191287500Y-120822500I0J150000D01*
G01*
G37*
G36*
G01*
X191287500Y-122092500D02*
X191287500Y-121792500D01*
G75*
G02*
X191437500Y-121642500I150000J0D01*
G01*
X193087500Y-121642500D01*
G75*
G02*
X193237500Y-121792500I0J-150000D01*
G01*
X193237500Y-122092500D01*
G75*
G02*
X193087500Y-122242500I-150000J0D01*
G01*
X191437500Y-122242500D01*
G75*
G02*
X191287500Y-122092500I0J150000D01*
G01*
G37*
G36*
G01*
X196237500Y-122092500D02*
X196237500Y-121792500D01*
G75*
G02*
X196387500Y-121642500I150000J0D01*
G01*
X198037500Y-121642500D01*
G75*
G02*
X198187500Y-121792500I0J-150000D01*
G01*
X198187500Y-122092500D01*
G75*
G02*
X198037500Y-122242500I-150000J0D01*
G01*
X196387500Y-122242500D01*
G75*
G02*
X196237500Y-122092500I0J150000D01*
G01*
G37*
G36*
G01*
X196237500Y-120822500D02*
X196237500Y-120522500D01*
G75*
G02*
X196387500Y-120372500I150000J0D01*
G01*
X198037500Y-120372500D01*
G75*
G02*
X198187500Y-120522500I0J-150000D01*
G01*
X198187500Y-120822500D01*
G75*
G02*
X198037500Y-120972500I-150000J0D01*
G01*
X196387500Y-120972500D01*
G75*
G02*
X196237500Y-120822500I0J150000D01*
G01*
G37*
G36*
G01*
X196237500Y-119552500D02*
X196237500Y-119252500D01*
G75*
G02*
X196387500Y-119102500I150000J0D01*
G01*
X198037500Y-119102500D01*
G75*
G02*
X198187500Y-119252500I0J-150000D01*
G01*
X198187500Y-119552500D01*
G75*
G02*
X198037500Y-119702500I-150000J0D01*
G01*
X196387500Y-119702500D01*
G75*
G02*
X196237500Y-119552500I0J150000D01*
G01*
G37*
G36*
G01*
X196237500Y-118282500D02*
X196237500Y-117982500D01*
G75*
G02*
X196387500Y-117832500I150000J0D01*
G01*
X198037500Y-117832500D01*
G75*
G02*
X198187500Y-117982500I0J-150000D01*
G01*
X198187500Y-118282500D01*
G75*
G02*
X198037500Y-118432500I-150000J0D01*
G01*
X196387500Y-118432500D01*
G75*
G02*
X196237500Y-118282500I0J150000D01*
G01*
G37*
G36*
G01*
X159992500Y-122282500D02*
X161032500Y-122282500D01*
G75*
G02*
X161162500Y-122412500I0J-130000D01*
G01*
X161162500Y-123702500D01*
G75*
G02*
X161032500Y-123832500I-130000J0D01*
G01*
X159992500Y-123832500D01*
G75*
G02*
X159862500Y-123702500I0J130000D01*
G01*
X159862500Y-122412500D01*
G75*
G02*
X159992500Y-122282500I130000J0D01*
G01*
G37*
G36*
G01*
X159992500Y-130242500D02*
X161032500Y-130242500D01*
G75*
G02*
X161162500Y-130372500I0J-130000D01*
G01*
X161162500Y-131662500D01*
G75*
G02*
X161032500Y-131792500I-130000J0D01*
G01*
X159992500Y-131792500D01*
G75*
G02*
X159862500Y-131662500I0J130000D01*
G01*
X159862500Y-130372500D01*
G75*
G02*
X159992500Y-130242500I130000J0D01*
G01*
G37*
G36*
G01*
X155492500Y-122282500D02*
X156532500Y-122282500D01*
G75*
G02*
X156662500Y-122412500I0J-130000D01*
G01*
X156662500Y-123702500D01*
G75*
G02*
X156532500Y-123832500I-130000J0D01*
G01*
X155492500Y-123832500D01*
G75*
G02*
X155362500Y-123702500I0J130000D01*
G01*
X155362500Y-122412500D01*
G75*
G02*
X155492500Y-122282500I130000J0D01*
G01*
G37*
G36*
G01*
X155492500Y-130242500D02*
X156532500Y-130242500D01*
G75*
G02*
X156662500Y-130372500I0J-130000D01*
G01*
X156662500Y-131662500D01*
G75*
G02*
X156532500Y-131792500I-130000J0D01*
G01*
X155492500Y-131792500D01*
G75*
G02*
X155362500Y-131662500I0J130000D01*
G01*
X155362500Y-130372500D01*
G75*
G02*
X155492500Y-130242500I130000J0D01*
G01*
G37*
G36*
G01*
X137325000Y-116375000D02*
X138275000Y-116375000D01*
G75*
G02*
X138525000Y-116625000I0J-250000D01*
G01*
X138525000Y-117300000D01*
G75*
G02*
X138275000Y-117550000I-250000J0D01*
G01*
X137325000Y-117550000D01*
G75*
G02*
X137075000Y-117300000I0J250000D01*
G01*
X137075000Y-116625000D01*
G75*
G02*
X137325000Y-116375000I250000J0D01*
G01*
G37*
G36*
G01*
X137325000Y-118450000D02*
X138275000Y-118450000D01*
G75*
G02*
X138525000Y-118700000I0J-250000D01*
G01*
X138525000Y-119375000D01*
G75*
G02*
X138275000Y-119625000I-250000J0D01*
G01*
X137325000Y-119625000D01*
G75*
G02*
X137075000Y-119375000I0J250000D01*
G01*
X137075000Y-118700000D01*
G75*
G02*
X137325000Y-118450000I250000J0D01*
G01*
G37*
G36*
G01*
X188737500Y-124287500D02*
X188737500Y-123387500D01*
G75*
G02*
X188987500Y-123137500I250000J0D01*
G01*
X189687500Y-123137500D01*
G75*
G02*
X189937500Y-123387500I0J-250000D01*
G01*
X189937500Y-124287500D01*
G75*
G02*
X189687500Y-124537500I-250000J0D01*
G01*
X188987500Y-124537500D01*
G75*
G02*
X188737500Y-124287500I0J250000D01*
G01*
G37*
G36*
G01*
X190737500Y-124287500D02*
X190737500Y-123387500D01*
G75*
G02*
X190987500Y-123137500I250000J0D01*
G01*
X191687500Y-123137500D01*
G75*
G02*
X191937500Y-123387500I0J-250000D01*
G01*
X191937500Y-124287500D01*
G75*
G02*
X191687500Y-124537500I-250000J0D01*
G01*
X190987500Y-124537500D01*
G75*
G02*
X190737500Y-124287500I0J250000D01*
G01*
G37*
X187137500Y-118187500D03*
X187137500Y-121487500D03*
G36*
G01*
X176532500Y-123832500D02*
X175492500Y-123832500D01*
G75*
G02*
X175362500Y-123702500I0J130000D01*
G01*
X175362500Y-122412500D01*
G75*
G02*
X175492500Y-122282500I130000J0D01*
G01*
X176532500Y-122282500D01*
G75*
G02*
X176662500Y-122412500I0J-130000D01*
G01*
X176662500Y-123702500D01*
G75*
G02*
X176532500Y-123832500I-130000J0D01*
G01*
G37*
G36*
G01*
X176532500Y-131792500D02*
X175492500Y-131792500D01*
G75*
G02*
X175362500Y-131662500I0J130000D01*
G01*
X175362500Y-130372500D01*
G75*
G02*
X175492500Y-130242500I130000J0D01*
G01*
X176532500Y-130242500D01*
G75*
G02*
X176662500Y-130372500I0J-130000D01*
G01*
X176662500Y-131662500D01*
G75*
G02*
X176532500Y-131792500I-130000J0D01*
G01*
G37*
G36*
G01*
X181032500Y-131792500D02*
X179992500Y-131792500D01*
G75*
G02*
X179862500Y-131662500I0J130000D01*
G01*
X179862500Y-130372500D01*
G75*
G02*
X179992500Y-130242500I130000J0D01*
G01*
X181032500Y-130242500D01*
G75*
G02*
X181162500Y-130372500I0J-130000D01*
G01*
X181162500Y-131662500D01*
G75*
G02*
X181032500Y-131792500I-130000J0D01*
G01*
G37*
G36*
G01*
X181032500Y-123832500D02*
X179992500Y-123832500D01*
G75*
G02*
X179862500Y-123702500I0J130000D01*
G01*
X179862500Y-122412500D01*
G75*
G02*
X179992500Y-122282500I130000J0D01*
G01*
X181032500Y-122282500D01*
G75*
G02*
X181162500Y-122412500I0J-130000D01*
G01*
X181162500Y-123702500D01*
G75*
G02*
X181032500Y-123832500I-130000J0D01*
G01*
G37*
G36*
G01*
X148187500Y-144887500D02*
X147287500Y-144887500D01*
G75*
G02*
X147037500Y-144637500I0J250000D01*
G01*
X147037500Y-143937500D01*
G75*
G02*
X147287500Y-143687500I250000J0D01*
G01*
X148187500Y-143687500D01*
G75*
G02*
X148437500Y-143937500I0J-250000D01*
G01*
X148437500Y-144637500D01*
G75*
G02*
X148187500Y-144887500I-250000J0D01*
G01*
G37*
G36*
G01*
X148187500Y-142887500D02*
X147287500Y-142887500D01*
G75*
G02*
X147037500Y-142637500I0J250000D01*
G01*
X147037500Y-141937500D01*
G75*
G02*
X147287500Y-141687500I250000J0D01*
G01*
X148187500Y-141687500D01*
G75*
G02*
X148437500Y-141937500I0J-250000D01*
G01*
X148437500Y-142637500D01*
G75*
G02*
X148187500Y-142887500I-250000J0D01*
G01*
G37*
G36*
G01*
X179750000Y-138200000D02*
X180650000Y-138200000D01*
G75*
G02*
X180900000Y-138450000I0J-250000D01*
G01*
X180900000Y-139150000D01*
G75*
G02*
X180650000Y-139400000I-250000J0D01*
G01*
X179750000Y-139400000D01*
G75*
G02*
X179500000Y-139150000I0J250000D01*
G01*
X179500000Y-138450000D01*
G75*
G02*
X179750000Y-138200000I250000J0D01*
G01*
G37*
G36*
G01*
X179750000Y-140200000D02*
X180650000Y-140200000D01*
G75*
G02*
X180900000Y-140450000I0J-250000D01*
G01*
X180900000Y-141150000D01*
G75*
G02*
X180650000Y-141400000I-250000J0D01*
G01*
X179750000Y-141400000D01*
G75*
G02*
X179500000Y-141150000I0J250000D01*
G01*
X179500000Y-140450000D01*
G75*
G02*
X179750000Y-140200000I250000J0D01*
G01*
G37*
D11*
X193087500Y-116037500D03*
X196387500Y-116037500D03*
G36*
G01*
X194737500Y-134562500D02*
X193787500Y-134562500D01*
G75*
G02*
X193537500Y-134312500I0J250000D01*
G01*
X193537500Y-133637500D01*
G75*
G02*
X193787500Y-133387500I250000J0D01*
G01*
X194737500Y-133387500D01*
G75*
G02*
X194987500Y-133637500I0J-250000D01*
G01*
X194987500Y-134312500D01*
G75*
G02*
X194737500Y-134562500I-250000J0D01*
G01*
G37*
G36*
G01*
X194737500Y-132487500D02*
X193787500Y-132487500D01*
G75*
G02*
X193537500Y-132237500I0J250000D01*
G01*
X193537500Y-131562500D01*
G75*
G02*
X193787500Y-131312500I250000J0D01*
G01*
X194737500Y-131312500D01*
G75*
G02*
X194987500Y-131562500I0J-250000D01*
G01*
X194987500Y-132237500D01*
G75*
G02*
X194737500Y-132487500I-250000J0D01*
G01*
G37*
G36*
G01*
X143510000Y-123425000D02*
X143510000Y-122935000D01*
G75*
G02*
X143755000Y-122690000I245000J0D01*
G01*
X144245000Y-122690000D01*
G75*
G02*
X144490000Y-122935000I0J-245000D01*
G01*
X144490000Y-123425000D01*
G75*
G02*
X144245000Y-123670000I-245000J0D01*
G01*
X143755000Y-123670000D01*
G75*
G02*
X143510000Y-123425000I0J245000D01*
G01*
G37*
G36*
G01*
X144730000Y-123425000D02*
X144730000Y-122935000D01*
G75*
G02*
X144975000Y-122690000I245000J0D01*
G01*
X145465000Y-122690000D01*
G75*
G02*
X145710000Y-122935000I0J-245000D01*
G01*
X145710000Y-123425000D01*
G75*
G02*
X145465000Y-123670000I-245000J0D01*
G01*
X144975000Y-123670000D01*
G75*
G02*
X144730000Y-123425000I0J245000D01*
G01*
G37*
G36*
G01*
X143510000Y-125865000D02*
X143510000Y-125375000D01*
G75*
G02*
X143755000Y-125130000I245000J0D01*
G01*
X144245000Y-125130000D01*
G75*
G02*
X144490000Y-125375000I0J-245000D01*
G01*
X144490000Y-125865000D01*
G75*
G02*
X144245000Y-126110000I-245000J0D01*
G01*
X143755000Y-126110000D01*
G75*
G02*
X143510000Y-125865000I0J245000D01*
G01*
G37*
G36*
G01*
X142290000Y-124645000D02*
X142290000Y-124155000D01*
G75*
G02*
X142535000Y-123910000I245000J0D01*
G01*
X143025000Y-123910000D01*
G75*
G02*
X143270000Y-124155000I0J-245000D01*
G01*
X143270000Y-124645000D01*
G75*
G02*
X143025000Y-124890000I-245000J0D01*
G01*
X142535000Y-124890000D01*
G75*
G02*
X142290000Y-124645000I0J245000D01*
G01*
G37*
G36*
G01*
X143510000Y-124645000D02*
X143510000Y-124155000D01*
G75*
G02*
X143755000Y-123910000I245000J0D01*
G01*
X144245000Y-123910000D01*
G75*
G02*
X144490000Y-124155000I0J-245000D01*
G01*
X144490000Y-124645000D01*
G75*
G02*
X144245000Y-124890000I-245000J0D01*
G01*
X143755000Y-124890000D01*
G75*
G02*
X143510000Y-124645000I0J245000D01*
G01*
G37*
G36*
G01*
X144730000Y-125865000D02*
X144730000Y-125375000D01*
G75*
G02*
X144975000Y-125130000I245000J0D01*
G01*
X145465000Y-125130000D01*
G75*
G02*
X145710000Y-125375000I0J-245000D01*
G01*
X145710000Y-125865000D01*
G75*
G02*
X145465000Y-126110000I-245000J0D01*
G01*
X144975000Y-126110000D01*
G75*
G02*
X144730000Y-125865000I0J245000D01*
G01*
G37*
G36*
G01*
X142290000Y-123425000D02*
X142290000Y-122935000D01*
G75*
G02*
X142535000Y-122690000I245000J0D01*
G01*
X143025000Y-122690000D01*
G75*
G02*
X143270000Y-122935000I0J-245000D01*
G01*
X143270000Y-123425000D01*
G75*
G02*
X143025000Y-123670000I-245000J0D01*
G01*
X142535000Y-123670000D01*
G75*
G02*
X142290000Y-123425000I0J245000D01*
G01*
G37*
G36*
G01*
X144730000Y-124645000D02*
X144730000Y-124155000D01*
G75*
G02*
X144975000Y-123910000I245000J0D01*
G01*
X145465000Y-123910000D01*
G75*
G02*
X145710000Y-124155000I0J-245000D01*
G01*
X145710000Y-124645000D01*
G75*
G02*
X145465000Y-124890000I-245000J0D01*
G01*
X144975000Y-124890000D01*
G75*
G02*
X144730000Y-124645000I0J245000D01*
G01*
G37*
G36*
G01*
X142290000Y-125865000D02*
X142290000Y-125375000D01*
G75*
G02*
X142535000Y-125130000I245000J0D01*
G01*
X143025000Y-125130000D01*
G75*
G02*
X143270000Y-125375000I0J-245000D01*
G01*
X143270000Y-125865000D01*
G75*
G02*
X143025000Y-126110000I-245000J0D01*
G01*
X142535000Y-126110000D01*
G75*
G02*
X142290000Y-125865000I0J245000D01*
G01*
G37*
G36*
G01*
X141150000Y-122712500D02*
X141150000Y-122587500D01*
G75*
G02*
X141212500Y-122525000I62500J0D01*
G01*
X141837500Y-122525000D01*
G75*
G02*
X141900000Y-122587500I0J-62500D01*
G01*
X141900000Y-122712500D01*
G75*
G02*
X141837500Y-122775000I-62500J0D01*
G01*
X141212500Y-122775000D01*
G75*
G02*
X141150000Y-122712500I0J62500D01*
G01*
G37*
G36*
G01*
X141150000Y-123212500D02*
X141150000Y-123087500D01*
G75*
G02*
X141212500Y-123025000I62500J0D01*
G01*
X141837500Y-123025000D01*
G75*
G02*
X141900000Y-123087500I0J-62500D01*
G01*
X141900000Y-123212500D01*
G75*
G02*
X141837500Y-123275000I-62500J0D01*
G01*
X141212500Y-123275000D01*
G75*
G02*
X141150000Y-123212500I0J62500D01*
G01*
G37*
G36*
G01*
X141150000Y-123712500D02*
X141150000Y-123587500D01*
G75*
G02*
X141212500Y-123525000I62500J0D01*
G01*
X141837500Y-123525000D01*
G75*
G02*
X141900000Y-123587500I0J-62500D01*
G01*
X141900000Y-123712500D01*
G75*
G02*
X141837500Y-123775000I-62500J0D01*
G01*
X141212500Y-123775000D01*
G75*
G02*
X141150000Y-123712500I0J62500D01*
G01*
G37*
G36*
G01*
X141150000Y-124212500D02*
X141150000Y-124087500D01*
G75*
G02*
X141212500Y-124025000I62500J0D01*
G01*
X141837500Y-124025000D01*
G75*
G02*
X141900000Y-124087500I0J-62500D01*
G01*
X141900000Y-124212500D01*
G75*
G02*
X141837500Y-124275000I-62500J0D01*
G01*
X141212500Y-124275000D01*
G75*
G02*
X141150000Y-124212500I0J62500D01*
G01*
G37*
G36*
G01*
X141150000Y-124712500D02*
X141150000Y-124587500D01*
G75*
G02*
X141212500Y-124525000I62500J0D01*
G01*
X141837500Y-124525000D01*
G75*
G02*
X141900000Y-124587500I0J-62500D01*
G01*
X141900000Y-124712500D01*
G75*
G02*
X141837500Y-124775000I-62500J0D01*
G01*
X141212500Y-124775000D01*
G75*
G02*
X141150000Y-124712500I0J62500D01*
G01*
G37*
G36*
G01*
X141150000Y-125212500D02*
X141150000Y-125087500D01*
G75*
G02*
X141212500Y-125025000I62500J0D01*
G01*
X141837500Y-125025000D01*
G75*
G02*
X141900000Y-125087500I0J-62500D01*
G01*
X141900000Y-125212500D01*
G75*
G02*
X141837500Y-125275000I-62500J0D01*
G01*
X141212500Y-125275000D01*
G75*
G02*
X141150000Y-125212500I0J62500D01*
G01*
G37*
G36*
G01*
X141150000Y-125712500D02*
X141150000Y-125587500D01*
G75*
G02*
X141212500Y-125525000I62500J0D01*
G01*
X141837500Y-125525000D01*
G75*
G02*
X141900000Y-125587500I0J-62500D01*
G01*
X141900000Y-125712500D01*
G75*
G02*
X141837500Y-125775000I-62500J0D01*
G01*
X141212500Y-125775000D01*
G75*
G02*
X141150000Y-125712500I0J62500D01*
G01*
G37*
G36*
G01*
X141150000Y-126212500D02*
X141150000Y-126087500D01*
G75*
G02*
X141212500Y-126025000I62500J0D01*
G01*
X141837500Y-126025000D01*
G75*
G02*
X141900000Y-126087500I0J-62500D01*
G01*
X141900000Y-126212500D01*
G75*
G02*
X141837500Y-126275000I-62500J0D01*
G01*
X141212500Y-126275000D01*
G75*
G02*
X141150000Y-126212500I0J62500D01*
G01*
G37*
G36*
G01*
X142125000Y-127187500D02*
X142125000Y-126562500D01*
G75*
G02*
X142187500Y-126500000I62500J0D01*
G01*
X142312500Y-126500000D01*
G75*
G02*
X142375000Y-126562500I0J-62500D01*
G01*
X142375000Y-127187500D01*
G75*
G02*
X142312500Y-127250000I-62500J0D01*
G01*
X142187500Y-127250000D01*
G75*
G02*
X142125000Y-127187500I0J62500D01*
G01*
G37*
G36*
G01*
X142625000Y-127187500D02*
X142625000Y-126562500D01*
G75*
G02*
X142687500Y-126500000I62500J0D01*
G01*
X142812500Y-126500000D01*
G75*
G02*
X142875000Y-126562500I0J-62500D01*
G01*
X142875000Y-127187500D01*
G75*
G02*
X142812500Y-127250000I-62500J0D01*
G01*
X142687500Y-127250000D01*
G75*
G02*
X142625000Y-127187500I0J62500D01*
G01*
G37*
G36*
G01*
X143125000Y-127187500D02*
X143125000Y-126562500D01*
G75*
G02*
X143187500Y-126500000I62500J0D01*
G01*
X143312500Y-126500000D01*
G75*
G02*
X143375000Y-126562500I0J-62500D01*
G01*
X143375000Y-127187500D01*
G75*
G02*
X143312500Y-127250000I-62500J0D01*
G01*
X143187500Y-127250000D01*
G75*
G02*
X143125000Y-127187500I0J62500D01*
G01*
G37*
G36*
G01*
X143625000Y-127187500D02*
X143625000Y-126562500D01*
G75*
G02*
X143687500Y-126500000I62500J0D01*
G01*
X143812500Y-126500000D01*
G75*
G02*
X143875000Y-126562500I0J-62500D01*
G01*
X143875000Y-127187500D01*
G75*
G02*
X143812500Y-127250000I-62500J0D01*
G01*
X143687500Y-127250000D01*
G75*
G02*
X143625000Y-127187500I0J62500D01*
G01*
G37*
G36*
G01*
X144125000Y-127187500D02*
X144125000Y-126562500D01*
G75*
G02*
X144187500Y-126500000I62500J0D01*
G01*
X144312500Y-126500000D01*
G75*
G02*
X144375000Y-126562500I0J-62500D01*
G01*
X144375000Y-127187500D01*
G75*
G02*
X144312500Y-127250000I-62500J0D01*
G01*
X144187500Y-127250000D01*
G75*
G02*
X144125000Y-127187500I0J62500D01*
G01*
G37*
G36*
G01*
X144625000Y-127187500D02*
X144625000Y-126562500D01*
G75*
G02*
X144687500Y-126500000I62500J0D01*
G01*
X144812500Y-126500000D01*
G75*
G02*
X144875000Y-126562500I0J-62500D01*
G01*
X144875000Y-127187500D01*
G75*
G02*
X144812500Y-127250000I-62500J0D01*
G01*
X144687500Y-127250000D01*
G75*
G02*
X144625000Y-127187500I0J62500D01*
G01*
G37*
G36*
G01*
X145125000Y-127187500D02*
X145125000Y-126562500D01*
G75*
G02*
X145187500Y-126500000I62500J0D01*
G01*
X145312500Y-126500000D01*
G75*
G02*
X145375000Y-126562500I0J-62500D01*
G01*
X145375000Y-127187500D01*
G75*
G02*
X145312500Y-127250000I-62500J0D01*
G01*
X145187500Y-127250000D01*
G75*
G02*
X145125000Y-127187500I0J62500D01*
G01*
G37*
G36*
G01*
X145625000Y-127187500D02*
X145625000Y-126562500D01*
G75*
G02*
X145687500Y-126500000I62500J0D01*
G01*
X145812500Y-126500000D01*
G75*
G02*
X145875000Y-126562500I0J-62500D01*
G01*
X145875000Y-127187500D01*
G75*
G02*
X145812500Y-127250000I-62500J0D01*
G01*
X145687500Y-127250000D01*
G75*
G02*
X145625000Y-127187500I0J62500D01*
G01*
G37*
G36*
G01*
X146100000Y-126212500D02*
X146100000Y-126087500D01*
G75*
G02*
X146162500Y-126025000I62500J0D01*
G01*
X146787500Y-126025000D01*
G75*
G02*
X146850000Y-126087500I0J-62500D01*
G01*
X146850000Y-126212500D01*
G75*
G02*
X146787500Y-126275000I-62500J0D01*
G01*
X146162500Y-126275000D01*
G75*
G02*
X146100000Y-126212500I0J62500D01*
G01*
G37*
G36*
G01*
X146100000Y-125712500D02*
X146100000Y-125587500D01*
G75*
G02*
X146162500Y-125525000I62500J0D01*
G01*
X146787500Y-125525000D01*
G75*
G02*
X146850000Y-125587500I0J-62500D01*
G01*
X146850000Y-125712500D01*
G75*
G02*
X146787500Y-125775000I-62500J0D01*
G01*
X146162500Y-125775000D01*
G75*
G02*
X146100000Y-125712500I0J62500D01*
G01*
G37*
G36*
G01*
X146100000Y-125212500D02*
X146100000Y-125087500D01*
G75*
G02*
X146162500Y-125025000I62500J0D01*
G01*
X146787500Y-125025000D01*
G75*
G02*
X146850000Y-125087500I0J-62500D01*
G01*
X146850000Y-125212500D01*
G75*
G02*
X146787500Y-125275000I-62500J0D01*
G01*
X146162500Y-125275000D01*
G75*
G02*
X146100000Y-125212500I0J62500D01*
G01*
G37*
G36*
G01*
X146100000Y-124712500D02*
X146100000Y-124587500D01*
G75*
G02*
X146162500Y-124525000I62500J0D01*
G01*
X146787500Y-124525000D01*
G75*
G02*
X146850000Y-124587500I0J-62500D01*
G01*
X146850000Y-124712500D01*
G75*
G02*
X146787500Y-124775000I-62500J0D01*
G01*
X146162500Y-124775000D01*
G75*
G02*
X146100000Y-124712500I0J62500D01*
G01*
G37*
G36*
G01*
X146100000Y-124212500D02*
X146100000Y-124087500D01*
G75*
G02*
X146162500Y-124025000I62500J0D01*
G01*
X146787500Y-124025000D01*
G75*
G02*
X146850000Y-124087500I0J-62500D01*
G01*
X146850000Y-124212500D01*
G75*
G02*
X146787500Y-124275000I-62500J0D01*
G01*
X146162500Y-124275000D01*
G75*
G02*
X146100000Y-124212500I0J62500D01*
G01*
G37*
G36*
G01*
X146100000Y-123712500D02*
X146100000Y-123587500D01*
G75*
G02*
X146162500Y-123525000I62500J0D01*
G01*
X146787500Y-123525000D01*
G75*
G02*
X146850000Y-123587500I0J-62500D01*
G01*
X146850000Y-123712500D01*
G75*
G02*
X146787500Y-123775000I-62500J0D01*
G01*
X146162500Y-123775000D01*
G75*
G02*
X146100000Y-123712500I0J62500D01*
G01*
G37*
G36*
G01*
X146100000Y-123212500D02*
X146100000Y-123087500D01*
G75*
G02*
X146162500Y-123025000I62500J0D01*
G01*
X146787500Y-123025000D01*
G75*
G02*
X146850000Y-123087500I0J-62500D01*
G01*
X146850000Y-123212500D01*
G75*
G02*
X146787500Y-123275000I-62500J0D01*
G01*
X146162500Y-123275000D01*
G75*
G02*
X146100000Y-123212500I0J62500D01*
G01*
G37*
G36*
G01*
X146100000Y-122712500D02*
X146100000Y-122587500D01*
G75*
G02*
X146162500Y-122525000I62500J0D01*
G01*
X146787500Y-122525000D01*
G75*
G02*
X146850000Y-122587500I0J-62500D01*
G01*
X146850000Y-122712500D01*
G75*
G02*
X146787500Y-122775000I-62500J0D01*
G01*
X146162500Y-122775000D01*
G75*
G02*
X146100000Y-122712500I0J62500D01*
G01*
G37*
G36*
G01*
X145625000Y-122237500D02*
X145625000Y-121612500D01*
G75*
G02*
X145687500Y-121550000I62500J0D01*
G01*
X145812500Y-121550000D01*
G75*
G02*
X145875000Y-121612500I0J-62500D01*
G01*
X145875000Y-122237500D01*
G75*
G02*
X145812500Y-122300000I-62500J0D01*
G01*
X145687500Y-122300000D01*
G75*
G02*
X145625000Y-122237500I0J62500D01*
G01*
G37*
G36*
G01*
X145125000Y-122237500D02*
X145125000Y-121612500D01*
G75*
G02*
X145187500Y-121550000I62500J0D01*
G01*
X145312500Y-121550000D01*
G75*
G02*
X145375000Y-121612500I0J-62500D01*
G01*
X145375000Y-122237500D01*
G75*
G02*
X145312500Y-122300000I-62500J0D01*
G01*
X145187500Y-122300000D01*
G75*
G02*
X145125000Y-122237500I0J62500D01*
G01*
G37*
G36*
G01*
X144625000Y-122237500D02*
X144625000Y-121612500D01*
G75*
G02*
X144687500Y-121550000I62500J0D01*
G01*
X144812500Y-121550000D01*
G75*
G02*
X144875000Y-121612500I0J-62500D01*
G01*
X144875000Y-122237500D01*
G75*
G02*
X144812500Y-122300000I-62500J0D01*
G01*
X144687500Y-122300000D01*
G75*
G02*
X144625000Y-122237500I0J62500D01*
G01*
G37*
G36*
G01*
X144125000Y-122237500D02*
X144125000Y-121612500D01*
G75*
G02*
X144187500Y-121550000I62500J0D01*
G01*
X144312500Y-121550000D01*
G75*
G02*
X144375000Y-121612500I0J-62500D01*
G01*
X144375000Y-122237500D01*
G75*
G02*
X144312500Y-122300000I-62500J0D01*
G01*
X144187500Y-122300000D01*
G75*
G02*
X144125000Y-122237500I0J62500D01*
G01*
G37*
G36*
G01*
X143625000Y-122237500D02*
X143625000Y-121612500D01*
G75*
G02*
X143687500Y-121550000I62500J0D01*
G01*
X143812500Y-121550000D01*
G75*
G02*
X143875000Y-121612500I0J-62500D01*
G01*
X143875000Y-122237500D01*
G75*
G02*
X143812500Y-122300000I-62500J0D01*
G01*
X143687500Y-122300000D01*
G75*
G02*
X143625000Y-122237500I0J62500D01*
G01*
G37*
G36*
G01*
X143125000Y-122237500D02*
X143125000Y-121612500D01*
G75*
G02*
X143187500Y-121550000I62500J0D01*
G01*
X143312500Y-121550000D01*
G75*
G02*
X143375000Y-121612500I0J-62500D01*
G01*
X143375000Y-122237500D01*
G75*
G02*
X143312500Y-122300000I-62500J0D01*
G01*
X143187500Y-122300000D01*
G75*
G02*
X143125000Y-122237500I0J62500D01*
G01*
G37*
G36*
G01*
X142625000Y-122237500D02*
X142625000Y-121612500D01*
G75*
G02*
X142687500Y-121550000I62500J0D01*
G01*
X142812500Y-121550000D01*
G75*
G02*
X142875000Y-121612500I0J-62500D01*
G01*
X142875000Y-122237500D01*
G75*
G02*
X142812500Y-122300000I-62500J0D01*
G01*
X142687500Y-122300000D01*
G75*
G02*
X142625000Y-122237500I0J62500D01*
G01*
G37*
G36*
G01*
X142125000Y-122237500D02*
X142125000Y-121612500D01*
G75*
G02*
X142187500Y-121550000I62500J0D01*
G01*
X142312500Y-121550000D01*
G75*
G02*
X142375000Y-121612500I0J-62500D01*
G01*
X142375000Y-122237500D01*
G75*
G02*
X142312500Y-122300000I-62500J0D01*
G01*
X142187500Y-122300000D01*
G75*
G02*
X142125000Y-122237500I0J62500D01*
G01*
G37*
G36*
G01*
X136800000Y-122550000D02*
X136800000Y-123450000D01*
G75*
G02*
X136550000Y-123700000I-250000J0D01*
G01*
X135850000Y-123700000D01*
G75*
G02*
X135600000Y-123450000I0J250000D01*
G01*
X135600000Y-122550000D01*
G75*
G02*
X135850000Y-122300000I250000J0D01*
G01*
X136550000Y-122300000D01*
G75*
G02*
X136800000Y-122550000I0J-250000D01*
G01*
G37*
G36*
G01*
X134800000Y-122550000D02*
X134800000Y-123450000D01*
G75*
G02*
X134550000Y-123700000I-250000J0D01*
G01*
X133850000Y-123700000D01*
G75*
G02*
X133600000Y-123450000I0J250000D01*
G01*
X133600000Y-122550000D01*
G75*
G02*
X133850000Y-122300000I250000J0D01*
G01*
X134550000Y-122300000D01*
G75*
G02*
X134800000Y-122550000I0J-250000D01*
G01*
G37*
G36*
G01*
X150737500Y-125662500D02*
X149787500Y-125662500D01*
G75*
G02*
X149537500Y-125412500I0J250000D01*
G01*
X149537500Y-124737500D01*
G75*
G02*
X149787500Y-124487500I250000J0D01*
G01*
X150737500Y-124487500D01*
G75*
G02*
X150987500Y-124737500I0J-250000D01*
G01*
X150987500Y-125412500D01*
G75*
G02*
X150737500Y-125662500I-250000J0D01*
G01*
G37*
G36*
G01*
X150737500Y-123587500D02*
X149787500Y-123587500D01*
G75*
G02*
X149537500Y-123337500I0J250000D01*
G01*
X149537500Y-122662500D01*
G75*
G02*
X149787500Y-122412500I250000J0D01*
G01*
X150737500Y-122412500D01*
G75*
G02*
X150987500Y-122662500I0J-250000D01*
G01*
X150987500Y-123337500D01*
G75*
G02*
X150737500Y-123587500I-250000J0D01*
G01*
G37*
G36*
G01*
X171512500Y-124137500D02*
X170612500Y-124137500D01*
G75*
G02*
X170362500Y-123887500I0J250000D01*
G01*
X170362500Y-123187500D01*
G75*
G02*
X170612500Y-122937500I250000J0D01*
G01*
X171512500Y-122937500D01*
G75*
G02*
X171762500Y-123187500I0J-250000D01*
G01*
X171762500Y-123887500D01*
G75*
G02*
X171512500Y-124137500I-250000J0D01*
G01*
G37*
G36*
G01*
X171512500Y-122137500D02*
X170612500Y-122137500D01*
G75*
G02*
X170362500Y-121887500I0J250000D01*
G01*
X170362500Y-121187500D01*
G75*
G02*
X170612500Y-120937500I250000J0D01*
G01*
X171512500Y-120937500D01*
G75*
G02*
X171762500Y-121187500I0J-250000D01*
G01*
X171762500Y-121887500D01*
G75*
G02*
X171512500Y-122137500I-250000J0D01*
G01*
G37*
G36*
G01*
X142850000Y-145237500D02*
X142850000Y-144937500D01*
G75*
G02*
X143000000Y-144787500I150000J0D01*
G01*
X144025000Y-144787500D01*
G75*
G02*
X144175000Y-144937500I0J-150000D01*
G01*
X144175000Y-145237500D01*
G75*
G02*
X144025000Y-145387500I-150000J0D01*
G01*
X143000000Y-145387500D01*
G75*
G02*
X142850000Y-145237500I0J150000D01*
G01*
G37*
G36*
G01*
X142850000Y-146187500D02*
X142850000Y-145887500D01*
G75*
G02*
X143000000Y-145737500I150000J0D01*
G01*
X144025000Y-145737500D01*
G75*
G02*
X144175000Y-145887500I0J-150000D01*
G01*
X144175000Y-146187500D01*
G75*
G02*
X144025000Y-146337500I-150000J0D01*
G01*
X143000000Y-146337500D01*
G75*
G02*
X142850000Y-146187500I0J150000D01*
G01*
G37*
G36*
G01*
X142850000Y-147137500D02*
X142850000Y-146837500D01*
G75*
G02*
X143000000Y-146687500I150000J0D01*
G01*
X144025000Y-146687500D01*
G75*
G02*
X144175000Y-146837500I0J-150000D01*
G01*
X144175000Y-147137500D01*
G75*
G02*
X144025000Y-147287500I-150000J0D01*
G01*
X143000000Y-147287500D01*
G75*
G02*
X142850000Y-147137500I0J150000D01*
G01*
G37*
G36*
G01*
X145125000Y-147137500D02*
X145125000Y-146837500D01*
G75*
G02*
X145275000Y-146687500I150000J0D01*
G01*
X146300000Y-146687500D01*
G75*
G02*
X146450000Y-146837500I0J-150000D01*
G01*
X146450000Y-147137500D01*
G75*
G02*
X146300000Y-147287500I-150000J0D01*
G01*
X145275000Y-147287500D01*
G75*
G02*
X145125000Y-147137500I0J150000D01*
G01*
G37*
G36*
G01*
X145125000Y-145237500D02*
X145125000Y-144937500D01*
G75*
G02*
X145275000Y-144787500I150000J0D01*
G01*
X146300000Y-144787500D01*
G75*
G02*
X146450000Y-144937500I0J-150000D01*
G01*
X146450000Y-145237500D01*
G75*
G02*
X146300000Y-145387500I-150000J0D01*
G01*
X145275000Y-145387500D01*
G75*
G02*
X145125000Y-145237500I0J150000D01*
G01*
G37*
G36*
G01*
X141327500Y-116152500D02*
X141327500Y-115842500D01*
G75*
G02*
X141482500Y-115687500I155000J0D01*
G01*
X141907500Y-115687500D01*
G75*
G02*
X142062500Y-115842500I0J-155000D01*
G01*
X142062500Y-116152500D01*
G75*
G02*
X141907500Y-116307500I-155000J0D01*
G01*
X141482500Y-116307500D01*
G75*
G02*
X141327500Y-116152500I0J155000D01*
G01*
G37*
G36*
G01*
X142462500Y-116152500D02*
X142462500Y-115842500D01*
G75*
G02*
X142617500Y-115687500I155000J0D01*
G01*
X143042500Y-115687500D01*
G75*
G02*
X143197500Y-115842500I0J-155000D01*
G01*
X143197500Y-116152500D01*
G75*
G02*
X143042500Y-116307500I-155000J0D01*
G01*
X142617500Y-116307500D01*
G75*
G02*
X142462500Y-116152500I0J155000D01*
G01*
G37*
G36*
G01*
X141962500Y-147662500D02*
X141012500Y-147662500D01*
G75*
G02*
X140762500Y-147412500I0J250000D01*
G01*
X140762500Y-146737500D01*
G75*
G02*
X141012500Y-146487500I250000J0D01*
G01*
X141962500Y-146487500D01*
G75*
G02*
X142212500Y-146737500I0J-250000D01*
G01*
X142212500Y-147412500D01*
G75*
G02*
X141962500Y-147662500I-250000J0D01*
G01*
G37*
G36*
G01*
X141962500Y-145587500D02*
X141012500Y-145587500D01*
G75*
G02*
X140762500Y-145337500I0J250000D01*
G01*
X140762500Y-144662500D01*
G75*
G02*
X141012500Y-144412500I250000J0D01*
G01*
X141962500Y-144412500D01*
G75*
G02*
X142212500Y-144662500I0J-250000D01*
G01*
X142212500Y-145337500D01*
G75*
G02*
X141962500Y-145587500I-250000J0D01*
G01*
G37*
G36*
G01*
X155312500Y-117937500D02*
X156212500Y-117937500D01*
G75*
G02*
X156462500Y-118187500I0J-250000D01*
G01*
X156462500Y-118887500D01*
G75*
G02*
X156212500Y-119137500I-250000J0D01*
G01*
X155312500Y-119137500D01*
G75*
G02*
X155062500Y-118887500I0J250000D01*
G01*
X155062500Y-118187500D01*
G75*
G02*
X155312500Y-117937500I250000J0D01*
G01*
G37*
G36*
G01*
X155312500Y-119937500D02*
X156212500Y-119937500D01*
G75*
G02*
X156462500Y-120187500I0J-250000D01*
G01*
X156462500Y-120887500D01*
G75*
G02*
X156212500Y-121137500I-250000J0D01*
G01*
X155312500Y-121137500D01*
G75*
G02*
X155062500Y-120887500I0J250000D01*
G01*
X155062500Y-120187500D01*
G75*
G02*
X155312500Y-119937500I250000J0D01*
G01*
G37*
D15*
X159372500Y-135017500D03*
X159372500Y-140057500D03*
X161912500Y-135017500D03*
X161912500Y-140057500D03*
X164452500Y-135017500D03*
X164452500Y-140057500D03*
X166992500Y-135017500D03*
X166992500Y-140057500D03*
X169532500Y-135017500D03*
X169532500Y-140057500D03*
X172072500Y-135017500D03*
X172072500Y-140057500D03*
X174612500Y-135017500D03*
X174612500Y-140057500D03*
X177152500Y-135017500D03*
X177152500Y-140057500D03*
G36*
G01*
X187437500Y-150562500D02*
X186487500Y-150562500D01*
G75*
G02*
X186237500Y-150312500I0J250000D01*
G01*
X186237500Y-149637500D01*
G75*
G02*
X186487500Y-149387500I250000J0D01*
G01*
X187437500Y-149387500D01*
G75*
G02*
X187687500Y-149637500I0J-250000D01*
G01*
X187687500Y-150312500D01*
G75*
G02*
X187437500Y-150562500I-250000J0D01*
G01*
G37*
G36*
G01*
X187437500Y-148487500D02*
X186487500Y-148487500D01*
G75*
G02*
X186237500Y-148237500I0J250000D01*
G01*
X186237500Y-147562500D01*
G75*
G02*
X186487500Y-147312500I250000J0D01*
G01*
X187437500Y-147312500D01*
G75*
G02*
X187687500Y-147562500I0J-250000D01*
G01*
X187687500Y-148237500D01*
G75*
G02*
X187437500Y-148487500I-250000J0D01*
G01*
G37*
G36*
G01*
X165012500Y-120937500D02*
X165912500Y-120937500D01*
G75*
G02*
X166162500Y-121187500I0J-250000D01*
G01*
X166162500Y-121887500D01*
G75*
G02*
X165912500Y-122137500I-250000J0D01*
G01*
X165012500Y-122137500D01*
G75*
G02*
X164762500Y-121887500I0J250000D01*
G01*
X164762500Y-121187500D01*
G75*
G02*
X165012500Y-120937500I250000J0D01*
G01*
G37*
G36*
G01*
X165012500Y-122937500D02*
X165912500Y-122937500D01*
G75*
G02*
X166162500Y-123187500I0J-250000D01*
G01*
X166162500Y-123887500D01*
G75*
G02*
X165912500Y-124137500I-250000J0D01*
G01*
X165012500Y-124137500D01*
G75*
G02*
X164762500Y-123887500I0J250000D01*
G01*
X164762500Y-123187500D01*
G75*
G02*
X165012500Y-122937500I250000J0D01*
G01*
G37*
G36*
G01*
X191612501Y-136062500D02*
X193312499Y-136062500D01*
G75*
G02*
X193562500Y-136312501I0J-250001D01*
G01*
X193562500Y-137237499D01*
G75*
G02*
X193312499Y-137487500I-250001J0D01*
G01*
X191612501Y-137487500D01*
G75*
G02*
X191362500Y-137237499I0J250001D01*
G01*
X191362500Y-136312501D01*
G75*
G02*
X191612501Y-136062500I250001J0D01*
G01*
G37*
G36*
G01*
X191612501Y-138387500D02*
X193312499Y-138387500D01*
G75*
G02*
X193562500Y-138637501I0J-250001D01*
G01*
X193562500Y-139562499D01*
G75*
G02*
X193312499Y-139812500I-250001J0D01*
G01*
X191612501Y-139812500D01*
G75*
G02*
X191362500Y-139562499I0J250001D01*
G01*
X191362500Y-138637501D01*
G75*
G02*
X191612501Y-138387500I250001J0D01*
G01*
G37*
M02*
