G04 #@! TF.GenerationSoftware,KiCad,Pcbnew,6.0.11+dfsg-1*
G04 #@! TF.ProjectId,project,70726f6a-6563-4742-9e6b-696361645f70,rev?*
G04 #@! TF.SameCoordinates,Original*
G04 #@! TF.FileFunction,Copper,L3,Inr*
G04 #@! TF.FilePolarity,Positive*
%FSLAX46Y46*%
G04 Gerber Fmt 4.6, Leading zero omitted, Abs format (unit mm)*
%MOMM*%
%LPD*%
G01*
G04 APERTURE LIST*
G04 #@! TA.AperFunction,Profile*
%ADD10C,0.100000*%
G04 #@! TD*
G04 #@! TA.AperFunction,ComponentPad*
%ADD11O,3.600000X1.800000*%
G04 #@! TD*
G04 #@! TA.AperFunction,ComponentPad*
%ADD12C,6.400000*%
G04 #@! TD*
G04 #@! TA.AperFunction,ComponentPad*
%ADD13C,0.900000*%
G04 #@! TD*
G04 #@! TA.AperFunction,ComponentPad*
%ADD14R,1.700000X1.700000*%
G04 #@! TD*
G04 #@! TA.AperFunction,ComponentPad*
%ADD15O,1.700000X1.700000*%
G04 #@! TD*
G04 #@! TA.AperFunction,ViaPad*
%ADD16C,0.500000*%
G04 #@! TD*
G04 APERTURE END LIST*
D10*
X197262500Y-114037500D02*
X198262500Y-113537500D01*
X142262500Y-154037499D02*
X143262500Y-154537500D01*
X177262500Y-147537500D02*
G75*
G03*
X177262500Y-143537500I0J2000000D01*
G01*
X139262500Y-154037500D02*
X142262500Y-154037499D01*
X194262500Y-154037500D02*
X197262500Y-154037499D01*
X208762500Y-131537500D02*
X208762500Y-136537500D01*
X139262500Y-114037500D02*
X142262500Y-114037500D01*
X208762500Y-154537500D02*
G75*
G03*
X210262500Y-153037500I0J1500000D01*
G01*
X142262500Y-114037500D02*
X143262500Y-113537500D01*
X208762500Y-136537500D02*
G75*
G03*
X209762500Y-137537500I1000000J0D01*
G01*
X198262500Y-113537500D02*
X208762500Y-113537500D01*
X209762500Y-130537500D02*
G75*
G03*
X208762500Y-131537500I0J-1000000D01*
G01*
X138262500Y-113537500D02*
X127762500Y-113537500D01*
X126262500Y-153037500D02*
X126262500Y-115037500D01*
X210262500Y-138037500D02*
X210262500Y-153037500D01*
X127762500Y-113537500D02*
G75*
G03*
X126262500Y-115037500I0J-1500000D01*
G01*
X198262500Y-154537500D02*
X208762500Y-154537500D01*
X197262500Y-154037499D02*
X198262500Y-154537500D01*
X194262500Y-114037500D02*
X197262500Y-114037500D01*
X210262500Y-138037500D02*
G75*
G03*
X209762500Y-137537500I-500000J0D01*
G01*
X138262500Y-154537499D02*
X127762500Y-154537500D01*
X139262500Y-114037500D02*
X138262500Y-113537500D01*
X177262500Y-147537500D02*
X159262500Y-147537500D01*
X126262500Y-153037500D02*
G75*
G03*
X127762500Y-154537500I1500000J0D01*
G01*
X159262500Y-143537500D02*
X177262500Y-143537500D01*
X139262500Y-154037500D02*
X138262500Y-154537499D01*
X209762500Y-130537500D02*
G75*
G03*
X210262500Y-130037500I0J500000D01*
G01*
X210262500Y-130037500D02*
X210262500Y-115037500D01*
X159262500Y-143537500D02*
G75*
G03*
X159262500Y-147537500I0J-2000000D01*
G01*
X143262500Y-113537500D02*
X193262500Y-113537500D01*
X210262500Y-115037500D02*
G75*
G03*
X208762500Y-113537500I-1500000J0D01*
G01*
X194262500Y-154037500D02*
X193262500Y-154537499D01*
X194262500Y-114037500D02*
X193262500Y-113537500D01*
X193262500Y-154537499D02*
X143262500Y-154537500D01*
G04 #@! TA.AperFunction,ComponentPad*
G36*
G01*
X173287500Y-115477500D02*
X173287500Y-116737500D01*
G75*
G02*
X173217500Y-116807500I-70000J0D01*
G01*
X171757500Y-116807500D01*
G75*
G02*
X171687500Y-116737500I0J70000D01*
G01*
X171687500Y-115477500D01*
G75*
G02*
X171757500Y-115407500I70000J0D01*
G01*
X173217500Y-115407500D01*
G75*
G02*
X173287500Y-115477500I0J-70000D01*
G01*
G37*
G04 #@! TD.AperFunction*
G04 #@! TA.AperFunction,ComponentPad*
G36*
G01*
X164862500Y-115452500D02*
X164862500Y-116622500D01*
G75*
G02*
X164797500Y-116687500I-65000J0D01*
G01*
X162227500Y-116687500D01*
G75*
G02*
X162162500Y-116622500I0J65000D01*
G01*
X162162500Y-115452500D01*
G75*
G02*
X162227500Y-115387500I65000J0D01*
G01*
X164797500Y-115387500D01*
G75*
G02*
X164862500Y-115452500I0J-65000D01*
G01*
G37*
G04 #@! TD.AperFunction*
G04 #@! TA.AperFunction,ComponentPad*
G36*
G01*
X174362500Y-118452500D02*
X174362500Y-119622500D01*
G75*
G02*
X174297500Y-119687500I-65000J0D01*
G01*
X171727500Y-119687500D01*
G75*
G02*
X171662500Y-119622500I0J65000D01*
G01*
X171662500Y-118452500D01*
G75*
G02*
X171727500Y-118387500I65000J0D01*
G01*
X174297500Y-118387500D01*
G75*
G02*
X174362500Y-118452500I0J-65000D01*
G01*
G37*
G04 #@! TD.AperFunction*
G04 #@! TA.AperFunction,ComponentPad*
G36*
G01*
X164837500Y-118337500D02*
X164837500Y-119597500D01*
G75*
G02*
X164767500Y-119667500I-70000J0D01*
G01*
X163307500Y-119667500D01*
G75*
G02*
X163237500Y-119597500I0J70000D01*
G01*
X163237500Y-118337500D01*
G75*
G02*
X163307500Y-118267500I70000J0D01*
G01*
X164767500Y-118267500D01*
G75*
G02*
X164837500Y-118337500I0J-70000D01*
G01*
G37*
G04 #@! TD.AperFunction*
G04 #@! TA.AperFunction,ComponentPad*
G36*
G01*
X206955000Y-140170000D02*
X203855000Y-140170000D01*
G75*
G02*
X203605000Y-139920000I0J250000D01*
G01*
X203605000Y-138620000D01*
G75*
G02*
X203855000Y-138370000I250000J0D01*
G01*
X206955000Y-138370000D01*
G75*
G02*
X207205000Y-138620000I0J-250000D01*
G01*
X207205000Y-139920000D01*
G75*
G02*
X206955000Y-140170000I-250000J0D01*
G01*
G37*
G04 #@! TD.AperFunction*
D11*
X205405000Y-135770000D03*
X205405000Y-132270000D03*
X205405000Y-128770000D03*
D12*
X153262500Y-135037500D03*
D13*
X151565444Y-133340444D03*
X150862500Y-135037500D03*
X153262500Y-132637500D03*
X153262500Y-137437500D03*
X154959556Y-133340444D03*
X154959556Y-136734556D03*
X155662500Y-135037500D03*
X151565444Y-136734556D03*
X183262500Y-137437500D03*
X181565444Y-133340444D03*
X180862500Y-135037500D03*
X183262500Y-132637500D03*
X185662500Y-135037500D03*
X184959556Y-133340444D03*
X184959556Y-136734556D03*
X181565444Y-136734556D03*
D12*
X183262500Y-135037500D03*
G04 #@! TA.AperFunction,ComponentPad*
G36*
G01*
X129570000Y-127905000D02*
X132670000Y-127905000D01*
G75*
G02*
X132920000Y-128155000I0J-250000D01*
G01*
X132920000Y-129455000D01*
G75*
G02*
X132670000Y-129705000I-250000J0D01*
G01*
X129570000Y-129705000D01*
G75*
G02*
X129320000Y-129455000I0J250000D01*
G01*
X129320000Y-128155000D01*
G75*
G02*
X129570000Y-127905000I250000J0D01*
G01*
G37*
G04 #@! TD.AperFunction*
D11*
X131120000Y-132305000D03*
X131120000Y-135805000D03*
X131120000Y-139305000D03*
D14*
X187337500Y-141137500D03*
D15*
X189877500Y-141137500D03*
X192417500Y-141137500D03*
D14*
X182962500Y-144812500D03*
D15*
X182962500Y-147352500D03*
X182962500Y-149892500D03*
D14*
X139587500Y-143785000D03*
D15*
X139587500Y-146325000D03*
X139587500Y-148865000D03*
D14*
X191222500Y-130037500D03*
D15*
X193762500Y-130037500D03*
X196302500Y-130037500D03*
D16*
X146462500Y-126637500D03*
X139248958Y-123450500D03*
X143050500Y-128037500D03*
X138118500Y-125393500D03*
X142762500Y-116537500D03*
X140262500Y-133037500D03*
X202262500Y-138037500D03*
X194062500Y-140937500D03*
X157262500Y-135037500D03*
X195662500Y-138937500D03*
X130262500Y-124037500D03*
X201262500Y-119037500D03*
X190262500Y-131037500D03*
X179262500Y-123037500D03*
X143232500Y-135837500D03*
X209262500Y-124037500D03*
X144762500Y-125037500D03*
X137100000Y-121000000D03*
X202262500Y-136037500D03*
X180262500Y-137537500D03*
X209262500Y-130037500D03*
X186262500Y-140037500D03*
X202262500Y-132037500D03*
X157262500Y-131037500D03*
X182762500Y-143537500D03*
X185262500Y-121037500D03*
X201262500Y-130037500D03*
X181262500Y-123037500D03*
X145262500Y-125537500D03*
X177262500Y-124037500D03*
X140262500Y-135037500D03*
X143762500Y-116537500D03*
X134762500Y-133537500D03*
X209262500Y-126037500D03*
X198262500Y-136537500D03*
X202262500Y-142037500D03*
X209262500Y-122037500D03*
X137262500Y-125037500D03*
X176762500Y-137037500D03*
X187262500Y-139037500D03*
X173262500Y-123037500D03*
X156262500Y-144037500D03*
X201262500Y-115037500D03*
X143762500Y-129537500D03*
X185262500Y-115037500D03*
X162262500Y-117037500D03*
X140737500Y-145537500D03*
X155262500Y-123037500D03*
X168262500Y-122337500D03*
X161262500Y-139037500D03*
X135262500Y-149037500D03*
X177262500Y-115037500D03*
X209262500Y-128037500D03*
X183262500Y-140037500D03*
X130262500Y-122037500D03*
X135762500Y-125037500D03*
X187737500Y-147137500D03*
X207262500Y-124037500D03*
X146232500Y-136037500D03*
X128262500Y-115037500D03*
X197637500Y-138762500D03*
X142737500Y-146037500D03*
X206262500Y-134037500D03*
X199062500Y-132537500D03*
X142762500Y-123537500D03*
X203662500Y-148837500D03*
X158262500Y-133037500D03*
X137262500Y-116237500D03*
X143762500Y-119537500D03*
X141462500Y-128837500D03*
X185262500Y-140037500D03*
X170262500Y-123037500D03*
X187262500Y-123037500D03*
X128262500Y-124037500D03*
X168262500Y-141037500D03*
X183262500Y-124037500D03*
X168262500Y-140037500D03*
X194699080Y-146958026D03*
X181262500Y-119037500D03*
X143762500Y-125037500D03*
X188262500Y-140037500D03*
X187262500Y-130037500D03*
X142262500Y-143037500D03*
X170262500Y-141037500D03*
X208262500Y-132037500D03*
X181262500Y-131037500D03*
X135262500Y-147037500D03*
X194062500Y-142737500D03*
X140262500Y-142037500D03*
X141462500Y-129437500D03*
X180262500Y-120037500D03*
X185262500Y-146037500D03*
X161262500Y-140037500D03*
X170262500Y-140037500D03*
X175262500Y-121037500D03*
X195462500Y-140937500D03*
X209262500Y-116037500D03*
X128262500Y-122037500D03*
X207262500Y-118037500D03*
X168262500Y-139037500D03*
X189699080Y-148458026D03*
X181262500Y-142037500D03*
X136200000Y-121900000D03*
X127262500Y-116037500D03*
X209262500Y-120037500D03*
X207262500Y-122037500D03*
X131262500Y-149037500D03*
X154262500Y-148037500D03*
X143762500Y-123537500D03*
X188262500Y-134037500D03*
X140262500Y-116237500D03*
X147262500Y-115037500D03*
X136262500Y-117037500D03*
X199062500Y-134537500D03*
X183262500Y-128037500D03*
X167262500Y-137037500D03*
X186999080Y-143458026D03*
X153762500Y-142037500D03*
X181262500Y-115037500D03*
X143262500Y-123037500D03*
X188262500Y-124037500D03*
X179262500Y-148037500D03*
X188262500Y-116037500D03*
X193262500Y-131437500D03*
X181762500Y-143537500D03*
X150862500Y-122237500D03*
X180262500Y-147037500D03*
X174262500Y-128037500D03*
X142262500Y-142037500D03*
X163262500Y-141037500D03*
X201262500Y-117037500D03*
X208262500Y-134037500D03*
X199262500Y-117037500D03*
X207262500Y-120037500D03*
X191262500Y-115037500D03*
X199062500Y-136537500D03*
X134262500Y-127537500D03*
X202262500Y-134037500D03*
X152262500Y-148037500D03*
X143262500Y-125537500D03*
X191262500Y-131437500D03*
X157262500Y-123037500D03*
X163262500Y-140037500D03*
X138262500Y-142037500D03*
X138762500Y-125037500D03*
X135762500Y-133537500D03*
X163262500Y-139037500D03*
X174262500Y-126037500D03*
X144275000Y-146000000D03*
X202262500Y-140037500D03*
X156262500Y-148037500D03*
X141962500Y-144287500D03*
X148262500Y-134037500D03*
X131262500Y-143037500D03*
X182262500Y-129037500D03*
X131262500Y-145037500D03*
X149262500Y-135037500D03*
X184262500Y-145037500D03*
X139262500Y-116237500D03*
X134262500Y-117037500D03*
X189699080Y-147458026D03*
X184262500Y-146037500D03*
X191262500Y-116037500D03*
X161262500Y-141037500D03*
X188262500Y-138037500D03*
X147262500Y-133037500D03*
X192262500Y-130037500D03*
X177262500Y-126037500D03*
X209262500Y-118037500D03*
X186999080Y-144458026D03*
X184262500Y-144037500D03*
X171262500Y-137037500D03*
X138262500Y-116237500D03*
X149262500Y-133037500D03*
X191262500Y-132437500D03*
X185262500Y-144037500D03*
X192262500Y-131037500D03*
X170262500Y-139037500D03*
X154262500Y-146037500D03*
X185262500Y-128037500D03*
X186237500Y-148637500D03*
X146775000Y-146000000D03*
X134262500Y-115037500D03*
X141262500Y-141037500D03*
X144762500Y-123537500D03*
X197862500Y-148837500D03*
X147737500Y-145287500D03*
X169262500Y-137037500D03*
X180262500Y-121037500D03*
X158262500Y-141037500D03*
X158762500Y-119537500D03*
X179262500Y-115037500D03*
X198262500Y-134537500D03*
X137962500Y-121937500D03*
X190972500Y-119402500D03*
X134262500Y-140537500D03*
X186237500Y-147137500D03*
X136262500Y-115037500D03*
X184262500Y-120037500D03*
X163262500Y-118037500D03*
X145432500Y-136037500D03*
X150262500Y-144037500D03*
X139262500Y-141037500D03*
X156262500Y-146037500D03*
X165262500Y-137037500D03*
X147462500Y-123637500D03*
X186262500Y-124037500D03*
X149062500Y-122437500D03*
X195062500Y-142737500D03*
X144262500Y-125537500D03*
X166262500Y-123037500D03*
X193262500Y-132437500D03*
X174262500Y-137037500D03*
X134262500Y-145037500D03*
X135262500Y-146037500D03*
X195937500Y-118237500D03*
X142762500Y-125037500D03*
X175262500Y-119037500D03*
X195262500Y-131437500D03*
X150262500Y-146037500D03*
X144262500Y-123037500D03*
X161262500Y-116037500D03*
X173262500Y-139037500D03*
X134262500Y-143037500D03*
X149462500Y-123637500D03*
X173262500Y-121037500D03*
X183262500Y-119037500D03*
X187262500Y-128037500D03*
X208262500Y-136037500D03*
X156762500Y-119537500D03*
X208262500Y-115037500D03*
X188262500Y-115037500D03*
X134762500Y-134537500D03*
X137100000Y-123000000D03*
X150262500Y-148037500D03*
X183762500Y-143537500D03*
X171262500Y-125037500D03*
X152262500Y-146037500D03*
X198262500Y-132537500D03*
X187737500Y-148608026D03*
X134762500Y-137037500D03*
X190262500Y-129537500D03*
X137262500Y-141037500D03*
X204262500Y-134037500D03*
X183262500Y-115037500D03*
X145262500Y-123037500D03*
X136987500Y-142787500D03*
X187262500Y-132037500D03*
X135762500Y-134537500D03*
X131262500Y-147037500D03*
X187262500Y-140037500D03*
X144437500Y-145087500D03*
X144737500Y-147037500D03*
X159762500Y-130137000D03*
X145710403Y-128089597D03*
X147661780Y-127026024D03*
X159647500Y-123922500D03*
X153762500Y-123537500D03*
X156862500Y-132737000D03*
X154087500Y-130538000D03*
X158762500Y-130137000D03*
X158762500Y-125782000D03*
X158762500Y-123537500D03*
X176233564Y-138008564D03*
X162662500Y-137237500D03*
X176262500Y-130037500D03*
X140648673Y-125849500D03*
X175262500Y-128537500D03*
X148574500Y-127349500D03*
X170762500Y-117437500D03*
X165762500Y-117437500D03*
X173662998Y-141126652D03*
X153262500Y-143037500D03*
X179262500Y-137037500D03*
X136063000Y-136788000D03*
X178262500Y-136637500D03*
X136063000Y-137487500D03*
X173762500Y-142037500D03*
X152060230Y-143042039D03*
X166817878Y-117492878D03*
X165800000Y-120402832D03*
X168862500Y-120137500D03*
X167762500Y-117537500D03*
X168762500Y-117537500D03*
X167867878Y-120142878D03*
X189737500Y-150137500D03*
X186237500Y-150137500D03*
X187737500Y-150137500D03*
X191237500Y-150137500D03*
X143487500Y-144287500D03*
X141886628Y-146388372D03*
G04 #@! TA.AperFunction,Conductor*
G36*
X138233580Y-113859009D02*
G01*
X138670065Y-114077252D01*
X139089255Y-114286847D01*
X139089587Y-114287034D01*
X139099146Y-114295901D01*
X139116208Y-114302708D01*
X139116211Y-114302710D01*
X139132040Y-114309025D01*
X139142811Y-114313856D01*
X139144909Y-114314674D01*
X139153110Y-114318774D01*
X139161925Y-114321304D01*
X139169313Y-114324183D01*
X139174374Y-114325914D01*
X139190075Y-114332178D01*
X139190077Y-114332178D01*
X139203122Y-114337383D01*
X139209415Y-114338000D01*
X139219324Y-114338000D01*
X139220244Y-114338044D01*
X139233385Y-114341816D01*
X139251682Y-114340188D01*
X139251684Y-114340188D01*
X139267470Y-114338783D01*
X139285108Y-114338000D01*
X142219055Y-114338000D01*
X142219438Y-114338019D01*
X142231952Y-114341675D01*
X142250258Y-114340133D01*
X142250260Y-114340133D01*
X142267244Y-114338702D01*
X142279062Y-114338205D01*
X142281283Y-114338000D01*
X142290448Y-114338000D01*
X142299455Y-114336323D01*
X142307309Y-114335598D01*
X142312640Y-114334878D01*
X142343502Y-114332278D01*
X142349407Y-114330016D01*
X142353753Y-114327843D01*
X142353762Y-114327839D01*
X142358289Y-114325576D01*
X142359113Y-114325212D01*
X142372553Y-114322709D01*
X142388194Y-114313068D01*
X142388196Y-114313067D01*
X142401670Y-114304761D01*
X142417095Y-114296172D01*
X143291421Y-113859009D01*
X143380417Y-113838000D01*
X193144584Y-113838000D01*
X193233580Y-113859009D01*
X193670065Y-114077252D01*
X194089255Y-114286847D01*
X194089587Y-114287034D01*
X194099146Y-114295901D01*
X194116208Y-114302708D01*
X194116211Y-114302710D01*
X194132040Y-114309025D01*
X194142811Y-114313856D01*
X194144909Y-114314674D01*
X194153110Y-114318774D01*
X194161925Y-114321304D01*
X194169313Y-114324183D01*
X194174374Y-114325914D01*
X194190075Y-114332178D01*
X194190077Y-114332178D01*
X194203122Y-114337383D01*
X194209415Y-114338000D01*
X194219324Y-114338000D01*
X194220244Y-114338044D01*
X194233385Y-114341816D01*
X194251682Y-114340188D01*
X194251684Y-114340188D01*
X194267470Y-114338783D01*
X194285108Y-114338000D01*
X197219055Y-114338000D01*
X197219438Y-114338019D01*
X197231952Y-114341675D01*
X197250258Y-114340133D01*
X197250260Y-114340133D01*
X197267244Y-114338702D01*
X197279062Y-114338205D01*
X197281283Y-114338000D01*
X197290448Y-114338000D01*
X197299455Y-114336323D01*
X197307309Y-114335598D01*
X197312640Y-114334878D01*
X197343502Y-114332278D01*
X197349407Y-114330016D01*
X197353753Y-114327843D01*
X197353762Y-114327839D01*
X197358289Y-114325576D01*
X197359113Y-114325212D01*
X197372553Y-114322709D01*
X197388194Y-114313068D01*
X197388196Y-114313067D01*
X197401670Y-114304761D01*
X197417095Y-114296172D01*
X198291421Y-113859009D01*
X198380417Y-113838000D01*
X208718796Y-113838000D01*
X208737234Y-113839613D01*
X208745356Y-113839613D01*
X208762500Y-113842636D01*
X208778830Y-113839757D01*
X208790779Y-113840226D01*
X208934531Y-113851539D01*
X208965372Y-113856425D01*
X209117940Y-113893054D01*
X209147638Y-113902703D01*
X209292595Y-113962746D01*
X209320417Y-113976922D01*
X209454198Y-114058903D01*
X209479449Y-114077249D01*
X209598772Y-114179159D01*
X209620841Y-114201228D01*
X209722751Y-114320551D01*
X209741097Y-114345802D01*
X209819146Y-114473166D01*
X209823078Y-114479583D01*
X209837254Y-114507405D01*
X209897297Y-114652362D01*
X209906946Y-114682060D01*
X209943575Y-114834628D01*
X209948461Y-114865471D01*
X209959774Y-115009220D01*
X209960243Y-115021170D01*
X209957364Y-115037500D01*
X209960387Y-115054644D01*
X209960387Y-115062766D01*
X209962000Y-115081204D01*
X209962000Y-129993796D01*
X209960387Y-130012234D01*
X209960387Y-130020356D01*
X209957364Y-130037500D01*
X209959155Y-130047661D01*
X209957934Y-130063172D01*
X209957337Y-130066939D01*
X209924358Y-130149133D01*
X209858982Y-130208878D01*
X209791939Y-130232337D01*
X209789567Y-130232713D01*
X209788170Y-130232934D01*
X209772661Y-130234155D01*
X209762500Y-130232364D01*
X209756199Y-130233475D01*
X209558428Y-130249040D01*
X209359381Y-130296827D01*
X209170260Y-130375163D01*
X208995722Y-130482120D01*
X208989779Y-130487196D01*
X208989776Y-130487198D01*
X208894187Y-130568839D01*
X208840064Y-130615064D01*
X208834989Y-130621006D01*
X208775596Y-130690547D01*
X208707120Y-130770722D01*
X208600163Y-130945260D01*
X208521827Y-131134381D01*
X208474040Y-131333428D01*
X208468619Y-131402315D01*
X208462943Y-131474431D01*
X208462617Y-131478122D01*
X208462000Y-131484415D01*
X208462000Y-131484421D01*
X208461354Y-131484358D01*
X208460805Y-131486317D01*
X208462000Y-131486411D01*
X208458475Y-131531200D01*
X208457364Y-131537500D01*
X208460387Y-131554645D01*
X208460387Y-131562768D01*
X208462000Y-131581204D01*
X208462000Y-136493796D01*
X208460387Y-136512232D01*
X208460387Y-136520355D01*
X208457364Y-136537500D01*
X208458475Y-136543800D01*
X208474040Y-136741572D01*
X208521827Y-136940619D01*
X208600163Y-137129740D01*
X208707120Y-137304278D01*
X208712196Y-137310221D01*
X208712198Y-137310224D01*
X208805764Y-137419776D01*
X208840064Y-137459936D01*
X208846006Y-137465011D01*
X208967574Y-137568839D01*
X208995722Y-137592880D01*
X209170260Y-137699837D01*
X209359381Y-137778173D01*
X209558428Y-137825960D01*
X209756199Y-137841525D01*
X209762500Y-137842636D01*
X209772661Y-137840845D01*
X209788170Y-137842066D01*
X209789567Y-137842287D01*
X209791939Y-137842663D01*
X209874133Y-137875642D01*
X209933878Y-137941018D01*
X209957337Y-138008061D01*
X209957934Y-138011828D01*
X209959155Y-138027339D01*
X209957364Y-138037500D01*
X209960387Y-138054644D01*
X209960387Y-138062766D01*
X209962000Y-138081204D01*
X209962000Y-152993796D01*
X209960387Y-153012234D01*
X209960387Y-153020356D01*
X209957364Y-153037500D01*
X209960243Y-153053830D01*
X209959774Y-153065780D01*
X209948461Y-153209529D01*
X209943575Y-153240372D01*
X209906946Y-153392940D01*
X209897297Y-153422638D01*
X209837254Y-153567595D01*
X209823078Y-153595417D01*
X209741097Y-153729198D01*
X209722751Y-153754449D01*
X209620841Y-153873772D01*
X209598772Y-153895841D01*
X209488734Y-153989822D01*
X209410279Y-154030911D01*
X209359495Y-154037500D01*
X197981417Y-154037500D01*
X197892421Y-154016491D01*
X197875272Y-154007916D01*
X197435745Y-153788152D01*
X197435413Y-153787965D01*
X197425854Y-153779098D01*
X197408792Y-153772291D01*
X197408789Y-153772289D01*
X197392960Y-153765974D01*
X197382189Y-153761143D01*
X197380091Y-153760325D01*
X197371890Y-153756225D01*
X197363075Y-153753695D01*
X197355687Y-153750816D01*
X197350626Y-153749085D01*
X197334925Y-153742821D01*
X197334923Y-153742821D01*
X197321878Y-153737616D01*
X197315585Y-153736999D01*
X197305676Y-153736999D01*
X197304756Y-153736955D01*
X197291615Y-153733183D01*
X197273317Y-153734811D01*
X197273315Y-153734811D01*
X197257528Y-153736216D01*
X197239891Y-153736999D01*
X194407524Y-153737000D01*
X194305945Y-153737000D01*
X194305562Y-153736981D01*
X194293048Y-153733325D01*
X194274742Y-153734867D01*
X194274740Y-153734867D01*
X194257756Y-153736298D01*
X194245938Y-153736795D01*
X194243717Y-153737000D01*
X194234552Y-153737000D01*
X194225545Y-153738677D01*
X194217691Y-153739402D01*
X194212360Y-153740122D01*
X194181498Y-153742722D01*
X194175594Y-153744984D01*
X194166729Y-153749417D01*
X194165889Y-153749788D01*
X194152447Y-153752291D01*
X194136808Y-153761931D01*
X194136806Y-153761932D01*
X194123319Y-153770246D01*
X194107892Y-153778835D01*
X193632578Y-154016491D01*
X193543583Y-154037500D01*
X142981417Y-154037500D01*
X142892421Y-154016491D01*
X142875272Y-154007916D01*
X142435745Y-153788152D01*
X142435413Y-153787965D01*
X142425854Y-153779098D01*
X142408792Y-153772291D01*
X142408789Y-153772289D01*
X142392960Y-153765974D01*
X142382189Y-153761143D01*
X142380091Y-153760325D01*
X142371890Y-153756225D01*
X142363075Y-153753695D01*
X142355687Y-153750816D01*
X142350626Y-153749085D01*
X142334925Y-153742821D01*
X142334923Y-153742821D01*
X142321878Y-153737616D01*
X142315585Y-153736999D01*
X142305676Y-153736999D01*
X142304756Y-153736955D01*
X142291615Y-153733183D01*
X142273317Y-153734811D01*
X142273315Y-153734811D01*
X142257528Y-153736216D01*
X142239891Y-153736999D01*
X139407524Y-153737000D01*
X139305945Y-153737000D01*
X139305562Y-153736981D01*
X139293048Y-153733325D01*
X139274742Y-153734867D01*
X139274740Y-153734867D01*
X139257756Y-153736298D01*
X139245938Y-153736795D01*
X139243717Y-153737000D01*
X139234552Y-153737000D01*
X139225545Y-153738677D01*
X139217691Y-153739402D01*
X139212360Y-153740122D01*
X139181498Y-153742722D01*
X139175594Y-153744984D01*
X139166729Y-153749417D01*
X139165889Y-153749788D01*
X139152447Y-153752291D01*
X139136808Y-153761931D01*
X139136806Y-153761932D01*
X139123319Y-153770246D01*
X139107892Y-153778835D01*
X138632578Y-154016491D01*
X138543583Y-154037500D01*
X127165505Y-154037500D01*
X127079162Y-154017793D01*
X127036266Y-153989822D01*
X126926228Y-153895841D01*
X126904159Y-153873772D01*
X126802249Y-153754449D01*
X126783903Y-153729198D01*
X126701922Y-153595417D01*
X126687746Y-153567595D01*
X126627703Y-153422638D01*
X126618054Y-153392940D01*
X126581425Y-153240372D01*
X126576539Y-153209529D01*
X126565226Y-153065780D01*
X126564757Y-153053830D01*
X126567636Y-153037500D01*
X126564613Y-153020356D01*
X126564613Y-153012234D01*
X126563000Y-152993796D01*
X126563000Y-149032045D01*
X132481106Y-149032045D01*
X132499316Y-149205297D01*
X132555456Y-149370209D01*
X132594966Y-149434432D01*
X132622035Y-149478431D01*
X132646738Y-149518586D01*
X132768624Y-149643052D01*
X132915056Y-149737421D01*
X132925509Y-149741226D01*
X132925510Y-149741226D01*
X133068304Y-149793199D01*
X133068309Y-149793200D01*
X133078757Y-149797003D01*
X133213301Y-149814000D01*
X133306300Y-149814000D01*
X133382079Y-149805500D01*
X133424569Y-149800734D01*
X133424572Y-149800733D01*
X133435621Y-149799494D01*
X133600137Y-149742204D01*
X133747873Y-149649888D01*
X133871485Y-149527136D01*
X133964829Y-149380049D01*
X134023267Y-149215936D01*
X134031920Y-149143374D01*
X134042577Y-149054002D01*
X134042577Y-149053999D01*
X134043894Y-149042955D01*
X134025684Y-148869703D01*
X134013787Y-148834754D01*
X138432467Y-148834754D01*
X138434638Y-148867875D01*
X138445398Y-149032045D01*
X138446296Y-149045749D01*
X138448540Y-149054586D01*
X138448541Y-149054590D01*
X138492182Y-149226422D01*
X138498345Y-149250690D01*
X138586869Y-149442714D01*
X138592132Y-149450161D01*
X138703637Y-149607938D01*
X138703641Y-149607943D01*
X138708905Y-149615391D01*
X138860365Y-149762937D01*
X138867950Y-149768005D01*
X138867951Y-149768006D01*
X138948271Y-149821674D01*
X139036177Y-149880411D01*
X139044556Y-149884011D01*
X139044558Y-149884012D01*
X139113768Y-149913746D01*
X139230453Y-149963878D01*
X139239342Y-149965889D01*
X139239347Y-149965891D01*
X139427789Y-150008531D01*
X139427791Y-150008531D01*
X139436686Y-150010544D01*
X139647970Y-150018846D01*
X139857230Y-149988504D01*
X139865872Y-149985571D01*
X139865874Y-149985570D01*
X140048816Y-149923470D01*
X140048820Y-149923468D01*
X140057455Y-149920537D01*
X140065412Y-149916081D01*
X140161527Y-149862254D01*
X181807467Y-149862254D01*
X181809833Y-149898354D01*
X181817645Y-150017538D01*
X181821296Y-150073249D01*
X181823540Y-150082086D01*
X181823541Y-150082090D01*
X181870828Y-150268278D01*
X181873345Y-150278190D01*
X181961869Y-150470214D01*
X181967132Y-150477661D01*
X182078637Y-150635438D01*
X182078641Y-150635443D01*
X182083905Y-150642891D01*
X182235365Y-150790437D01*
X182242950Y-150795505D01*
X182242951Y-150795506D01*
X182323271Y-150849174D01*
X182411177Y-150907911D01*
X182419556Y-150911511D01*
X182419558Y-150911512D01*
X182488768Y-150941246D01*
X182605453Y-150991378D01*
X182614342Y-150993389D01*
X182614347Y-150993391D01*
X182802789Y-151036031D01*
X182802791Y-151036031D01*
X182811686Y-151038044D01*
X183022970Y-151046346D01*
X183232230Y-151016004D01*
X183240872Y-151013071D01*
X183240874Y-151013070D01*
X183423816Y-150950970D01*
X183423820Y-150950968D01*
X183432455Y-150948037D01*
X183504105Y-150907911D01*
X183608988Y-150849174D01*
X183608992Y-150849171D01*
X183616942Y-150844719D01*
X183779512Y-150709512D01*
X183914719Y-150546942D01*
X183919171Y-150538992D01*
X183919174Y-150538988D01*
X184013581Y-150370412D01*
X184013582Y-150370411D01*
X184018037Y-150362455D01*
X184045617Y-150281209D01*
X184083070Y-150170874D01*
X184083071Y-150170872D01*
X184086004Y-150162230D01*
X184089590Y-150137500D01*
X185682250Y-150137500D01*
X185701170Y-150281209D01*
X185706161Y-150293258D01*
X185706161Y-150293259D01*
X185738119Y-150370412D01*
X185756639Y-150415125D01*
X185844879Y-150530121D01*
X185959875Y-150618361D01*
X185971924Y-150623352D01*
X185971926Y-150623353D01*
X186081741Y-150668839D01*
X186093791Y-150673830D01*
X186237500Y-150692750D01*
X186381209Y-150673830D01*
X186393259Y-150668839D01*
X186503074Y-150623353D01*
X186503076Y-150623352D01*
X186515125Y-150618361D01*
X186630121Y-150530121D01*
X186718361Y-150415125D01*
X186736882Y-150370412D01*
X186768839Y-150293259D01*
X186768839Y-150293258D01*
X186773830Y-150281209D01*
X186790203Y-150156846D01*
X186795671Y-150142110D01*
X186793567Y-150132890D01*
X187179329Y-150132890D01*
X187184797Y-150156846D01*
X187201170Y-150281209D01*
X187206161Y-150293258D01*
X187206161Y-150293259D01*
X187238119Y-150370412D01*
X187256639Y-150415125D01*
X187344879Y-150530121D01*
X187459875Y-150618361D01*
X187471924Y-150623352D01*
X187471926Y-150623353D01*
X187581741Y-150668839D01*
X187593791Y-150673830D01*
X187737500Y-150692750D01*
X187881209Y-150673830D01*
X187893259Y-150668839D01*
X188003074Y-150623353D01*
X188003076Y-150623352D01*
X188015125Y-150618361D01*
X188130121Y-150530121D01*
X188218361Y-150415125D01*
X188236882Y-150370412D01*
X188268839Y-150293259D01*
X188268839Y-150293258D01*
X188273830Y-150281209D01*
X188292750Y-150137500D01*
X189182250Y-150137500D01*
X189201170Y-150281209D01*
X189206161Y-150293258D01*
X189206161Y-150293259D01*
X189238119Y-150370412D01*
X189256639Y-150415125D01*
X189344879Y-150530121D01*
X189459875Y-150618361D01*
X189471924Y-150623352D01*
X189471926Y-150623353D01*
X189581741Y-150668839D01*
X189593791Y-150673830D01*
X189737500Y-150692750D01*
X189881209Y-150673830D01*
X189893259Y-150668839D01*
X190003074Y-150623353D01*
X190003076Y-150623352D01*
X190015125Y-150618361D01*
X190130121Y-150530121D01*
X190218361Y-150415125D01*
X190236882Y-150370412D01*
X190268839Y-150293259D01*
X190268839Y-150293258D01*
X190273830Y-150281209D01*
X190290203Y-150156846D01*
X190295671Y-150142110D01*
X190293567Y-150132890D01*
X190679329Y-150132890D01*
X190684797Y-150156846D01*
X190701170Y-150281209D01*
X190706161Y-150293258D01*
X190706161Y-150293259D01*
X190738119Y-150370412D01*
X190756639Y-150415125D01*
X190844879Y-150530121D01*
X190959875Y-150618361D01*
X190971924Y-150623352D01*
X190971926Y-150623353D01*
X191081741Y-150668839D01*
X191093791Y-150673830D01*
X191237500Y-150692750D01*
X191381209Y-150673830D01*
X191393259Y-150668839D01*
X191503074Y-150623353D01*
X191503076Y-150623352D01*
X191515125Y-150618361D01*
X191630121Y-150530121D01*
X191718361Y-150415125D01*
X191736882Y-150370412D01*
X191768839Y-150293259D01*
X191768839Y-150293258D01*
X191773830Y-150281209D01*
X191792750Y-150137500D01*
X191773830Y-149993791D01*
X191759949Y-149960279D01*
X191723353Y-149871926D01*
X191723352Y-149871924D01*
X191718361Y-149859875D01*
X191630121Y-149744879D01*
X191515125Y-149656639D01*
X191503076Y-149651648D01*
X191503074Y-149651647D01*
X191393259Y-149606161D01*
X191393258Y-149606161D01*
X191381209Y-149601170D01*
X191237500Y-149582250D01*
X191093791Y-149601170D01*
X191081742Y-149606161D01*
X191081741Y-149606161D01*
X190971926Y-149651647D01*
X190971924Y-149651648D01*
X190959875Y-149656639D01*
X190844879Y-149744879D01*
X190756639Y-149859875D01*
X190751648Y-149871924D01*
X190751647Y-149871926D01*
X190715051Y-149960279D01*
X190701170Y-149993791D01*
X190690709Y-150073249D01*
X190684797Y-150118154D01*
X190679329Y-150132890D01*
X190293567Y-150132890D01*
X190290203Y-150118154D01*
X190284291Y-150073249D01*
X190273830Y-149993791D01*
X190259949Y-149960279D01*
X190223353Y-149871926D01*
X190223352Y-149871924D01*
X190218361Y-149859875D01*
X190130121Y-149744879D01*
X190015125Y-149656639D01*
X190003076Y-149651648D01*
X190003074Y-149651647D01*
X189893259Y-149606161D01*
X189893258Y-149606161D01*
X189881209Y-149601170D01*
X189737500Y-149582250D01*
X189593791Y-149601170D01*
X189581742Y-149606161D01*
X189581741Y-149606161D01*
X189471926Y-149651647D01*
X189471924Y-149651648D01*
X189459875Y-149656639D01*
X189344879Y-149744879D01*
X189256639Y-149859875D01*
X189251648Y-149871924D01*
X189251647Y-149871926D01*
X189215051Y-149960279D01*
X189201170Y-149993791D01*
X189182250Y-150137500D01*
X188292750Y-150137500D01*
X188273830Y-149993791D01*
X188259949Y-149960279D01*
X188223353Y-149871926D01*
X188223352Y-149871924D01*
X188218361Y-149859875D01*
X188130121Y-149744879D01*
X188015125Y-149656639D01*
X188003076Y-149651648D01*
X188003074Y-149651647D01*
X187893259Y-149606161D01*
X187893258Y-149606161D01*
X187881209Y-149601170D01*
X187737500Y-149582250D01*
X187593791Y-149601170D01*
X187581742Y-149606161D01*
X187581741Y-149606161D01*
X187471926Y-149651647D01*
X187471924Y-149651648D01*
X187459875Y-149656639D01*
X187344879Y-149744879D01*
X187256639Y-149859875D01*
X187251648Y-149871924D01*
X187251647Y-149871926D01*
X187215051Y-149960279D01*
X187201170Y-149993791D01*
X187190709Y-150073249D01*
X187184797Y-150118154D01*
X187179329Y-150132890D01*
X186793567Y-150132890D01*
X186790203Y-150118154D01*
X186784291Y-150073249D01*
X186773830Y-149993791D01*
X186759949Y-149960279D01*
X186723353Y-149871926D01*
X186723352Y-149871924D01*
X186718361Y-149859875D01*
X186630121Y-149744879D01*
X186515125Y-149656639D01*
X186503076Y-149651648D01*
X186503074Y-149651647D01*
X186393259Y-149606161D01*
X186393258Y-149606161D01*
X186381209Y-149601170D01*
X186237500Y-149582250D01*
X186093791Y-149601170D01*
X186081742Y-149606161D01*
X186081741Y-149606161D01*
X185971926Y-149651647D01*
X185971924Y-149651648D01*
X185959875Y-149656639D01*
X185844879Y-149744879D01*
X185756639Y-149859875D01*
X185751648Y-149871924D01*
X185751647Y-149871926D01*
X185715051Y-149960279D01*
X185701170Y-149993791D01*
X185682250Y-150137500D01*
X184089590Y-150137500D01*
X184111619Y-149985570D01*
X184115507Y-149958759D01*
X184115508Y-149958753D01*
X184116346Y-149952970D01*
X184117929Y-149892500D01*
X184116352Y-149875341D01*
X184099416Y-149691025D01*
X184099416Y-149691023D01*
X184098581Y-149681940D01*
X184054753Y-149526536D01*
X184043661Y-149487206D01*
X184043660Y-149487204D01*
X184041186Y-149478431D01*
X183947665Y-149288790D01*
X183821151Y-149119367D01*
X183814455Y-149113177D01*
X183814452Y-149113174D01*
X183731664Y-149036646D01*
X183665881Y-148975837D01*
X183487054Y-148863005D01*
X183478572Y-148859621D01*
X183346824Y-148807059D01*
X183273930Y-148756760D01*
X183230079Y-148679815D01*
X183223956Y-148591464D01*
X183256774Y-148509205D01*
X183322032Y-148449332D01*
X183356598Y-148433787D01*
X183423816Y-148410970D01*
X183423820Y-148410968D01*
X183432455Y-148408037D01*
X183440412Y-148403581D01*
X183608988Y-148309174D01*
X183608992Y-148309171D01*
X183616942Y-148304719D01*
X183779512Y-148169512D01*
X183914719Y-148006942D01*
X183919171Y-147998992D01*
X183919174Y-147998988D01*
X184013581Y-147830412D01*
X184013582Y-147830411D01*
X184018037Y-147822455D01*
X184032599Y-147779559D01*
X184083070Y-147630874D01*
X184083071Y-147630872D01*
X184086004Y-147622230D01*
X184112708Y-147438059D01*
X184115507Y-147418759D01*
X184115508Y-147418753D01*
X184116346Y-147412970D01*
X184117929Y-147352500D01*
X184115986Y-147331358D01*
X184099416Y-147151025D01*
X184099416Y-147151023D01*
X184098581Y-147141940D01*
X184059039Y-147001734D01*
X184043661Y-146947206D01*
X184043660Y-146947204D01*
X184041186Y-146938431D01*
X183947665Y-146748790D01*
X183821151Y-146579367D01*
X183814455Y-146573177D01*
X183814452Y-146573174D01*
X183731664Y-146496646D01*
X183665881Y-146435837D01*
X183487054Y-146323005D01*
X183478577Y-146319623D01*
X183478575Y-146319622D01*
X183323099Y-146257594D01*
X183290660Y-146244652D01*
X183083275Y-146203401D01*
X182974905Y-146201982D01*
X182880971Y-146200752D01*
X182880966Y-146200752D01*
X182871846Y-146200633D01*
X182862856Y-146202178D01*
X182862853Y-146202178D01*
X182761613Y-146219574D01*
X182663453Y-146236441D01*
X182654902Y-146239596D01*
X182654897Y-146239597D01*
X182473634Y-146306469D01*
X182473630Y-146306471D01*
X182465075Y-146309627D01*
X182457237Y-146314290D01*
X182457233Y-146314292D01*
X182429395Y-146330854D01*
X182283356Y-146417738D01*
X182276497Y-146423753D01*
X182276493Y-146423756D01*
X182161715Y-146524414D01*
X182124381Y-146557155D01*
X182118731Y-146564322D01*
X182118730Y-146564323D01*
X182101878Y-146585700D01*
X181993476Y-146723208D01*
X181989226Y-146731286D01*
X181903391Y-146894432D01*
X181895023Y-146910336D01*
X181892316Y-146919052D01*
X181892315Y-146919056D01*
X181876035Y-146971488D01*
X181832320Y-147112273D01*
X181831248Y-147121330D01*
X181817558Y-147237000D01*
X181807467Y-147322254D01*
X181809833Y-147358354D01*
X181819800Y-147510421D01*
X181821296Y-147533249D01*
X181823540Y-147542086D01*
X181823541Y-147542090D01*
X181858063Y-147678016D01*
X181873345Y-147738190D01*
X181961869Y-147930214D01*
X181967132Y-147937661D01*
X182078637Y-148095438D01*
X182078641Y-148095443D01*
X182083905Y-148102891D01*
X182235365Y-148250437D01*
X182242950Y-148255505D01*
X182242951Y-148255506D01*
X182323271Y-148309174D01*
X182411177Y-148367911D01*
X182419557Y-148371511D01*
X182419562Y-148371514D01*
X182504573Y-148408037D01*
X182581022Y-148440882D01*
X182652573Y-148493071D01*
X182694395Y-148571137D01*
X182698203Y-148659619D01*
X182663244Y-148740990D01*
X182596441Y-148799135D01*
X182571346Y-148810421D01*
X182480712Y-148843858D01*
X182465075Y-148849627D01*
X182457237Y-148854290D01*
X182457233Y-148854292D01*
X182350267Y-148917930D01*
X182283356Y-148957738D01*
X182276497Y-148963753D01*
X182276493Y-148963756D01*
X182172917Y-149054590D01*
X182124381Y-149097155D01*
X182118731Y-149104322D01*
X182118730Y-149104323D01*
X182101878Y-149125700D01*
X181993476Y-149263208D01*
X181989226Y-149271286D01*
X181903391Y-149434432D01*
X181895023Y-149450336D01*
X181892316Y-149459052D01*
X181892315Y-149459056D01*
X181854063Y-149582250D01*
X181832320Y-149652273D01*
X181831248Y-149661330D01*
X181813252Y-149813380D01*
X181807467Y-149862254D01*
X140161527Y-149862254D01*
X140233988Y-149821674D01*
X140233992Y-149821671D01*
X140241942Y-149817219D01*
X140404512Y-149682012D01*
X140429246Y-149652273D01*
X140533888Y-149526453D01*
X140539719Y-149519442D01*
X140544171Y-149511492D01*
X140544174Y-149511488D01*
X140638581Y-149342912D01*
X140638582Y-149342911D01*
X140643037Y-149334955D01*
X140674643Y-149241848D01*
X140708070Y-149143374D01*
X140708071Y-149143372D01*
X140711004Y-149134730D01*
X140735795Y-148963756D01*
X140740507Y-148931259D01*
X140740508Y-148931253D01*
X140741346Y-148925470D01*
X140742929Y-148865000D01*
X140735546Y-148784652D01*
X140724416Y-148663525D01*
X140724416Y-148663523D01*
X140723581Y-148654440D01*
X140666186Y-148450931D01*
X140572665Y-148261290D01*
X140446151Y-148091867D01*
X140439455Y-148085677D01*
X140439452Y-148085674D01*
X140361864Y-148013953D01*
X140290881Y-147948337D01*
X140112054Y-147835505D01*
X139971824Y-147779559D01*
X139898930Y-147729260D01*
X139855079Y-147652315D01*
X139848956Y-147563964D01*
X139881774Y-147481705D01*
X139947032Y-147421832D01*
X139981598Y-147406287D01*
X140048816Y-147383470D01*
X140048820Y-147383468D01*
X140057455Y-147380537D01*
X140065412Y-147376081D01*
X140233988Y-147281674D01*
X140233992Y-147281671D01*
X140241942Y-147277219D01*
X140404512Y-147142012D01*
X140429246Y-147112273D01*
X140491433Y-147037500D01*
X144182250Y-147037500D01*
X144201170Y-147181209D01*
X144206161Y-147193258D01*
X144206161Y-147193259D01*
X144238523Y-147271388D01*
X144256639Y-147315125D01*
X144344879Y-147430121D01*
X144459875Y-147518361D01*
X144471924Y-147523352D01*
X144471926Y-147523353D01*
X144581741Y-147568839D01*
X144593791Y-147573830D01*
X144737500Y-147592750D01*
X144881209Y-147573830D01*
X144893259Y-147568839D01*
X145003074Y-147523353D01*
X145003076Y-147523352D01*
X145015125Y-147518361D01*
X145130121Y-147430121D01*
X145218361Y-147315125D01*
X145236478Y-147271388D01*
X145268839Y-147193259D01*
X145268839Y-147193258D01*
X145273830Y-147181209D01*
X145292750Y-147037500D01*
X145273830Y-146893791D01*
X145260369Y-146861293D01*
X145223353Y-146771926D01*
X145223352Y-146771924D01*
X145218361Y-146759875D01*
X145130121Y-146644879D01*
X145015125Y-146556639D01*
X145003076Y-146551648D01*
X145003074Y-146551647D01*
X144893259Y-146506161D01*
X144893258Y-146506161D01*
X144881209Y-146501170D01*
X144737500Y-146482250D01*
X144593791Y-146501170D01*
X144581742Y-146506161D01*
X144581741Y-146506161D01*
X144471926Y-146551647D01*
X144471924Y-146551648D01*
X144459875Y-146556639D01*
X144344879Y-146644879D01*
X144256639Y-146759875D01*
X144251648Y-146771924D01*
X144251647Y-146771926D01*
X144214631Y-146861293D01*
X144201170Y-146893791D01*
X144182250Y-147037500D01*
X140491433Y-147037500D01*
X140533888Y-146986453D01*
X140539719Y-146979442D01*
X140544171Y-146971492D01*
X140544174Y-146971488D01*
X140638581Y-146802912D01*
X140638582Y-146802911D01*
X140643037Y-146794955D01*
X140647777Y-146780993D01*
X140708070Y-146603374D01*
X140708071Y-146603372D01*
X140711004Y-146594730D01*
X140735795Y-146423756D01*
X140740507Y-146391259D01*
X140740508Y-146391253D01*
X140740925Y-146388372D01*
X141331378Y-146388372D01*
X141350298Y-146532081D01*
X141355289Y-146544130D01*
X141355289Y-146544131D01*
X141397020Y-146644879D01*
X141405767Y-146665997D01*
X141494007Y-146780993D01*
X141609003Y-146869233D01*
X141621052Y-146874224D01*
X141621054Y-146874225D01*
X141729288Y-146919056D01*
X141742919Y-146924702D01*
X141886628Y-146943622D01*
X142030337Y-146924702D01*
X142043968Y-146919056D01*
X142152202Y-146874225D01*
X142152204Y-146874224D01*
X142164253Y-146869233D01*
X142279249Y-146780993D01*
X142367489Y-146665997D01*
X142376237Y-146644879D01*
X142417967Y-146544131D01*
X142417967Y-146544130D01*
X142422958Y-146532081D01*
X142441878Y-146388372D01*
X142422958Y-146244663D01*
X142405818Y-146203282D01*
X142372481Y-146122798D01*
X142372480Y-146122796D01*
X142367489Y-146110747D01*
X142279249Y-145995751D01*
X142164253Y-145907511D01*
X142152204Y-145902520D01*
X142152202Y-145902519D01*
X142042387Y-145857033D01*
X142042386Y-145857033D01*
X142030337Y-145852042D01*
X141886628Y-145833122D01*
X141742919Y-145852042D01*
X141730870Y-145857033D01*
X141730869Y-145857033D01*
X141621054Y-145902519D01*
X141621052Y-145902520D01*
X141609003Y-145907511D01*
X141494007Y-145995751D01*
X141405767Y-146110747D01*
X141400776Y-146122796D01*
X141400775Y-146122798D01*
X141367438Y-146203282D01*
X141350298Y-146244663D01*
X141331378Y-146388372D01*
X140740925Y-146388372D01*
X140741346Y-146385470D01*
X140742929Y-146325000D01*
X140735462Y-146243742D01*
X140724416Y-146123525D01*
X140724416Y-146123523D01*
X140723581Y-146114440D01*
X140682682Y-145969423D01*
X140668661Y-145919706D01*
X140668660Y-145919704D01*
X140666186Y-145910931D01*
X140572665Y-145721290D01*
X140543501Y-145682235D01*
X156962000Y-145682235D01*
X156998281Y-145969423D01*
X157070269Y-146249799D01*
X157072567Y-146255604D01*
X157072569Y-146255609D01*
X157097733Y-146319166D01*
X157176830Y-146518942D01*
X157179836Y-146524410D01*
X157179838Y-146524414D01*
X157313274Y-146767132D01*
X157313279Y-146767139D01*
X157316284Y-146772606D01*
X157319951Y-146777654D01*
X157319956Y-146777661D01*
X157466558Y-146979442D01*
X157486430Y-147006793D01*
X157490710Y-147011350D01*
X157490711Y-147011352D01*
X157680309Y-147213254D01*
X157680313Y-147213258D01*
X157684586Y-147217808D01*
X157907627Y-147402323D01*
X158152035Y-147557429D01*
X158157685Y-147560088D01*
X158157691Y-147560091D01*
X158408295Y-147678016D01*
X158408300Y-147678018D01*
X158413955Y-147680679D01*
X158419906Y-147682613D01*
X158419907Y-147682613D01*
X158683311Y-147768199D01*
X158683316Y-147768200D01*
X158689258Y-147770131D01*
X158695398Y-147771302D01*
X158695401Y-147771303D01*
X158967455Y-147823200D01*
X158967461Y-147823201D01*
X158973601Y-147824372D01*
X158979846Y-147824765D01*
X158979847Y-147824765D01*
X159000717Y-147826078D01*
X159261724Y-147842499D01*
X159262500Y-147842636D01*
X159279656Y-147839611D01*
X159287780Y-147839612D01*
X159306204Y-147838000D01*
X177218796Y-147838000D01*
X177237220Y-147839612D01*
X177245344Y-147839611D01*
X177262500Y-147842636D01*
X177263276Y-147842499D01*
X177282864Y-147841267D01*
X177282865Y-147841267D01*
X177545153Y-147824765D01*
X177545154Y-147824765D01*
X177551399Y-147824372D01*
X177557539Y-147823201D01*
X177557545Y-147823200D01*
X177829599Y-147771303D01*
X177829602Y-147771302D01*
X177835742Y-147770131D01*
X177841684Y-147768200D01*
X177841689Y-147768199D01*
X178105093Y-147682613D01*
X178105094Y-147682613D01*
X178111045Y-147680679D01*
X178116700Y-147678018D01*
X178116705Y-147678016D01*
X178367309Y-147560091D01*
X178367315Y-147560088D01*
X178372965Y-147557429D01*
X178617373Y-147402323D01*
X178840414Y-147217808D01*
X178844687Y-147213258D01*
X178844691Y-147213254D01*
X179034289Y-147011352D01*
X179034290Y-147011350D01*
X179038570Y-147006793D01*
X179058442Y-146979442D01*
X179205044Y-146777661D01*
X179205049Y-146777654D01*
X179208716Y-146772606D01*
X179211721Y-146767139D01*
X179211726Y-146767132D01*
X179345162Y-146524414D01*
X179345164Y-146524410D01*
X179348170Y-146518942D01*
X179427267Y-146319166D01*
X179452431Y-146255609D01*
X179452433Y-146255604D01*
X179454731Y-146249799D01*
X179526719Y-145969423D01*
X179563000Y-145682235D01*
X179563000Y-145392765D01*
X179526719Y-145105577D01*
X179454731Y-144825201D01*
X179444567Y-144799528D01*
X179366220Y-144601647D01*
X179348170Y-144556058D01*
X179336018Y-144533953D01*
X179211726Y-144307868D01*
X179211721Y-144307861D01*
X179208716Y-144302394D01*
X179205049Y-144297346D01*
X179205044Y-144297339D01*
X179042246Y-144073266D01*
X179042242Y-144073262D01*
X179038570Y-144068207D01*
X179034289Y-144063648D01*
X178844691Y-143861746D01*
X178844687Y-143861742D01*
X178840414Y-143857192D01*
X178617373Y-143672677D01*
X178372965Y-143517571D01*
X178367315Y-143514912D01*
X178367309Y-143514909D01*
X178116705Y-143396984D01*
X178116700Y-143396982D01*
X178111045Y-143394321D01*
X177913121Y-143330011D01*
X177841689Y-143306801D01*
X177841684Y-143306800D01*
X177835742Y-143304869D01*
X177829602Y-143303698D01*
X177829599Y-143303697D01*
X177557545Y-143251800D01*
X177557539Y-143251799D01*
X177551399Y-143250628D01*
X177545154Y-143250235D01*
X177545153Y-143250235D01*
X177524283Y-143248922D01*
X177263276Y-143232501D01*
X177262500Y-143232364D01*
X177245344Y-143235389D01*
X177237220Y-143235388D01*
X177218796Y-143237000D01*
X159306204Y-143237000D01*
X159287780Y-143235388D01*
X159279656Y-143235389D01*
X159262500Y-143232364D01*
X159261724Y-143232501D01*
X159242136Y-143233733D01*
X159242135Y-143233733D01*
X158979847Y-143250235D01*
X158979846Y-143250235D01*
X158973601Y-143250628D01*
X158967461Y-143251799D01*
X158967455Y-143251800D01*
X158695401Y-143303697D01*
X158695398Y-143303698D01*
X158689258Y-143304869D01*
X158683316Y-143306800D01*
X158683311Y-143306801D01*
X158611879Y-143330011D01*
X158413955Y-143394321D01*
X158408300Y-143396982D01*
X158408295Y-143396984D01*
X158157691Y-143514909D01*
X158157685Y-143514912D01*
X158152035Y-143517571D01*
X157907627Y-143672677D01*
X157684586Y-143857192D01*
X157680313Y-143861742D01*
X157680309Y-143861746D01*
X157490711Y-144063648D01*
X157486430Y-144068207D01*
X157482758Y-144073262D01*
X157482754Y-144073266D01*
X157319956Y-144297339D01*
X157319951Y-144297346D01*
X157316284Y-144302394D01*
X157313279Y-144307861D01*
X157313274Y-144307868D01*
X157188982Y-144533953D01*
X157176830Y-144556058D01*
X157158780Y-144601647D01*
X157080434Y-144799528D01*
X157070269Y-144825201D01*
X156998281Y-145105577D01*
X156962000Y-145392765D01*
X156962000Y-145682235D01*
X140543501Y-145682235D01*
X140446151Y-145551867D01*
X140439455Y-145545677D01*
X140439452Y-145545674D01*
X140377124Y-145488059D01*
X140290881Y-145408337D01*
X140112054Y-145295505D01*
X140103577Y-145292123D01*
X140103575Y-145292122D01*
X140039979Y-145266750D01*
X139915660Y-145217152D01*
X139708275Y-145175901D01*
X139599905Y-145174482D01*
X139505971Y-145173252D01*
X139505966Y-145173252D01*
X139496846Y-145173133D01*
X139487856Y-145174678D01*
X139487853Y-145174678D01*
X139386613Y-145192074D01*
X139288453Y-145208941D01*
X139279902Y-145212096D01*
X139279897Y-145212097D01*
X139098634Y-145278969D01*
X139098630Y-145278971D01*
X139090075Y-145282127D01*
X139082237Y-145286790D01*
X139082233Y-145286792D01*
X138975267Y-145350430D01*
X138908356Y-145390238D01*
X138901497Y-145396253D01*
X138901493Y-145396256D01*
X138817660Y-145469776D01*
X138749381Y-145529655D01*
X138743731Y-145536822D01*
X138743730Y-145536823D01*
X138726111Y-145559173D01*
X138618476Y-145695708D01*
X138614226Y-145703786D01*
X138533599Y-145857033D01*
X138520023Y-145882836D01*
X138517316Y-145891552D01*
X138517315Y-145891556D01*
X138495065Y-145963215D01*
X138457320Y-146084773D01*
X138456248Y-146093830D01*
X138438608Y-146242873D01*
X138432467Y-146294754D01*
X138446296Y-146505749D01*
X138448540Y-146514586D01*
X138448541Y-146514590D01*
X138483934Y-146653946D01*
X138498345Y-146710690D01*
X138586869Y-146902714D01*
X138592132Y-146910161D01*
X138703637Y-147067938D01*
X138703641Y-147067943D01*
X138708905Y-147075391D01*
X138860365Y-147222937D01*
X138867950Y-147228005D01*
X138867951Y-147228006D01*
X138948271Y-147281674D01*
X139036177Y-147340411D01*
X139044557Y-147344011D01*
X139044562Y-147344014D01*
X139129573Y-147380537D01*
X139206022Y-147413382D01*
X139277573Y-147465571D01*
X139319395Y-147543637D01*
X139323203Y-147632119D01*
X139288244Y-147713490D01*
X139221441Y-147771635D01*
X139196346Y-147782921D01*
X139112603Y-147813816D01*
X139090075Y-147822127D01*
X139082237Y-147826790D01*
X139082233Y-147826792D01*
X139055602Y-147842636D01*
X138908356Y-147930238D01*
X138901497Y-147936253D01*
X138901493Y-147936256D01*
X138812897Y-148013953D01*
X138749381Y-148069655D01*
X138743731Y-148076822D01*
X138743730Y-148076823D01*
X138683928Y-148152682D01*
X138618476Y-148235708D01*
X138614226Y-148243786D01*
X138530154Y-148403581D01*
X138520023Y-148422836D01*
X138517316Y-148431552D01*
X138517315Y-148431556D01*
X138503514Y-148476004D01*
X138457320Y-148624773D01*
X138432467Y-148834754D01*
X134013787Y-148834754D01*
X133969544Y-148704791D01*
X133878262Y-148556414D01*
X133756376Y-148431948D01*
X133609944Y-148337579D01*
X133531902Y-148309174D01*
X133456696Y-148281801D01*
X133456691Y-148281800D01*
X133446243Y-148277997D01*
X133311699Y-148261000D01*
X133218700Y-148261000D01*
X133143181Y-148269471D01*
X133100431Y-148274266D01*
X133100428Y-148274267D01*
X133089379Y-148275506D01*
X132924863Y-148332796D01*
X132777127Y-148425112D01*
X132769232Y-148432952D01*
X132759359Y-148442756D01*
X132653515Y-148547864D01*
X132591451Y-148645661D01*
X132569777Y-148679815D01*
X132560171Y-148694951D01*
X132501733Y-148859064D01*
X132500415Y-148870113D01*
X132500415Y-148870115D01*
X132487070Y-148982032D01*
X132481106Y-149032045D01*
X126563000Y-149032045D01*
X126563000Y-144287500D01*
X142932250Y-144287500D01*
X142951170Y-144431209D01*
X142956161Y-144443258D01*
X142956161Y-144443259D01*
X143000859Y-144551170D01*
X143006639Y-144565125D01*
X143094879Y-144680121D01*
X143209875Y-144768361D01*
X143221924Y-144773352D01*
X143221926Y-144773353D01*
X143331741Y-144818839D01*
X143343791Y-144823830D01*
X143487500Y-144842750D01*
X143631209Y-144823830D01*
X143641252Y-144819670D01*
X143728477Y-144816406D01*
X143809651Y-144851822D01*
X143867420Y-144918950D01*
X143890342Y-145004495D01*
X143888779Y-145037907D01*
X143882250Y-145087500D01*
X143901170Y-145231209D01*
X143906161Y-145243258D01*
X143906161Y-145243259D01*
X143926401Y-145292122D01*
X143956639Y-145365125D01*
X144044879Y-145480121D01*
X144159875Y-145568361D01*
X144171924Y-145573352D01*
X144171926Y-145573353D01*
X144281741Y-145618839D01*
X144293791Y-145623830D01*
X144437500Y-145642750D01*
X144581209Y-145623830D01*
X144593259Y-145618839D01*
X144703074Y-145573353D01*
X144703076Y-145573352D01*
X144715125Y-145568361D01*
X144830121Y-145480121D01*
X144918361Y-145365125D01*
X144948600Y-145292122D01*
X144968839Y-145243259D01*
X144968839Y-145243258D01*
X144973830Y-145231209D01*
X144992750Y-145087500D01*
X144973830Y-144943791D01*
X144924847Y-144825533D01*
X144923353Y-144821926D01*
X144923352Y-144821924D01*
X144918361Y-144809875D01*
X144830121Y-144694879D01*
X144715125Y-144606639D01*
X144703076Y-144601648D01*
X144703074Y-144601647D01*
X144593259Y-144556161D01*
X144593258Y-144556161D01*
X144581209Y-144551170D01*
X144437500Y-144532250D01*
X144293791Y-144551170D01*
X144283748Y-144555330D01*
X144196523Y-144558594D01*
X144115349Y-144523178D01*
X144057580Y-144456050D01*
X144034658Y-144370505D01*
X144036221Y-144337090D01*
X144040789Y-144302394D01*
X144042750Y-144287500D01*
X144023830Y-144143791D01*
X143968361Y-144009875D01*
X143880121Y-143894879D01*
X143765125Y-143806639D01*
X143753076Y-143801648D01*
X143753074Y-143801647D01*
X143643259Y-143756161D01*
X143643258Y-143756161D01*
X143631209Y-143751170D01*
X143487500Y-143732250D01*
X143343791Y-143751170D01*
X143331742Y-143756161D01*
X143331741Y-143756161D01*
X143221926Y-143801647D01*
X143221924Y-143801648D01*
X143209875Y-143806639D01*
X143094879Y-143894879D01*
X143006639Y-144009875D01*
X142951170Y-144143791D01*
X142932250Y-144287500D01*
X126563000Y-144287500D01*
X126563000Y-143042039D01*
X151504980Y-143042039D01*
X151523900Y-143185748D01*
X151528891Y-143197797D01*
X151528891Y-143197798D01*
X151573986Y-143306667D01*
X151579369Y-143319664D01*
X151667609Y-143434660D01*
X151782605Y-143522900D01*
X151794654Y-143527891D01*
X151794656Y-143527892D01*
X151893513Y-143568839D01*
X151916521Y-143578369D01*
X152060230Y-143597289D01*
X152203939Y-143578369D01*
X152226947Y-143568839D01*
X152325804Y-143527892D01*
X152325806Y-143527891D01*
X152337855Y-143522900D01*
X152452851Y-143434660D01*
X152505231Y-143366398D01*
X152573425Y-143309896D01*
X152659384Y-143288578D01*
X152746080Y-143306667D01*
X152820983Y-143366399D01*
X152842409Y-143394321D01*
X152869879Y-143430121D01*
X152984875Y-143518361D01*
X152996924Y-143523352D01*
X152996926Y-143523353D01*
X153106741Y-143568839D01*
X153118791Y-143573830D01*
X153262500Y-143592750D01*
X153406209Y-143573830D01*
X153418259Y-143568839D01*
X153528074Y-143523353D01*
X153528076Y-143523352D01*
X153540125Y-143518361D01*
X153655121Y-143430121D01*
X153743361Y-143315125D01*
X153777585Y-143232501D01*
X153793839Y-143193259D01*
X153793839Y-143193258D01*
X153798830Y-143181209D01*
X153817750Y-143037500D01*
X153798830Y-142893791D01*
X153750233Y-142776465D01*
X153748353Y-142771926D01*
X153748352Y-142771924D01*
X153743361Y-142759875D01*
X153655121Y-142644879D01*
X153540125Y-142556639D01*
X153528076Y-142551648D01*
X153528074Y-142551647D01*
X153418259Y-142506161D01*
X153418258Y-142506161D01*
X153406209Y-142501170D01*
X153262500Y-142482250D01*
X153118791Y-142501170D01*
X153106742Y-142506161D01*
X153106741Y-142506161D01*
X152996926Y-142551647D01*
X152996924Y-142551648D01*
X152984875Y-142556639D01*
X152869879Y-142644879D01*
X152817499Y-142713141D01*
X152749305Y-142769643D01*
X152663346Y-142790961D01*
X152576650Y-142772872D01*
X152501747Y-142713140D01*
X152460789Y-142659763D01*
X152452851Y-142649418D01*
X152337855Y-142561178D01*
X152325806Y-142556187D01*
X152325804Y-142556186D01*
X152215989Y-142510700D01*
X152215988Y-142510700D01*
X152203939Y-142505709D01*
X152060230Y-142486789D01*
X151916521Y-142505709D01*
X151904472Y-142510700D01*
X151904471Y-142510700D01*
X151794656Y-142556186D01*
X151794654Y-142556187D01*
X151782605Y-142561178D01*
X151667609Y-142649418D01*
X151579369Y-142764414D01*
X151523900Y-142898330D01*
X151504980Y-143042039D01*
X126563000Y-143042039D01*
X126563000Y-141126652D01*
X173107748Y-141126652D01*
X173126668Y-141270361D01*
X173131659Y-141282410D01*
X173131659Y-141282411D01*
X173177145Y-141392224D01*
X173182137Y-141404277D01*
X173202715Y-141431094D01*
X173270377Y-141519273D01*
X173268729Y-141520537D01*
X173306856Y-141581214D01*
X173316772Y-141669221D01*
X173291362Y-141746440D01*
X173289581Y-141749525D01*
X173281639Y-141759875D01*
X173226170Y-141893791D01*
X173207250Y-142037500D01*
X173226170Y-142181209D01*
X173231161Y-142193258D01*
X173231161Y-142193259D01*
X173271790Y-142291346D01*
X173281639Y-142315125D01*
X173369879Y-142430121D01*
X173484875Y-142518361D01*
X173496924Y-142523352D01*
X173496926Y-142523353D01*
X173606741Y-142568839D01*
X173618791Y-142573830D01*
X173762500Y-142592750D01*
X173906209Y-142573830D01*
X173918259Y-142568839D01*
X174028074Y-142523353D01*
X174028076Y-142523352D01*
X174040125Y-142518361D01*
X174155121Y-142430121D01*
X174243361Y-142315125D01*
X174253211Y-142291346D01*
X174293839Y-142193259D01*
X174293839Y-142193258D01*
X174298830Y-142181209D01*
X174317750Y-142037500D01*
X174298830Y-141893791D01*
X174293299Y-141880438D01*
X174248353Y-141771926D01*
X174248352Y-141771924D01*
X174243361Y-141759875D01*
X174155121Y-141644879D01*
X174156769Y-141643615D01*
X174118642Y-141582938D01*
X174108726Y-141494931D01*
X174134136Y-141417712D01*
X174135919Y-141414624D01*
X174143859Y-141404277D01*
X174199328Y-141270361D01*
X174218248Y-141126652D01*
X174215694Y-141107254D01*
X188722467Y-141107254D01*
X188736296Y-141318249D01*
X188738540Y-141327086D01*
X188738541Y-141327090D01*
X188780711Y-141493130D01*
X188788345Y-141523190D01*
X188876869Y-141715214D01*
X188882132Y-141722661D01*
X188993637Y-141880438D01*
X188993641Y-141880443D01*
X188998905Y-141887891D01*
X189150365Y-142035437D01*
X189157950Y-142040505D01*
X189157951Y-142040506D01*
X189238271Y-142094174D01*
X189326177Y-142152911D01*
X189334556Y-142156511D01*
X189334558Y-142156512D01*
X189361945Y-142168278D01*
X189520453Y-142236378D01*
X189529342Y-142238389D01*
X189529347Y-142238391D01*
X189717789Y-142281031D01*
X189717791Y-142281031D01*
X189726686Y-142283044D01*
X189937970Y-142291346D01*
X190147230Y-142261004D01*
X190155872Y-142258071D01*
X190155874Y-142258070D01*
X190338816Y-142195970D01*
X190338820Y-142195968D01*
X190347455Y-142193037D01*
X190355412Y-142188581D01*
X190523988Y-142094174D01*
X190523992Y-142094171D01*
X190531942Y-142089719D01*
X190694512Y-141954512D01*
X190829719Y-141791942D01*
X190834171Y-141783992D01*
X190834174Y-141783988D01*
X190928581Y-141615412D01*
X190928582Y-141615411D01*
X190933037Y-141607455D01*
X190957087Y-141536607D01*
X191003501Y-141461183D01*
X191078046Y-141413365D01*
X191165956Y-141402627D01*
X191249819Y-141431094D01*
X191313026Y-141493130D01*
X191327855Y-141523416D01*
X191328345Y-141523190D01*
X191416869Y-141715214D01*
X191422132Y-141722661D01*
X191533637Y-141880438D01*
X191533641Y-141880443D01*
X191538905Y-141887891D01*
X191690365Y-142035437D01*
X191697950Y-142040505D01*
X191697951Y-142040506D01*
X191778271Y-142094174D01*
X191866177Y-142152911D01*
X191874556Y-142156511D01*
X191874558Y-142156512D01*
X191901945Y-142168278D01*
X192060453Y-142236378D01*
X192069342Y-142238389D01*
X192069347Y-142238391D01*
X192257789Y-142281031D01*
X192257791Y-142281031D01*
X192266686Y-142283044D01*
X192477970Y-142291346D01*
X192687230Y-142261004D01*
X192695872Y-142258071D01*
X192695874Y-142258070D01*
X192878816Y-142195970D01*
X192878820Y-142195968D01*
X192887455Y-142193037D01*
X192895412Y-142188581D01*
X193063988Y-142094174D01*
X193063992Y-142094171D01*
X193071942Y-142089719D01*
X193234512Y-141954512D01*
X193369719Y-141791942D01*
X193374171Y-141783992D01*
X193374174Y-141783988D01*
X193468581Y-141615412D01*
X193468582Y-141615411D01*
X193473037Y-141607455D01*
X193481360Y-141582938D01*
X193538070Y-141415874D01*
X193538071Y-141415872D01*
X193541004Y-141407230D01*
X193560850Y-141270361D01*
X193570507Y-141203759D01*
X193570508Y-141203753D01*
X193571346Y-141197970D01*
X193572929Y-141137500D01*
X193553581Y-140926940D01*
X193500909Y-140740176D01*
X193498661Y-140732206D01*
X193498660Y-140732204D01*
X193496186Y-140723431D01*
X193402665Y-140533790D01*
X193276151Y-140364367D01*
X193269455Y-140358177D01*
X193269452Y-140358174D01*
X193207630Y-140301027D01*
X193120881Y-140220837D01*
X192942054Y-140108005D01*
X192933577Y-140104623D01*
X192933575Y-140104622D01*
X192869979Y-140079250D01*
X192745660Y-140029652D01*
X192538275Y-139988401D01*
X192429905Y-139986982D01*
X192335971Y-139985752D01*
X192335966Y-139985752D01*
X192326846Y-139985633D01*
X192317856Y-139987178D01*
X192317853Y-139987178D01*
X192216613Y-140004574D01*
X192118453Y-140021441D01*
X192109902Y-140024596D01*
X192109897Y-140024597D01*
X191928634Y-140091469D01*
X191928630Y-140091471D01*
X191920075Y-140094627D01*
X191912237Y-140099290D01*
X191912233Y-140099292D01*
X191805267Y-140162930D01*
X191738356Y-140202738D01*
X191731497Y-140208753D01*
X191731493Y-140208756D01*
X191596069Y-140327520D01*
X191579381Y-140342155D01*
X191573731Y-140349322D01*
X191573730Y-140349323D01*
X191556111Y-140371673D01*
X191448476Y-140508208D01*
X191350023Y-140695336D01*
X191347315Y-140704059D01*
X191347314Y-140704060D01*
X191338707Y-140731777D01*
X191294282Y-140808391D01*
X191221014Y-140858143D01*
X191133415Y-140871178D01*
X191048835Y-140844915D01*
X190984027Y-140784554D01*
X190963369Y-140740176D01*
X190961932Y-140740728D01*
X190958661Y-140732206D01*
X190956186Y-140723431D01*
X190862665Y-140533790D01*
X190736151Y-140364367D01*
X190729455Y-140358177D01*
X190729452Y-140358174D01*
X190667630Y-140301027D01*
X190580881Y-140220837D01*
X190402054Y-140108005D01*
X190393577Y-140104623D01*
X190393575Y-140104622D01*
X190329979Y-140079250D01*
X190205660Y-140029652D01*
X189998275Y-139988401D01*
X189889905Y-139986982D01*
X189795971Y-139985752D01*
X189795966Y-139985752D01*
X189786846Y-139985633D01*
X189777856Y-139987178D01*
X189777853Y-139987178D01*
X189676613Y-140004574D01*
X189578453Y-140021441D01*
X189569902Y-140024596D01*
X189569897Y-140024597D01*
X189388634Y-140091469D01*
X189388630Y-140091471D01*
X189380075Y-140094627D01*
X189372237Y-140099290D01*
X189372233Y-140099292D01*
X189265267Y-140162930D01*
X189198356Y-140202738D01*
X189191497Y-140208753D01*
X189191493Y-140208756D01*
X189056069Y-140327520D01*
X189039381Y-140342155D01*
X189033731Y-140349322D01*
X189033730Y-140349323D01*
X189016111Y-140371673D01*
X188908476Y-140508208D01*
X188810023Y-140695336D01*
X188807316Y-140704052D01*
X188807315Y-140704056D01*
X188767767Y-140831423D01*
X188747320Y-140897273D01*
X188722467Y-141107254D01*
X174215694Y-141107254D01*
X174199328Y-140982943D01*
X174172495Y-140918161D01*
X174148851Y-140861078D01*
X174148850Y-140861076D01*
X174143859Y-140849027D01*
X174055619Y-140734031D01*
X173940623Y-140645791D01*
X173928574Y-140640800D01*
X173928572Y-140640799D01*
X173818757Y-140595313D01*
X173818756Y-140595313D01*
X173806707Y-140590322D01*
X173662998Y-140571402D01*
X173519289Y-140590322D01*
X173507240Y-140595313D01*
X173507239Y-140595313D01*
X173397424Y-140640799D01*
X173397422Y-140640800D01*
X173385373Y-140645791D01*
X173270377Y-140734031D01*
X173182137Y-140849027D01*
X173177146Y-140861076D01*
X173177145Y-140861078D01*
X173153501Y-140918161D01*
X173126668Y-140982943D01*
X173107748Y-141126652D01*
X126563000Y-141126652D01*
X126563000Y-139399594D01*
X129018074Y-139399594D01*
X129019619Y-139408584D01*
X129019619Y-139408587D01*
X129025013Y-139439978D01*
X129055438Y-139617043D01*
X129131804Y-139824043D01*
X129244614Y-140013659D01*
X129250627Y-140020515D01*
X129250628Y-140020517D01*
X129272669Y-140045650D01*
X129390090Y-140179543D01*
X129397252Y-140185189D01*
X129397253Y-140185190D01*
X129556196Y-140310490D01*
X129556200Y-140310493D01*
X129563360Y-140316137D01*
X129571431Y-140320383D01*
X129571435Y-140320386D01*
X129714988Y-140395913D01*
X129758620Y-140418869D01*
X129767329Y-140421573D01*
X129767331Y-140421574D01*
X129783302Y-140426533D01*
X129969333Y-140484297D01*
X129978390Y-140485369D01*
X130142660Y-140504812D01*
X130142666Y-140504812D01*
X130148476Y-140505500D01*
X132075970Y-140505500D01*
X132080505Y-140505083D01*
X132080511Y-140505083D01*
X132230626Y-140491289D01*
X132230628Y-140491289D01*
X132239711Y-140490454D01*
X132452064Y-140430565D01*
X132571485Y-140371673D01*
X132641763Y-140337016D01*
X132641764Y-140337015D01*
X132649947Y-140332980D01*
X132666813Y-140320386D01*
X132819420Y-140206428D01*
X132819421Y-140206427D01*
X132826733Y-140200967D01*
X132882330Y-140140822D01*
X132970307Y-140045650D01*
X132970309Y-140045648D01*
X132976501Y-140038949D01*
X133024565Y-139962772D01*
X203304500Y-139962772D01*
X203315364Y-140052547D01*
X203320067Y-140064426D01*
X203320068Y-140064429D01*
X203335982Y-140104622D01*
X203370887Y-140192783D01*
X203462078Y-140312922D01*
X203582217Y-140404113D01*
X203594828Y-140409106D01*
X203710571Y-140454932D01*
X203710574Y-140454933D01*
X203722453Y-140459636D01*
X203812228Y-140470500D01*
X206997772Y-140470500D01*
X207087547Y-140459636D01*
X207099426Y-140454933D01*
X207099429Y-140454932D01*
X207215172Y-140409106D01*
X207227783Y-140404113D01*
X207347922Y-140312922D01*
X207439113Y-140192783D01*
X207474018Y-140104622D01*
X207489932Y-140064429D01*
X207489933Y-140064426D01*
X207494636Y-140052547D01*
X207505500Y-139962772D01*
X207505500Y-138577228D01*
X207494636Y-138487453D01*
X207466242Y-138415736D01*
X207444106Y-138359828D01*
X207439113Y-138347217D01*
X207347922Y-138227078D01*
X207227783Y-138135887D01*
X207202061Y-138125703D01*
X207099429Y-138085068D01*
X207099426Y-138085067D01*
X207087547Y-138080364D01*
X206997772Y-138069500D01*
X203812228Y-138069500D01*
X203722453Y-138080364D01*
X203710574Y-138085067D01*
X203710571Y-138085068D01*
X203607939Y-138125703D01*
X203582217Y-138135887D01*
X203462078Y-138227078D01*
X203370887Y-138347217D01*
X203365894Y-138359828D01*
X203343759Y-138415736D01*
X203315364Y-138487453D01*
X203304500Y-138577228D01*
X203304500Y-139962772D01*
X133024565Y-139962772D01*
X133094236Y-139852350D01*
X133102402Y-139831883D01*
X133172614Y-139655892D01*
X133175994Y-139647421D01*
X133219038Y-139431024D01*
X133221926Y-139210406D01*
X133216526Y-139178976D01*
X133186107Y-139001951D01*
X133184562Y-138992957D01*
X133108196Y-138785957D01*
X132995386Y-138596341D01*
X132978625Y-138577228D01*
X132855924Y-138437315D01*
X132849910Y-138430457D01*
X132842747Y-138424810D01*
X132683804Y-138299510D01*
X132683800Y-138299507D01*
X132676640Y-138293863D01*
X132668569Y-138289617D01*
X132668565Y-138289614D01*
X132489454Y-138195379D01*
X132481380Y-138191131D01*
X132472671Y-138188427D01*
X132472669Y-138188426D01*
X132376024Y-138158417D01*
X132270667Y-138125703D01*
X132261610Y-138124631D01*
X132097340Y-138105188D01*
X132097334Y-138105188D01*
X132091524Y-138104500D01*
X130164030Y-138104500D01*
X130159495Y-138104917D01*
X130159489Y-138104917D01*
X130009374Y-138118711D01*
X130009372Y-138118711D01*
X130000289Y-138119546D01*
X129787936Y-138179435D01*
X129590053Y-138277020D01*
X129582742Y-138282479D01*
X129582741Y-138282480D01*
X129563918Y-138296536D01*
X129413267Y-138409033D01*
X129407071Y-138415736D01*
X129270189Y-138563814D01*
X129263499Y-138571051D01*
X129145764Y-138757650D01*
X129142386Y-138766117D01*
X129142384Y-138766121D01*
X129131055Y-138794519D01*
X129064006Y-138962579D01*
X129020962Y-139178976D01*
X129018074Y-139399594D01*
X126563000Y-139399594D01*
X126563000Y-137487500D01*
X135507750Y-137487500D01*
X135526670Y-137631209D01*
X135531661Y-137643258D01*
X135531661Y-137643259D01*
X135572971Y-137742990D01*
X135582139Y-137765125D01*
X135670379Y-137880121D01*
X135785375Y-137968361D01*
X135797424Y-137973352D01*
X135797426Y-137973353D01*
X135890315Y-138011828D01*
X135919291Y-138023830D01*
X136063000Y-138042750D01*
X136206709Y-138023830D01*
X136235685Y-138011828D01*
X136243565Y-138008564D01*
X175678314Y-138008564D01*
X175697234Y-138152273D01*
X175702225Y-138164322D01*
X175702225Y-138164323D01*
X175728219Y-138227078D01*
X175752703Y-138286189D01*
X175840943Y-138401185D01*
X175955939Y-138489425D01*
X175967988Y-138494416D01*
X175967990Y-138494417D01*
X176077805Y-138539903D01*
X176089855Y-138544894D01*
X176233564Y-138563814D01*
X176377273Y-138544894D01*
X176389323Y-138539903D01*
X176499138Y-138494417D01*
X176499140Y-138494416D01*
X176511189Y-138489425D01*
X176626185Y-138401185D01*
X176714425Y-138286189D01*
X176738910Y-138227078D01*
X176764903Y-138164323D01*
X176764903Y-138164322D01*
X176769894Y-138152273D01*
X176788814Y-138008564D01*
X176769894Y-137864855D01*
X176759439Y-137839613D01*
X176719417Y-137742990D01*
X176719416Y-137742988D01*
X176714425Y-137730939D01*
X176626185Y-137615943D01*
X176511189Y-137527703D01*
X176499140Y-137522712D01*
X176499138Y-137522711D01*
X176389323Y-137477225D01*
X176389322Y-137477225D01*
X176377273Y-137472234D01*
X176233564Y-137453314D01*
X176089855Y-137472234D01*
X176077806Y-137477225D01*
X176077805Y-137477225D01*
X175967990Y-137522711D01*
X175967988Y-137522712D01*
X175955939Y-137527703D01*
X175840943Y-137615943D01*
X175752703Y-137730939D01*
X175747712Y-137742988D01*
X175747711Y-137742990D01*
X175707689Y-137839613D01*
X175697234Y-137864855D01*
X175678314Y-138008564D01*
X136243565Y-138008564D01*
X136328574Y-137973353D01*
X136328576Y-137973352D01*
X136340625Y-137968361D01*
X136455621Y-137880121D01*
X136543861Y-137765125D01*
X136553030Y-137742990D01*
X136594339Y-137643259D01*
X136594339Y-137643258D01*
X136599330Y-137631209D01*
X136618250Y-137487500D01*
X136599330Y-137343791D01*
X136555303Y-137237500D01*
X162107250Y-137237500D01*
X162126170Y-137381209D01*
X162131161Y-137393258D01*
X162131161Y-137393259D01*
X162170197Y-137487500D01*
X162181639Y-137515125D01*
X162269879Y-137630121D01*
X162384875Y-137718361D01*
X162396924Y-137723352D01*
X162396926Y-137723353D01*
X162506741Y-137768839D01*
X162518791Y-137773830D01*
X162662500Y-137792750D01*
X162806209Y-137773830D01*
X162818259Y-137768839D01*
X162928074Y-137723353D01*
X162928076Y-137723352D01*
X162940125Y-137718361D01*
X163055121Y-137630121D01*
X163143361Y-137515125D01*
X163154804Y-137487500D01*
X163193839Y-137393259D01*
X163193839Y-137393258D01*
X163198830Y-137381209D01*
X163217750Y-137237500D01*
X163198830Y-137093791D01*
X163193839Y-137081741D01*
X163148353Y-136971926D01*
X163148352Y-136971924D01*
X163143361Y-136959875D01*
X163055121Y-136844879D01*
X162940125Y-136756639D01*
X162928076Y-136751648D01*
X162928074Y-136751647D01*
X162818259Y-136706161D01*
X162818258Y-136706161D01*
X162806209Y-136701170D01*
X162662500Y-136682250D01*
X162518791Y-136701170D01*
X162506742Y-136706161D01*
X162506741Y-136706161D01*
X162396926Y-136751647D01*
X162396924Y-136751648D01*
X162384875Y-136756639D01*
X162269879Y-136844879D01*
X162181639Y-136959875D01*
X162176648Y-136971924D01*
X162176647Y-136971926D01*
X162131161Y-137081741D01*
X162126170Y-137093791D01*
X162107250Y-137237500D01*
X136555303Y-137237500D01*
X136545528Y-137213901D01*
X136530694Y-137126591D01*
X136545528Y-137061601D01*
X136599330Y-136931709D01*
X136618250Y-136788000D01*
X136599330Y-136644291D01*
X136596517Y-136637500D01*
X177707250Y-136637500D01*
X177726170Y-136781209D01*
X177731161Y-136793258D01*
X177731161Y-136793259D01*
X177756828Y-136855224D01*
X177781639Y-136915125D01*
X177869879Y-137030121D01*
X177984875Y-137118361D01*
X177996924Y-137123352D01*
X177996926Y-137123353D01*
X178058625Y-137148909D01*
X178118791Y-137173830D01*
X178262500Y-137192750D01*
X178406209Y-137173830D01*
X178492855Y-137137940D01*
X178580164Y-137123106D01*
X178665266Y-137147624D01*
X178731303Y-137206638D01*
X178752854Y-137245631D01*
X178781639Y-137315125D01*
X178869879Y-137430121D01*
X178984875Y-137518361D01*
X178996924Y-137523352D01*
X178996926Y-137523353D01*
X179106741Y-137568839D01*
X179118791Y-137573830D01*
X179262500Y-137592750D01*
X179406209Y-137573830D01*
X179418259Y-137568839D01*
X179528074Y-137523353D01*
X179528076Y-137523352D01*
X179540125Y-137518361D01*
X179655121Y-137430121D01*
X179743361Y-137315125D01*
X179776410Y-137235338D01*
X179793839Y-137193259D01*
X179793839Y-137193258D01*
X179798830Y-137181209D01*
X179817750Y-137037500D01*
X179798830Y-136893791D01*
X179793839Y-136881741D01*
X179748353Y-136771926D01*
X179748352Y-136771924D01*
X179743361Y-136759875D01*
X179655121Y-136644879D01*
X179540125Y-136556639D01*
X179528076Y-136551648D01*
X179528074Y-136551647D01*
X179418259Y-136506161D01*
X179418258Y-136506161D01*
X179406209Y-136501170D01*
X179262500Y-136482250D01*
X179118791Y-136501170D01*
X179032145Y-136537060D01*
X178944836Y-136551894D01*
X178859734Y-136527376D01*
X178793697Y-136468362D01*
X178772146Y-136429369D01*
X178743361Y-136359875D01*
X178655121Y-136244879D01*
X178540125Y-136156639D01*
X178528076Y-136151648D01*
X178528074Y-136151647D01*
X178418259Y-136106161D01*
X178418258Y-136106161D01*
X178406209Y-136101170D01*
X178262500Y-136082250D01*
X178118791Y-136101170D01*
X178106742Y-136106161D01*
X178106741Y-136106161D01*
X177996926Y-136151647D01*
X177996924Y-136151648D01*
X177984875Y-136156639D01*
X177869879Y-136244879D01*
X177781639Y-136359875D01*
X177726170Y-136493791D01*
X177707250Y-136637500D01*
X136596517Y-136637500D01*
X136594339Y-136632241D01*
X136548853Y-136522426D01*
X136548852Y-136522424D01*
X136543861Y-136510375D01*
X136455621Y-136395379D01*
X136340625Y-136307139D01*
X136328576Y-136302148D01*
X136328574Y-136302147D01*
X136218759Y-136256661D01*
X136218758Y-136256661D01*
X136206709Y-136251670D01*
X136063000Y-136232750D01*
X135919291Y-136251670D01*
X135907242Y-136256661D01*
X135907241Y-136256661D01*
X135797426Y-136302147D01*
X135797424Y-136302148D01*
X135785375Y-136307139D01*
X135670379Y-136395379D01*
X135582139Y-136510375D01*
X135577148Y-136522424D01*
X135577147Y-136522426D01*
X135531661Y-136632241D01*
X135526670Y-136644291D01*
X135507750Y-136788000D01*
X135526670Y-136931709D01*
X135580472Y-137061599D01*
X135595306Y-137148909D01*
X135580472Y-137213899D01*
X135526670Y-137343791D01*
X135507750Y-137487500D01*
X126563000Y-137487500D01*
X126563000Y-135899594D01*
X129018074Y-135899594D01*
X129019619Y-135908584D01*
X129019619Y-135908587D01*
X129025013Y-135939978D01*
X129055438Y-136117043D01*
X129058597Y-136125606D01*
X129125568Y-136307139D01*
X129131804Y-136324043D01*
X129244614Y-136513659D01*
X129250627Y-136520515D01*
X129250628Y-136520517D01*
X129317352Y-136596601D01*
X129390090Y-136679543D01*
X129397252Y-136685189D01*
X129397253Y-136685190D01*
X129556196Y-136810490D01*
X129556200Y-136810493D01*
X129563360Y-136816137D01*
X129571431Y-136820383D01*
X129571435Y-136820386D01*
X129739794Y-136908964D01*
X129758620Y-136918869D01*
X129767329Y-136921573D01*
X129767331Y-136921574D01*
X129838769Y-136943756D01*
X129969333Y-136984297D01*
X129978390Y-136985369D01*
X130142660Y-137004812D01*
X130142666Y-137004812D01*
X130148476Y-137005500D01*
X132075970Y-137005500D01*
X132080505Y-137005083D01*
X132080511Y-137005083D01*
X132230626Y-136991289D01*
X132230628Y-136991289D01*
X132239711Y-136990454D01*
X132452064Y-136930565D01*
X132649947Y-136832980D01*
X132666813Y-136820386D01*
X132819420Y-136706428D01*
X132819421Y-136706427D01*
X132826733Y-136700967D01*
X132955597Y-136561563D01*
X132970307Y-136545650D01*
X132970309Y-136545648D01*
X132976501Y-136538949D01*
X133094236Y-136352350D01*
X133102402Y-136331883D01*
X133141951Y-136232750D01*
X133175994Y-136147421D01*
X133219038Y-135931024D01*
X133221926Y-135710406D01*
X133216526Y-135678976D01*
X133186107Y-135501951D01*
X133184562Y-135492957D01*
X133108196Y-135285957D01*
X132995386Y-135096341D01*
X132973208Y-135071051D01*
X132855924Y-134937315D01*
X132849910Y-134930457D01*
X132842747Y-134924810D01*
X132683804Y-134799510D01*
X132683800Y-134799507D01*
X132676640Y-134793863D01*
X132668569Y-134789617D01*
X132668565Y-134789614D01*
X132489454Y-134695379D01*
X132481380Y-134691131D01*
X132472671Y-134688427D01*
X132472669Y-134688426D01*
X132376024Y-134658417D01*
X132270667Y-134625703D01*
X132261610Y-134624631D01*
X132097340Y-134605188D01*
X132097334Y-134605188D01*
X132091524Y-134604500D01*
X130164030Y-134604500D01*
X130159495Y-134604917D01*
X130159489Y-134604917D01*
X130009374Y-134618711D01*
X130009372Y-134618711D01*
X130000289Y-134619546D01*
X129787936Y-134679435D01*
X129590053Y-134777020D01*
X129582742Y-134782479D01*
X129582741Y-134782480D01*
X129559935Y-134799510D01*
X129413267Y-134909033D01*
X129263499Y-135071051D01*
X129145764Y-135257650D01*
X129142386Y-135266117D01*
X129142384Y-135266121D01*
X129131055Y-135294519D01*
X129064006Y-135462579D01*
X129020962Y-135678976D01*
X129018074Y-135899594D01*
X126563000Y-135899594D01*
X126563000Y-132737000D01*
X156307250Y-132737000D01*
X156326170Y-132880709D01*
X156331161Y-132892758D01*
X156331161Y-132892759D01*
X156366742Y-132978659D01*
X156381639Y-133014625D01*
X156469879Y-133129621D01*
X156584875Y-133217861D01*
X156596924Y-133222852D01*
X156596926Y-133222853D01*
X156706741Y-133268339D01*
X156718791Y-133273330D01*
X156862500Y-133292250D01*
X157006209Y-133273330D01*
X157018259Y-133268339D01*
X157128074Y-133222853D01*
X157128076Y-133222852D01*
X157140125Y-133217861D01*
X157255121Y-133129621D01*
X157343361Y-133014625D01*
X157358259Y-132978659D01*
X157393839Y-132892759D01*
X157393839Y-132892758D01*
X157398830Y-132880709D01*
X157417750Y-132737000D01*
X157398830Y-132593291D01*
X157343361Y-132459375D01*
X157270633Y-132364594D01*
X203303074Y-132364594D01*
X203304619Y-132373584D01*
X203304619Y-132373587D01*
X203310013Y-132404978D01*
X203340438Y-132582043D01*
X203416804Y-132789043D01*
X203529614Y-132978659D01*
X203535627Y-132985515D01*
X203535628Y-132985517D01*
X203557669Y-133010650D01*
X203675090Y-133144543D01*
X203682252Y-133150189D01*
X203682253Y-133150190D01*
X203841196Y-133275490D01*
X203841200Y-133275493D01*
X203848360Y-133281137D01*
X203856431Y-133285383D01*
X203856435Y-133285386D01*
X204024794Y-133373964D01*
X204043620Y-133383869D01*
X204052329Y-133386573D01*
X204052331Y-133386574D01*
X204068302Y-133391533D01*
X204254333Y-133449297D01*
X204263390Y-133450369D01*
X204427660Y-133469812D01*
X204427666Y-133469812D01*
X204433476Y-133470500D01*
X206360970Y-133470500D01*
X206365505Y-133470083D01*
X206365511Y-133470083D01*
X206515626Y-133456289D01*
X206515628Y-133456289D01*
X206524711Y-133455454D01*
X206737064Y-133395565D01*
X206934947Y-133297980D01*
X206942621Y-133292250D01*
X207104420Y-133171428D01*
X207104421Y-133171427D01*
X207111733Y-133165967D01*
X207242068Y-133024972D01*
X207255307Y-133010650D01*
X207255309Y-133010648D01*
X207261501Y-133003949D01*
X207379236Y-132817350D01*
X207387402Y-132796883D01*
X207457614Y-132620892D01*
X207460994Y-132612421D01*
X207504038Y-132396024D01*
X207506530Y-132205661D01*
X207506807Y-132184531D01*
X207506807Y-132184526D01*
X207506926Y-132175406D01*
X207501526Y-132143976D01*
X207471107Y-131966951D01*
X207469562Y-131957957D01*
X207393196Y-131750957D01*
X207280386Y-131561341D01*
X207258208Y-131536051D01*
X207140924Y-131402315D01*
X207134910Y-131395457D01*
X207127747Y-131389810D01*
X206968804Y-131264510D01*
X206968800Y-131264507D01*
X206961640Y-131258863D01*
X206953569Y-131254617D01*
X206953565Y-131254614D01*
X206774454Y-131160379D01*
X206766380Y-131156131D01*
X206757671Y-131153427D01*
X206757669Y-131153426D01*
X206661023Y-131123417D01*
X206555667Y-131090703D01*
X206546610Y-131089631D01*
X206382340Y-131070188D01*
X206382334Y-131070188D01*
X206376524Y-131069500D01*
X204449030Y-131069500D01*
X204444495Y-131069917D01*
X204444489Y-131069917D01*
X204294374Y-131083711D01*
X204294372Y-131083711D01*
X204285289Y-131084546D01*
X204072936Y-131144435D01*
X203875053Y-131242020D01*
X203867742Y-131247479D01*
X203867741Y-131247480D01*
X203844935Y-131264510D01*
X203698267Y-131374033D01*
X203692071Y-131380736D01*
X203567318Y-131515693D01*
X203548499Y-131536051D01*
X203430764Y-131722650D01*
X203427386Y-131731117D01*
X203427384Y-131731121D01*
X203416055Y-131759519D01*
X203349006Y-131927579D01*
X203305962Y-132143976D01*
X203305431Y-132184531D01*
X203303339Y-132344379D01*
X203303074Y-132364594D01*
X157270633Y-132364594D01*
X157255121Y-132344379D01*
X157140125Y-132256139D01*
X157128076Y-132251148D01*
X157128074Y-132251147D01*
X157018259Y-132205661D01*
X157018258Y-132205661D01*
X157006209Y-132200670D01*
X156862500Y-132181750D01*
X156718791Y-132200670D01*
X156706742Y-132205661D01*
X156706741Y-132205661D01*
X156596926Y-132251147D01*
X156596924Y-132251148D01*
X156584875Y-132256139D01*
X156469879Y-132344379D01*
X156381639Y-132459375D01*
X156326170Y-132593291D01*
X156307250Y-132737000D01*
X126563000Y-132737000D01*
X126563000Y-130538000D01*
X153532250Y-130538000D01*
X153551170Y-130681709D01*
X153556161Y-130693758D01*
X153556161Y-130693759D01*
X153592150Y-130780644D01*
X153606639Y-130815625D01*
X153694879Y-130930621D01*
X153809875Y-131018861D01*
X153821924Y-131023852D01*
X153821926Y-131023853D01*
X153931741Y-131069339D01*
X153943791Y-131074330D01*
X154087500Y-131093250D01*
X154231209Y-131074330D01*
X154243259Y-131069339D01*
X154353074Y-131023853D01*
X154353076Y-131023852D01*
X154365125Y-131018861D01*
X154480121Y-130930621D01*
X154568361Y-130815625D01*
X154582851Y-130780644D01*
X154618839Y-130693759D01*
X154618839Y-130693758D01*
X154623830Y-130681709D01*
X154642750Y-130538000D01*
X154623830Y-130394291D01*
X154615907Y-130375163D01*
X154573353Y-130272426D01*
X154573352Y-130272424D01*
X154568361Y-130260375D01*
X154480121Y-130145379D01*
X154469201Y-130137000D01*
X158207250Y-130137000D01*
X158226170Y-130280709D01*
X158231161Y-130292758D01*
X158231161Y-130292759D01*
X158273217Y-130394291D01*
X158281639Y-130414625D01*
X158369879Y-130529621D01*
X158484875Y-130617861D01*
X158496924Y-130622852D01*
X158496926Y-130622853D01*
X158606741Y-130668339D01*
X158618791Y-130673330D01*
X158762500Y-130692250D01*
X158906209Y-130673330D01*
X158918259Y-130668339D01*
X159028074Y-130622853D01*
X159028076Y-130622852D01*
X159040125Y-130617861D01*
X159141357Y-130540183D01*
X159221853Y-130503255D01*
X159310401Y-130504911D01*
X159383643Y-130540182D01*
X159484875Y-130617861D01*
X159496924Y-130622852D01*
X159496926Y-130622853D01*
X159606741Y-130668339D01*
X159618791Y-130673330D01*
X159762500Y-130692250D01*
X159906209Y-130673330D01*
X159918259Y-130668339D01*
X160028074Y-130622853D01*
X160028076Y-130622852D01*
X160040125Y-130617861D01*
X160155121Y-130529621D01*
X160243361Y-130414625D01*
X160251784Y-130394291D01*
X160293839Y-130292759D01*
X160293839Y-130292758D01*
X160298830Y-130280709D01*
X160317750Y-130137000D01*
X160304650Y-130037500D01*
X175707250Y-130037500D01*
X175726170Y-130181209D01*
X175731161Y-130193258D01*
X175731161Y-130193259D01*
X175774629Y-130298200D01*
X175781639Y-130315125D01*
X175869879Y-130430121D01*
X175984875Y-130518361D01*
X175996924Y-130523352D01*
X175996926Y-130523353D01*
X176106741Y-130568839D01*
X176118791Y-130573830D01*
X176262500Y-130592750D01*
X176406209Y-130573830D01*
X176418259Y-130568839D01*
X176528074Y-130523353D01*
X176528076Y-130523352D01*
X176540125Y-130518361D01*
X176655121Y-130430121D01*
X176743361Y-130315125D01*
X176750372Y-130298200D01*
X176793839Y-130193259D01*
X176793839Y-130193258D01*
X176798830Y-130181209D01*
X176817750Y-130037500D01*
X176813768Y-130007254D01*
X192607467Y-130007254D01*
X192612929Y-130090585D01*
X192620682Y-130208878D01*
X192621296Y-130218249D01*
X192623540Y-130227086D01*
X192623541Y-130227090D01*
X192669290Y-130407222D01*
X192673345Y-130423190D01*
X192761869Y-130615214D01*
X192767132Y-130622661D01*
X192878637Y-130780438D01*
X192878641Y-130780443D01*
X192883905Y-130787891D01*
X193035365Y-130935437D01*
X193042950Y-130940505D01*
X193042951Y-130940506D01*
X193196163Y-131042879D01*
X193211177Y-131052911D01*
X193219556Y-131056511D01*
X193219558Y-131056512D01*
X193261031Y-131074330D01*
X193405453Y-131136378D01*
X193414342Y-131138389D01*
X193414347Y-131138391D01*
X193602789Y-131181031D01*
X193602791Y-131181031D01*
X193611686Y-131183044D01*
X193822970Y-131191346D01*
X194032230Y-131161004D01*
X194040872Y-131158071D01*
X194040874Y-131158070D01*
X194223816Y-131095970D01*
X194223820Y-131095968D01*
X194232455Y-131093037D01*
X194273739Y-131069917D01*
X194408988Y-130994174D01*
X194408992Y-130994171D01*
X194416942Y-130989719D01*
X194579512Y-130854512D01*
X194714719Y-130691942D01*
X194719171Y-130683992D01*
X194719174Y-130683988D01*
X194813581Y-130515412D01*
X194813582Y-130515411D01*
X194818037Y-130507455D01*
X194842087Y-130436607D01*
X194888501Y-130361183D01*
X194963046Y-130313365D01*
X195050956Y-130302627D01*
X195134819Y-130331094D01*
X195198026Y-130393130D01*
X195212855Y-130423416D01*
X195213345Y-130423190D01*
X195301869Y-130615214D01*
X195307132Y-130622661D01*
X195418637Y-130780438D01*
X195418641Y-130780443D01*
X195423905Y-130787891D01*
X195575365Y-130935437D01*
X195582950Y-130940505D01*
X195582951Y-130940506D01*
X195736163Y-131042879D01*
X195751177Y-131052911D01*
X195759556Y-131056511D01*
X195759558Y-131056512D01*
X195801031Y-131074330D01*
X195945453Y-131136378D01*
X195954342Y-131138389D01*
X195954347Y-131138391D01*
X196142789Y-131181031D01*
X196142791Y-131181031D01*
X196151686Y-131183044D01*
X196362970Y-131191346D01*
X196572230Y-131161004D01*
X196580872Y-131158071D01*
X196580874Y-131158070D01*
X196763816Y-131095970D01*
X196763820Y-131095968D01*
X196772455Y-131093037D01*
X196813739Y-131069917D01*
X196948988Y-130994174D01*
X196948992Y-130994171D01*
X196956942Y-130989719D01*
X197119512Y-130854512D01*
X197254719Y-130691942D01*
X197259171Y-130683992D01*
X197259174Y-130683988D01*
X197353581Y-130515412D01*
X197353582Y-130515411D01*
X197358037Y-130507455D01*
X197364914Y-130487198D01*
X197423070Y-130315874D01*
X197423071Y-130315872D01*
X197426004Y-130307230D01*
X197450687Y-130137000D01*
X197455507Y-130103759D01*
X197455508Y-130103753D01*
X197456346Y-130097970D01*
X197457546Y-130052147D01*
X197457776Y-130043354D01*
X197457776Y-130043350D01*
X197457929Y-130037500D01*
X197457393Y-130031666D01*
X197439416Y-129836025D01*
X197439416Y-129836023D01*
X197438581Y-129826940D01*
X197410616Y-129727783D01*
X197383661Y-129632206D01*
X197383660Y-129632204D01*
X197381186Y-129623431D01*
X197287665Y-129433790D01*
X197161151Y-129264367D01*
X197154455Y-129258177D01*
X197154452Y-129258174D01*
X197092630Y-129201027D01*
X197005881Y-129120837D01*
X196827054Y-129008005D01*
X196818577Y-129004623D01*
X196818575Y-129004622D01*
X196754979Y-128979250D01*
X196630660Y-128929652D01*
X196423275Y-128888401D01*
X196314905Y-128886982D01*
X196220971Y-128885752D01*
X196220966Y-128885752D01*
X196211846Y-128885633D01*
X196202856Y-128887178D01*
X196202853Y-128887178D01*
X196101613Y-128904574D01*
X196003453Y-128921441D01*
X195994902Y-128924596D01*
X195994897Y-128924597D01*
X195813634Y-128991469D01*
X195813630Y-128991471D01*
X195805075Y-128994627D01*
X195797237Y-128999290D01*
X195797233Y-128999292D01*
X195690267Y-129062930D01*
X195623356Y-129102738D01*
X195616497Y-129108753D01*
X195616493Y-129108756D01*
X195471242Y-129236138D01*
X195464381Y-129242155D01*
X195458731Y-129249322D01*
X195458730Y-129249323D01*
X195441111Y-129271673D01*
X195333476Y-129408208D01*
X195329226Y-129416286D01*
X195255383Y-129556639D01*
X195235023Y-129595336D01*
X195232315Y-129604059D01*
X195232314Y-129604060D01*
X195223707Y-129631777D01*
X195179282Y-129708391D01*
X195106014Y-129758143D01*
X195018415Y-129771178D01*
X194933835Y-129744915D01*
X194869027Y-129684554D01*
X194848369Y-129640176D01*
X194846932Y-129640728D01*
X194843661Y-129632206D01*
X194841186Y-129623431D01*
X194747665Y-129433790D01*
X194621151Y-129264367D01*
X194614455Y-129258177D01*
X194614452Y-129258174D01*
X194552630Y-129201027D01*
X194465881Y-129120837D01*
X194287054Y-129008005D01*
X194278577Y-129004623D01*
X194278575Y-129004622D01*
X194214979Y-128979250D01*
X194090660Y-128929652D01*
X193883275Y-128888401D01*
X193774905Y-128886982D01*
X193680971Y-128885752D01*
X193680966Y-128885752D01*
X193671846Y-128885633D01*
X193662856Y-128887178D01*
X193662853Y-128887178D01*
X193561613Y-128904574D01*
X193463453Y-128921441D01*
X193454902Y-128924596D01*
X193454897Y-128924597D01*
X193273634Y-128991469D01*
X193273630Y-128991471D01*
X193265075Y-128994627D01*
X193257237Y-128999290D01*
X193257233Y-128999292D01*
X193150267Y-129062930D01*
X193083356Y-129102738D01*
X193076497Y-129108753D01*
X193076493Y-129108756D01*
X192931242Y-129236138D01*
X192924381Y-129242155D01*
X192918731Y-129249322D01*
X192918730Y-129249323D01*
X192901111Y-129271673D01*
X192793476Y-129408208D01*
X192789226Y-129416286D01*
X192715383Y-129556639D01*
X192695023Y-129595336D01*
X192692316Y-129604052D01*
X192692315Y-129604056D01*
X192657813Y-129715172D01*
X192632320Y-129797273D01*
X192631248Y-129806330D01*
X192609120Y-129993291D01*
X192607467Y-130007254D01*
X176813768Y-130007254D01*
X176798830Y-129893791D01*
X176771140Y-129826940D01*
X176748353Y-129771926D01*
X176748352Y-129771924D01*
X176743361Y-129759875D01*
X176655121Y-129644879D01*
X176540125Y-129556639D01*
X176528076Y-129551648D01*
X176528074Y-129551647D01*
X176418259Y-129506161D01*
X176418258Y-129506161D01*
X176406209Y-129501170D01*
X176262500Y-129482250D01*
X176118791Y-129501170D01*
X176106742Y-129506161D01*
X176106741Y-129506161D01*
X175996926Y-129551647D01*
X175996924Y-129551648D01*
X175984875Y-129556639D01*
X175869879Y-129644879D01*
X175781639Y-129759875D01*
X175776648Y-129771924D01*
X175776647Y-129771926D01*
X175753860Y-129826940D01*
X175726170Y-129893791D01*
X175707250Y-130037500D01*
X160304650Y-130037500D01*
X160298830Y-129993291D01*
X160289105Y-129969812D01*
X160248353Y-129871426D01*
X160248352Y-129871424D01*
X160243361Y-129859375D01*
X160155121Y-129744379D01*
X160040125Y-129656139D01*
X160028076Y-129651148D01*
X160028074Y-129651147D01*
X159918259Y-129605661D01*
X159918258Y-129605661D01*
X159906209Y-129600670D01*
X159762500Y-129581750D01*
X159618791Y-129600670D01*
X159606742Y-129605661D01*
X159606741Y-129605661D01*
X159496926Y-129651147D01*
X159496924Y-129651148D01*
X159484875Y-129656139D01*
X159383644Y-129733817D01*
X159303147Y-129770745D01*
X159214599Y-129769089D01*
X159141356Y-129733817D01*
X159040125Y-129656139D01*
X159028076Y-129651148D01*
X159028074Y-129651147D01*
X158918259Y-129605661D01*
X158918258Y-129605661D01*
X158906209Y-129600670D01*
X158762500Y-129581750D01*
X158618791Y-129600670D01*
X158606742Y-129605661D01*
X158606741Y-129605661D01*
X158496926Y-129651147D01*
X158496924Y-129651148D01*
X158484875Y-129656139D01*
X158369879Y-129744379D01*
X158281639Y-129859375D01*
X158276648Y-129871424D01*
X158276647Y-129871426D01*
X158235895Y-129969812D01*
X158226170Y-129993291D01*
X158207250Y-130137000D01*
X154469201Y-130137000D01*
X154365125Y-130057139D01*
X154353076Y-130052148D01*
X154353074Y-130052147D01*
X154243259Y-130006661D01*
X154243258Y-130006661D01*
X154231209Y-130001670D01*
X154087500Y-129982750D01*
X153943791Y-130001670D01*
X153931742Y-130006661D01*
X153931741Y-130006661D01*
X153821926Y-130052147D01*
X153821924Y-130052148D01*
X153809875Y-130057139D01*
X153694879Y-130145379D01*
X153606639Y-130260375D01*
X153601648Y-130272424D01*
X153601647Y-130272426D01*
X153559093Y-130375163D01*
X153551170Y-130394291D01*
X153532250Y-130538000D01*
X126563000Y-130538000D01*
X126563000Y-129497772D01*
X129019500Y-129497772D01*
X129030364Y-129587547D01*
X129035067Y-129599426D01*
X129035068Y-129599429D01*
X129078209Y-129708391D01*
X129085887Y-129727783D01*
X129177078Y-129847922D01*
X129297217Y-129939113D01*
X129309828Y-129944106D01*
X129425571Y-129989932D01*
X129425574Y-129989933D01*
X129437453Y-129994636D01*
X129527228Y-130005500D01*
X132712772Y-130005500D01*
X132802547Y-129994636D01*
X132814426Y-129989933D01*
X132814429Y-129989932D01*
X132930172Y-129944106D01*
X132942783Y-129939113D01*
X133062922Y-129847922D01*
X133154113Y-129727783D01*
X133161791Y-129708391D01*
X133204932Y-129599429D01*
X133204933Y-129599426D01*
X133209636Y-129587547D01*
X133220500Y-129497772D01*
X133220500Y-128112228D01*
X133211457Y-128037500D01*
X142495250Y-128037500D01*
X142514170Y-128181209D01*
X142519161Y-128193258D01*
X142519161Y-128193259D01*
X142551746Y-128271926D01*
X142569639Y-128315125D01*
X142657879Y-128430121D01*
X142772875Y-128518361D01*
X142784924Y-128523352D01*
X142784926Y-128523353D01*
X142894741Y-128568839D01*
X142906791Y-128573830D01*
X143050500Y-128592750D01*
X143194209Y-128573830D01*
X143206259Y-128568839D01*
X143316074Y-128523353D01*
X143316076Y-128523352D01*
X143328125Y-128518361D01*
X143443121Y-128430121D01*
X143531361Y-128315125D01*
X143549255Y-128271926D01*
X143581839Y-128193259D01*
X143581839Y-128193258D01*
X143586830Y-128181209D01*
X143598891Y-128089597D01*
X145155153Y-128089597D01*
X145174073Y-128233306D01*
X145179064Y-128245355D01*
X145179064Y-128245356D01*
X145190070Y-128271926D01*
X145229542Y-128367222D01*
X145317782Y-128482218D01*
X145432778Y-128570458D01*
X145444827Y-128575449D01*
X145444829Y-128575450D01*
X145486596Y-128592750D01*
X145566694Y-128625927D01*
X145710403Y-128644847D01*
X145854112Y-128625927D01*
X145934210Y-128592750D01*
X145975977Y-128575450D01*
X145975979Y-128575449D01*
X145988028Y-128570458D01*
X146030979Y-128537500D01*
X174707250Y-128537500D01*
X174726170Y-128681209D01*
X174781639Y-128815125D01*
X174869879Y-128930121D01*
X174984875Y-129018361D01*
X174996924Y-129023352D01*
X174996926Y-129023353D01*
X175106741Y-129068839D01*
X175118791Y-129073830D01*
X175262500Y-129092750D01*
X175406209Y-129073830D01*
X175418259Y-129068839D01*
X175528074Y-129023353D01*
X175528076Y-129023352D01*
X175540125Y-129018361D01*
X175655121Y-128930121D01*
X175705402Y-128864594D01*
X203303074Y-128864594D01*
X203304619Y-128873584D01*
X203304619Y-128873587D01*
X203310013Y-128904978D01*
X203340438Y-129082043D01*
X203343597Y-129090606D01*
X203407701Y-129264367D01*
X203416804Y-129289043D01*
X203529614Y-129478659D01*
X203535627Y-129485515D01*
X203535628Y-129485517D01*
X203557669Y-129510650D01*
X203675090Y-129644543D01*
X203682252Y-129650189D01*
X203682253Y-129650190D01*
X203841196Y-129775490D01*
X203841200Y-129775493D01*
X203848360Y-129781137D01*
X203856431Y-129785383D01*
X203856435Y-129785386D01*
X203990882Y-129856122D01*
X204043620Y-129883869D01*
X204052329Y-129886573D01*
X204052331Y-129886574D01*
X204068302Y-129891533D01*
X204254333Y-129949297D01*
X204263390Y-129950369D01*
X204427660Y-129969812D01*
X204427666Y-129969812D01*
X204433476Y-129970500D01*
X206360970Y-129970500D01*
X206365505Y-129970083D01*
X206365511Y-129970083D01*
X206515626Y-129956289D01*
X206515628Y-129956289D01*
X206524711Y-129955454D01*
X206737064Y-129895565D01*
X206934947Y-129797980D01*
X206951813Y-129785386D01*
X207104420Y-129671428D01*
X207104421Y-129671427D01*
X207111733Y-129665967D01*
X207184224Y-129587547D01*
X207255307Y-129510650D01*
X207255309Y-129510648D01*
X207261501Y-129503949D01*
X207379236Y-129317350D01*
X207387402Y-129296883D01*
X207420115Y-129214886D01*
X207460994Y-129112421D01*
X207504038Y-128896024D01*
X207505519Y-128782859D01*
X207506807Y-128684531D01*
X207506807Y-128684526D01*
X207506926Y-128675406D01*
X207501526Y-128643976D01*
X207488615Y-128568839D01*
X207469562Y-128457957D01*
X207455230Y-128419108D01*
X207396355Y-128259519D01*
X207396354Y-128259516D01*
X207393196Y-128250957D01*
X207280386Y-128061341D01*
X207258208Y-128036051D01*
X207144789Y-127906722D01*
X207134910Y-127895457D01*
X207116367Y-127880839D01*
X206968804Y-127764510D01*
X206968800Y-127764507D01*
X206961640Y-127758863D01*
X206953569Y-127754617D01*
X206953565Y-127754614D01*
X206774454Y-127660379D01*
X206766380Y-127656131D01*
X206757671Y-127653427D01*
X206757669Y-127653426D01*
X206639314Y-127616676D01*
X206555667Y-127590703D01*
X206546610Y-127589631D01*
X206382340Y-127570188D01*
X206382334Y-127570188D01*
X206376524Y-127569500D01*
X204449030Y-127569500D01*
X204444495Y-127569917D01*
X204444489Y-127569917D01*
X204294374Y-127583711D01*
X204294372Y-127583711D01*
X204285289Y-127584546D01*
X204072936Y-127644435D01*
X203875053Y-127742020D01*
X203867742Y-127747479D01*
X203867741Y-127747480D01*
X203705580Y-127868572D01*
X203698267Y-127874033D01*
X203668050Y-127906722D01*
X203559117Y-128024565D01*
X203548499Y-128036051D01*
X203430764Y-128222650D01*
X203427386Y-128231117D01*
X203427384Y-128231121D01*
X203416055Y-128259519D01*
X203349006Y-128427579D01*
X203305962Y-128643976D01*
X203305644Y-128668278D01*
X203303722Y-128815125D01*
X203303074Y-128864594D01*
X175705402Y-128864594D01*
X175743361Y-128815125D01*
X175798830Y-128681209D01*
X175817750Y-128537500D01*
X175798830Y-128393791D01*
X175787825Y-128367222D01*
X175748353Y-128271926D01*
X175748352Y-128271924D01*
X175743361Y-128259875D01*
X175655121Y-128144879D01*
X175540125Y-128056639D01*
X175528076Y-128051648D01*
X175528074Y-128051647D01*
X175418259Y-128006161D01*
X175418258Y-128006161D01*
X175406209Y-128001170D01*
X175262500Y-127982250D01*
X175118791Y-128001170D01*
X175106742Y-128006161D01*
X175106741Y-128006161D01*
X174996926Y-128051647D01*
X174996924Y-128051648D01*
X174984875Y-128056639D01*
X174869879Y-128144879D01*
X174781639Y-128259875D01*
X174776648Y-128271924D01*
X174776647Y-128271926D01*
X174737175Y-128367222D01*
X174726170Y-128393791D01*
X174707250Y-128537500D01*
X146030979Y-128537500D01*
X146103024Y-128482218D01*
X146191264Y-128367222D01*
X146230737Y-128271926D01*
X146241742Y-128245356D01*
X146241742Y-128245355D01*
X146246733Y-128233306D01*
X146265653Y-128089597D01*
X146246733Y-127945888D01*
X146230510Y-127906722D01*
X146196256Y-127824023D01*
X146196255Y-127824021D01*
X146191264Y-127811972D01*
X146103024Y-127696976D01*
X145988028Y-127608736D01*
X145975979Y-127603745D01*
X145975977Y-127603744D01*
X145866162Y-127558258D01*
X145866161Y-127558258D01*
X145854112Y-127553267D01*
X145710403Y-127534347D01*
X145566694Y-127553267D01*
X145554645Y-127558258D01*
X145554644Y-127558258D01*
X145444829Y-127603744D01*
X145444827Y-127603745D01*
X145432778Y-127608736D01*
X145317782Y-127696976D01*
X145229542Y-127811972D01*
X145224551Y-127824021D01*
X145224550Y-127824023D01*
X145190296Y-127906722D01*
X145174073Y-127945888D01*
X145155153Y-128089597D01*
X143598891Y-128089597D01*
X143605750Y-128037500D01*
X143586830Y-127893791D01*
X143548654Y-127801625D01*
X143536353Y-127771926D01*
X143536352Y-127771924D01*
X143531361Y-127759875D01*
X143443121Y-127644879D01*
X143328125Y-127556639D01*
X143316076Y-127551648D01*
X143316074Y-127551647D01*
X143206259Y-127506161D01*
X143206258Y-127506161D01*
X143194209Y-127501170D01*
X143050500Y-127482250D01*
X142906791Y-127501170D01*
X142894742Y-127506161D01*
X142894741Y-127506161D01*
X142784926Y-127551647D01*
X142784924Y-127551648D01*
X142772875Y-127556639D01*
X142657879Y-127644879D01*
X142569639Y-127759875D01*
X142564648Y-127771924D01*
X142564647Y-127771926D01*
X142552346Y-127801625D01*
X142514170Y-127893791D01*
X142495250Y-128037500D01*
X133211457Y-128037500D01*
X133209636Y-128022453D01*
X133154113Y-127882217D01*
X133062922Y-127762078D01*
X132942783Y-127670887D01*
X132916243Y-127660379D01*
X132814429Y-127620068D01*
X132814426Y-127620067D01*
X132802547Y-127615364D01*
X132712772Y-127604500D01*
X129527228Y-127604500D01*
X129437453Y-127615364D01*
X129425574Y-127620067D01*
X129425571Y-127620068D01*
X129323757Y-127660379D01*
X129297217Y-127670887D01*
X129177078Y-127762078D01*
X129085887Y-127882217D01*
X129030364Y-128022453D01*
X129019500Y-128112228D01*
X129019500Y-129497772D01*
X126563000Y-129497772D01*
X126563000Y-126637500D01*
X145907250Y-126637500D01*
X145926170Y-126781209D01*
X145931161Y-126793258D01*
X145931161Y-126793259D01*
X145942727Y-126821181D01*
X145981639Y-126915125D01*
X146069879Y-127030121D01*
X146184875Y-127118361D01*
X146196924Y-127123352D01*
X146196926Y-127123353D01*
X146306741Y-127168839D01*
X146318791Y-127173830D01*
X146462500Y-127192750D01*
X146606209Y-127173830D01*
X146618259Y-127168839D01*
X146728074Y-127123353D01*
X146728076Y-127123352D01*
X146740125Y-127118361D01*
X146813500Y-127062058D01*
X146893997Y-127025130D01*
X146982545Y-127026786D01*
X147061606Y-127066697D01*
X147115520Y-127136959D01*
X147124367Y-127161503D01*
X147125450Y-127169733D01*
X147180919Y-127303649D01*
X147269159Y-127418645D01*
X147384155Y-127506885D01*
X147396204Y-127511876D01*
X147396206Y-127511877D01*
X147506021Y-127557363D01*
X147518071Y-127562354D01*
X147661780Y-127581274D01*
X147805489Y-127562354D01*
X147848207Y-127544660D01*
X147935513Y-127529826D01*
X148020615Y-127554343D01*
X148086652Y-127613356D01*
X148090276Y-127619005D01*
X148093639Y-127627125D01*
X148181879Y-127742121D01*
X148296875Y-127830361D01*
X148308924Y-127835352D01*
X148308926Y-127835353D01*
X148418741Y-127880839D01*
X148430791Y-127885830D01*
X148574500Y-127904750D01*
X148718209Y-127885830D01*
X148730259Y-127880839D01*
X148840074Y-127835353D01*
X148840076Y-127835352D01*
X148852125Y-127830361D01*
X148967121Y-127742121D01*
X149055361Y-127627125D01*
X149060869Y-127613829D01*
X149105839Y-127505259D01*
X149105839Y-127505258D01*
X149110830Y-127493209D01*
X149129750Y-127349500D01*
X149110830Y-127205791D01*
X149105839Y-127193741D01*
X149060353Y-127083926D01*
X149060352Y-127083924D01*
X149055361Y-127071875D01*
X148967121Y-126956879D01*
X148852125Y-126868639D01*
X148840076Y-126863648D01*
X148840074Y-126863647D01*
X148730259Y-126818161D01*
X148730258Y-126818161D01*
X148718209Y-126813170D01*
X148574500Y-126794250D01*
X148430791Y-126813170D01*
X148388073Y-126830864D01*
X148300767Y-126845698D01*
X148215665Y-126821181D01*
X148149628Y-126762168D01*
X148146004Y-126756519D01*
X148142641Y-126748399D01*
X148054401Y-126633403D01*
X147939405Y-126545163D01*
X147927356Y-126540172D01*
X147927354Y-126540171D01*
X147817539Y-126494685D01*
X147817538Y-126494685D01*
X147805489Y-126489694D01*
X147661780Y-126470774D01*
X147518071Y-126489694D01*
X147506022Y-126494685D01*
X147506021Y-126494685D01*
X147396206Y-126540171D01*
X147396204Y-126540172D01*
X147384155Y-126545163D01*
X147316826Y-126596827D01*
X147310780Y-126601466D01*
X147230283Y-126638394D01*
X147141735Y-126636738D01*
X147062674Y-126596827D01*
X147008760Y-126526565D01*
X146999913Y-126502021D01*
X146998830Y-126493791D01*
X146954112Y-126385830D01*
X146948353Y-126371926D01*
X146948352Y-126371924D01*
X146943361Y-126359875D01*
X146855121Y-126244879D01*
X146740125Y-126156639D01*
X146728076Y-126151648D01*
X146728074Y-126151647D01*
X146618259Y-126106161D01*
X146618258Y-126106161D01*
X146606209Y-126101170D01*
X146462500Y-126082250D01*
X146318791Y-126101170D01*
X146306742Y-126106161D01*
X146306741Y-126106161D01*
X146196926Y-126151647D01*
X146196924Y-126151648D01*
X146184875Y-126156639D01*
X146069879Y-126244879D01*
X145981639Y-126359875D01*
X145976648Y-126371924D01*
X145976647Y-126371926D01*
X145970888Y-126385830D01*
X145926170Y-126493791D01*
X145907250Y-126637500D01*
X126563000Y-126637500D01*
X126563000Y-125393500D01*
X137563250Y-125393500D01*
X137582170Y-125537209D01*
X137587161Y-125549258D01*
X137587161Y-125549259D01*
X137619048Y-125626241D01*
X137637639Y-125671125D01*
X137725879Y-125786121D01*
X137840875Y-125874361D01*
X137852924Y-125879352D01*
X137852926Y-125879353D01*
X137933623Y-125912778D01*
X137974791Y-125929830D01*
X138118500Y-125948750D01*
X138262209Y-125929830D01*
X138303377Y-125912778D01*
X138384074Y-125879353D01*
X138384076Y-125879352D01*
X138396125Y-125874361D01*
X138428524Y-125849500D01*
X140093423Y-125849500D01*
X140112343Y-125993209D01*
X140117334Y-126005258D01*
X140117334Y-126005259D01*
X140159129Y-126106161D01*
X140167812Y-126127125D01*
X140256052Y-126242121D01*
X140371048Y-126330361D01*
X140383097Y-126335352D01*
X140383099Y-126335353D01*
X140471396Y-126371926D01*
X140504964Y-126385830D01*
X140648673Y-126404750D01*
X140792382Y-126385830D01*
X140825950Y-126371926D01*
X140914247Y-126335353D01*
X140914249Y-126335352D01*
X140926298Y-126330361D01*
X141041294Y-126242121D01*
X141129534Y-126127125D01*
X141138218Y-126106161D01*
X141180012Y-126005259D01*
X141180012Y-126005258D01*
X141185003Y-125993209D01*
X141203923Y-125849500D01*
X141195036Y-125782000D01*
X158207250Y-125782000D01*
X158226170Y-125925709D01*
X158281639Y-126059625D01*
X158369879Y-126174621D01*
X158484875Y-126262861D01*
X158496924Y-126267852D01*
X158496926Y-126267853D01*
X158606741Y-126313339D01*
X158618791Y-126318330D01*
X158762500Y-126337250D01*
X158906209Y-126318330D01*
X158918259Y-126313339D01*
X159028074Y-126267853D01*
X159028076Y-126267852D01*
X159040125Y-126262861D01*
X159155121Y-126174621D01*
X159243361Y-126059625D01*
X159298830Y-125925709D01*
X159317750Y-125782000D01*
X159298830Y-125638291D01*
X159271320Y-125571875D01*
X159248353Y-125516426D01*
X159248352Y-125516424D01*
X159243361Y-125504375D01*
X159155121Y-125389379D01*
X159040125Y-125301139D01*
X159028076Y-125296148D01*
X159028074Y-125296147D01*
X158918259Y-125250661D01*
X158918258Y-125250661D01*
X158906209Y-125245670D01*
X158762500Y-125226750D01*
X158618791Y-125245670D01*
X158606742Y-125250661D01*
X158606741Y-125250661D01*
X158496926Y-125296147D01*
X158496924Y-125296148D01*
X158484875Y-125301139D01*
X158369879Y-125389379D01*
X158281639Y-125504375D01*
X158276648Y-125516424D01*
X158276647Y-125516426D01*
X158253680Y-125571875D01*
X158226170Y-125638291D01*
X158207250Y-125782000D01*
X141195036Y-125782000D01*
X141185003Y-125705791D01*
X141170644Y-125671125D01*
X141134526Y-125583926D01*
X141134525Y-125583924D01*
X141129534Y-125571875D01*
X141041294Y-125456879D01*
X140926298Y-125368639D01*
X140914249Y-125363648D01*
X140914247Y-125363647D01*
X140804432Y-125318161D01*
X140804431Y-125318161D01*
X140792382Y-125313170D01*
X140648673Y-125294250D01*
X140504964Y-125313170D01*
X140492915Y-125318161D01*
X140492914Y-125318161D01*
X140383099Y-125363647D01*
X140383097Y-125363648D01*
X140371048Y-125368639D01*
X140256052Y-125456879D01*
X140167812Y-125571875D01*
X140162821Y-125583924D01*
X140162820Y-125583926D01*
X140126702Y-125671125D01*
X140112343Y-125705791D01*
X140093423Y-125849500D01*
X138428524Y-125849500D01*
X138511121Y-125786121D01*
X138599361Y-125671125D01*
X138617953Y-125626241D01*
X138649839Y-125549259D01*
X138649839Y-125549258D01*
X138654830Y-125537209D01*
X138673750Y-125393500D01*
X138654830Y-125249791D01*
X138599361Y-125115875D01*
X138511121Y-125000879D01*
X138396125Y-124912639D01*
X138384076Y-124907648D01*
X138384074Y-124907647D01*
X138274259Y-124862161D01*
X138274258Y-124862161D01*
X138262209Y-124857170D01*
X138118500Y-124838250D01*
X137974791Y-124857170D01*
X137962742Y-124862161D01*
X137962741Y-124862161D01*
X137852926Y-124907647D01*
X137852924Y-124907648D01*
X137840875Y-124912639D01*
X137725879Y-125000879D01*
X137637639Y-125115875D01*
X137582170Y-125249791D01*
X137563250Y-125393500D01*
X126563000Y-125393500D01*
X126563000Y-123450500D01*
X138693708Y-123450500D01*
X138712628Y-123594209D01*
X138768097Y-123728125D01*
X138856337Y-123843121D01*
X138971333Y-123931361D01*
X138983382Y-123936352D01*
X138983384Y-123936353D01*
X139093199Y-123981839D01*
X139105249Y-123986830D01*
X139248958Y-124005750D01*
X139392667Y-123986830D01*
X139404717Y-123981839D01*
X139514532Y-123936353D01*
X139514534Y-123936352D01*
X139526583Y-123931361D01*
X139641579Y-123843121D01*
X139729819Y-123728125D01*
X139785288Y-123594209D01*
X139792754Y-123537500D01*
X153207250Y-123537500D01*
X153226170Y-123681209D01*
X153231161Y-123693258D01*
X153231161Y-123693259D01*
X153249889Y-123738472D01*
X153281639Y-123815125D01*
X153369879Y-123930121D01*
X153484875Y-124018361D01*
X153496924Y-124023352D01*
X153496926Y-124023353D01*
X153606741Y-124068839D01*
X153618791Y-124073830D01*
X153762500Y-124092750D01*
X153906209Y-124073830D01*
X153918259Y-124068839D01*
X154028074Y-124023353D01*
X154028076Y-124023352D01*
X154040125Y-124018361D01*
X154155121Y-123930121D01*
X154243361Y-123815125D01*
X154275112Y-123738472D01*
X154293839Y-123693259D01*
X154293839Y-123693258D01*
X154298830Y-123681209D01*
X154317750Y-123537500D01*
X158207250Y-123537500D01*
X158226170Y-123681209D01*
X158231161Y-123693258D01*
X158231161Y-123693259D01*
X158249889Y-123738472D01*
X158281639Y-123815125D01*
X158369879Y-123930121D01*
X158484875Y-124018361D01*
X158496924Y-124023352D01*
X158496926Y-124023353D01*
X158606741Y-124068839D01*
X158618791Y-124073830D01*
X158762500Y-124092750D01*
X158906209Y-124073830D01*
X158918264Y-124068837D01*
X158924305Y-124067218D01*
X159012807Y-124063906D01*
X159093981Y-124099322D01*
X159151750Y-124166450D01*
X159159662Y-124183281D01*
X159166639Y-124200125D01*
X159254879Y-124315121D01*
X159369875Y-124403361D01*
X159381924Y-124408352D01*
X159381926Y-124408353D01*
X159491741Y-124453839D01*
X159503791Y-124458830D01*
X159647500Y-124477750D01*
X159791209Y-124458830D01*
X159803259Y-124453839D01*
X159913074Y-124408353D01*
X159913076Y-124408352D01*
X159925125Y-124403361D01*
X160040121Y-124315121D01*
X160128361Y-124200125D01*
X160142310Y-124166450D01*
X160178839Y-124078259D01*
X160178839Y-124078258D01*
X160183830Y-124066209D01*
X160202750Y-123922500D01*
X160183830Y-123778791D01*
X160128361Y-123644875D01*
X160040121Y-123529879D01*
X159925125Y-123441639D01*
X159913076Y-123436648D01*
X159913074Y-123436647D01*
X159803259Y-123391161D01*
X159803258Y-123391161D01*
X159791209Y-123386170D01*
X159647500Y-123367250D01*
X159503791Y-123386170D01*
X159491736Y-123391163D01*
X159485695Y-123392782D01*
X159397193Y-123396094D01*
X159316019Y-123360678D01*
X159258250Y-123293550D01*
X159250338Y-123276719D01*
X159248353Y-123271926D01*
X159248352Y-123271924D01*
X159243361Y-123259875D01*
X159155121Y-123144879D01*
X159040125Y-123056639D01*
X159028076Y-123051648D01*
X159028074Y-123051647D01*
X158918259Y-123006161D01*
X158918258Y-123006161D01*
X158906209Y-123001170D01*
X158762500Y-122982250D01*
X158618791Y-123001170D01*
X158606742Y-123006161D01*
X158606741Y-123006161D01*
X158496926Y-123051647D01*
X158496924Y-123051648D01*
X158484875Y-123056639D01*
X158369879Y-123144879D01*
X158281639Y-123259875D01*
X158276648Y-123271924D01*
X158276647Y-123271926D01*
X158237163Y-123367250D01*
X158226170Y-123393791D01*
X158207250Y-123537500D01*
X154317750Y-123537500D01*
X154298830Y-123393791D01*
X154287837Y-123367250D01*
X154248353Y-123271926D01*
X154248352Y-123271924D01*
X154243361Y-123259875D01*
X154155121Y-123144879D01*
X154040125Y-123056639D01*
X154028076Y-123051648D01*
X154028074Y-123051647D01*
X153918259Y-123006161D01*
X153918258Y-123006161D01*
X153906209Y-123001170D01*
X153762500Y-122982250D01*
X153618791Y-123001170D01*
X153606742Y-123006161D01*
X153606741Y-123006161D01*
X153496926Y-123051647D01*
X153496924Y-123051648D01*
X153484875Y-123056639D01*
X153369879Y-123144879D01*
X153281639Y-123259875D01*
X153276648Y-123271924D01*
X153276647Y-123271926D01*
X153237163Y-123367250D01*
X153226170Y-123393791D01*
X153207250Y-123537500D01*
X139792754Y-123537500D01*
X139804208Y-123450500D01*
X139785288Y-123306791D01*
X139780297Y-123294741D01*
X139734811Y-123184926D01*
X139734810Y-123184924D01*
X139729819Y-123172875D01*
X139641579Y-123057879D01*
X139526583Y-122969639D01*
X139514534Y-122964648D01*
X139514532Y-122964647D01*
X139404717Y-122919161D01*
X139404716Y-122919161D01*
X139392667Y-122914170D01*
X139248958Y-122895250D01*
X139105249Y-122914170D01*
X139093200Y-122919161D01*
X139093199Y-122919161D01*
X138983384Y-122964647D01*
X138983382Y-122964648D01*
X138971333Y-122969639D01*
X138856337Y-123057879D01*
X138768097Y-123172875D01*
X138763106Y-123184924D01*
X138763105Y-123184926D01*
X138717619Y-123294741D01*
X138712628Y-123306791D01*
X138693708Y-123450500D01*
X126563000Y-123450500D01*
X126563000Y-120402832D01*
X165244750Y-120402832D01*
X165263670Y-120546541D01*
X165268661Y-120558590D01*
X165268661Y-120558591D01*
X165297714Y-120628731D01*
X165319139Y-120680457D01*
X165407379Y-120795453D01*
X165522375Y-120883693D01*
X165534424Y-120888684D01*
X165534426Y-120888685D01*
X165644241Y-120934171D01*
X165656291Y-120939162D01*
X165800000Y-120958082D01*
X165943709Y-120939162D01*
X165955759Y-120934171D01*
X166065574Y-120888685D01*
X166065576Y-120888684D01*
X166077625Y-120883693D01*
X166192621Y-120795453D01*
X166280861Y-120680457D01*
X166302287Y-120628731D01*
X166331339Y-120558591D01*
X166331339Y-120558590D01*
X166336330Y-120546541D01*
X166355250Y-120402832D01*
X166336330Y-120259123D01*
X166331339Y-120247073D01*
X166288181Y-120142878D01*
X167312628Y-120142878D01*
X167331548Y-120286587D01*
X167336539Y-120298636D01*
X167336539Y-120298637D01*
X167379798Y-120403074D01*
X167387017Y-120420503D01*
X167475257Y-120535499D01*
X167590253Y-120623739D01*
X167602302Y-120628730D01*
X167602304Y-120628731D01*
X167711185Y-120673830D01*
X167724169Y-120679208D01*
X167867878Y-120698128D01*
X168011587Y-120679208D01*
X168024571Y-120673830D01*
X168133452Y-120628731D01*
X168133454Y-120628730D01*
X168145503Y-120623739D01*
X168247549Y-120545436D01*
X168328046Y-120508508D01*
X168416594Y-120510164D01*
X168489836Y-120545436D01*
X168574523Y-120610419D01*
X168574530Y-120610423D01*
X168584875Y-120618361D01*
X168596924Y-120623352D01*
X168596926Y-120623353D01*
X168705696Y-120668406D01*
X168718791Y-120673830D01*
X168862500Y-120692750D01*
X169006209Y-120673830D01*
X169019304Y-120668406D01*
X169128074Y-120623353D01*
X169128076Y-120623352D01*
X169140125Y-120618361D01*
X169255121Y-120530121D01*
X169343361Y-120415125D01*
X169398830Y-120281209D01*
X169417750Y-120137500D01*
X169398830Y-119993791D01*
X169393839Y-119981741D01*
X169348353Y-119871926D01*
X169348352Y-119871924D01*
X169343361Y-119859875D01*
X169255121Y-119744879D01*
X169140125Y-119656639D01*
X169128076Y-119651648D01*
X169128074Y-119651647D01*
X169018259Y-119606161D01*
X169018258Y-119606161D01*
X169006209Y-119601170D01*
X168862500Y-119582250D01*
X168718791Y-119601170D01*
X168706742Y-119606161D01*
X168706741Y-119606161D01*
X168596926Y-119651647D01*
X168596924Y-119651648D01*
X168584875Y-119656639D01*
X168494659Y-119725864D01*
X168482829Y-119734942D01*
X168402332Y-119771870D01*
X168313784Y-119770214D01*
X168240542Y-119734942D01*
X168155855Y-119669959D01*
X168155848Y-119669955D01*
X168145503Y-119662017D01*
X168133454Y-119657026D01*
X168133452Y-119657025D01*
X168023637Y-119611539D01*
X168023636Y-119611539D01*
X168011587Y-119606548D01*
X167867878Y-119587628D01*
X167724169Y-119606548D01*
X167712120Y-119611539D01*
X167712119Y-119611539D01*
X167602304Y-119657025D01*
X167602302Y-119657026D01*
X167590253Y-119662017D01*
X167475257Y-119750257D01*
X167387017Y-119865253D01*
X167382026Y-119877302D01*
X167382025Y-119877304D01*
X167363524Y-119921971D01*
X167331548Y-119999169D01*
X167312628Y-120142878D01*
X166288181Y-120142878D01*
X166285853Y-120137258D01*
X166285852Y-120137256D01*
X166280861Y-120125207D01*
X166192621Y-120010211D01*
X166077625Y-119921971D01*
X166065576Y-119916980D01*
X166065574Y-119916979D01*
X165955759Y-119871493D01*
X165955758Y-119871493D01*
X165943709Y-119866502D01*
X165800000Y-119847582D01*
X165656291Y-119866502D01*
X165644242Y-119871493D01*
X165644241Y-119871493D01*
X165534426Y-119916979D01*
X165534424Y-119916980D01*
X165522375Y-119921971D01*
X165407379Y-120010211D01*
X165319139Y-120125207D01*
X165314148Y-120137256D01*
X165314147Y-120137258D01*
X165268661Y-120247073D01*
X165263670Y-120259123D01*
X165244750Y-120402832D01*
X126563000Y-120402832D01*
X126563000Y-117437500D01*
X165207250Y-117437500D01*
X165226170Y-117581209D01*
X165231161Y-117593258D01*
X165231161Y-117593259D01*
X165267591Y-117681209D01*
X165281639Y-117715125D01*
X165369879Y-117830121D01*
X165484875Y-117918361D01*
X165496924Y-117923352D01*
X165496926Y-117923353D01*
X165599402Y-117965799D01*
X165618791Y-117973830D01*
X165762500Y-117992750D01*
X165906209Y-117973830D01*
X165925598Y-117965799D01*
X166028074Y-117923353D01*
X166028076Y-117923352D01*
X166040125Y-117918361D01*
X166058389Y-117904347D01*
X166140524Y-117841322D01*
X166221022Y-117804394D01*
X166309570Y-117806050D01*
X166388630Y-117845962D01*
X166407977Y-117866046D01*
X166408094Y-117865929D01*
X166417319Y-117875154D01*
X166425257Y-117885499D01*
X166540253Y-117973739D01*
X166552302Y-117978730D01*
X166552304Y-117978731D01*
X166662119Y-118024217D01*
X166674169Y-118029208D01*
X166817878Y-118048128D01*
X166961587Y-118029208D01*
X166973637Y-118024217D01*
X167083452Y-117978731D01*
X167083454Y-117978730D01*
X167095503Y-117973739D01*
X167139969Y-117939619D01*
X167220467Y-117902691D01*
X167309015Y-117904347D01*
X167382257Y-117939619D01*
X167484875Y-118018361D01*
X167496924Y-118023352D01*
X167496926Y-118023353D01*
X167606741Y-118068839D01*
X167618791Y-118073830D01*
X167762500Y-118092750D01*
X167906209Y-118073830D01*
X167918259Y-118068839D01*
X168028074Y-118023353D01*
X168028076Y-118023352D01*
X168040125Y-118018361D01*
X168141357Y-117940683D01*
X168221853Y-117903755D01*
X168310401Y-117905411D01*
X168383643Y-117940682D01*
X168484875Y-118018361D01*
X168496924Y-118023352D01*
X168496926Y-118023353D01*
X168606741Y-118068839D01*
X168618791Y-118073830D01*
X168762500Y-118092750D01*
X168906209Y-118073830D01*
X168918259Y-118068839D01*
X169028074Y-118023353D01*
X169028076Y-118023352D01*
X169040125Y-118018361D01*
X169155121Y-117930121D01*
X169243361Y-117815125D01*
X169249370Y-117800619D01*
X169293839Y-117693259D01*
X169293839Y-117693258D01*
X169298830Y-117681209D01*
X169317750Y-117537500D01*
X169304585Y-117437500D01*
X170207250Y-117437500D01*
X170226170Y-117581209D01*
X170231161Y-117593258D01*
X170231161Y-117593259D01*
X170267591Y-117681209D01*
X170281639Y-117715125D01*
X170369879Y-117830121D01*
X170484875Y-117918361D01*
X170496924Y-117923352D01*
X170496926Y-117923353D01*
X170599402Y-117965799D01*
X170618791Y-117973830D01*
X170762500Y-117992750D01*
X170906209Y-117973830D01*
X170925598Y-117965799D01*
X171028074Y-117923353D01*
X171028076Y-117923352D01*
X171040125Y-117918361D01*
X171155121Y-117830121D01*
X171243361Y-117715125D01*
X171257410Y-117681209D01*
X171293839Y-117593259D01*
X171293839Y-117593258D01*
X171298830Y-117581209D01*
X171317750Y-117437500D01*
X171298830Y-117293791D01*
X171293839Y-117281741D01*
X171248353Y-117171926D01*
X171248352Y-117171924D01*
X171243361Y-117159875D01*
X171155121Y-117044879D01*
X171040125Y-116956639D01*
X171028076Y-116951648D01*
X171028074Y-116951647D01*
X170918259Y-116906161D01*
X170918258Y-116906161D01*
X170906209Y-116901170D01*
X170762500Y-116882250D01*
X170618791Y-116901170D01*
X170606742Y-116906161D01*
X170606741Y-116906161D01*
X170496926Y-116951647D01*
X170496924Y-116951648D01*
X170484875Y-116956639D01*
X170369879Y-117044879D01*
X170281639Y-117159875D01*
X170276648Y-117171924D01*
X170276647Y-117171926D01*
X170231161Y-117281741D01*
X170226170Y-117293791D01*
X170207250Y-117437500D01*
X169304585Y-117437500D01*
X169298830Y-117393791D01*
X169293839Y-117381741D01*
X169248353Y-117271926D01*
X169248352Y-117271924D01*
X169243361Y-117259875D01*
X169155121Y-117144879D01*
X169040125Y-117056639D01*
X169028076Y-117051648D01*
X169028074Y-117051647D01*
X168918259Y-117006161D01*
X168918258Y-117006161D01*
X168906209Y-117001170D01*
X168762500Y-116982250D01*
X168618791Y-117001170D01*
X168606742Y-117006161D01*
X168606741Y-117006161D01*
X168496926Y-117051647D01*
X168496924Y-117051648D01*
X168484875Y-117056639D01*
X168394442Y-117126031D01*
X168383644Y-117134317D01*
X168303147Y-117171245D01*
X168214599Y-117169589D01*
X168141356Y-117134317D01*
X168130558Y-117126031D01*
X168040125Y-117056639D01*
X168028076Y-117051648D01*
X168028074Y-117051647D01*
X167918259Y-117006161D01*
X167918258Y-117006161D01*
X167906209Y-117001170D01*
X167762500Y-116982250D01*
X167618791Y-117001170D01*
X167606742Y-117006161D01*
X167606741Y-117006161D01*
X167496926Y-117051647D01*
X167496924Y-117051648D01*
X167484875Y-117056639D01*
X167474529Y-117064578D01*
X167474527Y-117064579D01*
X167440409Y-117090759D01*
X167359911Y-117127687D01*
X167271363Y-117126031D01*
X167198121Y-117090759D01*
X167151811Y-117055224D01*
X167095503Y-117012017D01*
X167083454Y-117007026D01*
X167083452Y-117007025D01*
X166973637Y-116961539D01*
X166973636Y-116961539D01*
X166961587Y-116956548D01*
X166817878Y-116937628D01*
X166674169Y-116956548D01*
X166662120Y-116961539D01*
X166662119Y-116961539D01*
X166552304Y-117007025D01*
X166552302Y-117007026D01*
X166540253Y-117012017D01*
X166529907Y-117019956D01*
X166529905Y-117019957D01*
X166439854Y-117089056D01*
X166359356Y-117125984D01*
X166270808Y-117124328D01*
X166191748Y-117084416D01*
X166172401Y-117064332D01*
X166172284Y-117064449D01*
X166163059Y-117055224D01*
X166155121Y-117044879D01*
X166040125Y-116956639D01*
X166028076Y-116951648D01*
X166028074Y-116951647D01*
X165918259Y-116906161D01*
X165918258Y-116906161D01*
X165906209Y-116901170D01*
X165762500Y-116882250D01*
X165618791Y-116901170D01*
X165606742Y-116906161D01*
X165606741Y-116906161D01*
X165496926Y-116951647D01*
X165496924Y-116951648D01*
X165484875Y-116956639D01*
X165369879Y-117044879D01*
X165281639Y-117159875D01*
X165276648Y-117171924D01*
X165276647Y-117171926D01*
X165231161Y-117281741D01*
X165226170Y-117293791D01*
X165207250Y-117437500D01*
X126563000Y-117437500D01*
X126563000Y-116032045D01*
X128481106Y-116032045D01*
X128499316Y-116205297D01*
X128555456Y-116370209D01*
X128646738Y-116518586D01*
X128768624Y-116643052D01*
X128915056Y-116737421D01*
X128925509Y-116741226D01*
X128925510Y-116741226D01*
X129068304Y-116793199D01*
X129068309Y-116793200D01*
X129078757Y-116797003D01*
X129213301Y-116814000D01*
X129306300Y-116814000D01*
X129382079Y-116805500D01*
X129424569Y-116800734D01*
X129424572Y-116800733D01*
X129435621Y-116799494D01*
X129600137Y-116742204D01*
X129747873Y-116649888D01*
X129871485Y-116527136D01*
X129964829Y-116380049D01*
X130023267Y-116215936D01*
X130043894Y-116042955D01*
X130042747Y-116032045D01*
X206481106Y-116032045D01*
X206499316Y-116205297D01*
X206555456Y-116370209D01*
X206646738Y-116518586D01*
X206768624Y-116643052D01*
X206915056Y-116737421D01*
X206925509Y-116741226D01*
X206925510Y-116741226D01*
X207068304Y-116793199D01*
X207068309Y-116793200D01*
X207078757Y-116797003D01*
X207213301Y-116814000D01*
X207306300Y-116814000D01*
X207382079Y-116805500D01*
X207424569Y-116800734D01*
X207424572Y-116800733D01*
X207435621Y-116799494D01*
X207600137Y-116742204D01*
X207747873Y-116649888D01*
X207871485Y-116527136D01*
X207964829Y-116380049D01*
X208023267Y-116215936D01*
X208043894Y-116042955D01*
X208025684Y-115869703D01*
X207969544Y-115704791D01*
X207878262Y-115556414D01*
X207756376Y-115431948D01*
X207609944Y-115337579D01*
X207586747Y-115329136D01*
X207456696Y-115281801D01*
X207456691Y-115281800D01*
X207446243Y-115277997D01*
X207311699Y-115261000D01*
X207218700Y-115261000D01*
X207142921Y-115269500D01*
X207100431Y-115274266D01*
X207100428Y-115274267D01*
X207089379Y-115275506D01*
X206924863Y-115332796D01*
X206777127Y-115425112D01*
X206653515Y-115547864D01*
X206560171Y-115694951D01*
X206501733Y-115859064D01*
X206481106Y-116032045D01*
X130042747Y-116032045D01*
X130025684Y-115869703D01*
X129969544Y-115704791D01*
X129878262Y-115556414D01*
X129756376Y-115431948D01*
X129609944Y-115337579D01*
X129586747Y-115329136D01*
X129456696Y-115281801D01*
X129456691Y-115281800D01*
X129446243Y-115277997D01*
X129311699Y-115261000D01*
X129218700Y-115261000D01*
X129142921Y-115269500D01*
X129100431Y-115274266D01*
X129100428Y-115274267D01*
X129089379Y-115275506D01*
X128924863Y-115332796D01*
X128777127Y-115425112D01*
X128653515Y-115547864D01*
X128560171Y-115694951D01*
X128501733Y-115859064D01*
X128481106Y-116032045D01*
X126563000Y-116032045D01*
X126563000Y-115081204D01*
X126564613Y-115062766D01*
X126564613Y-115054644D01*
X126567636Y-115037500D01*
X126564757Y-115021170D01*
X126565226Y-115009220D01*
X126576539Y-114865471D01*
X126581425Y-114834628D01*
X126618054Y-114682060D01*
X126627703Y-114652362D01*
X126687746Y-114507405D01*
X126701922Y-114479583D01*
X126705854Y-114473166D01*
X126783903Y-114345802D01*
X126802249Y-114320551D01*
X126904159Y-114201228D01*
X126926228Y-114179159D01*
X127045551Y-114077249D01*
X127070802Y-114058903D01*
X127204583Y-113976922D01*
X127232405Y-113962746D01*
X127377362Y-113902703D01*
X127407060Y-113893054D01*
X127559628Y-113856425D01*
X127590469Y-113851539D01*
X127734221Y-113840226D01*
X127746170Y-113839757D01*
X127762500Y-113842636D01*
X127779644Y-113839613D01*
X127787766Y-113839613D01*
X127806204Y-113838000D01*
X138144584Y-113838000D01*
X138233580Y-113859009D01*
G37*
G04 #@! TD.AperFunction*
M02*
