G04 #@! TF.GenerationSoftware,KiCad,Pcbnew,6.0.11+dfsg-1*
G04 #@! TF.ProjectId,project,70726f6a-6563-4742-9e6b-696361645f70,rev?*
G04 #@! TF.SameCoordinates,Original*
G04 #@! TF.FileFunction,Soldermask,Bot*
G04 #@! TF.FilePolarity,Negative*
%FSLAX46Y46*%
G04 Gerber Fmt 4.6, Leading zero omitted, Abs format (unit mm)*
%MOMM*%
%LPD*%
G01*
G04 APERTURE LIST*
G04 #@! TA.AperFunction,Profile*
%ADD10C,0.100000*%
G04 #@! TD*
%ADD11C,1.552000*%
%ADD12O,3.600000X1.800000*%
%ADD13C,6.400000*%
%ADD14C,0.900000*%
%ADD15R,1.700000X1.700000*%
%ADD16O,1.700000X1.700000*%
G04 APERTURE END LIST*
D10*
X197262500Y-114037500D02*
X198262500Y-113537500D01*
X142262500Y-154037499D02*
X143262500Y-154537500D01*
X177262500Y-147537500D02*
G75*
G03*
X177262500Y-143537500I0J2000000D01*
G01*
X139262500Y-154037500D02*
X142262500Y-154037499D01*
X194262500Y-154037500D02*
X197262500Y-154037499D01*
X208762500Y-131537500D02*
X208762500Y-136537500D01*
X139262500Y-114037500D02*
X142262500Y-114037500D01*
X208762500Y-154537500D02*
G75*
G03*
X210262500Y-153037500I0J1500000D01*
G01*
X142262500Y-114037500D02*
X143262500Y-113537500D01*
X208762500Y-136537500D02*
G75*
G03*
X209762500Y-137537500I1000000J0D01*
G01*
X198262500Y-113537500D02*
X208762500Y-113537500D01*
X209762500Y-130537500D02*
G75*
G03*
X208762500Y-131537500I0J-1000000D01*
G01*
X138262500Y-113537500D02*
X127762500Y-113537500D01*
X126262500Y-153037500D02*
X126262500Y-115037500D01*
X210262500Y-138037500D02*
X210262500Y-153037500D01*
X127762500Y-113537500D02*
G75*
G03*
X126262500Y-115037500I0J-1500000D01*
G01*
X198262500Y-154537500D02*
X208762500Y-154537500D01*
X197262500Y-154037499D02*
X198262500Y-154537500D01*
X194262500Y-114037500D02*
X197262500Y-114037500D01*
X210262500Y-138037500D02*
G75*
G03*
X209762500Y-137537500I-500000J0D01*
G01*
X138262500Y-154537499D02*
X127762500Y-154537500D01*
X139262500Y-114037500D02*
X138262500Y-113537500D01*
X177262500Y-147537500D02*
X159262500Y-147537500D01*
X126262500Y-153037500D02*
G75*
G03*
X127762500Y-154537500I1500000J0D01*
G01*
X159262500Y-143537500D02*
X177262500Y-143537500D01*
X139262500Y-154037500D02*
X138262500Y-154537499D01*
X209762500Y-130537500D02*
G75*
G03*
X210262500Y-130037500I0J500000D01*
G01*
X210262500Y-130037500D02*
X210262500Y-115037500D01*
X159262500Y-143537500D02*
G75*
G03*
X159262500Y-147537500I0J-2000000D01*
G01*
X143262500Y-113537500D02*
X193262500Y-113537500D01*
X210262500Y-115037500D02*
G75*
G03*
X208762500Y-113537500I-1500000J0D01*
G01*
X194262500Y-154037500D02*
X193262500Y-154537499D01*
X194262500Y-114037500D02*
X193262500Y-113537500D01*
X193262500Y-154537499D02*
X143262500Y-154537500D01*
D11*
X129262500Y-116037500D03*
G36*
G01*
X173287500Y-115477500D02*
X173287500Y-116737500D01*
G75*
G02*
X173217500Y-116807500I-70000J0D01*
G01*
X171757500Y-116807500D01*
G75*
G02*
X171687500Y-116737500I0J70000D01*
G01*
X171687500Y-115477500D01*
G75*
G02*
X171757500Y-115407500I70000J0D01*
G01*
X173217500Y-115407500D01*
G75*
G02*
X173287500Y-115477500I0J-70000D01*
G01*
G37*
G36*
G01*
X164862500Y-115452500D02*
X164862500Y-116622500D01*
G75*
G02*
X164797500Y-116687500I-65000J0D01*
G01*
X162227500Y-116687500D01*
G75*
G02*
X162162500Y-116622500I0J65000D01*
G01*
X162162500Y-115452500D01*
G75*
G02*
X162227500Y-115387500I65000J0D01*
G01*
X164797500Y-115387500D01*
G75*
G02*
X164862500Y-115452500I0J-65000D01*
G01*
G37*
G36*
G01*
X174362500Y-118452500D02*
X174362500Y-119622500D01*
G75*
G02*
X174297500Y-119687500I-65000J0D01*
G01*
X171727500Y-119687500D01*
G75*
G02*
X171662500Y-119622500I0J65000D01*
G01*
X171662500Y-118452500D01*
G75*
G02*
X171727500Y-118387500I65000J0D01*
G01*
X174297500Y-118387500D01*
G75*
G02*
X174362500Y-118452500I0J-65000D01*
G01*
G37*
G36*
G01*
X164837500Y-118337500D02*
X164837500Y-119597500D01*
G75*
G02*
X164767500Y-119667500I-70000J0D01*
G01*
X163307500Y-119667500D01*
G75*
G02*
X163237500Y-119597500I0J70000D01*
G01*
X163237500Y-118337500D01*
G75*
G02*
X163307500Y-118267500I70000J0D01*
G01*
X164767500Y-118267500D01*
G75*
G02*
X164837500Y-118337500I0J-70000D01*
G01*
G37*
G36*
G01*
X206955000Y-140170000D02*
X203855000Y-140170000D01*
G75*
G02*
X203605000Y-139920000I0J250000D01*
G01*
X203605000Y-138620000D01*
G75*
G02*
X203855000Y-138370000I250000J0D01*
G01*
X206955000Y-138370000D01*
G75*
G02*
X207205000Y-138620000I0J-250000D01*
G01*
X207205000Y-139920000D01*
G75*
G02*
X206955000Y-140170000I-250000J0D01*
G01*
G37*
D12*
X205405000Y-135770000D03*
X205405000Y-132270000D03*
X205405000Y-128770000D03*
D13*
X153262500Y-135037500D03*
D14*
X151565444Y-133340444D03*
X150862500Y-135037500D03*
X153262500Y-132637500D03*
X153262500Y-137437500D03*
X154959556Y-133340444D03*
X154959556Y-136734556D03*
X155662500Y-135037500D03*
X151565444Y-136734556D03*
D11*
X207262500Y-116037500D03*
D14*
X183262500Y-137437500D03*
X181565444Y-133340444D03*
X180862500Y-135037500D03*
X183262500Y-132637500D03*
X185662500Y-135037500D03*
X184959556Y-133340444D03*
X184959556Y-136734556D03*
X181565444Y-136734556D03*
D13*
X183262500Y-135037500D03*
G36*
G01*
X129570000Y-127905000D02*
X132670000Y-127905000D01*
G75*
G02*
X132920000Y-128155000I0J-250000D01*
G01*
X132920000Y-129455000D01*
G75*
G02*
X132670000Y-129705000I-250000J0D01*
G01*
X129570000Y-129705000D01*
G75*
G02*
X129320000Y-129455000I0J250000D01*
G01*
X129320000Y-128155000D01*
G75*
G02*
X129570000Y-127905000I250000J0D01*
G01*
G37*
D12*
X131120000Y-132305000D03*
X131120000Y-135805000D03*
X131120000Y-139305000D03*
D11*
X133262500Y-149037500D03*
D15*
X187337500Y-141137500D03*
D16*
X189877500Y-141137500D03*
X192417500Y-141137500D03*
D15*
X182962500Y-144812500D03*
D16*
X182962500Y-147352500D03*
X182962500Y-149892500D03*
D15*
X139587500Y-143785000D03*
D16*
X139587500Y-146325000D03*
X139587500Y-148865000D03*
D15*
X191222500Y-130037500D03*
D16*
X193762500Y-130037500D03*
X196302500Y-130037500D03*
M02*
